M48
; DRILL file {KiCad (5.1.6)-1} date 07/05/20 14:39:05
; FORMAT={-:-/ absolute / inch / decimal}
; #@! TF.CreationDate,2020-07-05T14:39:05+08:00
; #@! TF.GenerationSoftware,Kicad,Pcbnew,(5.1.6)-1
; #@! TF.FileFunction,Plated,1,4,PTH
FMAT,2
INCH
T1C0.0079
T2C0.0315
T3C0.0350
T4C0.0402
T5C0.0642
%
G90
G05
T1
X-2.3533Y1.525
X-1.815Y0.425
X-1.812Y0.4
X-1.765Y0.69
X-1.7263Y1.42
X-1.657Y0.82
X-1.622Y0.38
X-1.5963Y1.485
X-1.5313Y1.46
X-1.5035Y1.4496
X-1.4963Y1.49
X-1.4874Y1.4657
X-1.477Y0.39
X-1.462Y0.635
X-1.445Y1.1
X-1.442Y0.92
X-1.427Y0.395
X-1.4171Y1.1064
X-1.415Y1.065
X-1.402Y0.675
X-1.401Y1.0903
X-1.302Y1.08
X-1.302Y1.015
X-1.302Y0.95
X-1.302Y0.885
X-1.272Y0.46
X-1.167Y1.1
X-1.167Y1.02
X-1.167Y0.955
X-1.167Y0.89
X-1.167Y0.825
X-1.167Y0.76
X-1.122Y0.3525
X-1.1167Y1.3332
X-1.077Y1.25
X-1.037Y0.49
X-1.017Y0.72
X-1.012Y0.575
X-0.987Y0.445
X-0.982Y1.305
X-0.977Y1.155
X-0.962Y1.205
X-0.952Y0.795
X-0.947Y0.93
X-0.942Y0.84
X-0.94Y0.813
X-0.912Y0.85
X-0.892Y1.26
X-0.877Y0.935
X-0.875Y0.803
X-0.872Y1.0
X-0.872Y0.87
X-0.838Y1.1503
X-0.825Y1.435
X-0.8153Y1.1503
X-0.812Y0.815
X-0.807Y1.005
X-0.807Y0.86
X-0.779Y1.1503
X-0.7745Y0.6525
X-0.7745Y0.6125
X-0.7563Y1.1503
X-0.7493Y0.63
X-0.742Y1.0
X-0.742Y0.87
X-0.737Y0.935
X-0.7246Y0.63
X-0.7195Y0.2225
X-0.7045Y0.6525
X-0.7045Y0.6125
X-0.697Y1.155
X-0.697Y0.96
X-0.6925Y0.262
X-0.692Y1.04
X-0.692Y0.81
X-0.685Y0.713
X-0.657Y0.1
X-0.637Y1.165
X-0.607Y0.2
X-0.597Y1.295
X-0.592Y0.945
X-0.587Y0.825
X-0.557Y1.32
X-0.537Y0.1
X-0.5345Y0.73
X-0.502Y1.195
X-0.501Y0.715
X-0.492Y0.8
X-0.452Y0.8
X-0.4458Y0.73
X-0.442Y1.105
X-0.437Y1.01
X-0.437Y0.94
X-0.437Y0.0975
X-0.432Y1.25
X-0.422Y0.85
X-0.312Y0.67
X-0.307Y0.8
X-0.3045Y0.7325
X-0.2745Y0.2825
X-0.2745Y0.2375
X-0.252Y0.2723
X-0.252Y0.2477
X-0.2455Y0.1025
X-0.2295Y0.2825
X-0.2295Y0.2375
X-0.1645Y0.3325
X-0.1245Y0.105
X-0.062Y0.995
X-0.057Y1.14
X-0.0295Y0.1125
T2
X-0.327Y1.17
X-0.327Y0.9779
T3
X-1.8921Y1.1634
X-1.8921Y1.0634
X-1.8921Y0.9634
X-1.8921Y0.8634
X-1.8921Y0.7634
X-1.7921Y1.2134
X-1.7921Y1.1134
X-1.7921Y1.0134
X-1.7921Y0.9134
X-1.7921Y0.8134
T4
X-2.335Y1.249
X-2.335Y1.149
X-2.335Y0.8274
X-2.335Y0.7274
T5
X-2.022Y1.2931
X-2.022Y0.6833
T0
M30
