G04 #@! TF.GenerationSoftware,KiCad,Pcbnew,(5.1.6)-1*
G04 #@! TF.CreationDate,2020-07-05T14:39:03+08:00*
G04 #@! TF.ProjectId,inteli210AT,696e7465-6c69-4323-9130-41542e6b6963,rev?*
G04 #@! TF.SameCoordinates,Original*
G04 #@! TF.FileFunction,Soldermask,Bot*
G04 #@! TF.FilePolarity,Negative*
%FSLAX46Y46*%
G04 Gerber Fmt 4.6, Leading zero omitted, Abs format (unit mm)*
G04 Created by KiCad (PCBNEW (5.1.6)-1) date 2020-07-05 14:39:03*
%MOMM*%
%LPD*%
G01*
G04 APERTURE LIST*
%ADD10C,0.100000*%
G04 APERTURE END LIST*
D10*
G36*
X860000Y-5030400D02*
G01*
X-20476000Y-5030400D01*
X-20476000Y1319600D01*
X860000Y1319600D01*
X860000Y-5030400D01*
G37*
X860000Y-5030400D02*
X-20476000Y-5030400D01*
X-20476000Y1319600D01*
X860000Y1319600D01*
X860000Y-5030400D01*
G36*
X-249000Y-3197400D02*
G01*
X-7051000Y-3197400D01*
X-7051000Y1204600D01*
X-249000Y1204600D01*
X-249000Y-3197400D01*
G37*
G36*
X-9249000Y-3197400D02*
G01*
X-19051000Y-3197400D01*
X-19051000Y-2222399D01*
X-19053402Y-2198013D01*
X-19060515Y-2174564D01*
X-19072066Y-2152953D01*
X-19087611Y-2134011D01*
X-19106553Y-2118466D01*
X-19128164Y-2106915D01*
X-19151613Y-2099802D01*
X-19175999Y-2097400D01*
X-20051000Y-2097400D01*
X-20051000Y1204600D01*
X-9249000Y1204600D01*
X-9249000Y-3197400D01*
G37*
G36*
X-59024744Y6208702D02*
G01*
X-58918421Y6187553D01*
X-58617958Y6063097D01*
X-58347549Y5882415D01*
X-58117585Y5652451D01*
X-57936903Y5382042D01*
X-57812447Y5081579D01*
X-57749000Y4762609D01*
X-57749000Y4437391D01*
X-57812447Y4118421D01*
X-57936903Y3817958D01*
X-58117585Y3547549D01*
X-58347549Y3317585D01*
X-58617958Y3136903D01*
X-58918421Y3012447D01*
X-59024744Y2991298D01*
X-59237389Y2949000D01*
X-59562611Y2949000D01*
X-59775256Y2991298D01*
X-59881579Y3012447D01*
X-60182042Y3136903D01*
X-60452451Y3317585D01*
X-60682415Y3547549D01*
X-60863097Y3817958D01*
X-60987553Y4118421D01*
X-61051000Y4437391D01*
X-61051000Y4762609D01*
X-60987553Y5081579D01*
X-60863097Y5382042D01*
X-60682415Y5652451D01*
X-60452451Y5882415D01*
X-60182042Y6063097D01*
X-59881579Y6187553D01*
X-59775256Y6208702D01*
X-59562611Y6251000D01*
X-59237389Y6251000D01*
X-59024744Y6208702D01*
G37*
G36*
X-50987135Y18579561D02*
G01*
X-50755373Y18483562D01*
X-50755372Y18483561D01*
X-50546791Y18344192D01*
X-50369408Y18166809D01*
X-50369407Y18166807D01*
X-50230038Y17958227D01*
X-50134039Y17726465D01*
X-50085100Y17480430D01*
X-50085100Y17229570D01*
X-50134039Y16983535D01*
X-50230038Y16751773D01*
X-50230039Y16751772D01*
X-50369408Y16543191D01*
X-50546791Y16365808D01*
X-50651790Y16295650D01*
X-50755373Y16226438D01*
X-50987135Y16130439D01*
X-51233170Y16081500D01*
X-51484030Y16081500D01*
X-51730065Y16130439D01*
X-51961827Y16226438D01*
X-52065410Y16295650D01*
X-52170409Y16365808D01*
X-52347792Y16543191D01*
X-52487161Y16751772D01*
X-52487162Y16751773D01*
X-52583161Y16983535D01*
X-52632100Y17229570D01*
X-52632100Y17480430D01*
X-52583161Y17726465D01*
X-52487162Y17958227D01*
X-52347793Y18166807D01*
X-52347792Y18166809D01*
X-52170409Y18344192D01*
X-51961828Y18483561D01*
X-51961827Y18483562D01*
X-51730065Y18579561D01*
X-51484030Y18628500D01*
X-51233170Y18628500D01*
X-50987135Y18579561D01*
G37*
G36*
X-59070583Y19259642D02*
G01*
X-58996330Y19228885D01*
X-58922079Y19198130D01*
X-58922078Y19198129D01*
X-58788433Y19108831D01*
X-58674769Y18995167D01*
X-58619134Y18911903D01*
X-58585470Y18861521D01*
X-58563068Y18807437D01*
X-58523958Y18713017D01*
X-58492600Y18555370D01*
X-58492600Y18394630D01*
X-58523958Y18236983D01*
X-58553025Y18166809D01*
X-58585470Y18088479D01*
X-58585471Y18088478D01*
X-58674769Y17954833D01*
X-58788433Y17841169D01*
X-58888667Y17774196D01*
X-58922079Y17751870D01*
X-58983411Y17726466D01*
X-59070583Y17690358D01*
X-59228230Y17659000D01*
X-59388970Y17659000D01*
X-59546617Y17690358D01*
X-59633789Y17726466D01*
X-59695121Y17751870D01*
X-59728533Y17774196D01*
X-59828767Y17841169D01*
X-59942431Y17954833D01*
X-60031729Y18088478D01*
X-60031730Y18088479D01*
X-60064175Y18166809D01*
X-60093242Y18236983D01*
X-60124600Y18394630D01*
X-60124600Y18555370D01*
X-60093242Y18713017D01*
X-60054132Y18807437D01*
X-60031730Y18861521D01*
X-59998066Y18911903D01*
X-59942431Y18995167D01*
X-59828767Y19108831D01*
X-59695122Y19198129D01*
X-59695121Y19198130D01*
X-59620870Y19228885D01*
X-59546617Y19259642D01*
X-59388970Y19291000D01*
X-59228230Y19291000D01*
X-59070583Y19259642D01*
G37*
G36*
X-53919729Y20996592D02*
G01*
X-53614717Y20870252D01*
X-53340213Y20686834D01*
X-53106766Y20453387D01*
X-52923348Y20178883D01*
X-52797008Y19873871D01*
X-52732600Y19550072D01*
X-52732600Y19219928D01*
X-52797008Y18896129D01*
X-52923348Y18591117D01*
X-53106766Y18316613D01*
X-53340213Y18083166D01*
X-53614717Y17899748D01*
X-53919729Y17773408D01*
X-54243527Y17709000D01*
X-54573673Y17709000D01*
X-54897471Y17773408D01*
X-55202483Y17899748D01*
X-55476987Y18083166D01*
X-55710434Y18316613D01*
X-55893852Y18591117D01*
X-56020192Y18896129D01*
X-56084600Y19219928D01*
X-56084600Y19550072D01*
X-56020192Y19873871D01*
X-55893852Y20178883D01*
X-55710434Y20453387D01*
X-55476987Y20686834D01*
X-55202483Y20870252D01*
X-54897471Y20996592D01*
X-54573673Y21061000D01*
X-54243527Y21061000D01*
X-53919729Y20996592D01*
G37*
G36*
X-47839834Y20111179D02*
G01*
X-47703343Y20054642D01*
X-47580503Y19972563D01*
X-47476037Y19868097D01*
X-47393958Y19745257D01*
X-47337421Y19608766D01*
X-47308600Y19463870D01*
X-47308600Y19316130D01*
X-47337421Y19171234D01*
X-47393958Y19034743D01*
X-47476037Y18911903D01*
X-47580503Y18807437D01*
X-47703343Y18725358D01*
X-47839834Y18668821D01*
X-47984730Y18640000D01*
X-48132470Y18640000D01*
X-48277366Y18668821D01*
X-48413857Y18725358D01*
X-48536697Y18807437D01*
X-48641163Y18911903D01*
X-48723242Y19034743D01*
X-48779779Y19171234D01*
X-48808600Y19316130D01*
X-48808600Y19463870D01*
X-48779779Y19608766D01*
X-48723242Y19745257D01*
X-48641163Y19868097D01*
X-48536697Y19972563D01*
X-48413857Y20054642D01*
X-48277366Y20111179D01*
X-48132470Y20140000D01*
X-47984730Y20140000D01*
X-47839834Y20111179D01*
G37*
G36*
X-45299834Y21381179D02*
G01*
X-45163343Y21324642D01*
X-45040503Y21242563D01*
X-44936037Y21138097D01*
X-44853958Y21015257D01*
X-44797421Y20878766D01*
X-44768600Y20733870D01*
X-44768600Y20586130D01*
X-44797421Y20441234D01*
X-44853958Y20304743D01*
X-44936037Y20181903D01*
X-45040503Y20077437D01*
X-45163343Y19995358D01*
X-45299834Y19938821D01*
X-45444730Y19910000D01*
X-45592470Y19910000D01*
X-45737366Y19938821D01*
X-45873857Y19995358D01*
X-45996697Y20077437D01*
X-46101163Y20181903D01*
X-46183242Y20304743D01*
X-46239779Y20441234D01*
X-46268600Y20586130D01*
X-46268600Y20733870D01*
X-46239779Y20878766D01*
X-46183242Y21015257D01*
X-46101163Y21138097D01*
X-45996697Y21242563D01*
X-45873857Y21324642D01*
X-45737366Y21381179D01*
X-45592470Y21410000D01*
X-45444730Y21410000D01*
X-45299834Y21381179D01*
G37*
G36*
X-59070583Y21799642D02*
G01*
X-58922079Y21738130D01*
X-58922078Y21738129D01*
X-58788433Y21648831D01*
X-58674769Y21535167D01*
X-58619134Y21451903D01*
X-58585470Y21401521D01*
X-58577044Y21381178D01*
X-58523958Y21253017D01*
X-58492600Y21095370D01*
X-58492600Y20934630D01*
X-58523958Y20776983D01*
X-58554715Y20702730D01*
X-58585470Y20628479D01*
X-58585471Y20628478D01*
X-58674769Y20494833D01*
X-58788433Y20381169D01*
X-58888667Y20314195D01*
X-58922079Y20291870D01*
X-58996330Y20261115D01*
X-59070583Y20230358D01*
X-59228230Y20199000D01*
X-59388970Y20199000D01*
X-59546617Y20230358D01*
X-59620870Y20261115D01*
X-59695121Y20291870D01*
X-59728533Y20314196D01*
X-59828767Y20381169D01*
X-59942431Y20494833D01*
X-60031729Y20628478D01*
X-60031730Y20628479D01*
X-60062485Y20702730D01*
X-60093242Y20776983D01*
X-60124600Y20934630D01*
X-60124600Y21095370D01*
X-60093242Y21253017D01*
X-60040156Y21381178D01*
X-60031730Y21401521D01*
X-59998066Y21451903D01*
X-59942431Y21535167D01*
X-59828767Y21648831D01*
X-59695122Y21738129D01*
X-59695121Y21738130D01*
X-59546617Y21799642D01*
X-59388970Y21831000D01*
X-59228230Y21831000D01*
X-59070583Y21799642D01*
G37*
G36*
X-47839834Y22651179D02*
G01*
X-47703343Y22594642D01*
X-47580503Y22512563D01*
X-47476037Y22408097D01*
X-47393958Y22285257D01*
X-47337421Y22148766D01*
X-47308600Y22003870D01*
X-47308600Y21856130D01*
X-47337421Y21711234D01*
X-47393958Y21574743D01*
X-47476037Y21451903D01*
X-47580503Y21347437D01*
X-47703343Y21265358D01*
X-47839834Y21208821D01*
X-47984730Y21180000D01*
X-48132470Y21180000D01*
X-48277366Y21208821D01*
X-48413857Y21265358D01*
X-48536697Y21347437D01*
X-48641163Y21451903D01*
X-48723242Y21574743D01*
X-48779779Y21711234D01*
X-48808600Y21856130D01*
X-48808600Y22003870D01*
X-48779779Y22148766D01*
X-48723242Y22285257D01*
X-48641163Y22408097D01*
X-48536697Y22512563D01*
X-48413857Y22594642D01*
X-48277366Y22651179D01*
X-48132470Y22680000D01*
X-47984730Y22680000D01*
X-47839834Y22651179D01*
G37*
G36*
X-45299834Y23921179D02*
G01*
X-45163343Y23864642D01*
X-45040503Y23782563D01*
X-44936037Y23678097D01*
X-44853958Y23555257D01*
X-44797421Y23418766D01*
X-44768600Y23273870D01*
X-44768600Y23126130D01*
X-44797421Y22981234D01*
X-44853958Y22844743D01*
X-44936037Y22721903D01*
X-45040503Y22617437D01*
X-45163343Y22535358D01*
X-45299834Y22478821D01*
X-45444730Y22450000D01*
X-45592470Y22450000D01*
X-45737366Y22478821D01*
X-45873857Y22535358D01*
X-45996697Y22617437D01*
X-46101163Y22721903D01*
X-46183242Y22844743D01*
X-46239779Y22981234D01*
X-46268600Y23126130D01*
X-46268600Y23273870D01*
X-46239779Y23418766D01*
X-46183242Y23555257D01*
X-46101163Y23678097D01*
X-45996697Y23782563D01*
X-45873857Y23864642D01*
X-45737366Y23921179D01*
X-45592470Y23950000D01*
X-45444730Y23950000D01*
X-45299834Y23921179D01*
G37*
G36*
X-47839834Y25191179D02*
G01*
X-47703343Y25134642D01*
X-47580503Y25052563D01*
X-47476037Y24948097D01*
X-47393958Y24825257D01*
X-47337421Y24688766D01*
X-47308600Y24543870D01*
X-47308600Y24396130D01*
X-47337421Y24251234D01*
X-47393958Y24114743D01*
X-47476037Y23991903D01*
X-47580503Y23887437D01*
X-47703343Y23805358D01*
X-47839834Y23748821D01*
X-47984730Y23720000D01*
X-48132470Y23720000D01*
X-48277366Y23748821D01*
X-48413857Y23805358D01*
X-48536697Y23887437D01*
X-48641163Y23991903D01*
X-48723242Y24114743D01*
X-48779779Y24251234D01*
X-48808600Y24396130D01*
X-48808600Y24543870D01*
X-48779779Y24688766D01*
X-48723242Y24825257D01*
X-48641163Y24948097D01*
X-48536697Y25052563D01*
X-48413857Y25134642D01*
X-48277366Y25191179D01*
X-48132470Y25220000D01*
X-47984730Y25220000D01*
X-47839834Y25191179D01*
G37*
G36*
X-8071958Y25608219D02*
G01*
X-7926186Y25547838D01*
X-7926184Y25547837D01*
X-7794992Y25460178D01*
X-7683422Y25348608D01*
X-7625488Y25261903D01*
X-7595762Y25217414D01*
X-7535381Y25071642D01*
X-7504600Y24916893D01*
X-7504600Y24759107D01*
X-7535381Y24604358D01*
X-7595762Y24458586D01*
X-7595763Y24458584D01*
X-7683422Y24327392D01*
X-7794992Y24215822D01*
X-7926184Y24128163D01*
X-7926185Y24128162D01*
X-7926186Y24128162D01*
X-8071958Y24067781D01*
X-8226707Y24037000D01*
X-8384493Y24037000D01*
X-8539242Y24067781D01*
X-8685014Y24128162D01*
X-8685015Y24128162D01*
X-8685016Y24128163D01*
X-8816208Y24215822D01*
X-8927778Y24327392D01*
X-9015437Y24458584D01*
X-9015438Y24458586D01*
X-9075819Y24604358D01*
X-9106600Y24759107D01*
X-9106600Y24916893D01*
X-9075819Y25071642D01*
X-9015438Y25217414D01*
X-8985712Y25261903D01*
X-8927778Y25348608D01*
X-8816208Y25460178D01*
X-8685016Y25547837D01*
X-8685014Y25547838D01*
X-8539242Y25608219D01*
X-8384493Y25639000D01*
X-8226707Y25639000D01*
X-8071958Y25608219D01*
G37*
G36*
X-45299834Y26461179D02*
G01*
X-45163343Y26404642D01*
X-45040503Y26322563D01*
X-44936037Y26218097D01*
X-44853958Y26095257D01*
X-44797421Y25958766D01*
X-44768600Y25813870D01*
X-44768600Y25666130D01*
X-44797421Y25521234D01*
X-44853958Y25384743D01*
X-44936037Y25261903D01*
X-45040503Y25157437D01*
X-45163343Y25075358D01*
X-45299834Y25018821D01*
X-45444730Y24990000D01*
X-45592470Y24990000D01*
X-45737366Y25018821D01*
X-45873857Y25075358D01*
X-45996697Y25157437D01*
X-46101163Y25261903D01*
X-46183242Y25384743D01*
X-46239779Y25521234D01*
X-46268600Y25666130D01*
X-46268600Y25813870D01*
X-46239779Y25958766D01*
X-46183242Y26095257D01*
X-46101163Y26218097D01*
X-45996697Y26322563D01*
X-45873857Y26404642D01*
X-45737366Y26461179D01*
X-45592470Y26490000D01*
X-45444730Y26490000D01*
X-45299834Y26461179D01*
G37*
G36*
X-47839834Y27731179D02*
G01*
X-47703343Y27674642D01*
X-47580503Y27592563D01*
X-47476037Y27488097D01*
X-47393958Y27365257D01*
X-47337421Y27228766D01*
X-47308600Y27083870D01*
X-47308600Y26936130D01*
X-47337421Y26791234D01*
X-47393958Y26654743D01*
X-47476037Y26531903D01*
X-47580503Y26427437D01*
X-47703343Y26345358D01*
X-47839834Y26288821D01*
X-47984730Y26260000D01*
X-48132470Y26260000D01*
X-48277366Y26288821D01*
X-48413857Y26345358D01*
X-48536697Y26427437D01*
X-48641163Y26531903D01*
X-48723242Y26654743D01*
X-48779779Y26791234D01*
X-48808600Y26936130D01*
X-48808600Y27083870D01*
X-48779779Y27228766D01*
X-48723242Y27365257D01*
X-48641163Y27488097D01*
X-48536697Y27592563D01*
X-48413857Y27674642D01*
X-48277366Y27731179D01*
X-48132470Y27760000D01*
X-47984730Y27760000D01*
X-47839834Y27731179D01*
G37*
G36*
X-45299834Y29001179D02*
G01*
X-45163343Y28944642D01*
X-45040503Y28862563D01*
X-44936037Y28758097D01*
X-44853958Y28635257D01*
X-44797421Y28498766D01*
X-44768600Y28353870D01*
X-44768600Y28206130D01*
X-44797421Y28061234D01*
X-44853958Y27924743D01*
X-44936037Y27801903D01*
X-45040503Y27697437D01*
X-45163343Y27615358D01*
X-45299834Y27558821D01*
X-45444730Y27530000D01*
X-45592470Y27530000D01*
X-45737366Y27558821D01*
X-45873857Y27615358D01*
X-45996697Y27697437D01*
X-46101163Y27801903D01*
X-46183242Y27924743D01*
X-46239779Y28061234D01*
X-46268600Y28206130D01*
X-46268600Y28353870D01*
X-46239779Y28498766D01*
X-46183242Y28635257D01*
X-46101163Y28758097D01*
X-45996697Y28862563D01*
X-45873857Y28944642D01*
X-45737366Y29001179D01*
X-45592470Y29030000D01*
X-45444730Y29030000D01*
X-45299834Y29001179D01*
G37*
G36*
X-59070583Y29969642D02*
G01*
X-58996330Y29938885D01*
X-58922079Y29908130D01*
X-58922078Y29908129D01*
X-58788433Y29818831D01*
X-58674769Y29705167D01*
X-58607796Y29604933D01*
X-58585470Y29571521D01*
X-58561299Y29513166D01*
X-58523958Y29423017D01*
X-58492600Y29265370D01*
X-58492600Y29104630D01*
X-58523958Y28946983D01*
X-58585470Y28798479D01*
X-58585471Y28798478D01*
X-58674769Y28664833D01*
X-58788433Y28551169D01*
X-58888667Y28484195D01*
X-58922079Y28461870D01*
X-59070583Y28400358D01*
X-59228230Y28369000D01*
X-59388970Y28369000D01*
X-59546617Y28400358D01*
X-59695121Y28461870D01*
X-59728533Y28484196D01*
X-59828767Y28551169D01*
X-59942431Y28664833D01*
X-60031729Y28798478D01*
X-60031730Y28798479D01*
X-60062485Y28872730D01*
X-60093242Y28946983D01*
X-60124600Y29104630D01*
X-60124600Y29265370D01*
X-60093242Y29423017D01*
X-60055901Y29513166D01*
X-60031730Y29571521D01*
X-60009405Y29604933D01*
X-59942431Y29705167D01*
X-59828767Y29818831D01*
X-59695122Y29908129D01*
X-59695121Y29908130D01*
X-59620870Y29938885D01*
X-59546617Y29969642D01*
X-59388970Y30001000D01*
X-59228230Y30001000D01*
X-59070583Y29969642D01*
G37*
G36*
X-47308600Y28800000D02*
G01*
X-48808600Y28800000D01*
X-48808600Y30300000D01*
X-47308600Y30300000D01*
X-47308600Y28800000D01*
G37*
G36*
X-8071958Y30488219D02*
G01*
X-7926186Y30427838D01*
X-7926184Y30427837D01*
X-7794992Y30340178D01*
X-7683422Y30228608D01*
X-7596702Y30098821D01*
X-7595762Y30097414D01*
X-7535381Y29951642D01*
X-7504600Y29796893D01*
X-7504600Y29639107D01*
X-7535381Y29484358D01*
X-7595762Y29338586D01*
X-7595763Y29338584D01*
X-7683422Y29207392D01*
X-7794992Y29095822D01*
X-7926184Y29008163D01*
X-7926185Y29008162D01*
X-7926186Y29008162D01*
X-8071958Y28947781D01*
X-8226707Y28917000D01*
X-8384493Y28917000D01*
X-8539242Y28947781D01*
X-8685014Y29008162D01*
X-8685015Y29008162D01*
X-8685016Y29008163D01*
X-8816208Y29095822D01*
X-8927778Y29207392D01*
X-9015437Y29338584D01*
X-9015438Y29338586D01*
X-9075819Y29484358D01*
X-9106600Y29639107D01*
X-9106600Y29796893D01*
X-9075819Y29951642D01*
X-9015438Y30097414D01*
X-9014498Y30098821D01*
X-8927778Y30228608D01*
X-8816208Y30340178D01*
X-8685016Y30427837D01*
X-8685014Y30427838D01*
X-8539242Y30488219D01*
X-8384493Y30519000D01*
X-8226707Y30519000D01*
X-8071958Y30488219D01*
G37*
G36*
X-54155726Y32473535D02*
G01*
X-53919729Y32426592D01*
X-53614717Y32300252D01*
X-53340213Y32116834D01*
X-53106766Y31883387D01*
X-52923348Y31608883D01*
X-52797008Y31303871D01*
X-52732600Y30980072D01*
X-52732600Y30649928D01*
X-52797008Y30326129D01*
X-52923348Y30021117D01*
X-53106766Y29746613D01*
X-53340213Y29513166D01*
X-53614717Y29329748D01*
X-53919729Y29203408D01*
X-54081629Y29171204D01*
X-54243527Y29139000D01*
X-54573673Y29139000D01*
X-54735571Y29171204D01*
X-54897471Y29203408D01*
X-55202483Y29329748D01*
X-55476987Y29513166D01*
X-55710434Y29746613D01*
X-55893852Y30021117D01*
X-56020192Y30326129D01*
X-56084600Y30649928D01*
X-56084600Y30980072D01*
X-56020192Y31303871D01*
X-55893852Y31608883D01*
X-55710434Y31883387D01*
X-55476987Y32116834D01*
X-55202483Y32300252D01*
X-54897471Y32426592D01*
X-54661474Y32473535D01*
X-54573673Y32491000D01*
X-54243527Y32491000D01*
X-54155726Y32473535D01*
G37*
G36*
X-45299834Y31541179D02*
G01*
X-45163343Y31484642D01*
X-45040503Y31402563D01*
X-44936037Y31298097D01*
X-44853958Y31175257D01*
X-44797421Y31038766D01*
X-44768600Y30893870D01*
X-44768600Y30746130D01*
X-44797421Y30601234D01*
X-44853958Y30464743D01*
X-44936037Y30341903D01*
X-45040503Y30237437D01*
X-45163343Y30155358D01*
X-45299834Y30098821D01*
X-45444730Y30070000D01*
X-45592470Y30070000D01*
X-45737366Y30098821D01*
X-45873857Y30155358D01*
X-45996697Y30237437D01*
X-46101163Y30341903D01*
X-46183242Y30464743D01*
X-46239779Y30601234D01*
X-46268600Y30746130D01*
X-46268600Y30893870D01*
X-46239779Y31038766D01*
X-46183242Y31175257D01*
X-46101163Y31298097D01*
X-45996697Y31402563D01*
X-45873857Y31484642D01*
X-45737366Y31541179D01*
X-45592470Y31570000D01*
X-45444730Y31570000D01*
X-45299834Y31541179D01*
G37*
G36*
X-59070583Y32509642D02*
G01*
X-58996330Y32478885D01*
X-58922079Y32448130D01*
X-58922078Y32448129D01*
X-58788433Y32358831D01*
X-58674769Y32245167D01*
X-58607795Y32144933D01*
X-58585470Y32111521D01*
X-58554715Y32037270D01*
X-58523958Y31963017D01*
X-58492600Y31805370D01*
X-58492600Y31644630D01*
X-58523958Y31486983D01*
X-58554715Y31412730D01*
X-58585470Y31338479D01*
X-58585471Y31338478D01*
X-58674769Y31204833D01*
X-58788433Y31091169D01*
X-58888667Y31024196D01*
X-58922079Y31001870D01*
X-58974705Y30980072D01*
X-59070583Y30940358D01*
X-59228230Y30909000D01*
X-59388970Y30909000D01*
X-59546617Y30940358D01*
X-59642495Y30980072D01*
X-59695121Y31001870D01*
X-59728533Y31024196D01*
X-59828767Y31091169D01*
X-59942431Y31204833D01*
X-60031729Y31338478D01*
X-60031730Y31338479D01*
X-60093242Y31486983D01*
X-60124600Y31644630D01*
X-60124600Y31805370D01*
X-60093242Y31963017D01*
X-60062485Y32037270D01*
X-60031730Y32111521D01*
X-60009405Y32144933D01*
X-59942431Y32245167D01*
X-59828767Y32358831D01*
X-59695122Y32448129D01*
X-59695121Y32448130D01*
X-59546617Y32509642D01*
X-59388970Y32541000D01*
X-59228230Y32541000D01*
X-59070583Y32509642D01*
G37*
G36*
X-50987135Y34069561D02*
G01*
X-50755373Y33973562D01*
X-50755372Y33973561D01*
X-50546791Y33834192D01*
X-50369408Y33656809D01*
X-50369407Y33656807D01*
X-50230038Y33448227D01*
X-50134039Y33216465D01*
X-50085100Y32970430D01*
X-50085100Y32719570D01*
X-50134039Y32473535D01*
X-50230038Y32241773D01*
X-50230039Y32241772D01*
X-50369408Y32033191D01*
X-50546791Y31855808D01*
X-50651790Y31785650D01*
X-50755373Y31716438D01*
X-50987135Y31620439D01*
X-51233170Y31571500D01*
X-51484030Y31571500D01*
X-51730065Y31620439D01*
X-51961827Y31716438D01*
X-52065410Y31785650D01*
X-52170409Y31855808D01*
X-52347792Y32033191D01*
X-52487161Y32241772D01*
X-52487162Y32241773D01*
X-52583161Y32473535D01*
X-52632100Y32719570D01*
X-52632100Y32970430D01*
X-52583161Y33216465D01*
X-52487162Y33448227D01*
X-52347793Y33656807D01*
X-52347792Y33656809D01*
X-52170409Y33834192D01*
X-51961828Y33973561D01*
X-51961827Y33973562D01*
X-51730065Y34069561D01*
X-51484030Y34118500D01*
X-51233170Y34118500D01*
X-50987135Y34069561D01*
G37*
G36*
X-59024744Y47208702D02*
G01*
X-58918421Y47187553D01*
X-58617958Y47063097D01*
X-58347549Y46882415D01*
X-58117585Y46652451D01*
X-57936903Y46382042D01*
X-57812447Y46081579D01*
X-57749000Y45762609D01*
X-57749000Y45437391D01*
X-57812447Y45118421D01*
X-57936903Y44817958D01*
X-58117585Y44547549D01*
X-58347549Y44317585D01*
X-58617958Y44136903D01*
X-58918421Y44012447D01*
X-59024744Y43991298D01*
X-59237389Y43949000D01*
X-59562611Y43949000D01*
X-59775256Y43991298D01*
X-59881579Y44012447D01*
X-60182042Y44136903D01*
X-60452451Y44317585D01*
X-60682415Y44547549D01*
X-60863097Y44817958D01*
X-60987553Y45118421D01*
X-61051000Y45437391D01*
X-61051000Y45762609D01*
X-60987553Y46081579D01*
X-60863097Y46382042D01*
X-60682415Y46652451D01*
X-60452451Y46882415D01*
X-60182042Y47063097D01*
X-59881579Y47187553D01*
X-59775256Y47208702D01*
X-59562611Y47251000D01*
X-59237389Y47251000D01*
X-59024744Y47208702D01*
G37*
M02*
