G04 #@! TF.GenerationSoftware,KiCad,Pcbnew,(5.1.6)-1*
G04 #@! TF.CreationDate,2020-07-05T14:39:03+08:00*
G04 #@! TF.ProjectId,inteli210AT,696e7465-6c69-4323-9130-41542e6b6963,rev?*
G04 #@! TF.SameCoordinates,Original*
G04 #@! TF.FileFunction,Copper,L3,Inr*
G04 #@! TF.FilePolarity,Positive*
%FSLAX46Y46*%
G04 Gerber Fmt 4.6, Leading zero omitted, Abs format (unit mm)*
G04 Created by KiCad (PCBNEW (5.1.6)-1) date 2020-07-05 14:39:03*
%MOMM*%
%LPD*%
G01*
G04 APERTURE LIST*
G04 #@! TA.AperFunction,ViaPad*
%ADD10C,1.398000*%
G04 #@! TD*
G04 #@! TA.AperFunction,ViaPad*
%ADD11C,2.445000*%
G04 #@! TD*
G04 #@! TA.AperFunction,ViaPad*
%ADD12C,1.530000*%
G04 #@! TD*
G04 #@! TA.AperFunction,ViaPad*
%ADD13R,1.398000X1.398000*%
G04 #@! TD*
G04 #@! TA.AperFunction,ViaPad*
%ADD14C,1.500000*%
G04 #@! TD*
G04 #@! TA.AperFunction,ViaPad*
%ADD15C,0.500000*%
G04 #@! TD*
G04 #@! TA.AperFunction,ViaPad*
%ADD16C,0.450000*%
G04 #@! TD*
G04 #@! TA.AperFunction,Conductor*
%ADD17C,0.100000*%
G04 #@! TD*
G04 APERTURE END LIST*
D10*
X-45518600Y30820000D03*
X-48058600Y19390000D03*
D11*
X-51358600Y17355000D03*
X-51358600Y32845000D03*
D12*
X-59308600Y21015000D03*
X-59308600Y18475000D03*
X-59308600Y29185000D03*
X-59308600Y31725000D03*
D10*
X-45518600Y20660000D03*
X-48058600Y21930000D03*
X-45518600Y23200000D03*
X-48058600Y24470000D03*
X-45518600Y25740000D03*
X-48058600Y27010000D03*
X-45518600Y28280000D03*
D13*
X-48058600Y29550000D03*
D14*
X-8305600Y24838000D03*
X-8305600Y29718000D03*
D15*
X-17894100Y16573500D03*
X-17894100Y15557500D03*
X-19672100Y15557500D03*
X-19672100Y16573500D03*
D16*
X-36245600Y10033000D03*
X-1447600Y28956000D03*
X-1574600Y25273000D03*
X-11099600Y25654000D03*
X-11226600Y28067000D03*
X-12750600Y30353000D03*
X-10972600Y31750000D03*
X-15163600Y32893000D03*
X-22656600Y32004000D03*
X-24942600Y33147000D03*
X-29641600Y27940000D03*
X-33070600Y27432000D03*
X-33070600Y22479000D03*
X-29641600Y24257000D03*
X-29641600Y19304000D03*
X-22148600Y25400000D03*
X-18846600Y25400000D03*
X-18846600Y22098000D03*
X-22148600Y22098000D03*
X-22275600Y23749000D03*
X-18719600Y23749000D03*
X-20497600Y25527000D03*
X-20497600Y21844000D03*
X-28364600Y33864000D03*
D15*
X-12725200Y18161000D03*
X-6972100Y6032500D03*
X-5829100Y6032500D03*
X-5829100Y7175500D03*
X-6972100Y7175500D03*
X-6236500Y2603500D03*
X-16687600Y2540000D03*
X-13639600Y2540000D03*
X-3162100Y2667000D03*
X-749100Y2857500D03*
X-43847000Y36068000D03*
X-40545000Y37719000D03*
X-20955000Y36449000D03*
X-36703000Y27940000D03*
X-35941000Y27051000D03*
X-38005000Y37846000D03*
X-38894000Y37084000D03*
D16*
X-59772600Y38735000D03*
X-42087600Y20828000D03*
X-14147600Y33528000D03*
X-16179600Y29591000D03*
X-17703600Y29337000D03*
X-24434600Y30607000D03*
X-27355600Y31750000D03*
X-33070600Y25781000D03*
X-33070600Y24130000D03*
X-29641600Y25908000D03*
X-29641600Y22606000D03*
X-29641600Y20955000D03*
X-25704600Y14605000D03*
X-25069600Y11303000D03*
X-7797600Y20320000D03*
X-7924600Y17018000D03*
X-24815600Y29337000D03*
X-15036600Y24003000D03*
X-11099600Y23876000D03*
X-24053600Y23622000D03*
X-32308600Y11684000D03*
X-46024600Y10160000D03*
X-36626600Y23368000D03*
D15*
X-22224800Y20396200D03*
X-17398800Y18110200D03*
X-11099600Y2476500D03*
D16*
X-17703600Y24384000D03*
X-17576600Y26416000D03*
X-24180600Y20193000D03*
X-41198600Y9652000D03*
X-23875514Y20650629D03*
X-37515600Y9906000D03*
X-23926600Y21336000D03*
X-37134600Y16129000D03*
X-23164600Y21590000D03*
X-35610600Y17145000D03*
X-25831600Y18288000D03*
D15*
X-26339600Y12446000D03*
D16*
X-14909600Y20955000D03*
X-11323100Y18542000D03*
X-19209100Y29217502D03*
X-35994245Y28102588D03*
X-35586243Y27694586D03*
X-19786100Y29217502D03*
X-20709100Y29217502D03*
X-37780599Y37228001D03*
X-21286100Y29217502D03*
X-38188601Y36819999D03*
D15*
X-46101000Y10795000D03*
D16*
X-17576600Y20574000D03*
X-20624600Y20701000D03*
D15*
X-44831000Y17526000D03*
X-4178100Y8445500D03*
X-7734100Y18605500D03*
X-17589974Y6654126D03*
D16*
X-28498600Y8953500D03*
X-12496600Y20320000D03*
X-11480600Y20320000D03*
D15*
X-15417600Y5080000D03*
X-13576100Y18542000D03*
X-18275100Y5651500D03*
X-10718600Y21590000D03*
X-18406100Y16002000D03*
X-19033100Y16002000D03*
X-6400600Y6290500D03*
X-6400600Y6917500D03*
D17*
G36*
X-25958000Y42672000D02*
G01*
X-25957039Y42662245D01*
X-25954194Y42652866D01*
X-25949573Y42644221D01*
X-25943355Y42636645D01*
X-25935779Y42630427D01*
X-25927134Y42625806D01*
X-25917755Y42622961D01*
X-25908000Y42622000D01*
X-227600Y42622000D01*
X-227600Y36576157D01*
X-354535Y-3789225D01*
X-579310Y-4014000D01*
X-6633890Y-4014000D01*
X-6858600Y-3789290D01*
X-6858600Y3556000D01*
X-6859561Y3565755D01*
X-6862406Y3575134D01*
X-6867027Y3583779D01*
X-6873245Y3591355D01*
X-7381245Y4099355D01*
X-7388821Y4105573D01*
X-7394239Y4108721D01*
X-7902239Y4362721D01*
X-7911394Y4366224D01*
X-7924600Y4368000D01*
X-8432600Y4368000D01*
X-8442355Y4367039D01*
X-8454961Y4362721D01*
X-8962961Y4108721D01*
X-8971256Y4103500D01*
X-8975955Y4099355D01*
X-9483955Y3591355D01*
X-9490173Y3583779D01*
X-9494794Y3575134D01*
X-9497639Y3565755D01*
X-9498600Y3556000D01*
X-9498600Y-3789290D01*
X-9723310Y-4014000D01*
X-19587890Y-4014000D01*
X-20050000Y-3551890D01*
X-20050000Y2520821D01*
X-11549600Y2520821D01*
X-11549600Y2432179D01*
X-11532306Y2345240D01*
X-11498385Y2263345D01*
X-11449138Y2189642D01*
X-11386458Y2126962D01*
X-11312755Y2077715D01*
X-11230860Y2043794D01*
X-11143921Y2026500D01*
X-11055279Y2026500D01*
X-10968340Y2043794D01*
X-10886445Y2077715D01*
X-10812742Y2126962D01*
X-10750062Y2189642D01*
X-10700815Y2263345D01*
X-10666894Y2345240D01*
X-10649600Y2432179D01*
X-10649600Y2520821D01*
X-10666894Y2607760D01*
X-10700815Y2689655D01*
X-10750062Y2763358D01*
X-10812742Y2826038D01*
X-10886445Y2875285D01*
X-10968340Y2909206D01*
X-11055279Y2926500D01*
X-11143921Y2926500D01*
X-11230860Y2909206D01*
X-11312755Y2875285D01*
X-11386458Y2826038D01*
X-11449138Y2763358D01*
X-11498385Y2689655D01*
X-11532306Y2607760D01*
X-11549600Y2520821D01*
X-20050000Y2520821D01*
X-20050000Y5124321D01*
X-15867600Y5124321D01*
X-15867600Y5035679D01*
X-15850306Y4948740D01*
X-15816385Y4866845D01*
X-15767138Y4793142D01*
X-15704458Y4730462D01*
X-15630755Y4681215D01*
X-15548860Y4647294D01*
X-15461921Y4630000D01*
X-15373279Y4630000D01*
X-15286340Y4647294D01*
X-15204445Y4681215D01*
X-15130742Y4730462D01*
X-15068062Y4793142D01*
X-15018815Y4866845D01*
X-14984894Y4948740D01*
X-14967600Y5035679D01*
X-14967600Y5124321D01*
X-14984894Y5211260D01*
X-15018815Y5293155D01*
X-15068062Y5366858D01*
X-15130742Y5429538D01*
X-15204445Y5478785D01*
X-15286340Y5512706D01*
X-15373279Y5530000D01*
X-15461921Y5530000D01*
X-15548860Y5512706D01*
X-15630755Y5478785D01*
X-15704458Y5429538D01*
X-15767138Y5366858D01*
X-15816385Y5293155D01*
X-15850306Y5211260D01*
X-15867600Y5124321D01*
X-20050000Y5124321D01*
X-20050000Y5695821D01*
X-18725100Y5695821D01*
X-18725100Y5607179D01*
X-18707806Y5520240D01*
X-18673885Y5438345D01*
X-18624638Y5364642D01*
X-18561958Y5301962D01*
X-18488255Y5252715D01*
X-18406360Y5218794D01*
X-18319421Y5201500D01*
X-18230779Y5201500D01*
X-18143840Y5218794D01*
X-18061945Y5252715D01*
X-17988242Y5301962D01*
X-17925562Y5364642D01*
X-17876315Y5438345D01*
X-17842394Y5520240D01*
X-17825100Y5607179D01*
X-17825100Y5695821D01*
X-17842394Y5782760D01*
X-17876315Y5864655D01*
X-17925562Y5938358D01*
X-17988242Y6001038D01*
X-18061945Y6050285D01*
X-18143840Y6084206D01*
X-18230779Y6101500D01*
X-18319421Y6101500D01*
X-18406360Y6084206D01*
X-18488255Y6050285D01*
X-18561958Y6001038D01*
X-18624638Y5938358D01*
X-18673885Y5864655D01*
X-18707806Y5782760D01*
X-18725100Y5695821D01*
X-20050000Y5695821D01*
X-20050000Y6490875D01*
X-20050086Y6491744D01*
X-20050184Y6505827D01*
X-20051371Y6517121D01*
X-20051371Y6528476D01*
X-20051736Y6531948D01*
X-20066600Y6664463D01*
X-20066600Y6698447D01*
X-18039974Y6698447D01*
X-18039974Y6609805D01*
X-18022680Y6522866D01*
X-17988759Y6440971D01*
X-17939512Y6367268D01*
X-17876832Y6304588D01*
X-17803129Y6255341D01*
X-17721234Y6221420D01*
X-17634295Y6204126D01*
X-17545653Y6204126D01*
X-17458714Y6221420D01*
X-17376819Y6255341D01*
X-17303116Y6304588D01*
X-17240436Y6367268D01*
X-17191189Y6440971D01*
X-17157268Y6522866D01*
X-17139974Y6609805D01*
X-17139974Y6698447D01*
X-17157268Y6785386D01*
X-17191189Y6867281D01*
X-17240436Y6940984D01*
X-17261273Y6961821D01*
X-6850600Y6961821D01*
X-6850600Y6873179D01*
X-6833306Y6786240D01*
X-6799385Y6704345D01*
X-6750138Y6630642D01*
X-6723496Y6604000D01*
X-6750138Y6577358D01*
X-6799385Y6503655D01*
X-6833306Y6421760D01*
X-6850600Y6334821D01*
X-6850600Y6246179D01*
X-6833306Y6159240D01*
X-6799385Y6077345D01*
X-6750138Y6003642D01*
X-6687458Y5940962D01*
X-6613755Y5891715D01*
X-6531860Y5857794D01*
X-6444921Y5840500D01*
X-6356279Y5840500D01*
X-6269340Y5857794D01*
X-6187445Y5891715D01*
X-6113742Y5940962D01*
X-6051062Y6003642D01*
X-6001815Y6077345D01*
X-5967894Y6159240D01*
X-5950600Y6246179D01*
X-5950600Y6334821D01*
X-5967894Y6421760D01*
X-6001815Y6503655D01*
X-6051062Y6577358D01*
X-6077704Y6604000D01*
X-6051062Y6630642D01*
X-6001815Y6704345D01*
X-5967894Y6786240D01*
X-5950600Y6873179D01*
X-5950600Y6961821D01*
X-5967894Y7048760D01*
X-6001815Y7130655D01*
X-6051062Y7204358D01*
X-6113742Y7267038D01*
X-6187445Y7316285D01*
X-6269340Y7350206D01*
X-6356279Y7367500D01*
X-6444921Y7367500D01*
X-6531860Y7350206D01*
X-6613755Y7316285D01*
X-6687458Y7267038D01*
X-6750138Y7204358D01*
X-6799385Y7130655D01*
X-6833306Y7048760D01*
X-6850600Y6961821D01*
X-17261273Y6961821D01*
X-17303116Y7003664D01*
X-17376819Y7052911D01*
X-17458714Y7086832D01*
X-17545653Y7104126D01*
X-17634295Y7104126D01*
X-17721234Y7086832D01*
X-17803129Y7052911D01*
X-17876832Y7003664D01*
X-17939512Y6940984D01*
X-17988759Y6867281D01*
X-18022680Y6785386D01*
X-18039974Y6698447D01*
X-20066600Y6698447D01*
X-20066600Y7620000D01*
X-20067561Y7629755D01*
X-20070406Y7639134D01*
X-20075027Y7647779D01*
X-20081245Y7655355D01*
X-20843245Y8417355D01*
X-20850821Y8423573D01*
X-20859466Y8428194D01*
X-20866473Y8430507D01*
X-21103729Y8489821D01*
X-4628100Y8489821D01*
X-4628100Y8401179D01*
X-4610806Y8314240D01*
X-4576885Y8232345D01*
X-4527638Y8158642D01*
X-4464958Y8095962D01*
X-4391255Y8046715D01*
X-4309360Y8012794D01*
X-4222421Y7995500D01*
X-4133779Y7995500D01*
X-4046840Y8012794D01*
X-3964945Y8046715D01*
X-3891242Y8095962D01*
X-3828562Y8158642D01*
X-3779315Y8232345D01*
X-3745394Y8314240D01*
X-3728100Y8401179D01*
X-3728100Y8489821D01*
X-3745394Y8576760D01*
X-3779315Y8658655D01*
X-3828562Y8732358D01*
X-3891242Y8795038D01*
X-3964945Y8844285D01*
X-4046840Y8878206D01*
X-4133779Y8895500D01*
X-4222421Y8895500D01*
X-4309360Y8878206D01*
X-4391255Y8844285D01*
X-4464958Y8795038D01*
X-4527638Y8732358D01*
X-4576885Y8658655D01*
X-4610806Y8576760D01*
X-4628100Y8489821D01*
X-21103729Y8489821D01*
X-21882473Y8684507D01*
X-21892170Y8685941D01*
X-21904406Y8685029D01*
X-23174406Y8431029D01*
X-23183782Y8428174D01*
X-23194600Y8422000D01*
X-24210600Y7660000D01*
X-24217827Y7653379D01*
X-24223624Y7645475D01*
X-24227767Y7636592D01*
X-24230097Y7627071D01*
X-24230600Y7620000D01*
X-24230600Y528710D01*
X-24455310Y304000D01*
X-31525890Y304000D01*
X-31700000Y478110D01*
X-31700000Y7315875D01*
X-31700190Y7317805D01*
X-31700510Y7338446D01*
X-31701913Y7350781D01*
X-31702124Y7363197D01*
X-31702548Y7366662D01*
X-31727599Y7560212D01*
X-31732683Y7582280D01*
X-31737465Y7604442D01*
X-31738554Y7607759D01*
X-31750600Y7643605D01*
X-31750600Y7874000D01*
X-31751561Y7883755D01*
X-31754406Y7893134D01*
X-31759027Y7901779D01*
X-31765245Y7909355D01*
X-32273245Y8417355D01*
X-32280821Y8423573D01*
X-32286239Y8426721D01*
X-32794239Y8680721D01*
X-32803394Y8684224D01*
X-32816600Y8686000D01*
X-49834600Y8686000D01*
X-49844355Y8685039D01*
X-49853734Y8682194D01*
X-49862335Y8677603D01*
X-50624335Y8169603D01*
X-50631918Y8163392D01*
X-50638144Y8155822D01*
X-50642774Y8147182D01*
X-50645629Y8137806D01*
X-50646600Y8128000D01*
X-50646600Y1027803D01*
X-50887868Y545268D01*
X-51370403Y304000D01*
X-63273094Y304000D01*
X-63285346Y307699D01*
X-63414383Y376309D01*
X-63527629Y468670D01*
X-63620785Y581276D01*
X-63690291Y709825D01*
X-63733508Y849437D01*
X-63750000Y1006346D01*
X-63750000Y4777284D01*
X-61200000Y4777284D01*
X-61200000Y4422716D01*
X-61130827Y4074959D01*
X-60995139Y3747380D01*
X-60798151Y3452567D01*
X-60547433Y3201849D01*
X-60252620Y3004861D01*
X-59925041Y2869173D01*
X-59577284Y2800000D01*
X-59222716Y2800000D01*
X-58874959Y2869173D01*
X-58547380Y3004861D01*
X-58252567Y3201849D01*
X-58001849Y3452567D01*
X-57804861Y3747380D01*
X-57669173Y4074959D01*
X-57600000Y4422716D01*
X-57600000Y4777284D01*
X-57669173Y5125041D01*
X-57804861Y5452620D01*
X-58001849Y5747433D01*
X-58252567Y5998151D01*
X-58547380Y6195139D01*
X-58874959Y6330827D01*
X-59222716Y6400000D01*
X-59577284Y6400000D01*
X-59925041Y6330827D01*
X-60252620Y6195139D01*
X-60547433Y5998151D01*
X-60798151Y5747433D01*
X-60995139Y5452620D01*
X-61130827Y5125041D01*
X-61200000Y4777284D01*
X-63750000Y4777284D01*
X-63750000Y8995359D01*
X-28923600Y8995359D01*
X-28923600Y8911641D01*
X-28907267Y8829532D01*
X-28875230Y8752187D01*
X-28828719Y8682579D01*
X-28769521Y8623381D01*
X-28699913Y8576870D01*
X-28622568Y8544833D01*
X-28540459Y8528500D01*
X-28456741Y8528500D01*
X-28374632Y8544833D01*
X-28297287Y8576870D01*
X-28227679Y8623381D01*
X-28168481Y8682579D01*
X-28121970Y8752187D01*
X-28089933Y8829532D01*
X-28073600Y8911641D01*
X-28073600Y8995359D01*
X-28089933Y9077468D01*
X-28121970Y9154813D01*
X-28168481Y9224421D01*
X-28227679Y9283619D01*
X-28297287Y9330130D01*
X-28374632Y9362167D01*
X-28456741Y9378500D01*
X-28540459Y9378500D01*
X-28622568Y9362167D01*
X-28699913Y9330130D01*
X-28769521Y9283619D01*
X-28828719Y9224421D01*
X-28875230Y9154813D01*
X-28907267Y9077468D01*
X-28923600Y8995359D01*
X-63750000Y8995359D01*
X-63750000Y9693859D01*
X-41623600Y9693859D01*
X-41623600Y9610141D01*
X-41607267Y9528032D01*
X-41575230Y9450687D01*
X-41528719Y9381079D01*
X-41469521Y9321881D01*
X-41399913Y9275370D01*
X-41322568Y9243333D01*
X-41240459Y9227000D01*
X-41156741Y9227000D01*
X-41074632Y9243333D01*
X-40997287Y9275370D01*
X-40927679Y9321881D01*
X-40868481Y9381079D01*
X-40821970Y9450687D01*
X-40789933Y9528032D01*
X-40773600Y9610141D01*
X-40773600Y9693859D01*
X-40789933Y9775968D01*
X-40821970Y9853313D01*
X-40868481Y9922921D01*
X-40893419Y9947859D01*
X-37940600Y9947859D01*
X-37940600Y9864141D01*
X-37924267Y9782032D01*
X-37892230Y9704687D01*
X-37845719Y9635079D01*
X-37786521Y9575881D01*
X-37716913Y9529370D01*
X-37639568Y9497333D01*
X-37557459Y9481000D01*
X-37473741Y9481000D01*
X-37391632Y9497333D01*
X-37314287Y9529370D01*
X-37244679Y9575881D01*
X-37185481Y9635079D01*
X-37138970Y9704687D01*
X-37106933Y9782032D01*
X-37090600Y9864141D01*
X-37090600Y9947859D01*
X-37106933Y10029968D01*
X-37138970Y10107313D01*
X-37185481Y10176921D01*
X-37244679Y10236119D01*
X-37314287Y10282630D01*
X-37391632Y10314667D01*
X-37473741Y10331000D01*
X-37557459Y10331000D01*
X-37639568Y10314667D01*
X-37716913Y10282630D01*
X-37786521Y10236119D01*
X-37845719Y10176921D01*
X-37892230Y10107313D01*
X-37924267Y10029968D01*
X-37940600Y9947859D01*
X-40893419Y9947859D01*
X-40927679Y9982119D01*
X-40997287Y10028630D01*
X-41074632Y10060667D01*
X-41156741Y10077000D01*
X-41240459Y10077000D01*
X-41322568Y10060667D01*
X-41399913Y10028630D01*
X-41469521Y9982119D01*
X-41528719Y9922921D01*
X-41575230Y9853313D01*
X-41607267Y9775968D01*
X-41623600Y9693859D01*
X-63750000Y9693859D01*
X-63750000Y10839321D01*
X-46551000Y10839321D01*
X-46551000Y10750679D01*
X-46533706Y10663740D01*
X-46499785Y10581845D01*
X-46450538Y10508142D01*
X-46387858Y10445462D01*
X-46358231Y10425666D01*
X-46401230Y10361313D01*
X-46433267Y10283968D01*
X-46449600Y10201859D01*
X-46449600Y10118141D01*
X-46433267Y10036032D01*
X-46401230Y9958687D01*
X-46354719Y9889079D01*
X-46295521Y9829881D01*
X-46225913Y9783370D01*
X-46148568Y9751333D01*
X-46066459Y9735000D01*
X-45982741Y9735000D01*
X-45900632Y9751333D01*
X-45823287Y9783370D01*
X-45753679Y9829881D01*
X-45694481Y9889079D01*
X-45647970Y9958687D01*
X-45615933Y10036032D01*
X-45599600Y10118141D01*
X-45599600Y10201859D01*
X-45615933Y10283968D01*
X-45647970Y10361313D01*
X-45694481Y10430921D01*
X-45753679Y10490119D01*
X-45763154Y10496450D01*
X-45751462Y10508142D01*
X-45702215Y10581845D01*
X-45668294Y10663740D01*
X-45651000Y10750679D01*
X-45651000Y10839321D01*
X-45668294Y10926260D01*
X-45702215Y11008155D01*
X-45751462Y11081858D01*
X-45814142Y11144538D01*
X-45887845Y11193785D01*
X-45969740Y11227706D01*
X-46056679Y11245000D01*
X-46145321Y11245000D01*
X-46232260Y11227706D01*
X-46314155Y11193785D01*
X-46387858Y11144538D01*
X-46450538Y11081858D01*
X-46499785Y11008155D01*
X-46533706Y10926260D01*
X-46551000Y10839321D01*
X-63750000Y10839321D01*
X-63750000Y11725859D01*
X-32733600Y11725859D01*
X-32733600Y11642141D01*
X-32717267Y11560032D01*
X-32685230Y11482687D01*
X-32638719Y11413079D01*
X-32579521Y11353881D01*
X-32509913Y11307370D01*
X-32432568Y11275333D01*
X-32350459Y11259000D01*
X-32266741Y11259000D01*
X-32184632Y11275333D01*
X-32107287Y11307370D01*
X-32051182Y11344859D01*
X-25494600Y11344859D01*
X-25494600Y11261141D01*
X-25478267Y11179032D01*
X-25446230Y11101687D01*
X-25399719Y11032079D01*
X-25340521Y10972881D01*
X-25270913Y10926370D01*
X-25193568Y10894333D01*
X-25111459Y10878000D01*
X-25027741Y10878000D01*
X-24945632Y10894333D01*
X-24868287Y10926370D01*
X-24798679Y10972881D01*
X-24739481Y11032079D01*
X-24692970Y11101687D01*
X-24660933Y11179032D01*
X-24644600Y11261141D01*
X-24644600Y11344859D01*
X-24660933Y11426968D01*
X-24692970Y11504313D01*
X-24739481Y11573921D01*
X-24798679Y11633119D01*
X-24868287Y11679630D01*
X-24945632Y11711667D01*
X-25027741Y11728000D01*
X-25111459Y11728000D01*
X-25193568Y11711667D01*
X-25270913Y11679630D01*
X-25340521Y11633119D01*
X-25399719Y11573921D01*
X-25446230Y11504313D01*
X-25478267Y11426968D01*
X-25494600Y11344859D01*
X-32051182Y11344859D01*
X-32037679Y11353881D01*
X-31978481Y11413079D01*
X-31931970Y11482687D01*
X-31899933Y11560032D01*
X-31883600Y11642141D01*
X-31883600Y11725859D01*
X-31899933Y11807968D01*
X-31931970Y11885313D01*
X-31978481Y11954921D01*
X-32037679Y12014119D01*
X-32107287Y12060630D01*
X-32184632Y12092667D01*
X-32266741Y12109000D01*
X-32350459Y12109000D01*
X-32432568Y12092667D01*
X-32509913Y12060630D01*
X-32579521Y12014119D01*
X-32638719Y11954921D01*
X-32685230Y11885313D01*
X-32717267Y11807968D01*
X-32733600Y11725859D01*
X-63750000Y11725859D01*
X-63750000Y12490321D01*
X-26789600Y12490321D01*
X-26789600Y12401679D01*
X-26772306Y12314740D01*
X-26738385Y12232845D01*
X-26689138Y12159142D01*
X-26626458Y12096462D01*
X-26552755Y12047215D01*
X-26470860Y12013294D01*
X-26383921Y11996000D01*
X-26295279Y11996000D01*
X-26208340Y12013294D01*
X-26126445Y12047215D01*
X-26052742Y12096462D01*
X-25990062Y12159142D01*
X-25940815Y12232845D01*
X-25906894Y12314740D01*
X-25889600Y12401679D01*
X-25889600Y12490321D01*
X-25906894Y12577260D01*
X-25940815Y12659155D01*
X-25990062Y12732858D01*
X-26052742Y12795538D01*
X-26126445Y12844785D01*
X-26208340Y12878706D01*
X-26295279Y12896000D01*
X-26383921Y12896000D01*
X-26470860Y12878706D01*
X-26552755Y12844785D01*
X-26626458Y12795538D01*
X-26689138Y12732858D01*
X-26738385Y12659155D01*
X-26772306Y12577260D01*
X-26789600Y12490321D01*
X-63750000Y12490321D01*
X-63750000Y14646859D01*
X-26129600Y14646859D01*
X-26129600Y14563141D01*
X-26113267Y14481032D01*
X-26081230Y14403687D01*
X-26034719Y14334079D01*
X-25975521Y14274881D01*
X-25905913Y14228370D01*
X-25828568Y14196333D01*
X-25746459Y14180000D01*
X-25662741Y14180000D01*
X-25580632Y14196333D01*
X-25503287Y14228370D01*
X-25433679Y14274881D01*
X-25374481Y14334079D01*
X-25327970Y14403687D01*
X-25295933Y14481032D01*
X-25279600Y14563141D01*
X-25279600Y14646859D01*
X-25295933Y14728968D01*
X-25327970Y14806313D01*
X-25374481Y14875921D01*
X-25433679Y14935119D01*
X-25503287Y14981630D01*
X-25580632Y15013667D01*
X-25662741Y15030000D01*
X-25746459Y15030000D01*
X-25828568Y15013667D01*
X-25905913Y14981630D01*
X-25975521Y14935119D01*
X-26034719Y14875921D01*
X-26081230Y14806313D01*
X-26113267Y14728968D01*
X-26129600Y14646859D01*
X-63750000Y14646859D01*
X-63750000Y16362112D01*
X-52316133Y16362112D01*
X-52178416Y16184087D01*
X-51934230Y16046647D01*
X-51667923Y15959487D01*
X-51389728Y15925956D01*
X-51110338Y15947341D01*
X-50840487Y16022822D01*
X-50590548Y16149499D01*
X-50558581Y16170859D01*
X-37559600Y16170859D01*
X-37559600Y16087141D01*
X-37543267Y16005032D01*
X-37511230Y15927687D01*
X-37464719Y15858079D01*
X-37405521Y15798881D01*
X-37335913Y15752370D01*
X-37258568Y15720333D01*
X-37176459Y15704000D01*
X-37092741Y15704000D01*
X-37010632Y15720333D01*
X-36933287Y15752370D01*
X-36863679Y15798881D01*
X-36804481Y15858079D01*
X-36757970Y15927687D01*
X-36725933Y16005032D01*
X-36717720Y16046321D01*
X-19483100Y16046321D01*
X-19483100Y15957679D01*
X-19465806Y15870740D01*
X-19431885Y15788845D01*
X-19382638Y15715142D01*
X-19319958Y15652462D01*
X-19246255Y15603215D01*
X-19164360Y15569294D01*
X-19077421Y15552000D01*
X-18988779Y15552000D01*
X-18901840Y15569294D01*
X-18819945Y15603215D01*
X-18746242Y15652462D01*
X-18719600Y15679104D01*
X-18692958Y15652462D01*
X-18619255Y15603215D01*
X-18537360Y15569294D01*
X-18450421Y15552000D01*
X-18361779Y15552000D01*
X-18274840Y15569294D01*
X-18192945Y15603215D01*
X-18119242Y15652462D01*
X-18056562Y15715142D01*
X-18007315Y15788845D01*
X-17973394Y15870740D01*
X-17956100Y15957679D01*
X-17956100Y16046321D01*
X-17973394Y16133260D01*
X-18007315Y16215155D01*
X-18056562Y16288858D01*
X-18119242Y16351538D01*
X-18192945Y16400785D01*
X-18274840Y16434706D01*
X-18361779Y16452000D01*
X-18450421Y16452000D01*
X-18537360Y16434706D01*
X-18619255Y16400785D01*
X-18692958Y16351538D01*
X-18719600Y16324896D01*
X-18746242Y16351538D01*
X-18819945Y16400785D01*
X-18901840Y16434706D01*
X-18988779Y16452000D01*
X-19077421Y16452000D01*
X-19164360Y16434706D01*
X-19246255Y16400785D01*
X-19319958Y16351538D01*
X-19382638Y16288858D01*
X-19431885Y16215155D01*
X-19465806Y16133260D01*
X-19483100Y16046321D01*
X-36717720Y16046321D01*
X-36709600Y16087141D01*
X-36709600Y16170859D01*
X-36725933Y16252968D01*
X-36757970Y16330313D01*
X-36804481Y16399921D01*
X-36863679Y16459119D01*
X-36933287Y16505630D01*
X-37010632Y16537667D01*
X-37092741Y16554000D01*
X-37176459Y16554000D01*
X-37258568Y16537667D01*
X-37335913Y16505630D01*
X-37405521Y16459119D01*
X-37464719Y16399921D01*
X-37511230Y16330313D01*
X-37543267Y16252968D01*
X-37559600Y16170859D01*
X-50558581Y16170859D01*
X-50538784Y16184087D01*
X-50401067Y16362112D01*
X-51358600Y17319645D01*
X-52316133Y16362112D01*
X-63750000Y16362112D01*
X-63750000Y17386128D01*
X-52787644Y17386128D01*
X-52766259Y17106738D01*
X-52690778Y16836887D01*
X-52564101Y16586948D01*
X-52529513Y16535184D01*
X-52351488Y16397467D01*
X-51393955Y17355000D01*
X-51323245Y17355000D01*
X-50365712Y16397467D01*
X-50187687Y16535184D01*
X-50050247Y16779370D01*
X-49963087Y17045677D01*
X-49929556Y17323872D01*
X-49948419Y17570321D01*
X-45281000Y17570321D01*
X-45281000Y17481679D01*
X-45263706Y17394740D01*
X-45229785Y17312845D01*
X-45180538Y17239142D01*
X-45117858Y17176462D01*
X-45044155Y17127215D01*
X-44962260Y17093294D01*
X-44875321Y17076000D01*
X-44786679Y17076000D01*
X-44699740Y17093294D01*
X-44617845Y17127215D01*
X-44544142Y17176462D01*
X-44533745Y17186859D01*
X-36035600Y17186859D01*
X-36035600Y17103141D01*
X-36019267Y17021032D01*
X-35987230Y16943687D01*
X-35940719Y16874079D01*
X-35881521Y16814881D01*
X-35811913Y16768370D01*
X-35734568Y16736333D01*
X-35652459Y16720000D01*
X-35568741Y16720000D01*
X-35486632Y16736333D01*
X-35409287Y16768370D01*
X-35339679Y16814881D01*
X-35280481Y16874079D01*
X-35233970Y16943687D01*
X-35201933Y17021032D01*
X-35194210Y17059859D01*
X-8349600Y17059859D01*
X-8349600Y16976141D01*
X-8333267Y16894032D01*
X-8301230Y16816687D01*
X-8254719Y16747079D01*
X-8195521Y16687881D01*
X-8125913Y16641370D01*
X-8048568Y16609333D01*
X-7966459Y16593000D01*
X-7882741Y16593000D01*
X-7800632Y16609333D01*
X-7723287Y16641370D01*
X-7653679Y16687881D01*
X-7594481Y16747079D01*
X-7547970Y16816687D01*
X-7515933Y16894032D01*
X-7499600Y16976141D01*
X-7499600Y17059859D01*
X-7515933Y17141968D01*
X-7547970Y17219313D01*
X-7594481Y17288921D01*
X-7653679Y17348119D01*
X-7723287Y17394630D01*
X-7800632Y17426667D01*
X-7882741Y17443000D01*
X-7966459Y17443000D01*
X-8048568Y17426667D01*
X-8125913Y17394630D01*
X-8195521Y17348119D01*
X-8254719Y17288921D01*
X-8301230Y17219313D01*
X-8333267Y17141968D01*
X-8349600Y17059859D01*
X-35194210Y17059859D01*
X-35185600Y17103141D01*
X-35185600Y17186859D01*
X-35201933Y17268968D01*
X-35233970Y17346313D01*
X-35280481Y17415921D01*
X-35339679Y17475119D01*
X-35409287Y17521630D01*
X-35486632Y17553667D01*
X-35568741Y17570000D01*
X-35652459Y17570000D01*
X-35734568Y17553667D01*
X-35811913Y17521630D01*
X-35881521Y17475119D01*
X-35940719Y17415921D01*
X-35987230Y17346313D01*
X-36019267Y17268968D01*
X-36035600Y17186859D01*
X-44533745Y17186859D01*
X-44481462Y17239142D01*
X-44432215Y17312845D01*
X-44398294Y17394740D01*
X-44381000Y17481679D01*
X-44381000Y17570321D01*
X-44398294Y17657260D01*
X-44432215Y17739155D01*
X-44481462Y17812858D01*
X-44544142Y17875538D01*
X-44617845Y17924785D01*
X-44699740Y17958706D01*
X-44786679Y17976000D01*
X-44875321Y17976000D01*
X-44962260Y17958706D01*
X-45044155Y17924785D01*
X-45117858Y17875538D01*
X-45180538Y17812858D01*
X-45229785Y17739155D01*
X-45263706Y17657260D01*
X-45281000Y17570321D01*
X-49948419Y17570321D01*
X-49950941Y17603262D01*
X-50026422Y17873113D01*
X-50153099Y18123052D01*
X-50187687Y18174816D01*
X-50365712Y18312533D01*
X-51323245Y17355000D01*
X-51393955Y17355000D01*
X-52351488Y18312533D01*
X-52529513Y18174816D01*
X-52666953Y17930630D01*
X-52754113Y17664323D01*
X-52787644Y17386128D01*
X-63750000Y17386128D01*
X-63750000Y18570044D01*
X-60273600Y18570044D01*
X-60273600Y18379956D01*
X-60236515Y18193520D01*
X-60163772Y18017901D01*
X-60058164Y17859848D01*
X-59923752Y17725436D01*
X-59765699Y17619828D01*
X-59590080Y17547085D01*
X-59403644Y17510000D01*
X-59213556Y17510000D01*
X-59027120Y17547085D01*
X-58851501Y17619828D01*
X-58693448Y17725436D01*
X-58559036Y17859848D01*
X-58453428Y18017901D01*
X-58380685Y18193520D01*
X-58343600Y18379956D01*
X-58343600Y18570044D01*
X-58380685Y18756480D01*
X-58453428Y18932099D01*
X-58559036Y19090152D01*
X-58693448Y19224564D01*
X-58851501Y19330172D01*
X-59027120Y19402915D01*
X-59213556Y19440000D01*
X-59403644Y19440000D01*
X-59590080Y19402915D01*
X-59765699Y19330172D01*
X-59923752Y19224564D01*
X-60058164Y19090152D01*
X-60163772Y18932099D01*
X-60236515Y18756480D01*
X-60273600Y18570044D01*
X-63750000Y18570044D01*
X-63750000Y19564747D01*
X-56233600Y19564747D01*
X-56233600Y19205253D01*
X-56163466Y18852667D01*
X-56025894Y18520539D01*
X-55826170Y18221631D01*
X-55571969Y17967430D01*
X-55273061Y17767706D01*
X-54940933Y17630134D01*
X-54588347Y17560000D01*
X-54228853Y17560000D01*
X-53876267Y17630134D01*
X-53544139Y17767706D01*
X-53245231Y17967430D01*
X-52991030Y18221631D01*
X-52906668Y18347888D01*
X-52316133Y18347888D01*
X-51358600Y17390355D01*
X-50419096Y18329859D01*
X-26256600Y18329859D01*
X-26256600Y18246141D01*
X-26240267Y18164032D01*
X-26208230Y18086687D01*
X-26161719Y18017079D01*
X-26102521Y17957881D01*
X-26032913Y17911370D01*
X-25955568Y17879333D01*
X-25873459Y17863000D01*
X-25789741Y17863000D01*
X-25707632Y17879333D01*
X-25630287Y17911370D01*
X-25560679Y17957881D01*
X-25501481Y18017079D01*
X-25454970Y18086687D01*
X-25426873Y18154521D01*
X-17848800Y18154521D01*
X-17848800Y18065879D01*
X-17831506Y17978940D01*
X-17797585Y17897045D01*
X-17748338Y17823342D01*
X-17685658Y17760662D01*
X-17611955Y17711415D01*
X-17530060Y17677494D01*
X-17443121Y17660200D01*
X-17354479Y17660200D01*
X-17267540Y17677494D01*
X-17185645Y17711415D01*
X-17111942Y17760662D01*
X-17049262Y17823342D01*
X-17000015Y17897045D01*
X-16966094Y17978940D01*
X-16948800Y18065879D01*
X-16948800Y18154521D01*
X-16966094Y18241460D01*
X-17000015Y18323355D01*
X-17049262Y18397058D01*
X-17111942Y18459738D01*
X-17185645Y18508985D01*
X-17267540Y18542906D01*
X-17354479Y18560200D01*
X-17443121Y18560200D01*
X-17530060Y18542906D01*
X-17611955Y18508985D01*
X-17685658Y18459738D01*
X-17748338Y18397058D01*
X-17797585Y18323355D01*
X-17831506Y18241460D01*
X-17848800Y18154521D01*
X-25426873Y18154521D01*
X-25422933Y18164032D01*
X-25406600Y18246141D01*
X-25406600Y18329859D01*
X-25422933Y18411968D01*
X-25454970Y18489313D01*
X-25501481Y18558921D01*
X-25528881Y18586321D01*
X-14026100Y18586321D01*
X-14026100Y18497679D01*
X-14008806Y18410740D01*
X-13974885Y18328845D01*
X-13925638Y18255142D01*
X-13862958Y18192462D01*
X-13789255Y18143215D01*
X-13707360Y18109294D01*
X-13620421Y18092000D01*
X-13531779Y18092000D01*
X-13444840Y18109294D01*
X-13362945Y18143215D01*
X-13289242Y18192462D01*
X-13226562Y18255142D01*
X-13177315Y18328845D01*
X-13143394Y18410740D01*
X-13126100Y18497679D01*
X-13126100Y18583859D01*
X-11748100Y18583859D01*
X-11748100Y18500141D01*
X-11731767Y18418032D01*
X-11699730Y18340687D01*
X-11653219Y18271079D01*
X-11594021Y18211881D01*
X-11524413Y18165370D01*
X-11447068Y18133333D01*
X-11364959Y18117000D01*
X-11281241Y18117000D01*
X-11199132Y18133333D01*
X-11121787Y18165370D01*
X-11052179Y18211881D01*
X-10992981Y18271079D01*
X-10946470Y18340687D01*
X-10914433Y18418032D01*
X-10898100Y18500141D01*
X-10898100Y18583859D01*
X-10911221Y18649821D01*
X-8184100Y18649821D01*
X-8184100Y18561179D01*
X-8166806Y18474240D01*
X-8132885Y18392345D01*
X-8083638Y18318642D01*
X-8020958Y18255962D01*
X-7947255Y18206715D01*
X-7865360Y18172794D01*
X-7778421Y18155500D01*
X-7689779Y18155500D01*
X-7602840Y18172794D01*
X-7520945Y18206715D01*
X-7447242Y18255962D01*
X-7384562Y18318642D01*
X-7335315Y18392345D01*
X-7301394Y18474240D01*
X-7284100Y18561179D01*
X-7284100Y18649821D01*
X-7301394Y18736760D01*
X-7335315Y18818655D01*
X-7384562Y18892358D01*
X-7447242Y18955038D01*
X-7520945Y19004285D01*
X-7602840Y19038206D01*
X-7689779Y19055500D01*
X-7778421Y19055500D01*
X-7865360Y19038206D01*
X-7947255Y19004285D01*
X-8020958Y18955038D01*
X-8083638Y18892358D01*
X-8132885Y18818655D01*
X-8166806Y18736760D01*
X-8184100Y18649821D01*
X-10911221Y18649821D01*
X-10914433Y18665968D01*
X-10946470Y18743313D01*
X-10992981Y18812921D01*
X-11052179Y18872119D01*
X-11121787Y18918630D01*
X-11199132Y18950667D01*
X-11281241Y18967000D01*
X-11364959Y18967000D01*
X-11447068Y18950667D01*
X-11524413Y18918630D01*
X-11594021Y18872119D01*
X-11653219Y18812921D01*
X-11699730Y18743313D01*
X-11731767Y18665968D01*
X-11748100Y18583859D01*
X-13126100Y18583859D01*
X-13126100Y18586321D01*
X-13143394Y18673260D01*
X-13177315Y18755155D01*
X-13226562Y18828858D01*
X-13289242Y18891538D01*
X-13362945Y18940785D01*
X-13444840Y18974706D01*
X-13531779Y18992000D01*
X-13620421Y18992000D01*
X-13707360Y18974706D01*
X-13789255Y18940785D01*
X-13862958Y18891538D01*
X-13925638Y18828858D01*
X-13974885Y18755155D01*
X-14008806Y18673260D01*
X-14026100Y18586321D01*
X-25528881Y18586321D01*
X-25560679Y18618119D01*
X-25630287Y18664630D01*
X-25707632Y18696667D01*
X-25789741Y18713000D01*
X-25873459Y18713000D01*
X-25955568Y18696667D01*
X-26032913Y18664630D01*
X-26102521Y18618119D01*
X-26161719Y18558921D01*
X-26208230Y18489313D01*
X-26240267Y18411968D01*
X-26256600Y18329859D01*
X-50419096Y18329859D01*
X-50401067Y18347888D01*
X-50538784Y18525913D01*
X-50782970Y18663353D01*
X-51049277Y18750513D01*
X-51204084Y18769172D01*
X-48644073Y18769172D01*
X-48569147Y18644760D01*
X-48413948Y18559476D01*
X-48245092Y18506109D01*
X-48069070Y18486710D01*
X-47892646Y18502024D01*
X-47722600Y18551462D01*
X-47565465Y18633124D01*
X-47548053Y18644760D01*
X-47473127Y18769172D01*
X-48058600Y19354645D01*
X-48644073Y18769172D01*
X-51204084Y18769172D01*
X-51327472Y18784044D01*
X-51606862Y18762659D01*
X-51876713Y18687178D01*
X-52126652Y18560501D01*
X-52178416Y18525913D01*
X-52316133Y18347888D01*
X-52906668Y18347888D01*
X-52791306Y18520539D01*
X-52653734Y18852667D01*
X-52583600Y19205253D01*
X-52583600Y19400470D01*
X-48961890Y19400470D01*
X-48946576Y19224046D01*
X-48897138Y19054000D01*
X-48815476Y18896865D01*
X-48803840Y18879453D01*
X-48679428Y18804527D01*
X-48093955Y19390000D01*
X-48023245Y19390000D01*
X-47437772Y18804527D01*
X-47313360Y18879453D01*
X-47228076Y19034652D01*
X-47174709Y19203508D01*
X-47155310Y19379530D01*
X-47170624Y19555954D01*
X-47220062Y19726000D01*
X-47301724Y19883135D01*
X-47313360Y19900547D01*
X-47437772Y19975473D01*
X-48023245Y19390000D01*
X-48093955Y19390000D01*
X-48679428Y19975473D01*
X-48803840Y19900547D01*
X-48889124Y19745348D01*
X-48942491Y19576492D01*
X-48961890Y19400470D01*
X-52583600Y19400470D01*
X-52583600Y19564747D01*
X-52653734Y19917333D01*
X-52692460Y20010828D01*
X-48644073Y20010828D01*
X-48058600Y19425355D01*
X-47473127Y20010828D01*
X-47548053Y20135240D01*
X-47703252Y20220524D01*
X-47872108Y20273891D01*
X-48048130Y20293290D01*
X-48224554Y20277976D01*
X-48394600Y20228538D01*
X-48551735Y20146876D01*
X-48569147Y20135240D01*
X-48644073Y20010828D01*
X-52692460Y20010828D01*
X-52791306Y20249461D01*
X-52991030Y20548369D01*
X-53191205Y20748544D01*
X-46417600Y20748544D01*
X-46417600Y20571456D01*
X-46383052Y20397771D01*
X-46315284Y20234164D01*
X-46216899Y20086921D01*
X-46091679Y19961701D01*
X-45944436Y19863316D01*
X-45780829Y19795548D01*
X-45607144Y19761000D01*
X-45430056Y19761000D01*
X-45256371Y19795548D01*
X-45092764Y19863316D01*
X-44945521Y19961701D01*
X-44820301Y20086921D01*
X-44721916Y20234164D01*
X-44721629Y20234859D01*
X-24605600Y20234859D01*
X-24605600Y20151141D01*
X-24589267Y20069032D01*
X-24557230Y19991687D01*
X-24510719Y19922079D01*
X-24451521Y19862881D01*
X-24381913Y19816370D01*
X-24304568Y19784333D01*
X-24222459Y19768000D01*
X-24138741Y19768000D01*
X-24056632Y19784333D01*
X-23979287Y19816370D01*
X-23909679Y19862881D01*
X-23850481Y19922079D01*
X-23803970Y19991687D01*
X-23771933Y20069032D01*
X-23755600Y20151141D01*
X-23755600Y20234859D01*
X-23756805Y20240916D01*
X-23751546Y20241962D01*
X-23674201Y20273999D01*
X-23604593Y20320510D01*
X-23545395Y20379708D01*
X-23504761Y20440521D01*
X-22674800Y20440521D01*
X-22674800Y20351879D01*
X-22657506Y20264940D01*
X-22623585Y20183045D01*
X-22574338Y20109342D01*
X-22511658Y20046662D01*
X-22437955Y19997415D01*
X-22356060Y19963494D01*
X-22269121Y19946200D01*
X-22180479Y19946200D01*
X-22093540Y19963494D01*
X-22011645Y19997415D01*
X-21937942Y20046662D01*
X-21875262Y20109342D01*
X-21826015Y20183045D01*
X-21792094Y20264940D01*
X-21774800Y20351879D01*
X-21774800Y20440521D01*
X-21792094Y20527460D01*
X-21826015Y20609355D01*
X-21875262Y20683058D01*
X-21935063Y20742859D01*
X-21049600Y20742859D01*
X-21049600Y20659141D01*
X-21033267Y20577032D01*
X-21001230Y20499687D01*
X-20954719Y20430079D01*
X-20895521Y20370881D01*
X-20825913Y20324370D01*
X-20748568Y20292333D01*
X-20666459Y20276000D01*
X-20582741Y20276000D01*
X-20500632Y20292333D01*
X-20423287Y20324370D01*
X-20353679Y20370881D01*
X-20294481Y20430079D01*
X-20247970Y20499687D01*
X-20215933Y20577032D01*
X-20208210Y20615859D01*
X-18001600Y20615859D01*
X-18001600Y20532141D01*
X-17985267Y20450032D01*
X-17953230Y20372687D01*
X-17906719Y20303079D01*
X-17847521Y20243881D01*
X-17777913Y20197370D01*
X-17700568Y20165333D01*
X-17618459Y20149000D01*
X-17534741Y20149000D01*
X-17452632Y20165333D01*
X-17375287Y20197370D01*
X-17305679Y20243881D01*
X-17246481Y20303079D01*
X-17207206Y20361859D01*
X-12921600Y20361859D01*
X-12921600Y20278141D01*
X-12905267Y20196032D01*
X-12873230Y20118687D01*
X-12826719Y20049079D01*
X-12767521Y19989881D01*
X-12697913Y19943370D01*
X-12620568Y19911333D01*
X-12538459Y19895000D01*
X-12454741Y19895000D01*
X-12372632Y19911333D01*
X-12295287Y19943370D01*
X-12225679Y19989881D01*
X-12166481Y20049079D01*
X-12119970Y20118687D01*
X-12087933Y20196032D01*
X-12071600Y20278141D01*
X-12071600Y20361859D01*
X-11905600Y20361859D01*
X-11905600Y20278141D01*
X-11889267Y20196032D01*
X-11857230Y20118687D01*
X-11810719Y20049079D01*
X-11751521Y19989881D01*
X-11681913Y19943370D01*
X-11604568Y19911333D01*
X-11522459Y19895000D01*
X-11438741Y19895000D01*
X-11356632Y19911333D01*
X-11279287Y19943370D01*
X-11209679Y19989881D01*
X-11150481Y20049079D01*
X-11103970Y20118687D01*
X-11071933Y20196032D01*
X-11055600Y20278141D01*
X-11055600Y20361859D01*
X-8222600Y20361859D01*
X-8222600Y20278141D01*
X-8206267Y20196032D01*
X-8174230Y20118687D01*
X-8127719Y20049079D01*
X-8068521Y19989881D01*
X-7998913Y19943370D01*
X-7921568Y19911333D01*
X-7839459Y19895000D01*
X-7755741Y19895000D01*
X-7673632Y19911333D01*
X-7596287Y19943370D01*
X-7526679Y19989881D01*
X-7467481Y20049079D01*
X-7420970Y20118687D01*
X-7388933Y20196032D01*
X-7372600Y20278141D01*
X-7372600Y20361859D01*
X-7388933Y20443968D01*
X-7420970Y20521313D01*
X-7467481Y20590921D01*
X-7526679Y20650119D01*
X-7596287Y20696630D01*
X-7673632Y20728667D01*
X-7755741Y20745000D01*
X-7839459Y20745000D01*
X-7921568Y20728667D01*
X-7998913Y20696630D01*
X-8068521Y20650119D01*
X-8127719Y20590921D01*
X-8174230Y20521313D01*
X-8206267Y20443968D01*
X-8222600Y20361859D01*
X-11055600Y20361859D01*
X-11071933Y20443968D01*
X-11103970Y20521313D01*
X-11150481Y20590921D01*
X-11209679Y20650119D01*
X-11279287Y20696630D01*
X-11356632Y20728667D01*
X-11438741Y20745000D01*
X-11522459Y20745000D01*
X-11604568Y20728667D01*
X-11681913Y20696630D01*
X-11751521Y20650119D01*
X-11810719Y20590921D01*
X-11857230Y20521313D01*
X-11889267Y20443968D01*
X-11905600Y20361859D01*
X-12071600Y20361859D01*
X-12087933Y20443968D01*
X-12119970Y20521313D01*
X-12166481Y20590921D01*
X-12225679Y20650119D01*
X-12295287Y20696630D01*
X-12372632Y20728667D01*
X-12454741Y20745000D01*
X-12538459Y20745000D01*
X-12620568Y20728667D01*
X-12697913Y20696630D01*
X-12767521Y20650119D01*
X-12826719Y20590921D01*
X-12873230Y20521313D01*
X-12905267Y20443968D01*
X-12921600Y20361859D01*
X-17207206Y20361859D01*
X-17199970Y20372687D01*
X-17167933Y20450032D01*
X-17151600Y20532141D01*
X-17151600Y20615859D01*
X-17167933Y20697968D01*
X-17199970Y20775313D01*
X-17246481Y20844921D01*
X-17305679Y20904119D01*
X-17375287Y20950630D01*
X-17452632Y20982667D01*
X-17523977Y20996859D01*
X-15334600Y20996859D01*
X-15334600Y20913141D01*
X-15318267Y20831032D01*
X-15286230Y20753687D01*
X-15239719Y20684079D01*
X-15180521Y20624881D01*
X-15110913Y20578370D01*
X-15033568Y20546333D01*
X-14951459Y20530000D01*
X-14867741Y20530000D01*
X-14785632Y20546333D01*
X-14708287Y20578370D01*
X-14638679Y20624881D01*
X-14579481Y20684079D01*
X-14532970Y20753687D01*
X-14500933Y20831032D01*
X-14484600Y20913141D01*
X-14484600Y20996859D01*
X-14500933Y21078968D01*
X-14532970Y21156313D01*
X-14579481Y21225921D01*
X-14638679Y21285119D01*
X-14708287Y21331630D01*
X-14785632Y21363667D01*
X-14867741Y21380000D01*
X-14951459Y21380000D01*
X-15033568Y21363667D01*
X-15110913Y21331630D01*
X-15180521Y21285119D01*
X-15239719Y21225921D01*
X-15286230Y21156313D01*
X-15318267Y21078968D01*
X-15334600Y20996859D01*
X-17523977Y20996859D01*
X-17534741Y20999000D01*
X-17618459Y20999000D01*
X-17700568Y20982667D01*
X-17777913Y20950630D01*
X-17847521Y20904119D01*
X-17906719Y20844921D01*
X-17953230Y20775313D01*
X-17985267Y20697968D01*
X-18001600Y20615859D01*
X-20208210Y20615859D01*
X-20199600Y20659141D01*
X-20199600Y20742859D01*
X-20215933Y20824968D01*
X-20247970Y20902313D01*
X-20294481Y20971921D01*
X-20353679Y21031119D01*
X-20423287Y21077630D01*
X-20500632Y21109667D01*
X-20582741Y21126000D01*
X-20666459Y21126000D01*
X-20748568Y21109667D01*
X-20825913Y21077630D01*
X-20895521Y21031119D01*
X-20954719Y20971921D01*
X-21001230Y20902313D01*
X-21033267Y20824968D01*
X-21049600Y20742859D01*
X-21935063Y20742859D01*
X-21937942Y20745738D01*
X-22011645Y20794985D01*
X-22093540Y20828906D01*
X-22180479Y20846200D01*
X-22269121Y20846200D01*
X-22356060Y20828906D01*
X-22437955Y20794985D01*
X-22511658Y20745738D01*
X-22574338Y20683058D01*
X-22623585Y20609355D01*
X-22657506Y20527460D01*
X-22674800Y20440521D01*
X-23504761Y20440521D01*
X-23498884Y20449316D01*
X-23466847Y20526661D01*
X-23450514Y20608770D01*
X-23450514Y20692488D01*
X-23466847Y20774597D01*
X-23498884Y20851942D01*
X-23545395Y20921550D01*
X-23604593Y20980748D01*
X-23650283Y21011277D01*
X-23596481Y21065079D01*
X-23549970Y21134687D01*
X-23517933Y21212032D01*
X-23501600Y21294141D01*
X-23501600Y21329377D01*
X-23494719Y21319079D01*
X-23435521Y21259881D01*
X-23365913Y21213370D01*
X-23288568Y21181333D01*
X-23206459Y21165000D01*
X-23122741Y21165000D01*
X-23040632Y21181333D01*
X-22963287Y21213370D01*
X-22893679Y21259881D01*
X-22834481Y21319079D01*
X-22787970Y21388687D01*
X-22755933Y21466032D01*
X-22739600Y21548141D01*
X-22739600Y21631859D01*
X-22740089Y21634321D01*
X-11168600Y21634321D01*
X-11168600Y21545679D01*
X-11151306Y21458740D01*
X-11117385Y21376845D01*
X-11068138Y21303142D01*
X-11005458Y21240462D01*
X-10931755Y21191215D01*
X-10849860Y21157294D01*
X-10762921Y21140000D01*
X-10674279Y21140000D01*
X-10587340Y21157294D01*
X-10505445Y21191215D01*
X-10431742Y21240462D01*
X-10369062Y21303142D01*
X-10319815Y21376845D01*
X-10285894Y21458740D01*
X-10268600Y21545679D01*
X-10268600Y21634321D01*
X-10285894Y21721260D01*
X-10319815Y21803155D01*
X-10369062Y21876858D01*
X-10431742Y21939538D01*
X-10505445Y21988785D01*
X-10587340Y22022706D01*
X-10674279Y22040000D01*
X-10762921Y22040000D01*
X-10849860Y22022706D01*
X-10931755Y21988785D01*
X-11005458Y21939538D01*
X-11068138Y21876858D01*
X-11117385Y21803155D01*
X-11151306Y21721260D01*
X-11168600Y21634321D01*
X-22740089Y21634321D01*
X-22755933Y21713968D01*
X-22787970Y21791313D01*
X-22834481Y21860921D01*
X-22893679Y21920119D01*
X-22963287Y21966630D01*
X-23040632Y21998667D01*
X-23122741Y22015000D01*
X-23206459Y22015000D01*
X-23288568Y21998667D01*
X-23365913Y21966630D01*
X-23435521Y21920119D01*
X-23494719Y21860921D01*
X-23541230Y21791313D01*
X-23573267Y21713968D01*
X-23589600Y21631859D01*
X-23589600Y21596623D01*
X-23596481Y21606921D01*
X-23655679Y21666119D01*
X-23725287Y21712630D01*
X-23802632Y21744667D01*
X-23884741Y21761000D01*
X-23968459Y21761000D01*
X-24050568Y21744667D01*
X-24127913Y21712630D01*
X-24197521Y21666119D01*
X-24256719Y21606921D01*
X-24303230Y21537313D01*
X-24335267Y21459968D01*
X-24351600Y21377859D01*
X-24351600Y21294141D01*
X-24335267Y21212032D01*
X-24303230Y21134687D01*
X-24256719Y21065079D01*
X-24197521Y21005881D01*
X-24151831Y20975352D01*
X-24205633Y20921550D01*
X-24252144Y20851942D01*
X-24284181Y20774597D01*
X-24300514Y20692488D01*
X-24300514Y20608770D01*
X-24299309Y20602713D01*
X-24304568Y20601667D01*
X-24381913Y20569630D01*
X-24451521Y20523119D01*
X-24510719Y20463921D01*
X-24557230Y20394313D01*
X-24589267Y20316968D01*
X-24605600Y20234859D01*
X-44721629Y20234859D01*
X-44654148Y20397771D01*
X-44619600Y20571456D01*
X-44619600Y20748544D01*
X-44643730Y20869859D01*
X-42512600Y20869859D01*
X-42512600Y20786141D01*
X-42496267Y20704032D01*
X-42464230Y20626687D01*
X-42417719Y20557079D01*
X-42358521Y20497881D01*
X-42288913Y20451370D01*
X-42211568Y20419333D01*
X-42129459Y20403000D01*
X-42045741Y20403000D01*
X-41963632Y20419333D01*
X-41886287Y20451370D01*
X-41816679Y20497881D01*
X-41757481Y20557079D01*
X-41710970Y20626687D01*
X-41678933Y20704032D01*
X-41662600Y20786141D01*
X-41662600Y20869859D01*
X-41678933Y20951968D01*
X-41697527Y20996859D01*
X-30066600Y20996859D01*
X-30066600Y20913141D01*
X-30050267Y20831032D01*
X-30018230Y20753687D01*
X-29971719Y20684079D01*
X-29912521Y20624881D01*
X-29842913Y20578370D01*
X-29765568Y20546333D01*
X-29683459Y20530000D01*
X-29599741Y20530000D01*
X-29517632Y20546333D01*
X-29440287Y20578370D01*
X-29370679Y20624881D01*
X-29311481Y20684079D01*
X-29264970Y20753687D01*
X-29232933Y20831032D01*
X-29216600Y20913141D01*
X-29216600Y20996859D01*
X-29232933Y21078968D01*
X-29264970Y21156313D01*
X-29311481Y21225921D01*
X-29370679Y21285119D01*
X-29440287Y21331630D01*
X-29517632Y21363667D01*
X-29599741Y21380000D01*
X-29683459Y21380000D01*
X-29765568Y21363667D01*
X-29842913Y21331630D01*
X-29912521Y21285119D01*
X-29971719Y21225921D01*
X-30018230Y21156313D01*
X-30050267Y21078968D01*
X-30066600Y20996859D01*
X-41697527Y20996859D01*
X-41710970Y21029313D01*
X-41757481Y21098921D01*
X-41816679Y21158119D01*
X-41886287Y21204630D01*
X-41963632Y21236667D01*
X-42045741Y21253000D01*
X-42129459Y21253000D01*
X-42211568Y21236667D01*
X-42288913Y21204630D01*
X-42358521Y21158119D01*
X-42417719Y21098921D01*
X-42464230Y21029313D01*
X-42496267Y20951968D01*
X-42512600Y20869859D01*
X-44643730Y20869859D01*
X-44654148Y20922229D01*
X-44721916Y21085836D01*
X-44820301Y21233079D01*
X-44945521Y21358299D01*
X-45092764Y21456684D01*
X-45256371Y21524452D01*
X-45430056Y21559000D01*
X-45607144Y21559000D01*
X-45780829Y21524452D01*
X-45944436Y21456684D01*
X-46091679Y21358299D01*
X-46216899Y21233079D01*
X-46315284Y21085836D01*
X-46383052Y20922229D01*
X-46417600Y20748544D01*
X-53191205Y20748544D01*
X-53245231Y20802570D01*
X-53544139Y21002294D01*
X-53876267Y21139866D01*
X-54228853Y21210000D01*
X-54588347Y21210000D01*
X-54940933Y21139866D01*
X-55273061Y21002294D01*
X-55571969Y20802570D01*
X-55826170Y20548369D01*
X-56025894Y20249461D01*
X-56163466Y19917333D01*
X-56233600Y19564747D01*
X-63750000Y19564747D01*
X-63750000Y21110044D01*
X-60273600Y21110044D01*
X-60273600Y20919956D01*
X-60236515Y20733520D01*
X-60163772Y20557901D01*
X-60058164Y20399848D01*
X-59923752Y20265436D01*
X-59765699Y20159828D01*
X-59590080Y20087085D01*
X-59403644Y20050000D01*
X-59213556Y20050000D01*
X-59027120Y20087085D01*
X-58851501Y20159828D01*
X-58693448Y20265436D01*
X-58559036Y20399848D01*
X-58453428Y20557901D01*
X-58380685Y20733520D01*
X-58343600Y20919956D01*
X-58343600Y21110044D01*
X-58380685Y21296480D01*
X-58453428Y21472099D01*
X-58559036Y21630152D01*
X-58693448Y21764564D01*
X-58851501Y21870172D01*
X-59027120Y21942915D01*
X-59213556Y21980000D01*
X-59403644Y21980000D01*
X-59590080Y21942915D01*
X-59765699Y21870172D01*
X-59923752Y21764564D01*
X-60058164Y21630152D01*
X-60163772Y21472099D01*
X-60236515Y21296480D01*
X-60273600Y21110044D01*
X-63750000Y21110044D01*
X-63750000Y22018544D01*
X-48957600Y22018544D01*
X-48957600Y21841456D01*
X-48923052Y21667771D01*
X-48855284Y21504164D01*
X-48756899Y21356921D01*
X-48631679Y21231701D01*
X-48484436Y21133316D01*
X-48320829Y21065548D01*
X-48147144Y21031000D01*
X-47970056Y21031000D01*
X-47796371Y21065548D01*
X-47632764Y21133316D01*
X-47485521Y21231701D01*
X-47360301Y21356921D01*
X-47261916Y21504164D01*
X-47194148Y21667771D01*
X-47159600Y21841456D01*
X-47159600Y22018544D01*
X-47194148Y22192229D01*
X-47261916Y22355836D01*
X-47360301Y22503079D01*
X-47485521Y22628299D01*
X-47632764Y22726684D01*
X-47796371Y22794452D01*
X-47970056Y22829000D01*
X-48147144Y22829000D01*
X-48320829Y22794452D01*
X-48484436Y22726684D01*
X-48631679Y22628299D01*
X-48756899Y22503079D01*
X-48855284Y22355836D01*
X-48923052Y22192229D01*
X-48957600Y22018544D01*
X-63750000Y22018544D01*
X-63750000Y23288544D01*
X-46417600Y23288544D01*
X-46417600Y23111456D01*
X-46383052Y22937771D01*
X-46315284Y22774164D01*
X-46216899Y22626921D01*
X-46091679Y22501701D01*
X-45944436Y22403316D01*
X-45780829Y22335548D01*
X-45607144Y22301000D01*
X-45430056Y22301000D01*
X-45256371Y22335548D01*
X-45092764Y22403316D01*
X-44945521Y22501701D01*
X-44820301Y22626921D01*
X-44806311Y22647859D01*
X-30066600Y22647859D01*
X-30066600Y22564141D01*
X-30050267Y22482032D01*
X-30018230Y22404687D01*
X-29971719Y22335079D01*
X-29912521Y22275881D01*
X-29842913Y22229370D01*
X-29765568Y22197333D01*
X-29683459Y22181000D01*
X-29599741Y22181000D01*
X-29517632Y22197333D01*
X-29440287Y22229370D01*
X-29370679Y22275881D01*
X-29311481Y22335079D01*
X-29264970Y22404687D01*
X-29232933Y22482032D01*
X-29216600Y22564141D01*
X-29216600Y22647859D01*
X-29232933Y22729968D01*
X-29264970Y22807313D01*
X-29311481Y22876921D01*
X-29370679Y22936119D01*
X-29440287Y22982630D01*
X-29517632Y23014667D01*
X-29599741Y23031000D01*
X-29683459Y23031000D01*
X-29765568Y23014667D01*
X-29842913Y22982630D01*
X-29912521Y22936119D01*
X-29971719Y22876921D01*
X-30018230Y22807313D01*
X-30050267Y22729968D01*
X-30066600Y22647859D01*
X-44806311Y22647859D01*
X-44721916Y22774164D01*
X-44654148Y22937771D01*
X-44619600Y23111456D01*
X-44619600Y23288544D01*
X-44643730Y23409859D01*
X-37051600Y23409859D01*
X-37051600Y23326141D01*
X-37035267Y23244032D01*
X-37003230Y23166687D01*
X-36956719Y23097079D01*
X-36897521Y23037881D01*
X-36827913Y22991370D01*
X-36750568Y22959333D01*
X-36668459Y22943000D01*
X-36584741Y22943000D01*
X-36502632Y22959333D01*
X-36425287Y22991370D01*
X-36355679Y23037881D01*
X-36296481Y23097079D01*
X-36249970Y23166687D01*
X-36217933Y23244032D01*
X-36201600Y23326141D01*
X-36201600Y23409859D01*
X-36217933Y23491968D01*
X-36249970Y23569313D01*
X-36296481Y23638921D01*
X-36321419Y23663859D01*
X-24478600Y23663859D01*
X-24478600Y23580141D01*
X-24462267Y23498032D01*
X-24430230Y23420687D01*
X-24383719Y23351079D01*
X-24324521Y23291881D01*
X-24254913Y23245370D01*
X-24177568Y23213333D01*
X-24095459Y23197000D01*
X-24011741Y23197000D01*
X-23929632Y23213333D01*
X-23852287Y23245370D01*
X-23782679Y23291881D01*
X-23723481Y23351079D01*
X-23676970Y23420687D01*
X-23644933Y23498032D01*
X-23628600Y23580141D01*
X-23628600Y23663859D01*
X-23644933Y23745968D01*
X-23676970Y23823313D01*
X-23723481Y23892921D01*
X-23782679Y23952119D01*
X-23852287Y23998630D01*
X-23929632Y24030667D01*
X-24011741Y24047000D01*
X-24095459Y24047000D01*
X-24177568Y24030667D01*
X-24254913Y23998630D01*
X-24324521Y23952119D01*
X-24383719Y23892921D01*
X-24430230Y23823313D01*
X-24462267Y23745968D01*
X-24478600Y23663859D01*
X-36321419Y23663859D01*
X-36355679Y23698119D01*
X-36425287Y23744630D01*
X-36502632Y23776667D01*
X-36584741Y23793000D01*
X-36668459Y23793000D01*
X-36750568Y23776667D01*
X-36827913Y23744630D01*
X-36897521Y23698119D01*
X-36956719Y23638921D01*
X-37003230Y23569313D01*
X-37035267Y23491968D01*
X-37051600Y23409859D01*
X-44643730Y23409859D01*
X-44654148Y23462229D01*
X-44721916Y23625836D01*
X-44820301Y23773079D01*
X-44945521Y23898299D01*
X-45092764Y23996684D01*
X-45256371Y24064452D01*
X-45430056Y24099000D01*
X-45607144Y24099000D01*
X-45780829Y24064452D01*
X-45944436Y23996684D01*
X-46091679Y23898299D01*
X-46216899Y23773079D01*
X-46315284Y23625836D01*
X-46383052Y23462229D01*
X-46417600Y23288544D01*
X-63750000Y23288544D01*
X-63750000Y24558544D01*
X-48957600Y24558544D01*
X-48957600Y24381456D01*
X-48923052Y24207771D01*
X-48855284Y24044164D01*
X-48756899Y23896921D01*
X-48631679Y23771701D01*
X-48484436Y23673316D01*
X-48320829Y23605548D01*
X-48147144Y23571000D01*
X-47970056Y23571000D01*
X-47796371Y23605548D01*
X-47632764Y23673316D01*
X-47485521Y23771701D01*
X-47360301Y23896921D01*
X-47261916Y24044164D01*
X-47209024Y24171859D01*
X-33495600Y24171859D01*
X-33495600Y24088141D01*
X-33479267Y24006032D01*
X-33447230Y23928687D01*
X-33400719Y23859079D01*
X-33341521Y23799881D01*
X-33271913Y23753370D01*
X-33194568Y23721333D01*
X-33112459Y23705000D01*
X-33028741Y23705000D01*
X-32946632Y23721333D01*
X-32869287Y23753370D01*
X-32799679Y23799881D01*
X-32740481Y23859079D01*
X-32693970Y23928687D01*
X-32661933Y24006032D01*
X-32645600Y24088141D01*
X-32645600Y24171859D01*
X-32661933Y24253968D01*
X-32693970Y24331313D01*
X-32740481Y24400921D01*
X-32765419Y24425859D01*
X-18128600Y24425859D01*
X-18128600Y24342141D01*
X-18112267Y24260032D01*
X-18080230Y24182687D01*
X-18033719Y24113079D01*
X-17974521Y24053881D01*
X-17904913Y24007370D01*
X-17827568Y23975333D01*
X-17745459Y23959000D01*
X-17661741Y23959000D01*
X-17579632Y23975333D01*
X-17502287Y24007370D01*
X-17446182Y24044859D01*
X-15461600Y24044859D01*
X-15461600Y23961141D01*
X-15445267Y23879032D01*
X-15413230Y23801687D01*
X-15366719Y23732079D01*
X-15307521Y23672881D01*
X-15237913Y23626370D01*
X-15160568Y23594333D01*
X-15078459Y23578000D01*
X-14994741Y23578000D01*
X-14912632Y23594333D01*
X-14835287Y23626370D01*
X-14765679Y23672881D01*
X-14706481Y23732079D01*
X-14659970Y23801687D01*
X-14627933Y23879032D01*
X-14620210Y23917859D01*
X-11524600Y23917859D01*
X-11524600Y23834141D01*
X-11508267Y23752032D01*
X-11476230Y23674687D01*
X-11429719Y23605079D01*
X-11370521Y23545881D01*
X-11300913Y23499370D01*
X-11223568Y23467333D01*
X-11141459Y23451000D01*
X-11057741Y23451000D01*
X-10975632Y23467333D01*
X-10898287Y23499370D01*
X-10828679Y23545881D01*
X-10769481Y23605079D01*
X-10722970Y23674687D01*
X-10690933Y23752032D01*
X-10674600Y23834141D01*
X-10674600Y23917859D01*
X-10690933Y23999968D01*
X-10722970Y24077313D01*
X-10769481Y24146921D01*
X-10828679Y24206119D01*
X-10898287Y24252630D01*
X-10975632Y24284667D01*
X-11057741Y24301000D01*
X-11141459Y24301000D01*
X-11223568Y24284667D01*
X-11300913Y24252630D01*
X-11370521Y24206119D01*
X-11429719Y24146921D01*
X-11476230Y24077313D01*
X-11508267Y23999968D01*
X-11524600Y23917859D01*
X-14620210Y23917859D01*
X-14611600Y23961141D01*
X-14611600Y24044859D01*
X-14627933Y24126968D01*
X-14659970Y24204313D01*
X-14706481Y24273921D01*
X-14765679Y24333119D01*
X-14835287Y24379630D01*
X-14912632Y24411667D01*
X-14994741Y24428000D01*
X-15078459Y24428000D01*
X-15160568Y24411667D01*
X-15237913Y24379630D01*
X-15307521Y24333119D01*
X-15366719Y24273921D01*
X-15413230Y24204313D01*
X-15445267Y24126968D01*
X-15461600Y24044859D01*
X-17446182Y24044859D01*
X-17432679Y24053881D01*
X-17373481Y24113079D01*
X-17326970Y24182687D01*
X-17294933Y24260032D01*
X-17278600Y24342141D01*
X-17278600Y24425859D01*
X-17294933Y24507968D01*
X-17326970Y24585313D01*
X-17373481Y24654921D01*
X-17432679Y24714119D01*
X-17502287Y24760630D01*
X-17579632Y24792667D01*
X-17661741Y24809000D01*
X-17745459Y24809000D01*
X-17827568Y24792667D01*
X-17904913Y24760630D01*
X-17974521Y24714119D01*
X-18033719Y24654921D01*
X-18080230Y24585313D01*
X-18112267Y24507968D01*
X-18128600Y24425859D01*
X-32765419Y24425859D01*
X-32799679Y24460119D01*
X-32869287Y24506630D01*
X-32946632Y24538667D01*
X-33028741Y24555000D01*
X-33112459Y24555000D01*
X-33194568Y24538667D01*
X-33271913Y24506630D01*
X-33341521Y24460119D01*
X-33400719Y24400921D01*
X-33447230Y24331313D01*
X-33479267Y24253968D01*
X-33495600Y24171859D01*
X-47209024Y24171859D01*
X-47194148Y24207771D01*
X-47159600Y24381456D01*
X-47159600Y24558544D01*
X-47194148Y24732229D01*
X-47261916Y24895836D01*
X-47360301Y25043079D01*
X-47485521Y25168299D01*
X-47632764Y25266684D01*
X-47796371Y25334452D01*
X-47970056Y25369000D01*
X-48147144Y25369000D01*
X-48320829Y25334452D01*
X-48484436Y25266684D01*
X-48631679Y25168299D01*
X-48756899Y25043079D01*
X-48855284Y24895836D01*
X-48923052Y24732229D01*
X-48957600Y24558544D01*
X-63750000Y24558544D01*
X-63750000Y25828544D01*
X-46417600Y25828544D01*
X-46417600Y25651456D01*
X-46383052Y25477771D01*
X-46315284Y25314164D01*
X-46216899Y25166921D01*
X-46091679Y25041701D01*
X-45944436Y24943316D01*
X-45780829Y24875548D01*
X-45607144Y24841000D01*
X-45430056Y24841000D01*
X-45256371Y24875548D01*
X-45121129Y24931567D01*
X-9255600Y24931567D01*
X-9255600Y24744433D01*
X-9219092Y24560895D01*
X-9147479Y24388006D01*
X-9043513Y24232410D01*
X-8911190Y24100087D01*
X-8755594Y23996121D01*
X-8582705Y23924508D01*
X-8399167Y23888000D01*
X-8212033Y23888000D01*
X-8028495Y23924508D01*
X-7855606Y23996121D01*
X-7700010Y24100087D01*
X-7567687Y24232410D01*
X-7463721Y24388006D01*
X-7392108Y24560895D01*
X-7355600Y24744433D01*
X-7355600Y24931567D01*
X-7392108Y25115105D01*
X-7463721Y25287994D01*
X-7567687Y25443590D01*
X-7700010Y25575913D01*
X-7855606Y25679879D01*
X-8028495Y25751492D01*
X-8212033Y25788000D01*
X-8399167Y25788000D01*
X-8582705Y25751492D01*
X-8755594Y25679879D01*
X-8911190Y25575913D01*
X-9043513Y25443590D01*
X-9147479Y25287994D01*
X-9219092Y25115105D01*
X-9255600Y24931567D01*
X-45121129Y24931567D01*
X-45092764Y24943316D01*
X-44945521Y25041701D01*
X-44820301Y25166921D01*
X-44721916Y25314164D01*
X-44654148Y25477771D01*
X-44619600Y25651456D01*
X-44619600Y25822859D01*
X-33495600Y25822859D01*
X-33495600Y25739141D01*
X-33479267Y25657032D01*
X-33447230Y25579687D01*
X-33400719Y25510079D01*
X-33341521Y25450881D01*
X-33271913Y25404370D01*
X-33194568Y25372333D01*
X-33112459Y25356000D01*
X-33028741Y25356000D01*
X-32946632Y25372333D01*
X-32869287Y25404370D01*
X-32799679Y25450881D01*
X-32740481Y25510079D01*
X-32693970Y25579687D01*
X-32661933Y25657032D01*
X-32645600Y25739141D01*
X-32645600Y25822859D01*
X-32661933Y25904968D01*
X-32680527Y25949859D01*
X-30066600Y25949859D01*
X-30066600Y25866141D01*
X-30050267Y25784032D01*
X-30018230Y25706687D01*
X-29971719Y25637079D01*
X-29912521Y25577881D01*
X-29842913Y25531370D01*
X-29765568Y25499333D01*
X-29683459Y25483000D01*
X-29599741Y25483000D01*
X-29517632Y25499333D01*
X-29440287Y25531370D01*
X-29370679Y25577881D01*
X-29311481Y25637079D01*
X-29264970Y25706687D01*
X-29232933Y25784032D01*
X-29216600Y25866141D01*
X-29216600Y25949859D01*
X-29232933Y26031968D01*
X-29264970Y26109313D01*
X-29311481Y26178921D01*
X-29370679Y26238119D01*
X-29440287Y26284630D01*
X-29517632Y26316667D01*
X-29599741Y26333000D01*
X-29683459Y26333000D01*
X-29765568Y26316667D01*
X-29842913Y26284630D01*
X-29912521Y26238119D01*
X-29971719Y26178921D01*
X-30018230Y26109313D01*
X-30050267Y26031968D01*
X-30066600Y25949859D01*
X-32680527Y25949859D01*
X-32693970Y25982313D01*
X-32740481Y26051921D01*
X-32799679Y26111119D01*
X-32869287Y26157630D01*
X-32946632Y26189667D01*
X-33028741Y26206000D01*
X-33112459Y26206000D01*
X-33194568Y26189667D01*
X-33271913Y26157630D01*
X-33341521Y26111119D01*
X-33400719Y26051921D01*
X-33447230Y25982313D01*
X-33479267Y25904968D01*
X-33495600Y25822859D01*
X-44619600Y25822859D01*
X-44619600Y25828544D01*
X-44654148Y26002229D01*
X-44721916Y26165836D01*
X-44820301Y26313079D01*
X-44945521Y26438299D01*
X-44974794Y26457859D01*
X-18001600Y26457859D01*
X-18001600Y26374141D01*
X-17985267Y26292032D01*
X-17953230Y26214687D01*
X-17906719Y26145079D01*
X-17847521Y26085881D01*
X-17777913Y26039370D01*
X-17700568Y26007333D01*
X-17618459Y25991000D01*
X-17534741Y25991000D01*
X-17452632Y26007333D01*
X-17375287Y26039370D01*
X-17305679Y26085881D01*
X-17246481Y26145079D01*
X-17199970Y26214687D01*
X-17167933Y26292032D01*
X-17151600Y26374141D01*
X-17151600Y26457859D01*
X-17167933Y26539968D01*
X-17199970Y26617313D01*
X-17246481Y26686921D01*
X-17305679Y26746119D01*
X-17375287Y26792630D01*
X-17452632Y26824667D01*
X-17534741Y26841000D01*
X-17618459Y26841000D01*
X-17700568Y26824667D01*
X-17777913Y26792630D01*
X-17847521Y26746119D01*
X-17906719Y26686921D01*
X-17953230Y26617313D01*
X-17985267Y26539968D01*
X-18001600Y26457859D01*
X-44974794Y26457859D01*
X-45092764Y26536684D01*
X-45256371Y26604452D01*
X-45430056Y26639000D01*
X-45607144Y26639000D01*
X-45780829Y26604452D01*
X-45944436Y26536684D01*
X-46091679Y26438299D01*
X-46216899Y26313079D01*
X-46315284Y26165836D01*
X-46383052Y26002229D01*
X-46417600Y25828544D01*
X-63750000Y25828544D01*
X-63750000Y27098544D01*
X-48957600Y27098544D01*
X-48957600Y26921456D01*
X-48923052Y26747771D01*
X-48855284Y26584164D01*
X-48756899Y26436921D01*
X-48631679Y26311701D01*
X-48484436Y26213316D01*
X-48320829Y26145548D01*
X-48147144Y26111000D01*
X-47970056Y26111000D01*
X-47796371Y26145548D01*
X-47632764Y26213316D01*
X-47485521Y26311701D01*
X-47360301Y26436921D01*
X-47261916Y26584164D01*
X-47194148Y26747771D01*
X-47159600Y26921456D01*
X-47159600Y27098544D01*
X-47194148Y27272229D01*
X-47261916Y27435836D01*
X-47360301Y27583079D01*
X-47485521Y27708299D01*
X-47632764Y27806684D01*
X-47796371Y27874452D01*
X-47970056Y27909000D01*
X-48147144Y27909000D01*
X-48320829Y27874452D01*
X-48484436Y27806684D01*
X-48631679Y27708299D01*
X-48756899Y27583079D01*
X-48855284Y27435836D01*
X-48923052Y27272229D01*
X-48957600Y27098544D01*
X-63750000Y27098544D01*
X-63750000Y29280044D01*
X-60273600Y29280044D01*
X-60273600Y29089956D01*
X-60236515Y28903520D01*
X-60163772Y28727901D01*
X-60058164Y28569848D01*
X-59923752Y28435436D01*
X-59765699Y28329828D01*
X-59590080Y28257085D01*
X-59403644Y28220000D01*
X-59213556Y28220000D01*
X-59027120Y28257085D01*
X-58851501Y28329828D01*
X-58793559Y28368544D01*
X-46417600Y28368544D01*
X-46417600Y28191456D01*
X-46383052Y28017771D01*
X-46315284Y27854164D01*
X-46216899Y27706921D01*
X-46091679Y27581701D01*
X-45944436Y27483316D01*
X-45780829Y27415548D01*
X-45607144Y27381000D01*
X-45430056Y27381000D01*
X-45256371Y27415548D01*
X-45092764Y27483316D01*
X-44945521Y27581701D01*
X-44820301Y27706921D01*
X-44721916Y27854164D01*
X-44654148Y28017771D01*
X-44628951Y28144447D01*
X-36419245Y28144447D01*
X-36419245Y28060729D01*
X-36402912Y27978620D01*
X-36370875Y27901275D01*
X-36324364Y27831667D01*
X-36265166Y27772469D01*
X-36195558Y27725958D01*
X-36118213Y27693921D01*
X-36036104Y27677588D01*
X-36011243Y27677588D01*
X-36011243Y27652727D01*
X-35994910Y27570618D01*
X-35962873Y27493273D01*
X-35916362Y27423665D01*
X-35857164Y27364467D01*
X-35787556Y27317956D01*
X-35710211Y27285919D01*
X-35628102Y27269586D01*
X-35544384Y27269586D01*
X-35462275Y27285919D01*
X-35384930Y27317956D01*
X-35315322Y27364467D01*
X-35256124Y27423665D01*
X-35209613Y27493273D01*
X-35177576Y27570618D01*
X-35161243Y27652727D01*
X-35161243Y27736445D01*
X-35177576Y27818554D01*
X-35209613Y27895899D01*
X-35256124Y27965507D01*
X-35315322Y28024705D01*
X-35384930Y28071216D01*
X-35462275Y28103253D01*
X-35544384Y28119586D01*
X-35569245Y28119586D01*
X-35569245Y28144447D01*
X-35585578Y28226556D01*
X-35617615Y28303901D01*
X-35664126Y28373509D01*
X-35723324Y28432707D01*
X-35792932Y28479218D01*
X-35870277Y28511255D01*
X-35952386Y28527588D01*
X-36036104Y28527588D01*
X-36118213Y28511255D01*
X-36195558Y28479218D01*
X-36265166Y28432707D01*
X-36324364Y28373509D01*
X-36370875Y28303901D01*
X-36402912Y28226556D01*
X-36419245Y28144447D01*
X-44628951Y28144447D01*
X-44619600Y28191456D01*
X-44619600Y28368544D01*
X-44654148Y28542229D01*
X-44721916Y28705836D01*
X-44820301Y28853079D01*
X-44945521Y28978299D01*
X-45092764Y29076684D01*
X-45256371Y29144452D01*
X-45430056Y29179000D01*
X-45607144Y29179000D01*
X-45780829Y29144452D01*
X-45944436Y29076684D01*
X-46091679Y28978299D01*
X-46216899Y28853079D01*
X-46315284Y28705836D01*
X-46383052Y28542229D01*
X-46417600Y28368544D01*
X-58793559Y28368544D01*
X-58693448Y28435436D01*
X-58559036Y28569848D01*
X-58453428Y28727901D01*
X-58380685Y28903520D01*
X-58343600Y29089956D01*
X-58343600Y29280044D01*
X-58380685Y29466480D01*
X-58453428Y29642099D01*
X-58559036Y29800152D01*
X-58693448Y29934564D01*
X-58851501Y30040172D01*
X-59027120Y30112915D01*
X-59213556Y30150000D01*
X-59403644Y30150000D01*
X-59590080Y30112915D01*
X-59765699Y30040172D01*
X-59923752Y29934564D01*
X-60058164Y29800152D01*
X-60163772Y29642099D01*
X-60236515Y29466480D01*
X-60273600Y29280044D01*
X-63750000Y29280044D01*
X-63750000Y31820044D01*
X-60273600Y31820044D01*
X-60273600Y31629956D01*
X-60236515Y31443520D01*
X-60163772Y31267901D01*
X-60058164Y31109848D01*
X-59923752Y30975436D01*
X-59765699Y30869828D01*
X-59590080Y30797085D01*
X-59403644Y30760000D01*
X-59213556Y30760000D01*
X-59027120Y30797085D01*
X-58851501Y30869828D01*
X-58693448Y30975436D01*
X-58674137Y30994747D01*
X-56233600Y30994747D01*
X-56233600Y30635253D01*
X-56163466Y30282667D01*
X-56025894Y29950539D01*
X-55826170Y29651631D01*
X-55571969Y29397430D01*
X-55273061Y29197706D01*
X-54940933Y29060134D01*
X-54588347Y28990000D01*
X-54228853Y28990000D01*
X-53876267Y29060134D01*
X-53544139Y29197706D01*
X-53245231Y29397430D01*
X-52991030Y29651631D01*
X-52791306Y29950539D01*
X-52667680Y30249000D01*
X-48958567Y30249000D01*
X-48958567Y28851000D01*
X-48954705Y28811793D01*
X-48943269Y28774093D01*
X-48924698Y28739349D01*
X-48899705Y28708895D01*
X-48869251Y28683902D01*
X-48834507Y28665331D01*
X-48796807Y28653895D01*
X-48757600Y28650033D01*
X-47359600Y28650033D01*
X-47320393Y28653895D01*
X-47282693Y28665331D01*
X-47247949Y28683902D01*
X-47217495Y28708895D01*
X-47192502Y28739349D01*
X-47173931Y28774093D01*
X-47162495Y28811793D01*
X-47158633Y28851000D01*
X-47158633Y29378859D01*
X-25240600Y29378859D01*
X-25240600Y29295141D01*
X-25224267Y29213032D01*
X-25192230Y29135687D01*
X-25145719Y29066079D01*
X-25086521Y29006881D01*
X-25016913Y28960370D01*
X-24939568Y28928333D01*
X-24857459Y28912000D01*
X-24773741Y28912000D01*
X-24691632Y28928333D01*
X-24614287Y28960370D01*
X-24544679Y29006881D01*
X-24485481Y29066079D01*
X-24438970Y29135687D01*
X-24406933Y29213032D01*
X-24397718Y29259361D01*
X-21711100Y29259361D01*
X-21711100Y29175643D01*
X-21694767Y29093534D01*
X-21662730Y29016189D01*
X-21616219Y28946581D01*
X-21557021Y28887383D01*
X-21487413Y28840872D01*
X-21410068Y28808835D01*
X-21327959Y28792502D01*
X-21244241Y28792502D01*
X-21162132Y28808835D01*
X-21084787Y28840872D01*
X-21015179Y28887383D01*
X-20997600Y28904962D01*
X-20980021Y28887383D01*
X-20910413Y28840872D01*
X-20833068Y28808835D01*
X-20750959Y28792502D01*
X-20667241Y28792502D01*
X-20585132Y28808835D01*
X-20507787Y28840872D01*
X-20438179Y28887383D01*
X-20378981Y28946581D01*
X-20332470Y29016189D01*
X-20300433Y29093534D01*
X-20284100Y29175643D01*
X-20284100Y29259361D01*
X-20211100Y29259361D01*
X-20211100Y29175643D01*
X-20194767Y29093534D01*
X-20162730Y29016189D01*
X-20116219Y28946581D01*
X-20057021Y28887383D01*
X-19987413Y28840872D01*
X-19910068Y28808835D01*
X-19827959Y28792502D01*
X-19744241Y28792502D01*
X-19662132Y28808835D01*
X-19584787Y28840872D01*
X-19515179Y28887383D01*
X-19497600Y28904962D01*
X-19480021Y28887383D01*
X-19410413Y28840872D01*
X-19333068Y28808835D01*
X-19250959Y28792502D01*
X-19167241Y28792502D01*
X-19085132Y28808835D01*
X-19007787Y28840872D01*
X-18938179Y28887383D01*
X-18878981Y28946581D01*
X-18832470Y29016189D01*
X-18800433Y29093534D01*
X-18784100Y29175643D01*
X-18784100Y29259361D01*
X-18800433Y29341470D01*
X-18815919Y29378859D01*
X-18128600Y29378859D01*
X-18128600Y29295141D01*
X-18112267Y29213032D01*
X-18080230Y29135687D01*
X-18033719Y29066079D01*
X-17974521Y29006881D01*
X-17904913Y28960370D01*
X-17827568Y28928333D01*
X-17745459Y28912000D01*
X-17661741Y28912000D01*
X-17579632Y28928333D01*
X-17502287Y28960370D01*
X-17432679Y29006881D01*
X-17373481Y29066079D01*
X-17326970Y29135687D01*
X-17294933Y29213032D01*
X-17278600Y29295141D01*
X-17278600Y29378859D01*
X-17294933Y29460968D01*
X-17326970Y29538313D01*
X-17373481Y29607921D01*
X-17398419Y29632859D01*
X-16604600Y29632859D01*
X-16604600Y29549141D01*
X-16588267Y29467032D01*
X-16556230Y29389687D01*
X-16509719Y29320079D01*
X-16450521Y29260881D01*
X-16380913Y29214370D01*
X-16303568Y29182333D01*
X-16221459Y29166000D01*
X-16137741Y29166000D01*
X-16055632Y29182333D01*
X-15978287Y29214370D01*
X-15908679Y29260881D01*
X-15849481Y29320079D01*
X-15802970Y29389687D01*
X-15770933Y29467032D01*
X-15754600Y29549141D01*
X-15754600Y29632859D01*
X-15770933Y29714968D01*
X-15802970Y29792313D01*
X-15815835Y29811567D01*
X-9255600Y29811567D01*
X-9255600Y29624433D01*
X-9219092Y29440895D01*
X-9147479Y29268006D01*
X-9043513Y29112410D01*
X-8911190Y28980087D01*
X-8755594Y28876121D01*
X-8582705Y28804508D01*
X-8399167Y28768000D01*
X-8212033Y28768000D01*
X-8028495Y28804508D01*
X-7855606Y28876121D01*
X-7700010Y28980087D01*
X-7567687Y29112410D01*
X-7463721Y29268006D01*
X-7392108Y29440895D01*
X-7355600Y29624433D01*
X-7355600Y29811567D01*
X-7392108Y29995105D01*
X-7463721Y30167994D01*
X-7567687Y30323590D01*
X-7700010Y30455913D01*
X-7855606Y30559879D01*
X-8028495Y30631492D01*
X-8212033Y30668000D01*
X-8399167Y30668000D01*
X-8582705Y30631492D01*
X-8755594Y30559879D01*
X-8911190Y30455913D01*
X-9043513Y30323590D01*
X-9147479Y30167994D01*
X-9219092Y29995105D01*
X-9255600Y29811567D01*
X-15815835Y29811567D01*
X-15849481Y29861921D01*
X-15908679Y29921119D01*
X-15978287Y29967630D01*
X-16055632Y29999667D01*
X-16137741Y30016000D01*
X-16221459Y30016000D01*
X-16303568Y29999667D01*
X-16380913Y29967630D01*
X-16450521Y29921119D01*
X-16509719Y29861921D01*
X-16556230Y29792313D01*
X-16588267Y29714968D01*
X-16604600Y29632859D01*
X-17398419Y29632859D01*
X-17432679Y29667119D01*
X-17502287Y29713630D01*
X-17579632Y29745667D01*
X-17661741Y29762000D01*
X-17745459Y29762000D01*
X-17827568Y29745667D01*
X-17904913Y29713630D01*
X-17974521Y29667119D01*
X-18033719Y29607921D01*
X-18080230Y29538313D01*
X-18112267Y29460968D01*
X-18128600Y29378859D01*
X-18815919Y29378859D01*
X-18832470Y29418815D01*
X-18878981Y29488423D01*
X-18938179Y29547621D01*
X-19007787Y29594132D01*
X-19085132Y29626169D01*
X-19167241Y29642502D01*
X-19250959Y29642502D01*
X-19333068Y29626169D01*
X-19410413Y29594132D01*
X-19480021Y29547621D01*
X-19497600Y29530042D01*
X-19515179Y29547621D01*
X-19584787Y29594132D01*
X-19662132Y29626169D01*
X-19744241Y29642502D01*
X-19827959Y29642502D01*
X-19910068Y29626169D01*
X-19987413Y29594132D01*
X-20057021Y29547621D01*
X-20116219Y29488423D01*
X-20162730Y29418815D01*
X-20194767Y29341470D01*
X-20211100Y29259361D01*
X-20284100Y29259361D01*
X-20300433Y29341470D01*
X-20332470Y29418815D01*
X-20378981Y29488423D01*
X-20438179Y29547621D01*
X-20507787Y29594132D01*
X-20585132Y29626169D01*
X-20667241Y29642502D01*
X-20750959Y29642502D01*
X-20833068Y29626169D01*
X-20910413Y29594132D01*
X-20980021Y29547621D01*
X-20997600Y29530042D01*
X-21015179Y29547621D01*
X-21084787Y29594132D01*
X-21162132Y29626169D01*
X-21244241Y29642502D01*
X-21327959Y29642502D01*
X-21410068Y29626169D01*
X-21487413Y29594132D01*
X-21557021Y29547621D01*
X-21616219Y29488423D01*
X-21662730Y29418815D01*
X-21694767Y29341470D01*
X-21711100Y29259361D01*
X-24397718Y29259361D01*
X-24390600Y29295141D01*
X-24390600Y29378859D01*
X-24406933Y29460968D01*
X-24438970Y29538313D01*
X-24485481Y29607921D01*
X-24544679Y29667119D01*
X-24614287Y29713630D01*
X-24691632Y29745667D01*
X-24773741Y29762000D01*
X-24857459Y29762000D01*
X-24939568Y29745667D01*
X-25016913Y29713630D01*
X-25086521Y29667119D01*
X-25145719Y29607921D01*
X-25192230Y29538313D01*
X-25224267Y29460968D01*
X-25240600Y29378859D01*
X-47158633Y29378859D01*
X-47158633Y30249000D01*
X-47162495Y30288207D01*
X-47173931Y30325907D01*
X-47192502Y30360651D01*
X-47217495Y30391105D01*
X-47247949Y30416098D01*
X-47282693Y30434669D01*
X-47320393Y30446105D01*
X-47359600Y30449967D01*
X-48757600Y30449967D01*
X-48796807Y30446105D01*
X-48834507Y30434669D01*
X-48869251Y30416098D01*
X-48899705Y30391105D01*
X-48924698Y30360651D01*
X-48943269Y30325907D01*
X-48954705Y30288207D01*
X-48958567Y30249000D01*
X-52667680Y30249000D01*
X-52653734Y30282667D01*
X-52583600Y30635253D01*
X-52583600Y30908544D01*
X-46417600Y30908544D01*
X-46417600Y30731456D01*
X-46383052Y30557771D01*
X-46315284Y30394164D01*
X-46216899Y30246921D01*
X-46091679Y30121701D01*
X-45944436Y30023316D01*
X-45780829Y29955548D01*
X-45607144Y29921000D01*
X-45430056Y29921000D01*
X-45256371Y29955548D01*
X-45092764Y30023316D01*
X-44945521Y30121701D01*
X-44820301Y30246921D01*
X-44721916Y30394164D01*
X-44654148Y30557771D01*
X-44636030Y30648859D01*
X-24859600Y30648859D01*
X-24859600Y30565141D01*
X-24843267Y30483032D01*
X-24811230Y30405687D01*
X-24764719Y30336079D01*
X-24705521Y30276881D01*
X-24635913Y30230370D01*
X-24558568Y30198333D01*
X-24476459Y30182000D01*
X-24392741Y30182000D01*
X-24310632Y30198333D01*
X-24233287Y30230370D01*
X-24163679Y30276881D01*
X-24104481Y30336079D01*
X-24057970Y30405687D01*
X-24025933Y30483032D01*
X-24009600Y30565141D01*
X-24009600Y30648859D01*
X-24025933Y30730968D01*
X-24057970Y30808313D01*
X-24104481Y30877921D01*
X-24163679Y30937119D01*
X-24233287Y30983630D01*
X-24310632Y31015667D01*
X-24392741Y31032000D01*
X-24476459Y31032000D01*
X-24558568Y31015667D01*
X-24635913Y30983630D01*
X-24705521Y30937119D01*
X-24764719Y30877921D01*
X-24811230Y30808313D01*
X-24843267Y30730968D01*
X-24859600Y30648859D01*
X-44636030Y30648859D01*
X-44619600Y30731456D01*
X-44619600Y30908544D01*
X-44654148Y31082229D01*
X-44721916Y31245836D01*
X-44820301Y31393079D01*
X-44945521Y31518299D01*
X-45092764Y31616684D01*
X-45256371Y31684452D01*
X-45430056Y31719000D01*
X-45607144Y31719000D01*
X-45780829Y31684452D01*
X-45944436Y31616684D01*
X-46091679Y31518299D01*
X-46216899Y31393079D01*
X-46315284Y31245836D01*
X-46383052Y31082229D01*
X-46417600Y30908544D01*
X-52583600Y30908544D01*
X-52583600Y30994747D01*
X-52653734Y31347333D01*
X-52791306Y31679461D01*
X-52906667Y31852112D01*
X-52316133Y31852112D01*
X-52178416Y31674087D01*
X-51934230Y31536647D01*
X-51667923Y31449487D01*
X-51389728Y31415956D01*
X-51110338Y31437341D01*
X-50840487Y31512822D01*
X-50590548Y31639499D01*
X-50538784Y31674087D01*
X-50447678Y31791859D01*
X-27780600Y31791859D01*
X-27780600Y31708141D01*
X-27764267Y31626032D01*
X-27732230Y31548687D01*
X-27685719Y31479079D01*
X-27626521Y31419881D01*
X-27556913Y31373370D01*
X-27479568Y31341333D01*
X-27397459Y31325000D01*
X-27313741Y31325000D01*
X-27231632Y31341333D01*
X-27154287Y31373370D01*
X-27084679Y31419881D01*
X-27025481Y31479079D01*
X-26978970Y31548687D01*
X-26946933Y31626032D01*
X-26930600Y31708141D01*
X-26930600Y31791859D01*
X-26946933Y31873968D01*
X-26978970Y31951313D01*
X-27025481Y32020921D01*
X-27084679Y32080119D01*
X-27154287Y32126630D01*
X-27231632Y32158667D01*
X-27313741Y32175000D01*
X-27397459Y32175000D01*
X-27479568Y32158667D01*
X-27556913Y32126630D01*
X-27626521Y32080119D01*
X-27685719Y32020921D01*
X-27732230Y31951313D01*
X-27764267Y31873968D01*
X-27780600Y31791859D01*
X-50447678Y31791859D01*
X-50401067Y31852112D01*
X-51358600Y32809645D01*
X-52316133Y31852112D01*
X-52906667Y31852112D01*
X-52991030Y31978369D01*
X-53245231Y32232570D01*
X-53544139Y32432294D01*
X-53876267Y32569866D01*
X-54228853Y32640000D01*
X-54588347Y32640000D01*
X-54940933Y32569866D01*
X-55273061Y32432294D01*
X-55571969Y32232570D01*
X-55826170Y31978369D01*
X-56025894Y31679461D01*
X-56163466Y31347333D01*
X-56233600Y30994747D01*
X-58674137Y30994747D01*
X-58559036Y31109848D01*
X-58453428Y31267901D01*
X-58380685Y31443520D01*
X-58343600Y31629956D01*
X-58343600Y31820044D01*
X-58380685Y32006480D01*
X-58453428Y32182099D01*
X-58559036Y32340152D01*
X-58693448Y32474564D01*
X-58851501Y32580172D01*
X-59027120Y32652915D01*
X-59213556Y32690000D01*
X-59403644Y32690000D01*
X-59590080Y32652915D01*
X-59765699Y32580172D01*
X-59923752Y32474564D01*
X-60058164Y32340152D01*
X-60163772Y32182099D01*
X-60236515Y32006480D01*
X-60273600Y31820044D01*
X-63750000Y31820044D01*
X-63750000Y32876128D01*
X-52787644Y32876128D01*
X-52766259Y32596738D01*
X-52690778Y32326887D01*
X-52564101Y32076948D01*
X-52529513Y32025184D01*
X-52351488Y31887467D01*
X-51393955Y32845000D01*
X-51323245Y32845000D01*
X-50365712Y31887467D01*
X-50187687Y32025184D01*
X-50050247Y32269370D01*
X-49963087Y32535677D01*
X-49929556Y32813872D01*
X-49950941Y33093262D01*
X-50026422Y33363113D01*
X-50131207Y33569859D01*
X-14572600Y33569859D01*
X-14572600Y33486141D01*
X-14556267Y33404032D01*
X-14524230Y33326687D01*
X-14477719Y33257079D01*
X-14418521Y33197881D01*
X-14348913Y33151370D01*
X-14271568Y33119333D01*
X-14189459Y33103000D01*
X-14105741Y33103000D01*
X-14023632Y33119333D01*
X-13946287Y33151370D01*
X-13876679Y33197881D01*
X-13817481Y33257079D01*
X-13770970Y33326687D01*
X-13738933Y33404032D01*
X-13722600Y33486141D01*
X-13722600Y33569859D01*
X-13738933Y33651968D01*
X-13770970Y33729313D01*
X-13817481Y33798921D01*
X-13876679Y33858119D01*
X-13946287Y33904630D01*
X-14023632Y33936667D01*
X-14105741Y33953000D01*
X-14189459Y33953000D01*
X-14271568Y33936667D01*
X-14348913Y33904630D01*
X-14418521Y33858119D01*
X-14477719Y33798921D01*
X-14524230Y33729313D01*
X-14556267Y33651968D01*
X-14572600Y33569859D01*
X-50131207Y33569859D01*
X-50153099Y33613052D01*
X-50187687Y33664816D01*
X-50365712Y33802533D01*
X-51323245Y32845000D01*
X-51393955Y32845000D01*
X-52351488Y33802533D01*
X-52529513Y33664816D01*
X-52666953Y33420630D01*
X-52754113Y33154323D01*
X-52787644Y32876128D01*
X-63750000Y32876128D01*
X-63750000Y33837888D01*
X-52316133Y33837888D01*
X-51358600Y32880355D01*
X-50401067Y33837888D01*
X-50538784Y34015913D01*
X-50782970Y34153353D01*
X-51049277Y34240513D01*
X-51327472Y34274044D01*
X-51606862Y34252659D01*
X-51876713Y34177178D01*
X-52126652Y34050501D01*
X-52178416Y34015913D01*
X-52316133Y33837888D01*
X-63750000Y33837888D01*
X-63750000Y36861858D01*
X-38613601Y36861858D01*
X-38613601Y36778140D01*
X-38597268Y36696031D01*
X-38565231Y36618686D01*
X-38518720Y36549078D01*
X-38459522Y36489880D01*
X-38389914Y36443369D01*
X-38312569Y36411332D01*
X-38230460Y36394999D01*
X-38146742Y36394999D01*
X-38064633Y36411332D01*
X-37987288Y36443369D01*
X-37917680Y36489880D01*
X-37858482Y36549078D01*
X-37811971Y36618686D01*
X-37779934Y36696031D01*
X-37763601Y36778140D01*
X-37763601Y36803001D01*
X-37738740Y36803001D01*
X-37656631Y36819334D01*
X-37579286Y36851371D01*
X-37509678Y36897882D01*
X-37450480Y36957080D01*
X-37403969Y37026688D01*
X-37371932Y37104033D01*
X-37355599Y37186142D01*
X-37355599Y37269860D01*
X-37371932Y37351969D01*
X-37403969Y37429314D01*
X-37450480Y37498922D01*
X-37509678Y37558120D01*
X-37579286Y37604631D01*
X-37656631Y37636668D01*
X-37738740Y37653001D01*
X-37822458Y37653001D01*
X-37904567Y37636668D01*
X-37981912Y37604631D01*
X-38051520Y37558120D01*
X-38110718Y37498922D01*
X-38157229Y37429314D01*
X-38189266Y37351969D01*
X-38205599Y37269860D01*
X-38205599Y37244999D01*
X-38230460Y37244999D01*
X-38312569Y37228666D01*
X-38389914Y37196629D01*
X-38459522Y37150118D01*
X-38518720Y37090920D01*
X-38565231Y37021312D01*
X-38597268Y36943967D01*
X-38613601Y36861858D01*
X-63750000Y36861858D01*
X-63750000Y38776859D01*
X-60197600Y38776859D01*
X-60197600Y38693141D01*
X-60181267Y38611032D01*
X-60149230Y38533687D01*
X-60102719Y38464079D01*
X-60043521Y38404881D01*
X-59973913Y38358370D01*
X-59896568Y38326333D01*
X-59814459Y38310000D01*
X-59730741Y38310000D01*
X-59648632Y38326333D01*
X-59571287Y38358370D01*
X-59501679Y38404881D01*
X-59442481Y38464079D01*
X-59395970Y38533687D01*
X-59363933Y38611032D01*
X-59347600Y38693141D01*
X-59347600Y38776859D01*
X-59363933Y38858968D01*
X-59395970Y38936313D01*
X-59442481Y39005921D01*
X-59501679Y39065119D01*
X-59571287Y39111630D01*
X-59648632Y39143667D01*
X-59730741Y39160000D01*
X-59814459Y39160000D01*
X-59896568Y39143667D01*
X-59973913Y39111630D01*
X-60043521Y39065119D01*
X-60102719Y39005921D01*
X-60149230Y38936313D01*
X-60181267Y38858968D01*
X-60197600Y38776859D01*
X-63750000Y38776859D01*
X-63750000Y45777284D01*
X-61200000Y45777284D01*
X-61200000Y45422716D01*
X-61130827Y45074959D01*
X-60995139Y44747380D01*
X-60798151Y44452567D01*
X-60547433Y44201849D01*
X-60252620Y44004861D01*
X-59925041Y43869173D01*
X-59577284Y43800000D01*
X-59222716Y43800000D01*
X-58874959Y43869173D01*
X-58547380Y44004861D01*
X-58252567Y44201849D01*
X-58001849Y44452567D01*
X-57804861Y44747380D01*
X-57669173Y45074959D01*
X-57600000Y45422716D01*
X-57600000Y45777284D01*
X-57669173Y46125041D01*
X-57804861Y46452620D01*
X-58001849Y46747433D01*
X-58252567Y46998151D01*
X-58547380Y47195139D01*
X-58874959Y47330827D01*
X-59222716Y47400000D01*
X-59577284Y47400000D01*
X-59925041Y47330827D01*
X-60252620Y47195139D01*
X-60547433Y46998151D01*
X-60798151Y46747433D01*
X-60995139Y46452620D01*
X-61130827Y46125041D01*
X-61200000Y45777284D01*
X-63750000Y45777284D01*
X-63750000Y49987771D01*
X-63734540Y50145443D01*
X-63692301Y50285346D01*
X-63623692Y50414381D01*
X-63531328Y50527631D01*
X-63418725Y50620785D01*
X-63290177Y50690290D01*
X-63150563Y50733508D01*
X-62980848Y50751346D01*
X-62975912Y50752359D01*
X-62950598Y50754929D01*
X-62903938Y50769192D01*
X-62893105Y50775000D01*
X-25958000Y50775000D01*
X-25958000Y42672000D01*
G37*
X-25958000Y42672000D02*
X-25957039Y42662245D01*
X-25954194Y42652866D01*
X-25949573Y42644221D01*
X-25943355Y42636645D01*
X-25935779Y42630427D01*
X-25927134Y42625806D01*
X-25917755Y42622961D01*
X-25908000Y42622000D01*
X-227600Y42622000D01*
X-227600Y36576157D01*
X-354535Y-3789225D01*
X-579310Y-4014000D01*
X-6633890Y-4014000D01*
X-6858600Y-3789290D01*
X-6858600Y3556000D01*
X-6859561Y3565755D01*
X-6862406Y3575134D01*
X-6867027Y3583779D01*
X-6873245Y3591355D01*
X-7381245Y4099355D01*
X-7388821Y4105573D01*
X-7394239Y4108721D01*
X-7902239Y4362721D01*
X-7911394Y4366224D01*
X-7924600Y4368000D01*
X-8432600Y4368000D01*
X-8442355Y4367039D01*
X-8454961Y4362721D01*
X-8962961Y4108721D01*
X-8971256Y4103500D01*
X-8975955Y4099355D01*
X-9483955Y3591355D01*
X-9490173Y3583779D01*
X-9494794Y3575134D01*
X-9497639Y3565755D01*
X-9498600Y3556000D01*
X-9498600Y-3789290D01*
X-9723310Y-4014000D01*
X-19587890Y-4014000D01*
X-20050000Y-3551890D01*
X-20050000Y2520821D01*
X-11549600Y2520821D01*
X-11549600Y2432179D01*
X-11532306Y2345240D01*
X-11498385Y2263345D01*
X-11449138Y2189642D01*
X-11386458Y2126962D01*
X-11312755Y2077715D01*
X-11230860Y2043794D01*
X-11143921Y2026500D01*
X-11055279Y2026500D01*
X-10968340Y2043794D01*
X-10886445Y2077715D01*
X-10812742Y2126962D01*
X-10750062Y2189642D01*
X-10700815Y2263345D01*
X-10666894Y2345240D01*
X-10649600Y2432179D01*
X-10649600Y2520821D01*
X-10666894Y2607760D01*
X-10700815Y2689655D01*
X-10750062Y2763358D01*
X-10812742Y2826038D01*
X-10886445Y2875285D01*
X-10968340Y2909206D01*
X-11055279Y2926500D01*
X-11143921Y2926500D01*
X-11230860Y2909206D01*
X-11312755Y2875285D01*
X-11386458Y2826038D01*
X-11449138Y2763358D01*
X-11498385Y2689655D01*
X-11532306Y2607760D01*
X-11549600Y2520821D01*
X-20050000Y2520821D01*
X-20050000Y5124321D01*
X-15867600Y5124321D01*
X-15867600Y5035679D01*
X-15850306Y4948740D01*
X-15816385Y4866845D01*
X-15767138Y4793142D01*
X-15704458Y4730462D01*
X-15630755Y4681215D01*
X-15548860Y4647294D01*
X-15461921Y4630000D01*
X-15373279Y4630000D01*
X-15286340Y4647294D01*
X-15204445Y4681215D01*
X-15130742Y4730462D01*
X-15068062Y4793142D01*
X-15018815Y4866845D01*
X-14984894Y4948740D01*
X-14967600Y5035679D01*
X-14967600Y5124321D01*
X-14984894Y5211260D01*
X-15018815Y5293155D01*
X-15068062Y5366858D01*
X-15130742Y5429538D01*
X-15204445Y5478785D01*
X-15286340Y5512706D01*
X-15373279Y5530000D01*
X-15461921Y5530000D01*
X-15548860Y5512706D01*
X-15630755Y5478785D01*
X-15704458Y5429538D01*
X-15767138Y5366858D01*
X-15816385Y5293155D01*
X-15850306Y5211260D01*
X-15867600Y5124321D01*
X-20050000Y5124321D01*
X-20050000Y5695821D01*
X-18725100Y5695821D01*
X-18725100Y5607179D01*
X-18707806Y5520240D01*
X-18673885Y5438345D01*
X-18624638Y5364642D01*
X-18561958Y5301962D01*
X-18488255Y5252715D01*
X-18406360Y5218794D01*
X-18319421Y5201500D01*
X-18230779Y5201500D01*
X-18143840Y5218794D01*
X-18061945Y5252715D01*
X-17988242Y5301962D01*
X-17925562Y5364642D01*
X-17876315Y5438345D01*
X-17842394Y5520240D01*
X-17825100Y5607179D01*
X-17825100Y5695821D01*
X-17842394Y5782760D01*
X-17876315Y5864655D01*
X-17925562Y5938358D01*
X-17988242Y6001038D01*
X-18061945Y6050285D01*
X-18143840Y6084206D01*
X-18230779Y6101500D01*
X-18319421Y6101500D01*
X-18406360Y6084206D01*
X-18488255Y6050285D01*
X-18561958Y6001038D01*
X-18624638Y5938358D01*
X-18673885Y5864655D01*
X-18707806Y5782760D01*
X-18725100Y5695821D01*
X-20050000Y5695821D01*
X-20050000Y6490875D01*
X-20050086Y6491744D01*
X-20050184Y6505827D01*
X-20051371Y6517121D01*
X-20051371Y6528476D01*
X-20051736Y6531948D01*
X-20066600Y6664463D01*
X-20066600Y6698447D01*
X-18039974Y6698447D01*
X-18039974Y6609805D01*
X-18022680Y6522866D01*
X-17988759Y6440971D01*
X-17939512Y6367268D01*
X-17876832Y6304588D01*
X-17803129Y6255341D01*
X-17721234Y6221420D01*
X-17634295Y6204126D01*
X-17545653Y6204126D01*
X-17458714Y6221420D01*
X-17376819Y6255341D01*
X-17303116Y6304588D01*
X-17240436Y6367268D01*
X-17191189Y6440971D01*
X-17157268Y6522866D01*
X-17139974Y6609805D01*
X-17139974Y6698447D01*
X-17157268Y6785386D01*
X-17191189Y6867281D01*
X-17240436Y6940984D01*
X-17261273Y6961821D01*
X-6850600Y6961821D01*
X-6850600Y6873179D01*
X-6833306Y6786240D01*
X-6799385Y6704345D01*
X-6750138Y6630642D01*
X-6723496Y6604000D01*
X-6750138Y6577358D01*
X-6799385Y6503655D01*
X-6833306Y6421760D01*
X-6850600Y6334821D01*
X-6850600Y6246179D01*
X-6833306Y6159240D01*
X-6799385Y6077345D01*
X-6750138Y6003642D01*
X-6687458Y5940962D01*
X-6613755Y5891715D01*
X-6531860Y5857794D01*
X-6444921Y5840500D01*
X-6356279Y5840500D01*
X-6269340Y5857794D01*
X-6187445Y5891715D01*
X-6113742Y5940962D01*
X-6051062Y6003642D01*
X-6001815Y6077345D01*
X-5967894Y6159240D01*
X-5950600Y6246179D01*
X-5950600Y6334821D01*
X-5967894Y6421760D01*
X-6001815Y6503655D01*
X-6051062Y6577358D01*
X-6077704Y6604000D01*
X-6051062Y6630642D01*
X-6001815Y6704345D01*
X-5967894Y6786240D01*
X-5950600Y6873179D01*
X-5950600Y6961821D01*
X-5967894Y7048760D01*
X-6001815Y7130655D01*
X-6051062Y7204358D01*
X-6113742Y7267038D01*
X-6187445Y7316285D01*
X-6269340Y7350206D01*
X-6356279Y7367500D01*
X-6444921Y7367500D01*
X-6531860Y7350206D01*
X-6613755Y7316285D01*
X-6687458Y7267038D01*
X-6750138Y7204358D01*
X-6799385Y7130655D01*
X-6833306Y7048760D01*
X-6850600Y6961821D01*
X-17261273Y6961821D01*
X-17303116Y7003664D01*
X-17376819Y7052911D01*
X-17458714Y7086832D01*
X-17545653Y7104126D01*
X-17634295Y7104126D01*
X-17721234Y7086832D01*
X-17803129Y7052911D01*
X-17876832Y7003664D01*
X-17939512Y6940984D01*
X-17988759Y6867281D01*
X-18022680Y6785386D01*
X-18039974Y6698447D01*
X-20066600Y6698447D01*
X-20066600Y7620000D01*
X-20067561Y7629755D01*
X-20070406Y7639134D01*
X-20075027Y7647779D01*
X-20081245Y7655355D01*
X-20843245Y8417355D01*
X-20850821Y8423573D01*
X-20859466Y8428194D01*
X-20866473Y8430507D01*
X-21103729Y8489821D01*
X-4628100Y8489821D01*
X-4628100Y8401179D01*
X-4610806Y8314240D01*
X-4576885Y8232345D01*
X-4527638Y8158642D01*
X-4464958Y8095962D01*
X-4391255Y8046715D01*
X-4309360Y8012794D01*
X-4222421Y7995500D01*
X-4133779Y7995500D01*
X-4046840Y8012794D01*
X-3964945Y8046715D01*
X-3891242Y8095962D01*
X-3828562Y8158642D01*
X-3779315Y8232345D01*
X-3745394Y8314240D01*
X-3728100Y8401179D01*
X-3728100Y8489821D01*
X-3745394Y8576760D01*
X-3779315Y8658655D01*
X-3828562Y8732358D01*
X-3891242Y8795038D01*
X-3964945Y8844285D01*
X-4046840Y8878206D01*
X-4133779Y8895500D01*
X-4222421Y8895500D01*
X-4309360Y8878206D01*
X-4391255Y8844285D01*
X-4464958Y8795038D01*
X-4527638Y8732358D01*
X-4576885Y8658655D01*
X-4610806Y8576760D01*
X-4628100Y8489821D01*
X-21103729Y8489821D01*
X-21882473Y8684507D01*
X-21892170Y8685941D01*
X-21904406Y8685029D01*
X-23174406Y8431029D01*
X-23183782Y8428174D01*
X-23194600Y8422000D01*
X-24210600Y7660000D01*
X-24217827Y7653379D01*
X-24223624Y7645475D01*
X-24227767Y7636592D01*
X-24230097Y7627071D01*
X-24230600Y7620000D01*
X-24230600Y528710D01*
X-24455310Y304000D01*
X-31525890Y304000D01*
X-31700000Y478110D01*
X-31700000Y7315875D01*
X-31700190Y7317805D01*
X-31700510Y7338446D01*
X-31701913Y7350781D01*
X-31702124Y7363197D01*
X-31702548Y7366662D01*
X-31727599Y7560212D01*
X-31732683Y7582280D01*
X-31737465Y7604442D01*
X-31738554Y7607759D01*
X-31750600Y7643605D01*
X-31750600Y7874000D01*
X-31751561Y7883755D01*
X-31754406Y7893134D01*
X-31759027Y7901779D01*
X-31765245Y7909355D01*
X-32273245Y8417355D01*
X-32280821Y8423573D01*
X-32286239Y8426721D01*
X-32794239Y8680721D01*
X-32803394Y8684224D01*
X-32816600Y8686000D01*
X-49834600Y8686000D01*
X-49844355Y8685039D01*
X-49853734Y8682194D01*
X-49862335Y8677603D01*
X-50624335Y8169603D01*
X-50631918Y8163392D01*
X-50638144Y8155822D01*
X-50642774Y8147182D01*
X-50645629Y8137806D01*
X-50646600Y8128000D01*
X-50646600Y1027803D01*
X-50887868Y545268D01*
X-51370403Y304000D01*
X-63273094Y304000D01*
X-63285346Y307699D01*
X-63414383Y376309D01*
X-63527629Y468670D01*
X-63620785Y581276D01*
X-63690291Y709825D01*
X-63733508Y849437D01*
X-63750000Y1006346D01*
X-63750000Y4777284D01*
X-61200000Y4777284D01*
X-61200000Y4422716D01*
X-61130827Y4074959D01*
X-60995139Y3747380D01*
X-60798151Y3452567D01*
X-60547433Y3201849D01*
X-60252620Y3004861D01*
X-59925041Y2869173D01*
X-59577284Y2800000D01*
X-59222716Y2800000D01*
X-58874959Y2869173D01*
X-58547380Y3004861D01*
X-58252567Y3201849D01*
X-58001849Y3452567D01*
X-57804861Y3747380D01*
X-57669173Y4074959D01*
X-57600000Y4422716D01*
X-57600000Y4777284D01*
X-57669173Y5125041D01*
X-57804861Y5452620D01*
X-58001849Y5747433D01*
X-58252567Y5998151D01*
X-58547380Y6195139D01*
X-58874959Y6330827D01*
X-59222716Y6400000D01*
X-59577284Y6400000D01*
X-59925041Y6330827D01*
X-60252620Y6195139D01*
X-60547433Y5998151D01*
X-60798151Y5747433D01*
X-60995139Y5452620D01*
X-61130827Y5125041D01*
X-61200000Y4777284D01*
X-63750000Y4777284D01*
X-63750000Y8995359D01*
X-28923600Y8995359D01*
X-28923600Y8911641D01*
X-28907267Y8829532D01*
X-28875230Y8752187D01*
X-28828719Y8682579D01*
X-28769521Y8623381D01*
X-28699913Y8576870D01*
X-28622568Y8544833D01*
X-28540459Y8528500D01*
X-28456741Y8528500D01*
X-28374632Y8544833D01*
X-28297287Y8576870D01*
X-28227679Y8623381D01*
X-28168481Y8682579D01*
X-28121970Y8752187D01*
X-28089933Y8829532D01*
X-28073600Y8911641D01*
X-28073600Y8995359D01*
X-28089933Y9077468D01*
X-28121970Y9154813D01*
X-28168481Y9224421D01*
X-28227679Y9283619D01*
X-28297287Y9330130D01*
X-28374632Y9362167D01*
X-28456741Y9378500D01*
X-28540459Y9378500D01*
X-28622568Y9362167D01*
X-28699913Y9330130D01*
X-28769521Y9283619D01*
X-28828719Y9224421D01*
X-28875230Y9154813D01*
X-28907267Y9077468D01*
X-28923600Y8995359D01*
X-63750000Y8995359D01*
X-63750000Y9693859D01*
X-41623600Y9693859D01*
X-41623600Y9610141D01*
X-41607267Y9528032D01*
X-41575230Y9450687D01*
X-41528719Y9381079D01*
X-41469521Y9321881D01*
X-41399913Y9275370D01*
X-41322568Y9243333D01*
X-41240459Y9227000D01*
X-41156741Y9227000D01*
X-41074632Y9243333D01*
X-40997287Y9275370D01*
X-40927679Y9321881D01*
X-40868481Y9381079D01*
X-40821970Y9450687D01*
X-40789933Y9528032D01*
X-40773600Y9610141D01*
X-40773600Y9693859D01*
X-40789933Y9775968D01*
X-40821970Y9853313D01*
X-40868481Y9922921D01*
X-40893419Y9947859D01*
X-37940600Y9947859D01*
X-37940600Y9864141D01*
X-37924267Y9782032D01*
X-37892230Y9704687D01*
X-37845719Y9635079D01*
X-37786521Y9575881D01*
X-37716913Y9529370D01*
X-37639568Y9497333D01*
X-37557459Y9481000D01*
X-37473741Y9481000D01*
X-37391632Y9497333D01*
X-37314287Y9529370D01*
X-37244679Y9575881D01*
X-37185481Y9635079D01*
X-37138970Y9704687D01*
X-37106933Y9782032D01*
X-37090600Y9864141D01*
X-37090600Y9947859D01*
X-37106933Y10029968D01*
X-37138970Y10107313D01*
X-37185481Y10176921D01*
X-37244679Y10236119D01*
X-37314287Y10282630D01*
X-37391632Y10314667D01*
X-37473741Y10331000D01*
X-37557459Y10331000D01*
X-37639568Y10314667D01*
X-37716913Y10282630D01*
X-37786521Y10236119D01*
X-37845719Y10176921D01*
X-37892230Y10107313D01*
X-37924267Y10029968D01*
X-37940600Y9947859D01*
X-40893419Y9947859D01*
X-40927679Y9982119D01*
X-40997287Y10028630D01*
X-41074632Y10060667D01*
X-41156741Y10077000D01*
X-41240459Y10077000D01*
X-41322568Y10060667D01*
X-41399913Y10028630D01*
X-41469521Y9982119D01*
X-41528719Y9922921D01*
X-41575230Y9853313D01*
X-41607267Y9775968D01*
X-41623600Y9693859D01*
X-63750000Y9693859D01*
X-63750000Y10839321D01*
X-46551000Y10839321D01*
X-46551000Y10750679D01*
X-46533706Y10663740D01*
X-46499785Y10581845D01*
X-46450538Y10508142D01*
X-46387858Y10445462D01*
X-46358231Y10425666D01*
X-46401230Y10361313D01*
X-46433267Y10283968D01*
X-46449600Y10201859D01*
X-46449600Y10118141D01*
X-46433267Y10036032D01*
X-46401230Y9958687D01*
X-46354719Y9889079D01*
X-46295521Y9829881D01*
X-46225913Y9783370D01*
X-46148568Y9751333D01*
X-46066459Y9735000D01*
X-45982741Y9735000D01*
X-45900632Y9751333D01*
X-45823287Y9783370D01*
X-45753679Y9829881D01*
X-45694481Y9889079D01*
X-45647970Y9958687D01*
X-45615933Y10036032D01*
X-45599600Y10118141D01*
X-45599600Y10201859D01*
X-45615933Y10283968D01*
X-45647970Y10361313D01*
X-45694481Y10430921D01*
X-45753679Y10490119D01*
X-45763154Y10496450D01*
X-45751462Y10508142D01*
X-45702215Y10581845D01*
X-45668294Y10663740D01*
X-45651000Y10750679D01*
X-45651000Y10839321D01*
X-45668294Y10926260D01*
X-45702215Y11008155D01*
X-45751462Y11081858D01*
X-45814142Y11144538D01*
X-45887845Y11193785D01*
X-45969740Y11227706D01*
X-46056679Y11245000D01*
X-46145321Y11245000D01*
X-46232260Y11227706D01*
X-46314155Y11193785D01*
X-46387858Y11144538D01*
X-46450538Y11081858D01*
X-46499785Y11008155D01*
X-46533706Y10926260D01*
X-46551000Y10839321D01*
X-63750000Y10839321D01*
X-63750000Y11725859D01*
X-32733600Y11725859D01*
X-32733600Y11642141D01*
X-32717267Y11560032D01*
X-32685230Y11482687D01*
X-32638719Y11413079D01*
X-32579521Y11353881D01*
X-32509913Y11307370D01*
X-32432568Y11275333D01*
X-32350459Y11259000D01*
X-32266741Y11259000D01*
X-32184632Y11275333D01*
X-32107287Y11307370D01*
X-32051182Y11344859D01*
X-25494600Y11344859D01*
X-25494600Y11261141D01*
X-25478267Y11179032D01*
X-25446230Y11101687D01*
X-25399719Y11032079D01*
X-25340521Y10972881D01*
X-25270913Y10926370D01*
X-25193568Y10894333D01*
X-25111459Y10878000D01*
X-25027741Y10878000D01*
X-24945632Y10894333D01*
X-24868287Y10926370D01*
X-24798679Y10972881D01*
X-24739481Y11032079D01*
X-24692970Y11101687D01*
X-24660933Y11179032D01*
X-24644600Y11261141D01*
X-24644600Y11344859D01*
X-24660933Y11426968D01*
X-24692970Y11504313D01*
X-24739481Y11573921D01*
X-24798679Y11633119D01*
X-24868287Y11679630D01*
X-24945632Y11711667D01*
X-25027741Y11728000D01*
X-25111459Y11728000D01*
X-25193568Y11711667D01*
X-25270913Y11679630D01*
X-25340521Y11633119D01*
X-25399719Y11573921D01*
X-25446230Y11504313D01*
X-25478267Y11426968D01*
X-25494600Y11344859D01*
X-32051182Y11344859D01*
X-32037679Y11353881D01*
X-31978481Y11413079D01*
X-31931970Y11482687D01*
X-31899933Y11560032D01*
X-31883600Y11642141D01*
X-31883600Y11725859D01*
X-31899933Y11807968D01*
X-31931970Y11885313D01*
X-31978481Y11954921D01*
X-32037679Y12014119D01*
X-32107287Y12060630D01*
X-32184632Y12092667D01*
X-32266741Y12109000D01*
X-32350459Y12109000D01*
X-32432568Y12092667D01*
X-32509913Y12060630D01*
X-32579521Y12014119D01*
X-32638719Y11954921D01*
X-32685230Y11885313D01*
X-32717267Y11807968D01*
X-32733600Y11725859D01*
X-63750000Y11725859D01*
X-63750000Y12490321D01*
X-26789600Y12490321D01*
X-26789600Y12401679D01*
X-26772306Y12314740D01*
X-26738385Y12232845D01*
X-26689138Y12159142D01*
X-26626458Y12096462D01*
X-26552755Y12047215D01*
X-26470860Y12013294D01*
X-26383921Y11996000D01*
X-26295279Y11996000D01*
X-26208340Y12013294D01*
X-26126445Y12047215D01*
X-26052742Y12096462D01*
X-25990062Y12159142D01*
X-25940815Y12232845D01*
X-25906894Y12314740D01*
X-25889600Y12401679D01*
X-25889600Y12490321D01*
X-25906894Y12577260D01*
X-25940815Y12659155D01*
X-25990062Y12732858D01*
X-26052742Y12795538D01*
X-26126445Y12844785D01*
X-26208340Y12878706D01*
X-26295279Y12896000D01*
X-26383921Y12896000D01*
X-26470860Y12878706D01*
X-26552755Y12844785D01*
X-26626458Y12795538D01*
X-26689138Y12732858D01*
X-26738385Y12659155D01*
X-26772306Y12577260D01*
X-26789600Y12490321D01*
X-63750000Y12490321D01*
X-63750000Y14646859D01*
X-26129600Y14646859D01*
X-26129600Y14563141D01*
X-26113267Y14481032D01*
X-26081230Y14403687D01*
X-26034719Y14334079D01*
X-25975521Y14274881D01*
X-25905913Y14228370D01*
X-25828568Y14196333D01*
X-25746459Y14180000D01*
X-25662741Y14180000D01*
X-25580632Y14196333D01*
X-25503287Y14228370D01*
X-25433679Y14274881D01*
X-25374481Y14334079D01*
X-25327970Y14403687D01*
X-25295933Y14481032D01*
X-25279600Y14563141D01*
X-25279600Y14646859D01*
X-25295933Y14728968D01*
X-25327970Y14806313D01*
X-25374481Y14875921D01*
X-25433679Y14935119D01*
X-25503287Y14981630D01*
X-25580632Y15013667D01*
X-25662741Y15030000D01*
X-25746459Y15030000D01*
X-25828568Y15013667D01*
X-25905913Y14981630D01*
X-25975521Y14935119D01*
X-26034719Y14875921D01*
X-26081230Y14806313D01*
X-26113267Y14728968D01*
X-26129600Y14646859D01*
X-63750000Y14646859D01*
X-63750000Y16362112D01*
X-52316133Y16362112D01*
X-52178416Y16184087D01*
X-51934230Y16046647D01*
X-51667923Y15959487D01*
X-51389728Y15925956D01*
X-51110338Y15947341D01*
X-50840487Y16022822D01*
X-50590548Y16149499D01*
X-50558581Y16170859D01*
X-37559600Y16170859D01*
X-37559600Y16087141D01*
X-37543267Y16005032D01*
X-37511230Y15927687D01*
X-37464719Y15858079D01*
X-37405521Y15798881D01*
X-37335913Y15752370D01*
X-37258568Y15720333D01*
X-37176459Y15704000D01*
X-37092741Y15704000D01*
X-37010632Y15720333D01*
X-36933287Y15752370D01*
X-36863679Y15798881D01*
X-36804481Y15858079D01*
X-36757970Y15927687D01*
X-36725933Y16005032D01*
X-36717720Y16046321D01*
X-19483100Y16046321D01*
X-19483100Y15957679D01*
X-19465806Y15870740D01*
X-19431885Y15788845D01*
X-19382638Y15715142D01*
X-19319958Y15652462D01*
X-19246255Y15603215D01*
X-19164360Y15569294D01*
X-19077421Y15552000D01*
X-18988779Y15552000D01*
X-18901840Y15569294D01*
X-18819945Y15603215D01*
X-18746242Y15652462D01*
X-18719600Y15679104D01*
X-18692958Y15652462D01*
X-18619255Y15603215D01*
X-18537360Y15569294D01*
X-18450421Y15552000D01*
X-18361779Y15552000D01*
X-18274840Y15569294D01*
X-18192945Y15603215D01*
X-18119242Y15652462D01*
X-18056562Y15715142D01*
X-18007315Y15788845D01*
X-17973394Y15870740D01*
X-17956100Y15957679D01*
X-17956100Y16046321D01*
X-17973394Y16133260D01*
X-18007315Y16215155D01*
X-18056562Y16288858D01*
X-18119242Y16351538D01*
X-18192945Y16400785D01*
X-18274840Y16434706D01*
X-18361779Y16452000D01*
X-18450421Y16452000D01*
X-18537360Y16434706D01*
X-18619255Y16400785D01*
X-18692958Y16351538D01*
X-18719600Y16324896D01*
X-18746242Y16351538D01*
X-18819945Y16400785D01*
X-18901840Y16434706D01*
X-18988779Y16452000D01*
X-19077421Y16452000D01*
X-19164360Y16434706D01*
X-19246255Y16400785D01*
X-19319958Y16351538D01*
X-19382638Y16288858D01*
X-19431885Y16215155D01*
X-19465806Y16133260D01*
X-19483100Y16046321D01*
X-36717720Y16046321D01*
X-36709600Y16087141D01*
X-36709600Y16170859D01*
X-36725933Y16252968D01*
X-36757970Y16330313D01*
X-36804481Y16399921D01*
X-36863679Y16459119D01*
X-36933287Y16505630D01*
X-37010632Y16537667D01*
X-37092741Y16554000D01*
X-37176459Y16554000D01*
X-37258568Y16537667D01*
X-37335913Y16505630D01*
X-37405521Y16459119D01*
X-37464719Y16399921D01*
X-37511230Y16330313D01*
X-37543267Y16252968D01*
X-37559600Y16170859D01*
X-50558581Y16170859D01*
X-50538784Y16184087D01*
X-50401067Y16362112D01*
X-51358600Y17319645D01*
X-52316133Y16362112D01*
X-63750000Y16362112D01*
X-63750000Y17386128D01*
X-52787644Y17386128D01*
X-52766259Y17106738D01*
X-52690778Y16836887D01*
X-52564101Y16586948D01*
X-52529513Y16535184D01*
X-52351488Y16397467D01*
X-51393955Y17355000D01*
X-51323245Y17355000D01*
X-50365712Y16397467D01*
X-50187687Y16535184D01*
X-50050247Y16779370D01*
X-49963087Y17045677D01*
X-49929556Y17323872D01*
X-49948419Y17570321D01*
X-45281000Y17570321D01*
X-45281000Y17481679D01*
X-45263706Y17394740D01*
X-45229785Y17312845D01*
X-45180538Y17239142D01*
X-45117858Y17176462D01*
X-45044155Y17127215D01*
X-44962260Y17093294D01*
X-44875321Y17076000D01*
X-44786679Y17076000D01*
X-44699740Y17093294D01*
X-44617845Y17127215D01*
X-44544142Y17176462D01*
X-44533745Y17186859D01*
X-36035600Y17186859D01*
X-36035600Y17103141D01*
X-36019267Y17021032D01*
X-35987230Y16943687D01*
X-35940719Y16874079D01*
X-35881521Y16814881D01*
X-35811913Y16768370D01*
X-35734568Y16736333D01*
X-35652459Y16720000D01*
X-35568741Y16720000D01*
X-35486632Y16736333D01*
X-35409287Y16768370D01*
X-35339679Y16814881D01*
X-35280481Y16874079D01*
X-35233970Y16943687D01*
X-35201933Y17021032D01*
X-35194210Y17059859D01*
X-8349600Y17059859D01*
X-8349600Y16976141D01*
X-8333267Y16894032D01*
X-8301230Y16816687D01*
X-8254719Y16747079D01*
X-8195521Y16687881D01*
X-8125913Y16641370D01*
X-8048568Y16609333D01*
X-7966459Y16593000D01*
X-7882741Y16593000D01*
X-7800632Y16609333D01*
X-7723287Y16641370D01*
X-7653679Y16687881D01*
X-7594481Y16747079D01*
X-7547970Y16816687D01*
X-7515933Y16894032D01*
X-7499600Y16976141D01*
X-7499600Y17059859D01*
X-7515933Y17141968D01*
X-7547970Y17219313D01*
X-7594481Y17288921D01*
X-7653679Y17348119D01*
X-7723287Y17394630D01*
X-7800632Y17426667D01*
X-7882741Y17443000D01*
X-7966459Y17443000D01*
X-8048568Y17426667D01*
X-8125913Y17394630D01*
X-8195521Y17348119D01*
X-8254719Y17288921D01*
X-8301230Y17219313D01*
X-8333267Y17141968D01*
X-8349600Y17059859D01*
X-35194210Y17059859D01*
X-35185600Y17103141D01*
X-35185600Y17186859D01*
X-35201933Y17268968D01*
X-35233970Y17346313D01*
X-35280481Y17415921D01*
X-35339679Y17475119D01*
X-35409287Y17521630D01*
X-35486632Y17553667D01*
X-35568741Y17570000D01*
X-35652459Y17570000D01*
X-35734568Y17553667D01*
X-35811913Y17521630D01*
X-35881521Y17475119D01*
X-35940719Y17415921D01*
X-35987230Y17346313D01*
X-36019267Y17268968D01*
X-36035600Y17186859D01*
X-44533745Y17186859D01*
X-44481462Y17239142D01*
X-44432215Y17312845D01*
X-44398294Y17394740D01*
X-44381000Y17481679D01*
X-44381000Y17570321D01*
X-44398294Y17657260D01*
X-44432215Y17739155D01*
X-44481462Y17812858D01*
X-44544142Y17875538D01*
X-44617845Y17924785D01*
X-44699740Y17958706D01*
X-44786679Y17976000D01*
X-44875321Y17976000D01*
X-44962260Y17958706D01*
X-45044155Y17924785D01*
X-45117858Y17875538D01*
X-45180538Y17812858D01*
X-45229785Y17739155D01*
X-45263706Y17657260D01*
X-45281000Y17570321D01*
X-49948419Y17570321D01*
X-49950941Y17603262D01*
X-50026422Y17873113D01*
X-50153099Y18123052D01*
X-50187687Y18174816D01*
X-50365712Y18312533D01*
X-51323245Y17355000D01*
X-51393955Y17355000D01*
X-52351488Y18312533D01*
X-52529513Y18174816D01*
X-52666953Y17930630D01*
X-52754113Y17664323D01*
X-52787644Y17386128D01*
X-63750000Y17386128D01*
X-63750000Y18570044D01*
X-60273600Y18570044D01*
X-60273600Y18379956D01*
X-60236515Y18193520D01*
X-60163772Y18017901D01*
X-60058164Y17859848D01*
X-59923752Y17725436D01*
X-59765699Y17619828D01*
X-59590080Y17547085D01*
X-59403644Y17510000D01*
X-59213556Y17510000D01*
X-59027120Y17547085D01*
X-58851501Y17619828D01*
X-58693448Y17725436D01*
X-58559036Y17859848D01*
X-58453428Y18017901D01*
X-58380685Y18193520D01*
X-58343600Y18379956D01*
X-58343600Y18570044D01*
X-58380685Y18756480D01*
X-58453428Y18932099D01*
X-58559036Y19090152D01*
X-58693448Y19224564D01*
X-58851501Y19330172D01*
X-59027120Y19402915D01*
X-59213556Y19440000D01*
X-59403644Y19440000D01*
X-59590080Y19402915D01*
X-59765699Y19330172D01*
X-59923752Y19224564D01*
X-60058164Y19090152D01*
X-60163772Y18932099D01*
X-60236515Y18756480D01*
X-60273600Y18570044D01*
X-63750000Y18570044D01*
X-63750000Y19564747D01*
X-56233600Y19564747D01*
X-56233600Y19205253D01*
X-56163466Y18852667D01*
X-56025894Y18520539D01*
X-55826170Y18221631D01*
X-55571969Y17967430D01*
X-55273061Y17767706D01*
X-54940933Y17630134D01*
X-54588347Y17560000D01*
X-54228853Y17560000D01*
X-53876267Y17630134D01*
X-53544139Y17767706D01*
X-53245231Y17967430D01*
X-52991030Y18221631D01*
X-52906668Y18347888D01*
X-52316133Y18347888D01*
X-51358600Y17390355D01*
X-50419096Y18329859D01*
X-26256600Y18329859D01*
X-26256600Y18246141D01*
X-26240267Y18164032D01*
X-26208230Y18086687D01*
X-26161719Y18017079D01*
X-26102521Y17957881D01*
X-26032913Y17911370D01*
X-25955568Y17879333D01*
X-25873459Y17863000D01*
X-25789741Y17863000D01*
X-25707632Y17879333D01*
X-25630287Y17911370D01*
X-25560679Y17957881D01*
X-25501481Y18017079D01*
X-25454970Y18086687D01*
X-25426873Y18154521D01*
X-17848800Y18154521D01*
X-17848800Y18065879D01*
X-17831506Y17978940D01*
X-17797585Y17897045D01*
X-17748338Y17823342D01*
X-17685658Y17760662D01*
X-17611955Y17711415D01*
X-17530060Y17677494D01*
X-17443121Y17660200D01*
X-17354479Y17660200D01*
X-17267540Y17677494D01*
X-17185645Y17711415D01*
X-17111942Y17760662D01*
X-17049262Y17823342D01*
X-17000015Y17897045D01*
X-16966094Y17978940D01*
X-16948800Y18065879D01*
X-16948800Y18154521D01*
X-16966094Y18241460D01*
X-17000015Y18323355D01*
X-17049262Y18397058D01*
X-17111942Y18459738D01*
X-17185645Y18508985D01*
X-17267540Y18542906D01*
X-17354479Y18560200D01*
X-17443121Y18560200D01*
X-17530060Y18542906D01*
X-17611955Y18508985D01*
X-17685658Y18459738D01*
X-17748338Y18397058D01*
X-17797585Y18323355D01*
X-17831506Y18241460D01*
X-17848800Y18154521D01*
X-25426873Y18154521D01*
X-25422933Y18164032D01*
X-25406600Y18246141D01*
X-25406600Y18329859D01*
X-25422933Y18411968D01*
X-25454970Y18489313D01*
X-25501481Y18558921D01*
X-25528881Y18586321D01*
X-14026100Y18586321D01*
X-14026100Y18497679D01*
X-14008806Y18410740D01*
X-13974885Y18328845D01*
X-13925638Y18255142D01*
X-13862958Y18192462D01*
X-13789255Y18143215D01*
X-13707360Y18109294D01*
X-13620421Y18092000D01*
X-13531779Y18092000D01*
X-13444840Y18109294D01*
X-13362945Y18143215D01*
X-13289242Y18192462D01*
X-13226562Y18255142D01*
X-13177315Y18328845D01*
X-13143394Y18410740D01*
X-13126100Y18497679D01*
X-13126100Y18583859D01*
X-11748100Y18583859D01*
X-11748100Y18500141D01*
X-11731767Y18418032D01*
X-11699730Y18340687D01*
X-11653219Y18271079D01*
X-11594021Y18211881D01*
X-11524413Y18165370D01*
X-11447068Y18133333D01*
X-11364959Y18117000D01*
X-11281241Y18117000D01*
X-11199132Y18133333D01*
X-11121787Y18165370D01*
X-11052179Y18211881D01*
X-10992981Y18271079D01*
X-10946470Y18340687D01*
X-10914433Y18418032D01*
X-10898100Y18500141D01*
X-10898100Y18583859D01*
X-10911221Y18649821D01*
X-8184100Y18649821D01*
X-8184100Y18561179D01*
X-8166806Y18474240D01*
X-8132885Y18392345D01*
X-8083638Y18318642D01*
X-8020958Y18255962D01*
X-7947255Y18206715D01*
X-7865360Y18172794D01*
X-7778421Y18155500D01*
X-7689779Y18155500D01*
X-7602840Y18172794D01*
X-7520945Y18206715D01*
X-7447242Y18255962D01*
X-7384562Y18318642D01*
X-7335315Y18392345D01*
X-7301394Y18474240D01*
X-7284100Y18561179D01*
X-7284100Y18649821D01*
X-7301394Y18736760D01*
X-7335315Y18818655D01*
X-7384562Y18892358D01*
X-7447242Y18955038D01*
X-7520945Y19004285D01*
X-7602840Y19038206D01*
X-7689779Y19055500D01*
X-7778421Y19055500D01*
X-7865360Y19038206D01*
X-7947255Y19004285D01*
X-8020958Y18955038D01*
X-8083638Y18892358D01*
X-8132885Y18818655D01*
X-8166806Y18736760D01*
X-8184100Y18649821D01*
X-10911221Y18649821D01*
X-10914433Y18665968D01*
X-10946470Y18743313D01*
X-10992981Y18812921D01*
X-11052179Y18872119D01*
X-11121787Y18918630D01*
X-11199132Y18950667D01*
X-11281241Y18967000D01*
X-11364959Y18967000D01*
X-11447068Y18950667D01*
X-11524413Y18918630D01*
X-11594021Y18872119D01*
X-11653219Y18812921D01*
X-11699730Y18743313D01*
X-11731767Y18665968D01*
X-11748100Y18583859D01*
X-13126100Y18583859D01*
X-13126100Y18586321D01*
X-13143394Y18673260D01*
X-13177315Y18755155D01*
X-13226562Y18828858D01*
X-13289242Y18891538D01*
X-13362945Y18940785D01*
X-13444840Y18974706D01*
X-13531779Y18992000D01*
X-13620421Y18992000D01*
X-13707360Y18974706D01*
X-13789255Y18940785D01*
X-13862958Y18891538D01*
X-13925638Y18828858D01*
X-13974885Y18755155D01*
X-14008806Y18673260D01*
X-14026100Y18586321D01*
X-25528881Y18586321D01*
X-25560679Y18618119D01*
X-25630287Y18664630D01*
X-25707632Y18696667D01*
X-25789741Y18713000D01*
X-25873459Y18713000D01*
X-25955568Y18696667D01*
X-26032913Y18664630D01*
X-26102521Y18618119D01*
X-26161719Y18558921D01*
X-26208230Y18489313D01*
X-26240267Y18411968D01*
X-26256600Y18329859D01*
X-50419096Y18329859D01*
X-50401067Y18347888D01*
X-50538784Y18525913D01*
X-50782970Y18663353D01*
X-51049277Y18750513D01*
X-51204084Y18769172D01*
X-48644073Y18769172D01*
X-48569147Y18644760D01*
X-48413948Y18559476D01*
X-48245092Y18506109D01*
X-48069070Y18486710D01*
X-47892646Y18502024D01*
X-47722600Y18551462D01*
X-47565465Y18633124D01*
X-47548053Y18644760D01*
X-47473127Y18769172D01*
X-48058600Y19354645D01*
X-48644073Y18769172D01*
X-51204084Y18769172D01*
X-51327472Y18784044D01*
X-51606862Y18762659D01*
X-51876713Y18687178D01*
X-52126652Y18560501D01*
X-52178416Y18525913D01*
X-52316133Y18347888D01*
X-52906668Y18347888D01*
X-52791306Y18520539D01*
X-52653734Y18852667D01*
X-52583600Y19205253D01*
X-52583600Y19400470D01*
X-48961890Y19400470D01*
X-48946576Y19224046D01*
X-48897138Y19054000D01*
X-48815476Y18896865D01*
X-48803840Y18879453D01*
X-48679428Y18804527D01*
X-48093955Y19390000D01*
X-48023245Y19390000D01*
X-47437772Y18804527D01*
X-47313360Y18879453D01*
X-47228076Y19034652D01*
X-47174709Y19203508D01*
X-47155310Y19379530D01*
X-47170624Y19555954D01*
X-47220062Y19726000D01*
X-47301724Y19883135D01*
X-47313360Y19900547D01*
X-47437772Y19975473D01*
X-48023245Y19390000D01*
X-48093955Y19390000D01*
X-48679428Y19975473D01*
X-48803840Y19900547D01*
X-48889124Y19745348D01*
X-48942491Y19576492D01*
X-48961890Y19400470D01*
X-52583600Y19400470D01*
X-52583600Y19564747D01*
X-52653734Y19917333D01*
X-52692460Y20010828D01*
X-48644073Y20010828D01*
X-48058600Y19425355D01*
X-47473127Y20010828D01*
X-47548053Y20135240D01*
X-47703252Y20220524D01*
X-47872108Y20273891D01*
X-48048130Y20293290D01*
X-48224554Y20277976D01*
X-48394600Y20228538D01*
X-48551735Y20146876D01*
X-48569147Y20135240D01*
X-48644073Y20010828D01*
X-52692460Y20010828D01*
X-52791306Y20249461D01*
X-52991030Y20548369D01*
X-53191205Y20748544D01*
X-46417600Y20748544D01*
X-46417600Y20571456D01*
X-46383052Y20397771D01*
X-46315284Y20234164D01*
X-46216899Y20086921D01*
X-46091679Y19961701D01*
X-45944436Y19863316D01*
X-45780829Y19795548D01*
X-45607144Y19761000D01*
X-45430056Y19761000D01*
X-45256371Y19795548D01*
X-45092764Y19863316D01*
X-44945521Y19961701D01*
X-44820301Y20086921D01*
X-44721916Y20234164D01*
X-44721629Y20234859D01*
X-24605600Y20234859D01*
X-24605600Y20151141D01*
X-24589267Y20069032D01*
X-24557230Y19991687D01*
X-24510719Y19922079D01*
X-24451521Y19862881D01*
X-24381913Y19816370D01*
X-24304568Y19784333D01*
X-24222459Y19768000D01*
X-24138741Y19768000D01*
X-24056632Y19784333D01*
X-23979287Y19816370D01*
X-23909679Y19862881D01*
X-23850481Y19922079D01*
X-23803970Y19991687D01*
X-23771933Y20069032D01*
X-23755600Y20151141D01*
X-23755600Y20234859D01*
X-23756805Y20240916D01*
X-23751546Y20241962D01*
X-23674201Y20273999D01*
X-23604593Y20320510D01*
X-23545395Y20379708D01*
X-23504761Y20440521D01*
X-22674800Y20440521D01*
X-22674800Y20351879D01*
X-22657506Y20264940D01*
X-22623585Y20183045D01*
X-22574338Y20109342D01*
X-22511658Y20046662D01*
X-22437955Y19997415D01*
X-22356060Y19963494D01*
X-22269121Y19946200D01*
X-22180479Y19946200D01*
X-22093540Y19963494D01*
X-22011645Y19997415D01*
X-21937942Y20046662D01*
X-21875262Y20109342D01*
X-21826015Y20183045D01*
X-21792094Y20264940D01*
X-21774800Y20351879D01*
X-21774800Y20440521D01*
X-21792094Y20527460D01*
X-21826015Y20609355D01*
X-21875262Y20683058D01*
X-21935063Y20742859D01*
X-21049600Y20742859D01*
X-21049600Y20659141D01*
X-21033267Y20577032D01*
X-21001230Y20499687D01*
X-20954719Y20430079D01*
X-20895521Y20370881D01*
X-20825913Y20324370D01*
X-20748568Y20292333D01*
X-20666459Y20276000D01*
X-20582741Y20276000D01*
X-20500632Y20292333D01*
X-20423287Y20324370D01*
X-20353679Y20370881D01*
X-20294481Y20430079D01*
X-20247970Y20499687D01*
X-20215933Y20577032D01*
X-20208210Y20615859D01*
X-18001600Y20615859D01*
X-18001600Y20532141D01*
X-17985267Y20450032D01*
X-17953230Y20372687D01*
X-17906719Y20303079D01*
X-17847521Y20243881D01*
X-17777913Y20197370D01*
X-17700568Y20165333D01*
X-17618459Y20149000D01*
X-17534741Y20149000D01*
X-17452632Y20165333D01*
X-17375287Y20197370D01*
X-17305679Y20243881D01*
X-17246481Y20303079D01*
X-17207206Y20361859D01*
X-12921600Y20361859D01*
X-12921600Y20278141D01*
X-12905267Y20196032D01*
X-12873230Y20118687D01*
X-12826719Y20049079D01*
X-12767521Y19989881D01*
X-12697913Y19943370D01*
X-12620568Y19911333D01*
X-12538459Y19895000D01*
X-12454741Y19895000D01*
X-12372632Y19911333D01*
X-12295287Y19943370D01*
X-12225679Y19989881D01*
X-12166481Y20049079D01*
X-12119970Y20118687D01*
X-12087933Y20196032D01*
X-12071600Y20278141D01*
X-12071600Y20361859D01*
X-11905600Y20361859D01*
X-11905600Y20278141D01*
X-11889267Y20196032D01*
X-11857230Y20118687D01*
X-11810719Y20049079D01*
X-11751521Y19989881D01*
X-11681913Y19943370D01*
X-11604568Y19911333D01*
X-11522459Y19895000D01*
X-11438741Y19895000D01*
X-11356632Y19911333D01*
X-11279287Y19943370D01*
X-11209679Y19989881D01*
X-11150481Y20049079D01*
X-11103970Y20118687D01*
X-11071933Y20196032D01*
X-11055600Y20278141D01*
X-11055600Y20361859D01*
X-8222600Y20361859D01*
X-8222600Y20278141D01*
X-8206267Y20196032D01*
X-8174230Y20118687D01*
X-8127719Y20049079D01*
X-8068521Y19989881D01*
X-7998913Y19943370D01*
X-7921568Y19911333D01*
X-7839459Y19895000D01*
X-7755741Y19895000D01*
X-7673632Y19911333D01*
X-7596287Y19943370D01*
X-7526679Y19989881D01*
X-7467481Y20049079D01*
X-7420970Y20118687D01*
X-7388933Y20196032D01*
X-7372600Y20278141D01*
X-7372600Y20361859D01*
X-7388933Y20443968D01*
X-7420970Y20521313D01*
X-7467481Y20590921D01*
X-7526679Y20650119D01*
X-7596287Y20696630D01*
X-7673632Y20728667D01*
X-7755741Y20745000D01*
X-7839459Y20745000D01*
X-7921568Y20728667D01*
X-7998913Y20696630D01*
X-8068521Y20650119D01*
X-8127719Y20590921D01*
X-8174230Y20521313D01*
X-8206267Y20443968D01*
X-8222600Y20361859D01*
X-11055600Y20361859D01*
X-11071933Y20443968D01*
X-11103970Y20521313D01*
X-11150481Y20590921D01*
X-11209679Y20650119D01*
X-11279287Y20696630D01*
X-11356632Y20728667D01*
X-11438741Y20745000D01*
X-11522459Y20745000D01*
X-11604568Y20728667D01*
X-11681913Y20696630D01*
X-11751521Y20650119D01*
X-11810719Y20590921D01*
X-11857230Y20521313D01*
X-11889267Y20443968D01*
X-11905600Y20361859D01*
X-12071600Y20361859D01*
X-12087933Y20443968D01*
X-12119970Y20521313D01*
X-12166481Y20590921D01*
X-12225679Y20650119D01*
X-12295287Y20696630D01*
X-12372632Y20728667D01*
X-12454741Y20745000D01*
X-12538459Y20745000D01*
X-12620568Y20728667D01*
X-12697913Y20696630D01*
X-12767521Y20650119D01*
X-12826719Y20590921D01*
X-12873230Y20521313D01*
X-12905267Y20443968D01*
X-12921600Y20361859D01*
X-17207206Y20361859D01*
X-17199970Y20372687D01*
X-17167933Y20450032D01*
X-17151600Y20532141D01*
X-17151600Y20615859D01*
X-17167933Y20697968D01*
X-17199970Y20775313D01*
X-17246481Y20844921D01*
X-17305679Y20904119D01*
X-17375287Y20950630D01*
X-17452632Y20982667D01*
X-17523977Y20996859D01*
X-15334600Y20996859D01*
X-15334600Y20913141D01*
X-15318267Y20831032D01*
X-15286230Y20753687D01*
X-15239719Y20684079D01*
X-15180521Y20624881D01*
X-15110913Y20578370D01*
X-15033568Y20546333D01*
X-14951459Y20530000D01*
X-14867741Y20530000D01*
X-14785632Y20546333D01*
X-14708287Y20578370D01*
X-14638679Y20624881D01*
X-14579481Y20684079D01*
X-14532970Y20753687D01*
X-14500933Y20831032D01*
X-14484600Y20913141D01*
X-14484600Y20996859D01*
X-14500933Y21078968D01*
X-14532970Y21156313D01*
X-14579481Y21225921D01*
X-14638679Y21285119D01*
X-14708287Y21331630D01*
X-14785632Y21363667D01*
X-14867741Y21380000D01*
X-14951459Y21380000D01*
X-15033568Y21363667D01*
X-15110913Y21331630D01*
X-15180521Y21285119D01*
X-15239719Y21225921D01*
X-15286230Y21156313D01*
X-15318267Y21078968D01*
X-15334600Y20996859D01*
X-17523977Y20996859D01*
X-17534741Y20999000D01*
X-17618459Y20999000D01*
X-17700568Y20982667D01*
X-17777913Y20950630D01*
X-17847521Y20904119D01*
X-17906719Y20844921D01*
X-17953230Y20775313D01*
X-17985267Y20697968D01*
X-18001600Y20615859D01*
X-20208210Y20615859D01*
X-20199600Y20659141D01*
X-20199600Y20742859D01*
X-20215933Y20824968D01*
X-20247970Y20902313D01*
X-20294481Y20971921D01*
X-20353679Y21031119D01*
X-20423287Y21077630D01*
X-20500632Y21109667D01*
X-20582741Y21126000D01*
X-20666459Y21126000D01*
X-20748568Y21109667D01*
X-20825913Y21077630D01*
X-20895521Y21031119D01*
X-20954719Y20971921D01*
X-21001230Y20902313D01*
X-21033267Y20824968D01*
X-21049600Y20742859D01*
X-21935063Y20742859D01*
X-21937942Y20745738D01*
X-22011645Y20794985D01*
X-22093540Y20828906D01*
X-22180479Y20846200D01*
X-22269121Y20846200D01*
X-22356060Y20828906D01*
X-22437955Y20794985D01*
X-22511658Y20745738D01*
X-22574338Y20683058D01*
X-22623585Y20609355D01*
X-22657506Y20527460D01*
X-22674800Y20440521D01*
X-23504761Y20440521D01*
X-23498884Y20449316D01*
X-23466847Y20526661D01*
X-23450514Y20608770D01*
X-23450514Y20692488D01*
X-23466847Y20774597D01*
X-23498884Y20851942D01*
X-23545395Y20921550D01*
X-23604593Y20980748D01*
X-23650283Y21011277D01*
X-23596481Y21065079D01*
X-23549970Y21134687D01*
X-23517933Y21212032D01*
X-23501600Y21294141D01*
X-23501600Y21329377D01*
X-23494719Y21319079D01*
X-23435521Y21259881D01*
X-23365913Y21213370D01*
X-23288568Y21181333D01*
X-23206459Y21165000D01*
X-23122741Y21165000D01*
X-23040632Y21181333D01*
X-22963287Y21213370D01*
X-22893679Y21259881D01*
X-22834481Y21319079D01*
X-22787970Y21388687D01*
X-22755933Y21466032D01*
X-22739600Y21548141D01*
X-22739600Y21631859D01*
X-22740089Y21634321D01*
X-11168600Y21634321D01*
X-11168600Y21545679D01*
X-11151306Y21458740D01*
X-11117385Y21376845D01*
X-11068138Y21303142D01*
X-11005458Y21240462D01*
X-10931755Y21191215D01*
X-10849860Y21157294D01*
X-10762921Y21140000D01*
X-10674279Y21140000D01*
X-10587340Y21157294D01*
X-10505445Y21191215D01*
X-10431742Y21240462D01*
X-10369062Y21303142D01*
X-10319815Y21376845D01*
X-10285894Y21458740D01*
X-10268600Y21545679D01*
X-10268600Y21634321D01*
X-10285894Y21721260D01*
X-10319815Y21803155D01*
X-10369062Y21876858D01*
X-10431742Y21939538D01*
X-10505445Y21988785D01*
X-10587340Y22022706D01*
X-10674279Y22040000D01*
X-10762921Y22040000D01*
X-10849860Y22022706D01*
X-10931755Y21988785D01*
X-11005458Y21939538D01*
X-11068138Y21876858D01*
X-11117385Y21803155D01*
X-11151306Y21721260D01*
X-11168600Y21634321D01*
X-22740089Y21634321D01*
X-22755933Y21713968D01*
X-22787970Y21791313D01*
X-22834481Y21860921D01*
X-22893679Y21920119D01*
X-22963287Y21966630D01*
X-23040632Y21998667D01*
X-23122741Y22015000D01*
X-23206459Y22015000D01*
X-23288568Y21998667D01*
X-23365913Y21966630D01*
X-23435521Y21920119D01*
X-23494719Y21860921D01*
X-23541230Y21791313D01*
X-23573267Y21713968D01*
X-23589600Y21631859D01*
X-23589600Y21596623D01*
X-23596481Y21606921D01*
X-23655679Y21666119D01*
X-23725287Y21712630D01*
X-23802632Y21744667D01*
X-23884741Y21761000D01*
X-23968459Y21761000D01*
X-24050568Y21744667D01*
X-24127913Y21712630D01*
X-24197521Y21666119D01*
X-24256719Y21606921D01*
X-24303230Y21537313D01*
X-24335267Y21459968D01*
X-24351600Y21377859D01*
X-24351600Y21294141D01*
X-24335267Y21212032D01*
X-24303230Y21134687D01*
X-24256719Y21065079D01*
X-24197521Y21005881D01*
X-24151831Y20975352D01*
X-24205633Y20921550D01*
X-24252144Y20851942D01*
X-24284181Y20774597D01*
X-24300514Y20692488D01*
X-24300514Y20608770D01*
X-24299309Y20602713D01*
X-24304568Y20601667D01*
X-24381913Y20569630D01*
X-24451521Y20523119D01*
X-24510719Y20463921D01*
X-24557230Y20394313D01*
X-24589267Y20316968D01*
X-24605600Y20234859D01*
X-44721629Y20234859D01*
X-44654148Y20397771D01*
X-44619600Y20571456D01*
X-44619600Y20748544D01*
X-44643730Y20869859D01*
X-42512600Y20869859D01*
X-42512600Y20786141D01*
X-42496267Y20704032D01*
X-42464230Y20626687D01*
X-42417719Y20557079D01*
X-42358521Y20497881D01*
X-42288913Y20451370D01*
X-42211568Y20419333D01*
X-42129459Y20403000D01*
X-42045741Y20403000D01*
X-41963632Y20419333D01*
X-41886287Y20451370D01*
X-41816679Y20497881D01*
X-41757481Y20557079D01*
X-41710970Y20626687D01*
X-41678933Y20704032D01*
X-41662600Y20786141D01*
X-41662600Y20869859D01*
X-41678933Y20951968D01*
X-41697527Y20996859D01*
X-30066600Y20996859D01*
X-30066600Y20913141D01*
X-30050267Y20831032D01*
X-30018230Y20753687D01*
X-29971719Y20684079D01*
X-29912521Y20624881D01*
X-29842913Y20578370D01*
X-29765568Y20546333D01*
X-29683459Y20530000D01*
X-29599741Y20530000D01*
X-29517632Y20546333D01*
X-29440287Y20578370D01*
X-29370679Y20624881D01*
X-29311481Y20684079D01*
X-29264970Y20753687D01*
X-29232933Y20831032D01*
X-29216600Y20913141D01*
X-29216600Y20996859D01*
X-29232933Y21078968D01*
X-29264970Y21156313D01*
X-29311481Y21225921D01*
X-29370679Y21285119D01*
X-29440287Y21331630D01*
X-29517632Y21363667D01*
X-29599741Y21380000D01*
X-29683459Y21380000D01*
X-29765568Y21363667D01*
X-29842913Y21331630D01*
X-29912521Y21285119D01*
X-29971719Y21225921D01*
X-30018230Y21156313D01*
X-30050267Y21078968D01*
X-30066600Y20996859D01*
X-41697527Y20996859D01*
X-41710970Y21029313D01*
X-41757481Y21098921D01*
X-41816679Y21158119D01*
X-41886287Y21204630D01*
X-41963632Y21236667D01*
X-42045741Y21253000D01*
X-42129459Y21253000D01*
X-42211568Y21236667D01*
X-42288913Y21204630D01*
X-42358521Y21158119D01*
X-42417719Y21098921D01*
X-42464230Y21029313D01*
X-42496267Y20951968D01*
X-42512600Y20869859D01*
X-44643730Y20869859D01*
X-44654148Y20922229D01*
X-44721916Y21085836D01*
X-44820301Y21233079D01*
X-44945521Y21358299D01*
X-45092764Y21456684D01*
X-45256371Y21524452D01*
X-45430056Y21559000D01*
X-45607144Y21559000D01*
X-45780829Y21524452D01*
X-45944436Y21456684D01*
X-46091679Y21358299D01*
X-46216899Y21233079D01*
X-46315284Y21085836D01*
X-46383052Y20922229D01*
X-46417600Y20748544D01*
X-53191205Y20748544D01*
X-53245231Y20802570D01*
X-53544139Y21002294D01*
X-53876267Y21139866D01*
X-54228853Y21210000D01*
X-54588347Y21210000D01*
X-54940933Y21139866D01*
X-55273061Y21002294D01*
X-55571969Y20802570D01*
X-55826170Y20548369D01*
X-56025894Y20249461D01*
X-56163466Y19917333D01*
X-56233600Y19564747D01*
X-63750000Y19564747D01*
X-63750000Y21110044D01*
X-60273600Y21110044D01*
X-60273600Y20919956D01*
X-60236515Y20733520D01*
X-60163772Y20557901D01*
X-60058164Y20399848D01*
X-59923752Y20265436D01*
X-59765699Y20159828D01*
X-59590080Y20087085D01*
X-59403644Y20050000D01*
X-59213556Y20050000D01*
X-59027120Y20087085D01*
X-58851501Y20159828D01*
X-58693448Y20265436D01*
X-58559036Y20399848D01*
X-58453428Y20557901D01*
X-58380685Y20733520D01*
X-58343600Y20919956D01*
X-58343600Y21110044D01*
X-58380685Y21296480D01*
X-58453428Y21472099D01*
X-58559036Y21630152D01*
X-58693448Y21764564D01*
X-58851501Y21870172D01*
X-59027120Y21942915D01*
X-59213556Y21980000D01*
X-59403644Y21980000D01*
X-59590080Y21942915D01*
X-59765699Y21870172D01*
X-59923752Y21764564D01*
X-60058164Y21630152D01*
X-60163772Y21472099D01*
X-60236515Y21296480D01*
X-60273600Y21110044D01*
X-63750000Y21110044D01*
X-63750000Y22018544D01*
X-48957600Y22018544D01*
X-48957600Y21841456D01*
X-48923052Y21667771D01*
X-48855284Y21504164D01*
X-48756899Y21356921D01*
X-48631679Y21231701D01*
X-48484436Y21133316D01*
X-48320829Y21065548D01*
X-48147144Y21031000D01*
X-47970056Y21031000D01*
X-47796371Y21065548D01*
X-47632764Y21133316D01*
X-47485521Y21231701D01*
X-47360301Y21356921D01*
X-47261916Y21504164D01*
X-47194148Y21667771D01*
X-47159600Y21841456D01*
X-47159600Y22018544D01*
X-47194148Y22192229D01*
X-47261916Y22355836D01*
X-47360301Y22503079D01*
X-47485521Y22628299D01*
X-47632764Y22726684D01*
X-47796371Y22794452D01*
X-47970056Y22829000D01*
X-48147144Y22829000D01*
X-48320829Y22794452D01*
X-48484436Y22726684D01*
X-48631679Y22628299D01*
X-48756899Y22503079D01*
X-48855284Y22355836D01*
X-48923052Y22192229D01*
X-48957600Y22018544D01*
X-63750000Y22018544D01*
X-63750000Y23288544D01*
X-46417600Y23288544D01*
X-46417600Y23111456D01*
X-46383052Y22937771D01*
X-46315284Y22774164D01*
X-46216899Y22626921D01*
X-46091679Y22501701D01*
X-45944436Y22403316D01*
X-45780829Y22335548D01*
X-45607144Y22301000D01*
X-45430056Y22301000D01*
X-45256371Y22335548D01*
X-45092764Y22403316D01*
X-44945521Y22501701D01*
X-44820301Y22626921D01*
X-44806311Y22647859D01*
X-30066600Y22647859D01*
X-30066600Y22564141D01*
X-30050267Y22482032D01*
X-30018230Y22404687D01*
X-29971719Y22335079D01*
X-29912521Y22275881D01*
X-29842913Y22229370D01*
X-29765568Y22197333D01*
X-29683459Y22181000D01*
X-29599741Y22181000D01*
X-29517632Y22197333D01*
X-29440287Y22229370D01*
X-29370679Y22275881D01*
X-29311481Y22335079D01*
X-29264970Y22404687D01*
X-29232933Y22482032D01*
X-29216600Y22564141D01*
X-29216600Y22647859D01*
X-29232933Y22729968D01*
X-29264970Y22807313D01*
X-29311481Y22876921D01*
X-29370679Y22936119D01*
X-29440287Y22982630D01*
X-29517632Y23014667D01*
X-29599741Y23031000D01*
X-29683459Y23031000D01*
X-29765568Y23014667D01*
X-29842913Y22982630D01*
X-29912521Y22936119D01*
X-29971719Y22876921D01*
X-30018230Y22807313D01*
X-30050267Y22729968D01*
X-30066600Y22647859D01*
X-44806311Y22647859D01*
X-44721916Y22774164D01*
X-44654148Y22937771D01*
X-44619600Y23111456D01*
X-44619600Y23288544D01*
X-44643730Y23409859D01*
X-37051600Y23409859D01*
X-37051600Y23326141D01*
X-37035267Y23244032D01*
X-37003230Y23166687D01*
X-36956719Y23097079D01*
X-36897521Y23037881D01*
X-36827913Y22991370D01*
X-36750568Y22959333D01*
X-36668459Y22943000D01*
X-36584741Y22943000D01*
X-36502632Y22959333D01*
X-36425287Y22991370D01*
X-36355679Y23037881D01*
X-36296481Y23097079D01*
X-36249970Y23166687D01*
X-36217933Y23244032D01*
X-36201600Y23326141D01*
X-36201600Y23409859D01*
X-36217933Y23491968D01*
X-36249970Y23569313D01*
X-36296481Y23638921D01*
X-36321419Y23663859D01*
X-24478600Y23663859D01*
X-24478600Y23580141D01*
X-24462267Y23498032D01*
X-24430230Y23420687D01*
X-24383719Y23351079D01*
X-24324521Y23291881D01*
X-24254913Y23245370D01*
X-24177568Y23213333D01*
X-24095459Y23197000D01*
X-24011741Y23197000D01*
X-23929632Y23213333D01*
X-23852287Y23245370D01*
X-23782679Y23291881D01*
X-23723481Y23351079D01*
X-23676970Y23420687D01*
X-23644933Y23498032D01*
X-23628600Y23580141D01*
X-23628600Y23663859D01*
X-23644933Y23745968D01*
X-23676970Y23823313D01*
X-23723481Y23892921D01*
X-23782679Y23952119D01*
X-23852287Y23998630D01*
X-23929632Y24030667D01*
X-24011741Y24047000D01*
X-24095459Y24047000D01*
X-24177568Y24030667D01*
X-24254913Y23998630D01*
X-24324521Y23952119D01*
X-24383719Y23892921D01*
X-24430230Y23823313D01*
X-24462267Y23745968D01*
X-24478600Y23663859D01*
X-36321419Y23663859D01*
X-36355679Y23698119D01*
X-36425287Y23744630D01*
X-36502632Y23776667D01*
X-36584741Y23793000D01*
X-36668459Y23793000D01*
X-36750568Y23776667D01*
X-36827913Y23744630D01*
X-36897521Y23698119D01*
X-36956719Y23638921D01*
X-37003230Y23569313D01*
X-37035267Y23491968D01*
X-37051600Y23409859D01*
X-44643730Y23409859D01*
X-44654148Y23462229D01*
X-44721916Y23625836D01*
X-44820301Y23773079D01*
X-44945521Y23898299D01*
X-45092764Y23996684D01*
X-45256371Y24064452D01*
X-45430056Y24099000D01*
X-45607144Y24099000D01*
X-45780829Y24064452D01*
X-45944436Y23996684D01*
X-46091679Y23898299D01*
X-46216899Y23773079D01*
X-46315284Y23625836D01*
X-46383052Y23462229D01*
X-46417600Y23288544D01*
X-63750000Y23288544D01*
X-63750000Y24558544D01*
X-48957600Y24558544D01*
X-48957600Y24381456D01*
X-48923052Y24207771D01*
X-48855284Y24044164D01*
X-48756899Y23896921D01*
X-48631679Y23771701D01*
X-48484436Y23673316D01*
X-48320829Y23605548D01*
X-48147144Y23571000D01*
X-47970056Y23571000D01*
X-47796371Y23605548D01*
X-47632764Y23673316D01*
X-47485521Y23771701D01*
X-47360301Y23896921D01*
X-47261916Y24044164D01*
X-47209024Y24171859D01*
X-33495600Y24171859D01*
X-33495600Y24088141D01*
X-33479267Y24006032D01*
X-33447230Y23928687D01*
X-33400719Y23859079D01*
X-33341521Y23799881D01*
X-33271913Y23753370D01*
X-33194568Y23721333D01*
X-33112459Y23705000D01*
X-33028741Y23705000D01*
X-32946632Y23721333D01*
X-32869287Y23753370D01*
X-32799679Y23799881D01*
X-32740481Y23859079D01*
X-32693970Y23928687D01*
X-32661933Y24006032D01*
X-32645600Y24088141D01*
X-32645600Y24171859D01*
X-32661933Y24253968D01*
X-32693970Y24331313D01*
X-32740481Y24400921D01*
X-32765419Y24425859D01*
X-18128600Y24425859D01*
X-18128600Y24342141D01*
X-18112267Y24260032D01*
X-18080230Y24182687D01*
X-18033719Y24113079D01*
X-17974521Y24053881D01*
X-17904913Y24007370D01*
X-17827568Y23975333D01*
X-17745459Y23959000D01*
X-17661741Y23959000D01*
X-17579632Y23975333D01*
X-17502287Y24007370D01*
X-17446182Y24044859D01*
X-15461600Y24044859D01*
X-15461600Y23961141D01*
X-15445267Y23879032D01*
X-15413230Y23801687D01*
X-15366719Y23732079D01*
X-15307521Y23672881D01*
X-15237913Y23626370D01*
X-15160568Y23594333D01*
X-15078459Y23578000D01*
X-14994741Y23578000D01*
X-14912632Y23594333D01*
X-14835287Y23626370D01*
X-14765679Y23672881D01*
X-14706481Y23732079D01*
X-14659970Y23801687D01*
X-14627933Y23879032D01*
X-14620210Y23917859D01*
X-11524600Y23917859D01*
X-11524600Y23834141D01*
X-11508267Y23752032D01*
X-11476230Y23674687D01*
X-11429719Y23605079D01*
X-11370521Y23545881D01*
X-11300913Y23499370D01*
X-11223568Y23467333D01*
X-11141459Y23451000D01*
X-11057741Y23451000D01*
X-10975632Y23467333D01*
X-10898287Y23499370D01*
X-10828679Y23545881D01*
X-10769481Y23605079D01*
X-10722970Y23674687D01*
X-10690933Y23752032D01*
X-10674600Y23834141D01*
X-10674600Y23917859D01*
X-10690933Y23999968D01*
X-10722970Y24077313D01*
X-10769481Y24146921D01*
X-10828679Y24206119D01*
X-10898287Y24252630D01*
X-10975632Y24284667D01*
X-11057741Y24301000D01*
X-11141459Y24301000D01*
X-11223568Y24284667D01*
X-11300913Y24252630D01*
X-11370521Y24206119D01*
X-11429719Y24146921D01*
X-11476230Y24077313D01*
X-11508267Y23999968D01*
X-11524600Y23917859D01*
X-14620210Y23917859D01*
X-14611600Y23961141D01*
X-14611600Y24044859D01*
X-14627933Y24126968D01*
X-14659970Y24204313D01*
X-14706481Y24273921D01*
X-14765679Y24333119D01*
X-14835287Y24379630D01*
X-14912632Y24411667D01*
X-14994741Y24428000D01*
X-15078459Y24428000D01*
X-15160568Y24411667D01*
X-15237913Y24379630D01*
X-15307521Y24333119D01*
X-15366719Y24273921D01*
X-15413230Y24204313D01*
X-15445267Y24126968D01*
X-15461600Y24044859D01*
X-17446182Y24044859D01*
X-17432679Y24053881D01*
X-17373481Y24113079D01*
X-17326970Y24182687D01*
X-17294933Y24260032D01*
X-17278600Y24342141D01*
X-17278600Y24425859D01*
X-17294933Y24507968D01*
X-17326970Y24585313D01*
X-17373481Y24654921D01*
X-17432679Y24714119D01*
X-17502287Y24760630D01*
X-17579632Y24792667D01*
X-17661741Y24809000D01*
X-17745459Y24809000D01*
X-17827568Y24792667D01*
X-17904913Y24760630D01*
X-17974521Y24714119D01*
X-18033719Y24654921D01*
X-18080230Y24585313D01*
X-18112267Y24507968D01*
X-18128600Y24425859D01*
X-32765419Y24425859D01*
X-32799679Y24460119D01*
X-32869287Y24506630D01*
X-32946632Y24538667D01*
X-33028741Y24555000D01*
X-33112459Y24555000D01*
X-33194568Y24538667D01*
X-33271913Y24506630D01*
X-33341521Y24460119D01*
X-33400719Y24400921D01*
X-33447230Y24331313D01*
X-33479267Y24253968D01*
X-33495600Y24171859D01*
X-47209024Y24171859D01*
X-47194148Y24207771D01*
X-47159600Y24381456D01*
X-47159600Y24558544D01*
X-47194148Y24732229D01*
X-47261916Y24895836D01*
X-47360301Y25043079D01*
X-47485521Y25168299D01*
X-47632764Y25266684D01*
X-47796371Y25334452D01*
X-47970056Y25369000D01*
X-48147144Y25369000D01*
X-48320829Y25334452D01*
X-48484436Y25266684D01*
X-48631679Y25168299D01*
X-48756899Y25043079D01*
X-48855284Y24895836D01*
X-48923052Y24732229D01*
X-48957600Y24558544D01*
X-63750000Y24558544D01*
X-63750000Y25828544D01*
X-46417600Y25828544D01*
X-46417600Y25651456D01*
X-46383052Y25477771D01*
X-46315284Y25314164D01*
X-46216899Y25166921D01*
X-46091679Y25041701D01*
X-45944436Y24943316D01*
X-45780829Y24875548D01*
X-45607144Y24841000D01*
X-45430056Y24841000D01*
X-45256371Y24875548D01*
X-45121129Y24931567D01*
X-9255600Y24931567D01*
X-9255600Y24744433D01*
X-9219092Y24560895D01*
X-9147479Y24388006D01*
X-9043513Y24232410D01*
X-8911190Y24100087D01*
X-8755594Y23996121D01*
X-8582705Y23924508D01*
X-8399167Y23888000D01*
X-8212033Y23888000D01*
X-8028495Y23924508D01*
X-7855606Y23996121D01*
X-7700010Y24100087D01*
X-7567687Y24232410D01*
X-7463721Y24388006D01*
X-7392108Y24560895D01*
X-7355600Y24744433D01*
X-7355600Y24931567D01*
X-7392108Y25115105D01*
X-7463721Y25287994D01*
X-7567687Y25443590D01*
X-7700010Y25575913D01*
X-7855606Y25679879D01*
X-8028495Y25751492D01*
X-8212033Y25788000D01*
X-8399167Y25788000D01*
X-8582705Y25751492D01*
X-8755594Y25679879D01*
X-8911190Y25575913D01*
X-9043513Y25443590D01*
X-9147479Y25287994D01*
X-9219092Y25115105D01*
X-9255600Y24931567D01*
X-45121129Y24931567D01*
X-45092764Y24943316D01*
X-44945521Y25041701D01*
X-44820301Y25166921D01*
X-44721916Y25314164D01*
X-44654148Y25477771D01*
X-44619600Y25651456D01*
X-44619600Y25822859D01*
X-33495600Y25822859D01*
X-33495600Y25739141D01*
X-33479267Y25657032D01*
X-33447230Y25579687D01*
X-33400719Y25510079D01*
X-33341521Y25450881D01*
X-33271913Y25404370D01*
X-33194568Y25372333D01*
X-33112459Y25356000D01*
X-33028741Y25356000D01*
X-32946632Y25372333D01*
X-32869287Y25404370D01*
X-32799679Y25450881D01*
X-32740481Y25510079D01*
X-32693970Y25579687D01*
X-32661933Y25657032D01*
X-32645600Y25739141D01*
X-32645600Y25822859D01*
X-32661933Y25904968D01*
X-32680527Y25949859D01*
X-30066600Y25949859D01*
X-30066600Y25866141D01*
X-30050267Y25784032D01*
X-30018230Y25706687D01*
X-29971719Y25637079D01*
X-29912521Y25577881D01*
X-29842913Y25531370D01*
X-29765568Y25499333D01*
X-29683459Y25483000D01*
X-29599741Y25483000D01*
X-29517632Y25499333D01*
X-29440287Y25531370D01*
X-29370679Y25577881D01*
X-29311481Y25637079D01*
X-29264970Y25706687D01*
X-29232933Y25784032D01*
X-29216600Y25866141D01*
X-29216600Y25949859D01*
X-29232933Y26031968D01*
X-29264970Y26109313D01*
X-29311481Y26178921D01*
X-29370679Y26238119D01*
X-29440287Y26284630D01*
X-29517632Y26316667D01*
X-29599741Y26333000D01*
X-29683459Y26333000D01*
X-29765568Y26316667D01*
X-29842913Y26284630D01*
X-29912521Y26238119D01*
X-29971719Y26178921D01*
X-30018230Y26109313D01*
X-30050267Y26031968D01*
X-30066600Y25949859D01*
X-32680527Y25949859D01*
X-32693970Y25982313D01*
X-32740481Y26051921D01*
X-32799679Y26111119D01*
X-32869287Y26157630D01*
X-32946632Y26189667D01*
X-33028741Y26206000D01*
X-33112459Y26206000D01*
X-33194568Y26189667D01*
X-33271913Y26157630D01*
X-33341521Y26111119D01*
X-33400719Y26051921D01*
X-33447230Y25982313D01*
X-33479267Y25904968D01*
X-33495600Y25822859D01*
X-44619600Y25822859D01*
X-44619600Y25828544D01*
X-44654148Y26002229D01*
X-44721916Y26165836D01*
X-44820301Y26313079D01*
X-44945521Y26438299D01*
X-44974794Y26457859D01*
X-18001600Y26457859D01*
X-18001600Y26374141D01*
X-17985267Y26292032D01*
X-17953230Y26214687D01*
X-17906719Y26145079D01*
X-17847521Y26085881D01*
X-17777913Y26039370D01*
X-17700568Y26007333D01*
X-17618459Y25991000D01*
X-17534741Y25991000D01*
X-17452632Y26007333D01*
X-17375287Y26039370D01*
X-17305679Y26085881D01*
X-17246481Y26145079D01*
X-17199970Y26214687D01*
X-17167933Y26292032D01*
X-17151600Y26374141D01*
X-17151600Y26457859D01*
X-17167933Y26539968D01*
X-17199970Y26617313D01*
X-17246481Y26686921D01*
X-17305679Y26746119D01*
X-17375287Y26792630D01*
X-17452632Y26824667D01*
X-17534741Y26841000D01*
X-17618459Y26841000D01*
X-17700568Y26824667D01*
X-17777913Y26792630D01*
X-17847521Y26746119D01*
X-17906719Y26686921D01*
X-17953230Y26617313D01*
X-17985267Y26539968D01*
X-18001600Y26457859D01*
X-44974794Y26457859D01*
X-45092764Y26536684D01*
X-45256371Y26604452D01*
X-45430056Y26639000D01*
X-45607144Y26639000D01*
X-45780829Y26604452D01*
X-45944436Y26536684D01*
X-46091679Y26438299D01*
X-46216899Y26313079D01*
X-46315284Y26165836D01*
X-46383052Y26002229D01*
X-46417600Y25828544D01*
X-63750000Y25828544D01*
X-63750000Y27098544D01*
X-48957600Y27098544D01*
X-48957600Y26921456D01*
X-48923052Y26747771D01*
X-48855284Y26584164D01*
X-48756899Y26436921D01*
X-48631679Y26311701D01*
X-48484436Y26213316D01*
X-48320829Y26145548D01*
X-48147144Y26111000D01*
X-47970056Y26111000D01*
X-47796371Y26145548D01*
X-47632764Y26213316D01*
X-47485521Y26311701D01*
X-47360301Y26436921D01*
X-47261916Y26584164D01*
X-47194148Y26747771D01*
X-47159600Y26921456D01*
X-47159600Y27098544D01*
X-47194148Y27272229D01*
X-47261916Y27435836D01*
X-47360301Y27583079D01*
X-47485521Y27708299D01*
X-47632764Y27806684D01*
X-47796371Y27874452D01*
X-47970056Y27909000D01*
X-48147144Y27909000D01*
X-48320829Y27874452D01*
X-48484436Y27806684D01*
X-48631679Y27708299D01*
X-48756899Y27583079D01*
X-48855284Y27435836D01*
X-48923052Y27272229D01*
X-48957600Y27098544D01*
X-63750000Y27098544D01*
X-63750000Y29280044D01*
X-60273600Y29280044D01*
X-60273600Y29089956D01*
X-60236515Y28903520D01*
X-60163772Y28727901D01*
X-60058164Y28569848D01*
X-59923752Y28435436D01*
X-59765699Y28329828D01*
X-59590080Y28257085D01*
X-59403644Y28220000D01*
X-59213556Y28220000D01*
X-59027120Y28257085D01*
X-58851501Y28329828D01*
X-58793559Y28368544D01*
X-46417600Y28368544D01*
X-46417600Y28191456D01*
X-46383052Y28017771D01*
X-46315284Y27854164D01*
X-46216899Y27706921D01*
X-46091679Y27581701D01*
X-45944436Y27483316D01*
X-45780829Y27415548D01*
X-45607144Y27381000D01*
X-45430056Y27381000D01*
X-45256371Y27415548D01*
X-45092764Y27483316D01*
X-44945521Y27581701D01*
X-44820301Y27706921D01*
X-44721916Y27854164D01*
X-44654148Y28017771D01*
X-44628951Y28144447D01*
X-36419245Y28144447D01*
X-36419245Y28060729D01*
X-36402912Y27978620D01*
X-36370875Y27901275D01*
X-36324364Y27831667D01*
X-36265166Y27772469D01*
X-36195558Y27725958D01*
X-36118213Y27693921D01*
X-36036104Y27677588D01*
X-36011243Y27677588D01*
X-36011243Y27652727D01*
X-35994910Y27570618D01*
X-35962873Y27493273D01*
X-35916362Y27423665D01*
X-35857164Y27364467D01*
X-35787556Y27317956D01*
X-35710211Y27285919D01*
X-35628102Y27269586D01*
X-35544384Y27269586D01*
X-35462275Y27285919D01*
X-35384930Y27317956D01*
X-35315322Y27364467D01*
X-35256124Y27423665D01*
X-35209613Y27493273D01*
X-35177576Y27570618D01*
X-35161243Y27652727D01*
X-35161243Y27736445D01*
X-35177576Y27818554D01*
X-35209613Y27895899D01*
X-35256124Y27965507D01*
X-35315322Y28024705D01*
X-35384930Y28071216D01*
X-35462275Y28103253D01*
X-35544384Y28119586D01*
X-35569245Y28119586D01*
X-35569245Y28144447D01*
X-35585578Y28226556D01*
X-35617615Y28303901D01*
X-35664126Y28373509D01*
X-35723324Y28432707D01*
X-35792932Y28479218D01*
X-35870277Y28511255D01*
X-35952386Y28527588D01*
X-36036104Y28527588D01*
X-36118213Y28511255D01*
X-36195558Y28479218D01*
X-36265166Y28432707D01*
X-36324364Y28373509D01*
X-36370875Y28303901D01*
X-36402912Y28226556D01*
X-36419245Y28144447D01*
X-44628951Y28144447D01*
X-44619600Y28191456D01*
X-44619600Y28368544D01*
X-44654148Y28542229D01*
X-44721916Y28705836D01*
X-44820301Y28853079D01*
X-44945521Y28978299D01*
X-45092764Y29076684D01*
X-45256371Y29144452D01*
X-45430056Y29179000D01*
X-45607144Y29179000D01*
X-45780829Y29144452D01*
X-45944436Y29076684D01*
X-46091679Y28978299D01*
X-46216899Y28853079D01*
X-46315284Y28705836D01*
X-46383052Y28542229D01*
X-46417600Y28368544D01*
X-58793559Y28368544D01*
X-58693448Y28435436D01*
X-58559036Y28569848D01*
X-58453428Y28727901D01*
X-58380685Y28903520D01*
X-58343600Y29089956D01*
X-58343600Y29280044D01*
X-58380685Y29466480D01*
X-58453428Y29642099D01*
X-58559036Y29800152D01*
X-58693448Y29934564D01*
X-58851501Y30040172D01*
X-59027120Y30112915D01*
X-59213556Y30150000D01*
X-59403644Y30150000D01*
X-59590080Y30112915D01*
X-59765699Y30040172D01*
X-59923752Y29934564D01*
X-60058164Y29800152D01*
X-60163772Y29642099D01*
X-60236515Y29466480D01*
X-60273600Y29280044D01*
X-63750000Y29280044D01*
X-63750000Y31820044D01*
X-60273600Y31820044D01*
X-60273600Y31629956D01*
X-60236515Y31443520D01*
X-60163772Y31267901D01*
X-60058164Y31109848D01*
X-59923752Y30975436D01*
X-59765699Y30869828D01*
X-59590080Y30797085D01*
X-59403644Y30760000D01*
X-59213556Y30760000D01*
X-59027120Y30797085D01*
X-58851501Y30869828D01*
X-58693448Y30975436D01*
X-58674137Y30994747D01*
X-56233600Y30994747D01*
X-56233600Y30635253D01*
X-56163466Y30282667D01*
X-56025894Y29950539D01*
X-55826170Y29651631D01*
X-55571969Y29397430D01*
X-55273061Y29197706D01*
X-54940933Y29060134D01*
X-54588347Y28990000D01*
X-54228853Y28990000D01*
X-53876267Y29060134D01*
X-53544139Y29197706D01*
X-53245231Y29397430D01*
X-52991030Y29651631D01*
X-52791306Y29950539D01*
X-52667680Y30249000D01*
X-48958567Y30249000D01*
X-48958567Y28851000D01*
X-48954705Y28811793D01*
X-48943269Y28774093D01*
X-48924698Y28739349D01*
X-48899705Y28708895D01*
X-48869251Y28683902D01*
X-48834507Y28665331D01*
X-48796807Y28653895D01*
X-48757600Y28650033D01*
X-47359600Y28650033D01*
X-47320393Y28653895D01*
X-47282693Y28665331D01*
X-47247949Y28683902D01*
X-47217495Y28708895D01*
X-47192502Y28739349D01*
X-47173931Y28774093D01*
X-47162495Y28811793D01*
X-47158633Y28851000D01*
X-47158633Y29378859D01*
X-25240600Y29378859D01*
X-25240600Y29295141D01*
X-25224267Y29213032D01*
X-25192230Y29135687D01*
X-25145719Y29066079D01*
X-25086521Y29006881D01*
X-25016913Y28960370D01*
X-24939568Y28928333D01*
X-24857459Y28912000D01*
X-24773741Y28912000D01*
X-24691632Y28928333D01*
X-24614287Y28960370D01*
X-24544679Y29006881D01*
X-24485481Y29066079D01*
X-24438970Y29135687D01*
X-24406933Y29213032D01*
X-24397718Y29259361D01*
X-21711100Y29259361D01*
X-21711100Y29175643D01*
X-21694767Y29093534D01*
X-21662730Y29016189D01*
X-21616219Y28946581D01*
X-21557021Y28887383D01*
X-21487413Y28840872D01*
X-21410068Y28808835D01*
X-21327959Y28792502D01*
X-21244241Y28792502D01*
X-21162132Y28808835D01*
X-21084787Y28840872D01*
X-21015179Y28887383D01*
X-20997600Y28904962D01*
X-20980021Y28887383D01*
X-20910413Y28840872D01*
X-20833068Y28808835D01*
X-20750959Y28792502D01*
X-20667241Y28792502D01*
X-20585132Y28808835D01*
X-20507787Y28840872D01*
X-20438179Y28887383D01*
X-20378981Y28946581D01*
X-20332470Y29016189D01*
X-20300433Y29093534D01*
X-20284100Y29175643D01*
X-20284100Y29259361D01*
X-20211100Y29259361D01*
X-20211100Y29175643D01*
X-20194767Y29093534D01*
X-20162730Y29016189D01*
X-20116219Y28946581D01*
X-20057021Y28887383D01*
X-19987413Y28840872D01*
X-19910068Y28808835D01*
X-19827959Y28792502D01*
X-19744241Y28792502D01*
X-19662132Y28808835D01*
X-19584787Y28840872D01*
X-19515179Y28887383D01*
X-19497600Y28904962D01*
X-19480021Y28887383D01*
X-19410413Y28840872D01*
X-19333068Y28808835D01*
X-19250959Y28792502D01*
X-19167241Y28792502D01*
X-19085132Y28808835D01*
X-19007787Y28840872D01*
X-18938179Y28887383D01*
X-18878981Y28946581D01*
X-18832470Y29016189D01*
X-18800433Y29093534D01*
X-18784100Y29175643D01*
X-18784100Y29259361D01*
X-18800433Y29341470D01*
X-18815919Y29378859D01*
X-18128600Y29378859D01*
X-18128600Y29295141D01*
X-18112267Y29213032D01*
X-18080230Y29135687D01*
X-18033719Y29066079D01*
X-17974521Y29006881D01*
X-17904913Y28960370D01*
X-17827568Y28928333D01*
X-17745459Y28912000D01*
X-17661741Y28912000D01*
X-17579632Y28928333D01*
X-17502287Y28960370D01*
X-17432679Y29006881D01*
X-17373481Y29066079D01*
X-17326970Y29135687D01*
X-17294933Y29213032D01*
X-17278600Y29295141D01*
X-17278600Y29378859D01*
X-17294933Y29460968D01*
X-17326970Y29538313D01*
X-17373481Y29607921D01*
X-17398419Y29632859D01*
X-16604600Y29632859D01*
X-16604600Y29549141D01*
X-16588267Y29467032D01*
X-16556230Y29389687D01*
X-16509719Y29320079D01*
X-16450521Y29260881D01*
X-16380913Y29214370D01*
X-16303568Y29182333D01*
X-16221459Y29166000D01*
X-16137741Y29166000D01*
X-16055632Y29182333D01*
X-15978287Y29214370D01*
X-15908679Y29260881D01*
X-15849481Y29320079D01*
X-15802970Y29389687D01*
X-15770933Y29467032D01*
X-15754600Y29549141D01*
X-15754600Y29632859D01*
X-15770933Y29714968D01*
X-15802970Y29792313D01*
X-15815835Y29811567D01*
X-9255600Y29811567D01*
X-9255600Y29624433D01*
X-9219092Y29440895D01*
X-9147479Y29268006D01*
X-9043513Y29112410D01*
X-8911190Y28980087D01*
X-8755594Y28876121D01*
X-8582705Y28804508D01*
X-8399167Y28768000D01*
X-8212033Y28768000D01*
X-8028495Y28804508D01*
X-7855606Y28876121D01*
X-7700010Y28980087D01*
X-7567687Y29112410D01*
X-7463721Y29268006D01*
X-7392108Y29440895D01*
X-7355600Y29624433D01*
X-7355600Y29811567D01*
X-7392108Y29995105D01*
X-7463721Y30167994D01*
X-7567687Y30323590D01*
X-7700010Y30455913D01*
X-7855606Y30559879D01*
X-8028495Y30631492D01*
X-8212033Y30668000D01*
X-8399167Y30668000D01*
X-8582705Y30631492D01*
X-8755594Y30559879D01*
X-8911190Y30455913D01*
X-9043513Y30323590D01*
X-9147479Y30167994D01*
X-9219092Y29995105D01*
X-9255600Y29811567D01*
X-15815835Y29811567D01*
X-15849481Y29861921D01*
X-15908679Y29921119D01*
X-15978287Y29967630D01*
X-16055632Y29999667D01*
X-16137741Y30016000D01*
X-16221459Y30016000D01*
X-16303568Y29999667D01*
X-16380913Y29967630D01*
X-16450521Y29921119D01*
X-16509719Y29861921D01*
X-16556230Y29792313D01*
X-16588267Y29714968D01*
X-16604600Y29632859D01*
X-17398419Y29632859D01*
X-17432679Y29667119D01*
X-17502287Y29713630D01*
X-17579632Y29745667D01*
X-17661741Y29762000D01*
X-17745459Y29762000D01*
X-17827568Y29745667D01*
X-17904913Y29713630D01*
X-17974521Y29667119D01*
X-18033719Y29607921D01*
X-18080230Y29538313D01*
X-18112267Y29460968D01*
X-18128600Y29378859D01*
X-18815919Y29378859D01*
X-18832470Y29418815D01*
X-18878981Y29488423D01*
X-18938179Y29547621D01*
X-19007787Y29594132D01*
X-19085132Y29626169D01*
X-19167241Y29642502D01*
X-19250959Y29642502D01*
X-19333068Y29626169D01*
X-19410413Y29594132D01*
X-19480021Y29547621D01*
X-19497600Y29530042D01*
X-19515179Y29547621D01*
X-19584787Y29594132D01*
X-19662132Y29626169D01*
X-19744241Y29642502D01*
X-19827959Y29642502D01*
X-19910068Y29626169D01*
X-19987413Y29594132D01*
X-20057021Y29547621D01*
X-20116219Y29488423D01*
X-20162730Y29418815D01*
X-20194767Y29341470D01*
X-20211100Y29259361D01*
X-20284100Y29259361D01*
X-20300433Y29341470D01*
X-20332470Y29418815D01*
X-20378981Y29488423D01*
X-20438179Y29547621D01*
X-20507787Y29594132D01*
X-20585132Y29626169D01*
X-20667241Y29642502D01*
X-20750959Y29642502D01*
X-20833068Y29626169D01*
X-20910413Y29594132D01*
X-20980021Y29547621D01*
X-20997600Y29530042D01*
X-21015179Y29547621D01*
X-21084787Y29594132D01*
X-21162132Y29626169D01*
X-21244241Y29642502D01*
X-21327959Y29642502D01*
X-21410068Y29626169D01*
X-21487413Y29594132D01*
X-21557021Y29547621D01*
X-21616219Y29488423D01*
X-21662730Y29418815D01*
X-21694767Y29341470D01*
X-21711100Y29259361D01*
X-24397718Y29259361D01*
X-24390600Y29295141D01*
X-24390600Y29378859D01*
X-24406933Y29460968D01*
X-24438970Y29538313D01*
X-24485481Y29607921D01*
X-24544679Y29667119D01*
X-24614287Y29713630D01*
X-24691632Y29745667D01*
X-24773741Y29762000D01*
X-24857459Y29762000D01*
X-24939568Y29745667D01*
X-25016913Y29713630D01*
X-25086521Y29667119D01*
X-25145719Y29607921D01*
X-25192230Y29538313D01*
X-25224267Y29460968D01*
X-25240600Y29378859D01*
X-47158633Y29378859D01*
X-47158633Y30249000D01*
X-47162495Y30288207D01*
X-47173931Y30325907D01*
X-47192502Y30360651D01*
X-47217495Y30391105D01*
X-47247949Y30416098D01*
X-47282693Y30434669D01*
X-47320393Y30446105D01*
X-47359600Y30449967D01*
X-48757600Y30449967D01*
X-48796807Y30446105D01*
X-48834507Y30434669D01*
X-48869251Y30416098D01*
X-48899705Y30391105D01*
X-48924698Y30360651D01*
X-48943269Y30325907D01*
X-48954705Y30288207D01*
X-48958567Y30249000D01*
X-52667680Y30249000D01*
X-52653734Y30282667D01*
X-52583600Y30635253D01*
X-52583600Y30908544D01*
X-46417600Y30908544D01*
X-46417600Y30731456D01*
X-46383052Y30557771D01*
X-46315284Y30394164D01*
X-46216899Y30246921D01*
X-46091679Y30121701D01*
X-45944436Y30023316D01*
X-45780829Y29955548D01*
X-45607144Y29921000D01*
X-45430056Y29921000D01*
X-45256371Y29955548D01*
X-45092764Y30023316D01*
X-44945521Y30121701D01*
X-44820301Y30246921D01*
X-44721916Y30394164D01*
X-44654148Y30557771D01*
X-44636030Y30648859D01*
X-24859600Y30648859D01*
X-24859600Y30565141D01*
X-24843267Y30483032D01*
X-24811230Y30405687D01*
X-24764719Y30336079D01*
X-24705521Y30276881D01*
X-24635913Y30230370D01*
X-24558568Y30198333D01*
X-24476459Y30182000D01*
X-24392741Y30182000D01*
X-24310632Y30198333D01*
X-24233287Y30230370D01*
X-24163679Y30276881D01*
X-24104481Y30336079D01*
X-24057970Y30405687D01*
X-24025933Y30483032D01*
X-24009600Y30565141D01*
X-24009600Y30648859D01*
X-24025933Y30730968D01*
X-24057970Y30808313D01*
X-24104481Y30877921D01*
X-24163679Y30937119D01*
X-24233287Y30983630D01*
X-24310632Y31015667D01*
X-24392741Y31032000D01*
X-24476459Y31032000D01*
X-24558568Y31015667D01*
X-24635913Y30983630D01*
X-24705521Y30937119D01*
X-24764719Y30877921D01*
X-24811230Y30808313D01*
X-24843267Y30730968D01*
X-24859600Y30648859D01*
X-44636030Y30648859D01*
X-44619600Y30731456D01*
X-44619600Y30908544D01*
X-44654148Y31082229D01*
X-44721916Y31245836D01*
X-44820301Y31393079D01*
X-44945521Y31518299D01*
X-45092764Y31616684D01*
X-45256371Y31684452D01*
X-45430056Y31719000D01*
X-45607144Y31719000D01*
X-45780829Y31684452D01*
X-45944436Y31616684D01*
X-46091679Y31518299D01*
X-46216899Y31393079D01*
X-46315284Y31245836D01*
X-46383052Y31082229D01*
X-46417600Y30908544D01*
X-52583600Y30908544D01*
X-52583600Y30994747D01*
X-52653734Y31347333D01*
X-52791306Y31679461D01*
X-52906667Y31852112D01*
X-52316133Y31852112D01*
X-52178416Y31674087D01*
X-51934230Y31536647D01*
X-51667923Y31449487D01*
X-51389728Y31415956D01*
X-51110338Y31437341D01*
X-50840487Y31512822D01*
X-50590548Y31639499D01*
X-50538784Y31674087D01*
X-50447678Y31791859D01*
X-27780600Y31791859D01*
X-27780600Y31708141D01*
X-27764267Y31626032D01*
X-27732230Y31548687D01*
X-27685719Y31479079D01*
X-27626521Y31419881D01*
X-27556913Y31373370D01*
X-27479568Y31341333D01*
X-27397459Y31325000D01*
X-27313741Y31325000D01*
X-27231632Y31341333D01*
X-27154287Y31373370D01*
X-27084679Y31419881D01*
X-27025481Y31479079D01*
X-26978970Y31548687D01*
X-26946933Y31626032D01*
X-26930600Y31708141D01*
X-26930600Y31791859D01*
X-26946933Y31873968D01*
X-26978970Y31951313D01*
X-27025481Y32020921D01*
X-27084679Y32080119D01*
X-27154287Y32126630D01*
X-27231632Y32158667D01*
X-27313741Y32175000D01*
X-27397459Y32175000D01*
X-27479568Y32158667D01*
X-27556913Y32126630D01*
X-27626521Y32080119D01*
X-27685719Y32020921D01*
X-27732230Y31951313D01*
X-27764267Y31873968D01*
X-27780600Y31791859D01*
X-50447678Y31791859D01*
X-50401067Y31852112D01*
X-51358600Y32809645D01*
X-52316133Y31852112D01*
X-52906667Y31852112D01*
X-52991030Y31978369D01*
X-53245231Y32232570D01*
X-53544139Y32432294D01*
X-53876267Y32569866D01*
X-54228853Y32640000D01*
X-54588347Y32640000D01*
X-54940933Y32569866D01*
X-55273061Y32432294D01*
X-55571969Y32232570D01*
X-55826170Y31978369D01*
X-56025894Y31679461D01*
X-56163466Y31347333D01*
X-56233600Y30994747D01*
X-58674137Y30994747D01*
X-58559036Y31109848D01*
X-58453428Y31267901D01*
X-58380685Y31443520D01*
X-58343600Y31629956D01*
X-58343600Y31820044D01*
X-58380685Y32006480D01*
X-58453428Y32182099D01*
X-58559036Y32340152D01*
X-58693448Y32474564D01*
X-58851501Y32580172D01*
X-59027120Y32652915D01*
X-59213556Y32690000D01*
X-59403644Y32690000D01*
X-59590080Y32652915D01*
X-59765699Y32580172D01*
X-59923752Y32474564D01*
X-60058164Y32340152D01*
X-60163772Y32182099D01*
X-60236515Y32006480D01*
X-60273600Y31820044D01*
X-63750000Y31820044D01*
X-63750000Y32876128D01*
X-52787644Y32876128D01*
X-52766259Y32596738D01*
X-52690778Y32326887D01*
X-52564101Y32076948D01*
X-52529513Y32025184D01*
X-52351488Y31887467D01*
X-51393955Y32845000D01*
X-51323245Y32845000D01*
X-50365712Y31887467D01*
X-50187687Y32025184D01*
X-50050247Y32269370D01*
X-49963087Y32535677D01*
X-49929556Y32813872D01*
X-49950941Y33093262D01*
X-50026422Y33363113D01*
X-50131207Y33569859D01*
X-14572600Y33569859D01*
X-14572600Y33486141D01*
X-14556267Y33404032D01*
X-14524230Y33326687D01*
X-14477719Y33257079D01*
X-14418521Y33197881D01*
X-14348913Y33151370D01*
X-14271568Y33119333D01*
X-14189459Y33103000D01*
X-14105741Y33103000D01*
X-14023632Y33119333D01*
X-13946287Y33151370D01*
X-13876679Y33197881D01*
X-13817481Y33257079D01*
X-13770970Y33326687D01*
X-13738933Y33404032D01*
X-13722600Y33486141D01*
X-13722600Y33569859D01*
X-13738933Y33651968D01*
X-13770970Y33729313D01*
X-13817481Y33798921D01*
X-13876679Y33858119D01*
X-13946287Y33904630D01*
X-14023632Y33936667D01*
X-14105741Y33953000D01*
X-14189459Y33953000D01*
X-14271568Y33936667D01*
X-14348913Y33904630D01*
X-14418521Y33858119D01*
X-14477719Y33798921D01*
X-14524230Y33729313D01*
X-14556267Y33651968D01*
X-14572600Y33569859D01*
X-50131207Y33569859D01*
X-50153099Y33613052D01*
X-50187687Y33664816D01*
X-50365712Y33802533D01*
X-51323245Y32845000D01*
X-51393955Y32845000D01*
X-52351488Y33802533D01*
X-52529513Y33664816D01*
X-52666953Y33420630D01*
X-52754113Y33154323D01*
X-52787644Y32876128D01*
X-63750000Y32876128D01*
X-63750000Y33837888D01*
X-52316133Y33837888D01*
X-51358600Y32880355D01*
X-50401067Y33837888D01*
X-50538784Y34015913D01*
X-50782970Y34153353D01*
X-51049277Y34240513D01*
X-51327472Y34274044D01*
X-51606862Y34252659D01*
X-51876713Y34177178D01*
X-52126652Y34050501D01*
X-52178416Y34015913D01*
X-52316133Y33837888D01*
X-63750000Y33837888D01*
X-63750000Y36861858D01*
X-38613601Y36861858D01*
X-38613601Y36778140D01*
X-38597268Y36696031D01*
X-38565231Y36618686D01*
X-38518720Y36549078D01*
X-38459522Y36489880D01*
X-38389914Y36443369D01*
X-38312569Y36411332D01*
X-38230460Y36394999D01*
X-38146742Y36394999D01*
X-38064633Y36411332D01*
X-37987288Y36443369D01*
X-37917680Y36489880D01*
X-37858482Y36549078D01*
X-37811971Y36618686D01*
X-37779934Y36696031D01*
X-37763601Y36778140D01*
X-37763601Y36803001D01*
X-37738740Y36803001D01*
X-37656631Y36819334D01*
X-37579286Y36851371D01*
X-37509678Y36897882D01*
X-37450480Y36957080D01*
X-37403969Y37026688D01*
X-37371932Y37104033D01*
X-37355599Y37186142D01*
X-37355599Y37269860D01*
X-37371932Y37351969D01*
X-37403969Y37429314D01*
X-37450480Y37498922D01*
X-37509678Y37558120D01*
X-37579286Y37604631D01*
X-37656631Y37636668D01*
X-37738740Y37653001D01*
X-37822458Y37653001D01*
X-37904567Y37636668D01*
X-37981912Y37604631D01*
X-38051520Y37558120D01*
X-38110718Y37498922D01*
X-38157229Y37429314D01*
X-38189266Y37351969D01*
X-38205599Y37269860D01*
X-38205599Y37244999D01*
X-38230460Y37244999D01*
X-38312569Y37228666D01*
X-38389914Y37196629D01*
X-38459522Y37150118D01*
X-38518720Y37090920D01*
X-38565231Y37021312D01*
X-38597268Y36943967D01*
X-38613601Y36861858D01*
X-63750000Y36861858D01*
X-63750000Y38776859D01*
X-60197600Y38776859D01*
X-60197600Y38693141D01*
X-60181267Y38611032D01*
X-60149230Y38533687D01*
X-60102719Y38464079D01*
X-60043521Y38404881D01*
X-59973913Y38358370D01*
X-59896568Y38326333D01*
X-59814459Y38310000D01*
X-59730741Y38310000D01*
X-59648632Y38326333D01*
X-59571287Y38358370D01*
X-59501679Y38404881D01*
X-59442481Y38464079D01*
X-59395970Y38533687D01*
X-59363933Y38611032D01*
X-59347600Y38693141D01*
X-59347600Y38776859D01*
X-59363933Y38858968D01*
X-59395970Y38936313D01*
X-59442481Y39005921D01*
X-59501679Y39065119D01*
X-59571287Y39111630D01*
X-59648632Y39143667D01*
X-59730741Y39160000D01*
X-59814459Y39160000D01*
X-59896568Y39143667D01*
X-59973913Y39111630D01*
X-60043521Y39065119D01*
X-60102719Y39005921D01*
X-60149230Y38936313D01*
X-60181267Y38858968D01*
X-60197600Y38776859D01*
X-63750000Y38776859D01*
X-63750000Y45777284D01*
X-61200000Y45777284D01*
X-61200000Y45422716D01*
X-61130827Y45074959D01*
X-60995139Y44747380D01*
X-60798151Y44452567D01*
X-60547433Y44201849D01*
X-60252620Y44004861D01*
X-59925041Y43869173D01*
X-59577284Y43800000D01*
X-59222716Y43800000D01*
X-58874959Y43869173D01*
X-58547380Y44004861D01*
X-58252567Y44201849D01*
X-58001849Y44452567D01*
X-57804861Y44747380D01*
X-57669173Y45074959D01*
X-57600000Y45422716D01*
X-57600000Y45777284D01*
X-57669173Y46125041D01*
X-57804861Y46452620D01*
X-58001849Y46747433D01*
X-58252567Y46998151D01*
X-58547380Y47195139D01*
X-58874959Y47330827D01*
X-59222716Y47400000D01*
X-59577284Y47400000D01*
X-59925041Y47330827D01*
X-60252620Y47195139D01*
X-60547433Y46998151D01*
X-60798151Y46747433D01*
X-60995139Y46452620D01*
X-61130827Y46125041D01*
X-61200000Y45777284D01*
X-63750000Y45777284D01*
X-63750000Y49987771D01*
X-63734540Y50145443D01*
X-63692301Y50285346D01*
X-63623692Y50414381D01*
X-63531328Y50527631D01*
X-63418725Y50620785D01*
X-63290177Y50690290D01*
X-63150563Y50733508D01*
X-62980848Y50751346D01*
X-62975912Y50752359D01*
X-62950598Y50754929D01*
X-62903938Y50769192D01*
X-62893105Y50775000D01*
X-25958000Y50775000D01*
X-25958000Y42672000D01*
M02*
