G04 #@! TF.GenerationSoftware,KiCad,Pcbnew,(5.1.6)-1*
G04 #@! TF.CreationDate,2020-07-05T14:39:03+08:00*
G04 #@! TF.ProjectId,inteli210AT,696e7465-6c69-4323-9130-41542e6b6963,rev?*
G04 #@! TF.SameCoordinates,Original*
G04 #@! TF.FileFunction,Paste,Top*
G04 #@! TF.FilePolarity,Positive*
%FSLAX46Y46*%
G04 Gerber Fmt 4.6, Leading zero omitted, Abs format (unit mm)*
G04 Created by KiCad (PCBNEW (5.1.6)-1) date 2020-07-05 14:39:03*
%MOMM*%
%LPD*%
G01*
G04 APERTURE LIST*
%ADD10C,0.010000*%
%ADD11R,0.260000X0.840000*%
%ADD12R,0.840000X0.260000*%
G04 APERTURE END LIST*
D10*
G36*
X-20332600Y25114000D02*
G01*
X-19132600Y25114000D01*
X-19132600Y23914000D01*
X-20332600Y23914000D01*
X-20332600Y25114000D01*
G37*
X-20332600Y25114000D02*
X-19132600Y25114000D01*
X-19132600Y23914000D01*
X-20332600Y23914000D01*
X-20332600Y25114000D01*
G36*
X-21862600Y25114000D02*
G01*
X-20662600Y25114000D01*
X-20662600Y23914000D01*
X-21862600Y23914000D01*
X-21862600Y25114000D01*
G37*
X-21862600Y25114000D02*
X-20662600Y25114000D01*
X-20662600Y23914000D01*
X-21862600Y23914000D01*
X-21862600Y25114000D01*
G36*
X-21862600Y23584000D02*
G01*
X-20662600Y23584000D01*
X-20662600Y22384000D01*
X-21862600Y22384000D01*
X-21862600Y23584000D01*
G37*
X-21862600Y23584000D02*
X-20662600Y23584000D01*
X-20662600Y22384000D01*
X-21862600Y22384000D01*
X-21862600Y23584000D01*
G36*
X-20332600Y23584000D02*
G01*
X-19132600Y23584000D01*
X-19132600Y22384000D01*
X-20332600Y22384000D01*
X-20332600Y23584000D01*
G37*
X-20332600Y23584000D02*
X-19132600Y23584000D01*
X-19132600Y22384000D01*
X-20332600Y22384000D01*
X-20332600Y23584000D01*
G36*
G01*
X-40420250Y34956000D02*
X-39907750Y34956000D01*
G75*
G02*
X-39689000Y34737250I0J-218750D01*
G01*
X-39689000Y34299750D01*
G75*
G02*
X-39907750Y34081000I-218750J0D01*
G01*
X-40420250Y34081000D01*
G75*
G02*
X-40639000Y34299750I0J218750D01*
G01*
X-40639000Y34737250D01*
G75*
G02*
X-40420250Y34956000I218750J0D01*
G01*
G37*
G36*
G01*
X-40420250Y36531000D02*
X-39907750Y36531000D01*
G75*
G02*
X-39689000Y36312250I0J-218750D01*
G01*
X-39689000Y35874750D01*
G75*
G02*
X-39907750Y35656000I-218750J0D01*
G01*
X-40420250Y35656000D01*
G75*
G02*
X-40639000Y35874750I0J218750D01*
G01*
X-40639000Y36312250D01*
G75*
G02*
X-40420250Y36531000I218750J0D01*
G01*
G37*
G36*
G01*
X-42325250Y34956000D02*
X-41812750Y34956000D01*
G75*
G02*
X-41594000Y34737250I0J-218750D01*
G01*
X-41594000Y34299750D01*
G75*
G02*
X-41812750Y34081000I-218750J0D01*
G01*
X-42325250Y34081000D01*
G75*
G02*
X-42544000Y34299750I0J218750D01*
G01*
X-42544000Y34737250D01*
G75*
G02*
X-42325250Y34956000I218750J0D01*
G01*
G37*
G36*
G01*
X-42325250Y36531000D02*
X-41812750Y36531000D01*
G75*
G02*
X-41594000Y36312250I0J-218750D01*
G01*
X-41594000Y35874750D01*
G75*
G02*
X-41812750Y35656000I-218750J0D01*
G01*
X-42325250Y35656000D01*
G75*
G02*
X-42544000Y35874750I0J218750D01*
G01*
X-42544000Y36312250D01*
G75*
G02*
X-42325250Y36531000I218750J0D01*
G01*
G37*
G36*
G01*
X-25804600Y34077750D02*
X-25804600Y34590250D01*
G75*
G02*
X-25585850Y34809000I218750J0D01*
G01*
X-25148350Y34809000D01*
G75*
G02*
X-24929600Y34590250I0J-218750D01*
G01*
X-24929600Y34077750D01*
G75*
G02*
X-25148350Y33859000I-218750J0D01*
G01*
X-25585850Y33859000D01*
G75*
G02*
X-25804600Y34077750I0J218750D01*
G01*
G37*
G36*
G01*
X-27379600Y34077750D02*
X-27379600Y34590250D01*
G75*
G02*
X-27160850Y34809000I218750J0D01*
G01*
X-26723350Y34809000D01*
G75*
G02*
X-26504600Y34590250I0J-218750D01*
G01*
X-26504600Y34077750D01*
G75*
G02*
X-26723350Y33859000I-218750J0D01*
G01*
X-27160850Y33859000D01*
G75*
G02*
X-27379600Y34077750I0J218750D01*
G01*
G37*
G36*
G01*
X-38406850Y22027500D02*
X-37894350Y22027500D01*
G75*
G02*
X-37675600Y21808750I0J-218750D01*
G01*
X-37675600Y21371250D01*
G75*
G02*
X-37894350Y21152500I-218750J0D01*
G01*
X-38406850Y21152500D01*
G75*
G02*
X-38625600Y21371250I0J218750D01*
G01*
X-38625600Y21808750D01*
G75*
G02*
X-38406850Y22027500I218750J0D01*
G01*
G37*
G36*
G01*
X-38406850Y23602500D02*
X-37894350Y23602500D01*
G75*
G02*
X-37675600Y23383750I0J-218750D01*
G01*
X-37675600Y22946250D01*
G75*
G02*
X-37894350Y22727500I-218750J0D01*
G01*
X-38406850Y22727500D01*
G75*
G02*
X-38625600Y22946250I0J218750D01*
G01*
X-38625600Y23383750D01*
G75*
G02*
X-38406850Y23602500I218750J0D01*
G01*
G37*
G36*
G01*
X-33830350Y13278500D02*
X-34342850Y13278500D01*
G75*
G02*
X-34561600Y13497250I0J218750D01*
G01*
X-34561600Y13934750D01*
G75*
G02*
X-34342850Y14153500I218750J0D01*
G01*
X-33830350Y14153500D01*
G75*
G02*
X-33611600Y13934750I0J-218750D01*
G01*
X-33611600Y13497250D01*
G75*
G02*
X-33830350Y13278500I-218750J0D01*
G01*
G37*
G36*
G01*
X-33830350Y11703500D02*
X-34342850Y11703500D01*
G75*
G02*
X-34561600Y11922250I0J218750D01*
G01*
X-34561600Y12359750D01*
G75*
G02*
X-34342850Y12578500I218750J0D01*
G01*
X-33830350Y12578500D01*
G75*
G02*
X-33611600Y12359750I0J-218750D01*
G01*
X-33611600Y11922250D01*
G75*
G02*
X-33830350Y11703500I-218750J0D01*
G01*
G37*
G36*
G01*
X-43990350Y11500500D02*
X-44502850Y11500500D01*
G75*
G02*
X-44721600Y11719250I0J218750D01*
G01*
X-44721600Y12156750D01*
G75*
G02*
X-44502850Y12375500I218750J0D01*
G01*
X-43990350Y12375500D01*
G75*
G02*
X-43771600Y12156750I0J-218750D01*
G01*
X-43771600Y11719250D01*
G75*
G02*
X-43990350Y11500500I-218750J0D01*
G01*
G37*
G36*
G01*
X-43990350Y9925500D02*
X-44502850Y9925500D01*
G75*
G02*
X-44721600Y10144250I0J218750D01*
G01*
X-44721600Y10581750D01*
G75*
G02*
X-44502850Y10800500I218750J0D01*
G01*
X-43990350Y10800500D01*
G75*
G02*
X-43771600Y10581750I0J-218750D01*
G01*
X-43771600Y10144250D01*
G75*
G02*
X-43990350Y9925500I-218750J0D01*
G01*
G37*
G36*
G01*
X-13383350Y23083000D02*
X-13895850Y23083000D01*
G75*
G02*
X-14114600Y23301750I0J218750D01*
G01*
X-14114600Y23739250D01*
G75*
G02*
X-13895850Y23958000I218750J0D01*
G01*
X-13383350Y23958000D01*
G75*
G02*
X-13164600Y23739250I0J-218750D01*
G01*
X-13164600Y23301750D01*
G75*
G02*
X-13383350Y23083000I-218750J0D01*
G01*
G37*
G36*
G01*
X-13383350Y21508000D02*
X-13895850Y21508000D01*
G75*
G02*
X-14114600Y21726750I0J218750D01*
G01*
X-14114600Y22164250D01*
G75*
G02*
X-13895850Y22383000I218750J0D01*
G01*
X-13383350Y22383000D01*
G75*
G02*
X-13164600Y22164250I0J-218750D01*
G01*
X-13164600Y21726750D01*
G75*
G02*
X-13383350Y21508000I-218750J0D01*
G01*
G37*
G36*
G01*
X-10052600Y18925250D02*
X-10052600Y18412750D01*
G75*
G02*
X-10271350Y18194000I-218750J0D01*
G01*
X-10708850Y18194000D01*
G75*
G02*
X-10927600Y18412750I0J218750D01*
G01*
X-10927600Y18925250D01*
G75*
G02*
X-10708850Y19144000I218750J0D01*
G01*
X-10271350Y19144000D01*
G75*
G02*
X-10052600Y18925250I0J-218750D01*
G01*
G37*
G36*
G01*
X-8477600Y18925250D02*
X-8477600Y18412750D01*
G75*
G02*
X-8696350Y18194000I-218750J0D01*
G01*
X-9133850Y18194000D01*
G75*
G02*
X-9352600Y18412750I0J218750D01*
G01*
X-9352600Y18925250D01*
G75*
G02*
X-9133850Y19144000I218750J0D01*
G01*
X-8696350Y19144000D01*
G75*
G02*
X-8477600Y18925250I0J-218750D01*
G01*
G37*
G36*
G01*
X-16021600Y17020250D02*
X-16021600Y16507750D01*
G75*
G02*
X-16240350Y16289000I-218750J0D01*
G01*
X-16677850Y16289000D01*
G75*
G02*
X-16896600Y16507750I0J218750D01*
G01*
X-16896600Y17020250D01*
G75*
G02*
X-16677850Y17239000I218750J0D01*
G01*
X-16240350Y17239000D01*
G75*
G02*
X-16021600Y17020250I0J-218750D01*
G01*
G37*
G36*
G01*
X-14446600Y17020250D02*
X-14446600Y16507750D01*
G75*
G02*
X-14665350Y16289000I-218750J0D01*
G01*
X-15102850Y16289000D01*
G75*
G02*
X-15321600Y16507750I0J218750D01*
G01*
X-15321600Y17020250D01*
G75*
G02*
X-15102850Y17239000I218750J0D01*
G01*
X-14665350Y17239000D01*
G75*
G02*
X-14446600Y17020250I0J-218750D01*
G01*
G37*
G36*
G01*
X-3728100Y29974250D02*
X-3728100Y29461750D01*
G75*
G02*
X-3946850Y29243000I-218750J0D01*
G01*
X-4384350Y29243000D01*
G75*
G02*
X-4603100Y29461750I0J218750D01*
G01*
X-4603100Y29974250D01*
G75*
G02*
X-4384350Y30193000I218750J0D01*
G01*
X-3946850Y30193000D01*
G75*
G02*
X-3728100Y29974250I0J-218750D01*
G01*
G37*
G36*
G01*
X-2153100Y29974250D02*
X-2153100Y29461750D01*
G75*
G02*
X-2371850Y29243000I-218750J0D01*
G01*
X-2809350Y29243000D01*
G75*
G02*
X-3028100Y29461750I0J218750D01*
G01*
X-3028100Y29974250D01*
G75*
G02*
X-2809350Y30193000I218750J0D01*
G01*
X-2371850Y30193000D01*
G75*
G02*
X-2153100Y29974250I0J-218750D01*
G01*
G37*
G36*
G01*
X-10052600Y20576250D02*
X-10052600Y20063750D01*
G75*
G02*
X-10271350Y19845000I-218750J0D01*
G01*
X-10708850Y19845000D01*
G75*
G02*
X-10927600Y20063750I0J218750D01*
G01*
X-10927600Y20576250D01*
G75*
G02*
X-10708850Y20795000I218750J0D01*
G01*
X-10271350Y20795000D01*
G75*
G02*
X-10052600Y20576250I0J-218750D01*
G01*
G37*
G36*
G01*
X-8477600Y20576250D02*
X-8477600Y20063750D01*
G75*
G02*
X-8696350Y19845000I-218750J0D01*
G01*
X-9133850Y19845000D01*
G75*
G02*
X-9352600Y20063750I0J218750D01*
G01*
X-9352600Y20576250D01*
G75*
G02*
X-9133850Y20795000I218750J0D01*
G01*
X-8696350Y20795000D01*
G75*
G02*
X-8477600Y20576250I0J-218750D01*
G01*
G37*
G36*
G01*
X-12244850Y22383000D02*
X-11732350Y22383000D01*
G75*
G02*
X-11513600Y22164250I0J-218750D01*
G01*
X-11513600Y21726750D01*
G75*
G02*
X-11732350Y21508000I-218750J0D01*
G01*
X-12244850Y21508000D01*
G75*
G02*
X-12463600Y21726750I0J218750D01*
G01*
X-12463600Y22164250D01*
G75*
G02*
X-12244850Y22383000I218750J0D01*
G01*
G37*
G36*
G01*
X-12244850Y23958000D02*
X-11732350Y23958000D01*
G75*
G02*
X-11513600Y23739250I0J-218750D01*
G01*
X-11513600Y23301750D01*
G75*
G02*
X-11732350Y23083000I-218750J0D01*
G01*
X-12244850Y23083000D01*
G75*
G02*
X-12463600Y23301750I0J218750D01*
G01*
X-12463600Y23739250D01*
G75*
G02*
X-12244850Y23958000I218750J0D01*
G01*
G37*
G36*
G01*
X-56849350Y36697500D02*
X-57361850Y36697500D01*
G75*
G02*
X-57580600Y36916250I0J218750D01*
G01*
X-57580600Y37353750D01*
G75*
G02*
X-57361850Y37572500I218750J0D01*
G01*
X-56849350Y37572500D01*
G75*
G02*
X-56630600Y37353750I0J-218750D01*
G01*
X-56630600Y36916250D01*
G75*
G02*
X-56849350Y36697500I-218750J0D01*
G01*
G37*
G36*
G01*
X-56849350Y35122500D02*
X-57361850Y35122500D01*
G75*
G02*
X-57580600Y35341250I0J218750D01*
G01*
X-57580600Y35778750D01*
G75*
G02*
X-57361850Y35997500I218750J0D01*
G01*
X-56849350Y35997500D01*
G75*
G02*
X-56630600Y35778750I0J-218750D01*
G01*
X-56630600Y35341250D01*
G75*
G02*
X-56849350Y35122500I-218750J0D01*
G01*
G37*
G36*
G01*
X-59008350Y36697500D02*
X-59520850Y36697500D01*
G75*
G02*
X-59739600Y36916250I0J218750D01*
G01*
X-59739600Y37353750D01*
G75*
G02*
X-59520850Y37572500I218750J0D01*
G01*
X-59008350Y37572500D01*
G75*
G02*
X-58789600Y37353750I0J-218750D01*
G01*
X-58789600Y36916250D01*
G75*
G02*
X-59008350Y36697500I-218750J0D01*
G01*
G37*
G36*
G01*
X-59008350Y35122500D02*
X-59520850Y35122500D01*
G75*
G02*
X-59739600Y35341250I0J218750D01*
G01*
X-59739600Y35778750D01*
G75*
G02*
X-59520850Y35997500I218750J0D01*
G01*
X-59008350Y35997500D01*
G75*
G02*
X-58789600Y35778750I0J-218750D01*
G01*
X-58789600Y35341250D01*
G75*
G02*
X-59008350Y35122500I-218750J0D01*
G01*
G37*
G36*
G01*
X-59361850Y13137500D02*
X-58849350Y13137500D01*
G75*
G02*
X-58630600Y12918750I0J-218750D01*
G01*
X-58630600Y12481250D01*
G75*
G02*
X-58849350Y12262500I-218750J0D01*
G01*
X-59361850Y12262500D01*
G75*
G02*
X-59580600Y12481250I0J218750D01*
G01*
X-59580600Y12918750D01*
G75*
G02*
X-59361850Y13137500I218750J0D01*
G01*
G37*
G36*
G01*
X-59361850Y14712500D02*
X-58849350Y14712500D01*
G75*
G02*
X-58630600Y14493750I0J-218750D01*
G01*
X-58630600Y14056250D01*
G75*
G02*
X-58849350Y13837500I-218750J0D01*
G01*
X-59361850Y13837500D01*
G75*
G02*
X-59580600Y14056250I0J218750D01*
G01*
X-59580600Y14493750D01*
G75*
G02*
X-59361850Y14712500I218750J0D01*
G01*
G37*
G36*
G01*
X-61520850Y13137500D02*
X-61008350Y13137500D01*
G75*
G02*
X-60789600Y12918750I0J-218750D01*
G01*
X-60789600Y12481250D01*
G75*
G02*
X-61008350Y12262500I-218750J0D01*
G01*
X-61520850Y12262500D01*
G75*
G02*
X-61739600Y12481250I0J218750D01*
G01*
X-61739600Y12918750D01*
G75*
G02*
X-61520850Y13137500I218750J0D01*
G01*
G37*
G36*
G01*
X-61520850Y14712500D02*
X-61008350Y14712500D01*
G75*
G02*
X-60789600Y14493750I0J-218750D01*
G01*
X-60789600Y14056250D01*
G75*
G02*
X-61008350Y13837500I-218750J0D01*
G01*
X-61520850Y13837500D01*
G75*
G02*
X-61739600Y14056250I0J218750D01*
G01*
X-61739600Y14493750D01*
G75*
G02*
X-61520850Y14712500I218750J0D01*
G01*
G37*
G36*
G01*
X-13895850Y29749000D02*
X-13383350Y29749000D01*
G75*
G02*
X-13164600Y29530250I0J-218750D01*
G01*
X-13164600Y29092750D01*
G75*
G02*
X-13383350Y28874000I-218750J0D01*
G01*
X-13895850Y28874000D01*
G75*
G02*
X-14114600Y29092750I0J218750D01*
G01*
X-14114600Y29530250D01*
G75*
G02*
X-13895850Y29749000I218750J0D01*
G01*
G37*
G36*
G01*
X-13895850Y31324000D02*
X-13383350Y31324000D01*
G75*
G02*
X-13164600Y31105250I0J-218750D01*
G01*
X-13164600Y30667750D01*
G75*
G02*
X-13383350Y30449000I-218750J0D01*
G01*
X-13895850Y30449000D01*
G75*
G02*
X-14114600Y30667750I0J218750D01*
G01*
X-14114600Y31105250D01*
G75*
G02*
X-13895850Y31324000I218750J0D01*
G01*
G37*
G36*
G01*
X-23006600Y33911250D02*
X-23006600Y33398750D01*
G75*
G02*
X-23225350Y33180000I-218750J0D01*
G01*
X-23662850Y33180000D01*
G75*
G02*
X-23881600Y33398750I0J218750D01*
G01*
X-23881600Y33911250D01*
G75*
G02*
X-23662850Y34130000I218750J0D01*
G01*
X-23225350Y34130000D01*
G75*
G02*
X-23006600Y33911250I0J-218750D01*
G01*
G37*
G36*
G01*
X-21431600Y33911250D02*
X-21431600Y33398750D01*
G75*
G02*
X-21650350Y33180000I-218750J0D01*
G01*
X-22087850Y33180000D01*
G75*
G02*
X-22306600Y33398750I0J218750D01*
G01*
X-22306600Y33911250D01*
G75*
G02*
X-22087850Y34130000I218750J0D01*
G01*
X-21650350Y34130000D01*
G75*
G02*
X-21431600Y33911250I0J-218750D01*
G01*
G37*
G36*
G01*
X-20499850Y34067000D02*
X-19987350Y34067000D01*
G75*
G02*
X-19768600Y33848250I0J-218750D01*
G01*
X-19768600Y33410750D01*
G75*
G02*
X-19987350Y33192000I-218750J0D01*
G01*
X-20499850Y33192000D01*
G75*
G02*
X-20718600Y33410750I0J218750D01*
G01*
X-20718600Y33848250D01*
G75*
G02*
X-20499850Y34067000I218750J0D01*
G01*
G37*
G36*
G01*
X-20499850Y35642000D02*
X-19987350Y35642000D01*
G75*
G02*
X-19768600Y35423250I0J-218750D01*
G01*
X-19768600Y34985750D01*
G75*
G02*
X-19987350Y34767000I-218750J0D01*
G01*
X-20499850Y34767000D01*
G75*
G02*
X-20718600Y34985750I0J218750D01*
G01*
X-20718600Y35423250D01*
G75*
G02*
X-20499850Y35642000I218750J0D01*
G01*
G37*
G36*
G01*
X-3702600Y25021250D02*
X-3702600Y24508750D01*
G75*
G02*
X-3921350Y24290000I-218750J0D01*
G01*
X-4358850Y24290000D01*
G75*
G02*
X-4577600Y24508750I0J218750D01*
G01*
X-4577600Y25021250D01*
G75*
G02*
X-4358850Y25240000I218750J0D01*
G01*
X-3921350Y25240000D01*
G75*
G02*
X-3702600Y25021250I0J-218750D01*
G01*
G37*
G36*
G01*
X-2127600Y25021250D02*
X-2127600Y24508750D01*
G75*
G02*
X-2346350Y24290000I-218750J0D01*
G01*
X-2783850Y24290000D01*
G75*
G02*
X-3002600Y24508750I0J218750D01*
G01*
X-3002600Y25021250D01*
G75*
G02*
X-2783850Y25240000I218750J0D01*
G01*
X-2346350Y25240000D01*
G75*
G02*
X-2127600Y25021250I0J-218750D01*
G01*
G37*
G36*
G01*
X-24813350Y13304000D02*
X-25325850Y13304000D01*
G75*
G02*
X-25544600Y13522750I0J218750D01*
G01*
X-25544600Y13960250D01*
G75*
G02*
X-25325850Y14179000I218750J0D01*
G01*
X-24813350Y14179000D01*
G75*
G02*
X-24594600Y13960250I0J-218750D01*
G01*
X-24594600Y13522750D01*
G75*
G02*
X-24813350Y13304000I-218750J0D01*
G01*
G37*
G36*
G01*
X-24813350Y11729000D02*
X-25325850Y11729000D01*
G75*
G02*
X-25544600Y11947750I0J218750D01*
G01*
X-25544600Y12385250D01*
G75*
G02*
X-25325850Y12604000I218750J0D01*
G01*
X-24813350Y12604000D01*
G75*
G02*
X-24594600Y12385250I0J-218750D01*
G01*
X-24594600Y11947750D01*
G75*
G02*
X-24813350Y11729000I-218750J0D01*
G01*
G37*
G36*
G01*
X-25194350Y16479000D02*
X-25706850Y16479000D01*
G75*
G02*
X-25925600Y16697750I0J218750D01*
G01*
X-25925600Y17135250D01*
G75*
G02*
X-25706850Y17354000I218750J0D01*
G01*
X-25194350Y17354000D01*
G75*
G02*
X-24975600Y17135250I0J-218750D01*
G01*
X-24975600Y16697750D01*
G75*
G02*
X-25194350Y16479000I-218750J0D01*
G01*
G37*
G36*
G01*
X-25194350Y14904000D02*
X-25706850Y14904000D01*
G75*
G02*
X-25925600Y15122750I0J218750D01*
G01*
X-25925600Y15560250D01*
G75*
G02*
X-25706850Y15779000I218750J0D01*
G01*
X-25194350Y15779000D01*
G75*
G02*
X-24975600Y15560250I0J-218750D01*
G01*
X-24975600Y15122750D01*
G75*
G02*
X-25194350Y14904000I-218750J0D01*
G01*
G37*
G36*
G01*
X-10027100Y17274250D02*
X-10027100Y16761750D01*
G75*
G02*
X-10245850Y16543000I-218750J0D01*
G01*
X-10683350Y16543000D01*
G75*
G02*
X-10902100Y16761750I0J218750D01*
G01*
X-10902100Y17274250D01*
G75*
G02*
X-10683350Y17493000I218750J0D01*
G01*
X-10245850Y17493000D01*
G75*
G02*
X-10027100Y17274250I0J-218750D01*
G01*
G37*
G36*
G01*
X-8452100Y17274250D02*
X-8452100Y16761750D01*
G75*
G02*
X-8670850Y16543000I-218750J0D01*
G01*
X-9108350Y16543000D01*
G75*
G02*
X-9327100Y16761750I0J218750D01*
G01*
X-9327100Y17274250D01*
G75*
G02*
X-9108350Y17493000I218750J0D01*
G01*
X-8670850Y17493000D01*
G75*
G02*
X-8452100Y17274250I0J-218750D01*
G01*
G37*
G36*
G01*
X-28529600Y10030750D02*
X-28529600Y10543250D01*
G75*
G02*
X-28310850Y10762000I218750J0D01*
G01*
X-27873350Y10762000D01*
G75*
G02*
X-27654600Y10543250I0J-218750D01*
G01*
X-27654600Y10030750D01*
G75*
G02*
X-27873350Y9812000I-218750J0D01*
G01*
X-28310850Y9812000D01*
G75*
G02*
X-28529600Y10030750I0J218750D01*
G01*
G37*
G36*
G01*
X-30104600Y10030750D02*
X-30104600Y10543250D01*
G75*
G02*
X-29885850Y10762000I218750J0D01*
G01*
X-29448350Y10762000D01*
G75*
G02*
X-29229600Y10543250I0J-218750D01*
G01*
X-29229600Y10030750D01*
G75*
G02*
X-29448350Y9812000I-218750J0D01*
G01*
X-29885850Y9812000D01*
G75*
G02*
X-30104600Y10030750I0J218750D01*
G01*
G37*
G36*
G01*
X-27767600Y20698750D02*
X-27767600Y21211250D01*
G75*
G02*
X-27548850Y21430000I218750J0D01*
G01*
X-27111350Y21430000D01*
G75*
G02*
X-26892600Y21211250I0J-218750D01*
G01*
X-26892600Y20698750D01*
G75*
G02*
X-27111350Y20480000I-218750J0D01*
G01*
X-27548850Y20480000D01*
G75*
G02*
X-27767600Y20698750I0J218750D01*
G01*
G37*
G36*
G01*
X-29342600Y20698750D02*
X-29342600Y21211250D01*
G75*
G02*
X-29123850Y21430000I218750J0D01*
G01*
X-28686350Y21430000D01*
G75*
G02*
X-28467600Y21211250I0J-218750D01*
G01*
X-28467600Y20698750D01*
G75*
G02*
X-28686350Y20480000I-218750J0D01*
G01*
X-29123850Y20480000D01*
G75*
G02*
X-29342600Y20698750I0J218750D01*
G01*
G37*
G36*
G01*
X-27767600Y22349750D02*
X-27767600Y22862250D01*
G75*
G02*
X-27548850Y23081000I218750J0D01*
G01*
X-27111350Y23081000D01*
G75*
G02*
X-26892600Y22862250I0J-218750D01*
G01*
X-26892600Y22349750D01*
G75*
G02*
X-27111350Y22131000I-218750J0D01*
G01*
X-27548850Y22131000D01*
G75*
G02*
X-27767600Y22349750I0J218750D01*
G01*
G37*
G36*
G01*
X-29342600Y22349750D02*
X-29342600Y22862250D01*
G75*
G02*
X-29123850Y23081000I218750J0D01*
G01*
X-28686350Y23081000D01*
G75*
G02*
X-28467600Y22862250I0J-218750D01*
G01*
X-28467600Y22349750D01*
G75*
G02*
X-28686350Y22131000I-218750J0D01*
G01*
X-29123850Y22131000D01*
G75*
G02*
X-29342600Y22349750I0J218750D01*
G01*
G37*
G36*
G01*
X-30942600Y23365750D02*
X-30942600Y23878250D01*
G75*
G02*
X-30723850Y24097000I218750J0D01*
G01*
X-30286350Y24097000D01*
G75*
G02*
X-30067600Y23878250I0J-218750D01*
G01*
X-30067600Y23365750D01*
G75*
G02*
X-30286350Y23147000I-218750J0D01*
G01*
X-30723850Y23147000D01*
G75*
G02*
X-30942600Y23365750I0J218750D01*
G01*
G37*
G36*
G01*
X-32517600Y23365750D02*
X-32517600Y23878250D01*
G75*
G02*
X-32298850Y24097000I218750J0D01*
G01*
X-31861350Y24097000D01*
G75*
G02*
X-31642600Y23878250I0J-218750D01*
G01*
X-31642600Y23365750D01*
G75*
G02*
X-31861350Y23147000I-218750J0D01*
G01*
X-32298850Y23147000D01*
G75*
G02*
X-32517600Y23365750I0J218750D01*
G01*
G37*
G36*
G01*
X-6304800Y11435350D02*
X-6304800Y11947850D01*
G75*
G02*
X-6086050Y12166600I218750J0D01*
G01*
X-5648550Y12166600D01*
G75*
G02*
X-5429800Y11947850I0J-218750D01*
G01*
X-5429800Y11435350D01*
G75*
G02*
X-5648550Y11216600I-218750J0D01*
G01*
X-6086050Y11216600D01*
G75*
G02*
X-6304800Y11435350I0J218750D01*
G01*
G37*
G36*
G01*
X-7879800Y11435350D02*
X-7879800Y11947850D01*
G75*
G02*
X-7661050Y12166600I218750J0D01*
G01*
X-7223550Y12166600D01*
G75*
G02*
X-7004800Y11947850I0J-218750D01*
G01*
X-7004800Y11435350D01*
G75*
G02*
X-7223550Y11216600I-218750J0D01*
G01*
X-7661050Y11216600D01*
G75*
G02*
X-7879800Y11435350I0J218750D01*
G01*
G37*
G36*
G01*
X-6304800Y9657350D02*
X-6304800Y10169850D01*
G75*
G02*
X-6086050Y10388600I218750J0D01*
G01*
X-5648550Y10388600D01*
G75*
G02*
X-5429800Y10169850I0J-218750D01*
G01*
X-5429800Y9657350D01*
G75*
G02*
X-5648550Y9438600I-218750J0D01*
G01*
X-6086050Y9438600D01*
G75*
G02*
X-6304800Y9657350I0J218750D01*
G01*
G37*
G36*
G01*
X-7879800Y9657350D02*
X-7879800Y10169850D01*
G75*
G02*
X-7661050Y10388600I218750J0D01*
G01*
X-7223550Y10388600D01*
G75*
G02*
X-7004800Y10169850I0J-218750D01*
G01*
X-7004800Y9657350D01*
G75*
G02*
X-7223550Y9438600I-218750J0D01*
G01*
X-7661050Y9438600D01*
G75*
G02*
X-7879800Y9657350I0J218750D01*
G01*
G37*
G36*
G01*
X-41048600Y18294000D02*
X-41348600Y18294000D01*
G75*
G02*
X-41498600Y18444000I0J150000D01*
G01*
X-41498600Y19744000D01*
G75*
G02*
X-41348600Y19894000I150000J0D01*
G01*
X-41048600Y19894000D01*
G75*
G02*
X-40898600Y19744000I0J-150000D01*
G01*
X-40898600Y18444000D01*
G75*
G02*
X-41048600Y18294000I-150000J0D01*
G01*
G37*
G36*
G01*
X-39778600Y18294000D02*
X-40078600Y18294000D01*
G75*
G02*
X-40228600Y18444000I0J150000D01*
G01*
X-40228600Y19744000D01*
G75*
G02*
X-40078600Y19894000I150000J0D01*
G01*
X-39778600Y19894000D01*
G75*
G02*
X-39628600Y19744000I0J-150000D01*
G01*
X-39628600Y18444000D01*
G75*
G02*
X-39778600Y18294000I-150000J0D01*
G01*
G37*
G36*
G01*
X-38508600Y18294000D02*
X-38808600Y18294000D01*
G75*
G02*
X-38958600Y18444000I0J150000D01*
G01*
X-38958600Y19744000D01*
G75*
G02*
X-38808600Y19894000I150000J0D01*
G01*
X-38508600Y19894000D01*
G75*
G02*
X-38358600Y19744000I0J-150000D01*
G01*
X-38358600Y18444000D01*
G75*
G02*
X-38508600Y18294000I-150000J0D01*
G01*
G37*
G36*
G01*
X-37238600Y18294000D02*
X-37538600Y18294000D01*
G75*
G02*
X-37688600Y18444000I0J150000D01*
G01*
X-37688600Y19744000D01*
G75*
G02*
X-37538600Y19894000I150000J0D01*
G01*
X-37238600Y19894000D01*
G75*
G02*
X-37088600Y19744000I0J-150000D01*
G01*
X-37088600Y18444000D01*
G75*
G02*
X-37238600Y18294000I-150000J0D01*
G01*
G37*
G36*
G01*
X-37238600Y11094000D02*
X-37538600Y11094000D01*
G75*
G02*
X-37688600Y11244000I0J150000D01*
G01*
X-37688600Y12544000D01*
G75*
G02*
X-37538600Y12694000I150000J0D01*
G01*
X-37238600Y12694000D01*
G75*
G02*
X-37088600Y12544000I0J-150000D01*
G01*
X-37088600Y11244000D01*
G75*
G02*
X-37238600Y11094000I-150000J0D01*
G01*
G37*
G36*
G01*
X-38508600Y11094000D02*
X-38808600Y11094000D01*
G75*
G02*
X-38958600Y11244000I0J150000D01*
G01*
X-38958600Y12544000D01*
G75*
G02*
X-38808600Y12694000I150000J0D01*
G01*
X-38508600Y12694000D01*
G75*
G02*
X-38358600Y12544000I0J-150000D01*
G01*
X-38358600Y11244000D01*
G75*
G02*
X-38508600Y11094000I-150000J0D01*
G01*
G37*
G36*
G01*
X-39778600Y11094000D02*
X-40078600Y11094000D01*
G75*
G02*
X-40228600Y11244000I0J150000D01*
G01*
X-40228600Y12544000D01*
G75*
G02*
X-40078600Y12694000I150000J0D01*
G01*
X-39778600Y12694000D01*
G75*
G02*
X-39628600Y12544000I0J-150000D01*
G01*
X-39628600Y11244000D01*
G75*
G02*
X-39778600Y11094000I-150000J0D01*
G01*
G37*
G36*
G01*
X-41048600Y11094000D02*
X-41348600Y11094000D01*
G75*
G02*
X-41498600Y11244000I0J150000D01*
G01*
X-41498600Y12544000D01*
G75*
G02*
X-41348600Y12694000I150000J0D01*
G01*
X-41048600Y12694000D01*
G75*
G02*
X-40898600Y12544000I0J-150000D01*
G01*
X-40898600Y11244000D01*
G75*
G02*
X-41048600Y11094000I-150000J0D01*
G01*
G37*
G36*
G01*
X-30942600Y26667750D02*
X-30942600Y27180250D01*
G75*
G02*
X-30723850Y27399000I218750J0D01*
G01*
X-30286350Y27399000D01*
G75*
G02*
X-30067600Y27180250I0J-218750D01*
G01*
X-30067600Y26667750D01*
G75*
G02*
X-30286350Y26449000I-218750J0D01*
G01*
X-30723850Y26449000D01*
G75*
G02*
X-30942600Y26667750I0J218750D01*
G01*
G37*
G36*
G01*
X-32517600Y26667750D02*
X-32517600Y27180250D01*
G75*
G02*
X-32298850Y27399000I218750J0D01*
G01*
X-31861350Y27399000D01*
G75*
G02*
X-31642600Y27180250I0J-218750D01*
G01*
X-31642600Y26667750D01*
G75*
G02*
X-31861350Y26449000I-218750J0D01*
G01*
X-32298850Y26449000D01*
G75*
G02*
X-32517600Y26667750I0J218750D01*
G01*
G37*
G36*
G01*
X-27767600Y24000750D02*
X-27767600Y24513250D01*
G75*
G02*
X-27548850Y24732000I218750J0D01*
G01*
X-27111350Y24732000D01*
G75*
G02*
X-26892600Y24513250I0J-218750D01*
G01*
X-26892600Y24000750D01*
G75*
G02*
X-27111350Y23782000I-218750J0D01*
G01*
X-27548850Y23782000D01*
G75*
G02*
X-27767600Y24000750I0J218750D01*
G01*
G37*
G36*
G01*
X-29342600Y24000750D02*
X-29342600Y24513250D01*
G75*
G02*
X-29123850Y24732000I218750J0D01*
G01*
X-28686350Y24732000D01*
G75*
G02*
X-28467600Y24513250I0J-218750D01*
G01*
X-28467600Y24000750D01*
G75*
G02*
X-28686350Y23782000I-218750J0D01*
G01*
X-29123850Y23782000D01*
G75*
G02*
X-29342600Y24000750I0J218750D01*
G01*
G37*
G36*
G01*
X-27767600Y25651750D02*
X-27767600Y26164250D01*
G75*
G02*
X-27548850Y26383000I218750J0D01*
G01*
X-27111350Y26383000D01*
G75*
G02*
X-26892600Y26164250I0J-218750D01*
G01*
X-26892600Y25651750D01*
G75*
G02*
X-27111350Y25433000I-218750J0D01*
G01*
X-27548850Y25433000D01*
G75*
G02*
X-27767600Y25651750I0J218750D01*
G01*
G37*
G36*
G01*
X-29342600Y25651750D02*
X-29342600Y26164250D01*
G75*
G02*
X-29123850Y26383000I218750J0D01*
G01*
X-28686350Y26383000D01*
G75*
G02*
X-28467600Y26164250I0J-218750D01*
G01*
X-28467600Y25651750D01*
G75*
G02*
X-28686350Y25433000I-218750J0D01*
G01*
X-29123850Y25433000D01*
G75*
G02*
X-29342600Y25651750I0J218750D01*
G01*
G37*
G36*
G01*
X-30942600Y25016750D02*
X-30942600Y25529250D01*
G75*
G02*
X-30723850Y25748000I218750J0D01*
G01*
X-30286350Y25748000D01*
G75*
G02*
X-30067600Y25529250I0J-218750D01*
G01*
X-30067600Y25016750D01*
G75*
G02*
X-30286350Y24798000I-218750J0D01*
G01*
X-30723850Y24798000D01*
G75*
G02*
X-30942600Y25016750I0J218750D01*
G01*
G37*
G36*
G01*
X-32517600Y25016750D02*
X-32517600Y25529250D01*
G75*
G02*
X-32298850Y25748000I218750J0D01*
G01*
X-31861350Y25748000D01*
G75*
G02*
X-31642600Y25529250I0J-218750D01*
G01*
X-31642600Y25016750D01*
G75*
G02*
X-31861350Y24798000I-218750J0D01*
G01*
X-32298850Y24798000D01*
G75*
G02*
X-32517600Y25016750I0J218750D01*
G01*
G37*
G36*
G01*
X-27767600Y27302750D02*
X-27767600Y27815250D01*
G75*
G02*
X-27548850Y28034000I218750J0D01*
G01*
X-27111350Y28034000D01*
G75*
G02*
X-26892600Y27815250I0J-218750D01*
G01*
X-26892600Y27302750D01*
G75*
G02*
X-27111350Y27084000I-218750J0D01*
G01*
X-27548850Y27084000D01*
G75*
G02*
X-27767600Y27302750I0J218750D01*
G01*
G37*
G36*
G01*
X-29342600Y27302750D02*
X-29342600Y27815250D01*
G75*
G02*
X-29123850Y28034000I218750J0D01*
G01*
X-28686350Y28034000D01*
G75*
G02*
X-28467600Y27815250I0J-218750D01*
G01*
X-28467600Y27302750D01*
G75*
G02*
X-28686350Y27084000I-218750J0D01*
G01*
X-29123850Y27084000D01*
G75*
G02*
X-29342600Y27302750I0J218750D01*
G01*
G37*
G36*
G01*
X-27611850Y29622000D02*
X-27099350Y29622000D01*
G75*
G02*
X-26880600Y29403250I0J-218750D01*
G01*
X-26880600Y28965750D01*
G75*
G02*
X-27099350Y28747000I-218750J0D01*
G01*
X-27611850Y28747000D01*
G75*
G02*
X-27830600Y28965750I0J218750D01*
G01*
X-27830600Y29403250D01*
G75*
G02*
X-27611850Y29622000I218750J0D01*
G01*
G37*
G36*
G01*
X-27611850Y31197000D02*
X-27099350Y31197000D01*
G75*
G02*
X-26880600Y30978250I0J-218750D01*
G01*
X-26880600Y30540750D01*
G75*
G02*
X-27099350Y30322000I-218750J0D01*
G01*
X-27611850Y30322000D01*
G75*
G02*
X-27830600Y30540750I0J218750D01*
G01*
X-27830600Y30978250D01*
G75*
G02*
X-27611850Y31197000I218750J0D01*
G01*
G37*
G36*
G01*
X-15321600Y14856750D02*
X-15321600Y15369250D01*
G75*
G02*
X-15102850Y15588000I218750J0D01*
G01*
X-14665350Y15588000D01*
G75*
G02*
X-14446600Y15369250I0J-218750D01*
G01*
X-14446600Y14856750D01*
G75*
G02*
X-14665350Y14638000I-218750J0D01*
G01*
X-15102850Y14638000D01*
G75*
G02*
X-15321600Y14856750I0J218750D01*
G01*
G37*
G36*
G01*
X-16896600Y14856750D02*
X-16896600Y15369250D01*
G75*
G02*
X-16677850Y15588000I218750J0D01*
G01*
X-16240350Y15588000D01*
G75*
G02*
X-16021600Y15369250I0J-218750D01*
G01*
X-16021600Y14856750D01*
G75*
G02*
X-16240350Y14638000I-218750J0D01*
G01*
X-16677850Y14638000D01*
G75*
G02*
X-16896600Y14856750I0J218750D01*
G01*
G37*
G36*
G01*
X-30942600Y21714750D02*
X-30942600Y22227250D01*
G75*
G02*
X-30723850Y22446000I218750J0D01*
G01*
X-30286350Y22446000D01*
G75*
G02*
X-30067600Y22227250I0J-218750D01*
G01*
X-30067600Y21714750D01*
G75*
G02*
X-30286350Y21496000I-218750J0D01*
G01*
X-30723850Y21496000D01*
G75*
G02*
X-30942600Y21714750I0J218750D01*
G01*
G37*
G36*
G01*
X-32517600Y21714750D02*
X-32517600Y22227250D01*
G75*
G02*
X-32298850Y22446000I218750J0D01*
G01*
X-31861350Y22446000D01*
G75*
G02*
X-31642600Y22227250I0J-218750D01*
G01*
X-31642600Y21714750D01*
G75*
G02*
X-31861350Y21496000I-218750J0D01*
G01*
X-32298850Y21496000D01*
G75*
G02*
X-32517600Y21714750I0J218750D01*
G01*
G37*
G36*
G01*
X-13227600Y32768250D02*
X-13227600Y32255750D01*
G75*
G02*
X-13446350Y32037000I-218750J0D01*
G01*
X-13883850Y32037000D01*
G75*
G02*
X-14102600Y32255750I0J218750D01*
G01*
X-14102600Y32768250D01*
G75*
G02*
X-13883850Y32987000I218750J0D01*
G01*
X-13446350Y32987000D01*
G75*
G02*
X-13227600Y32768250I0J-218750D01*
G01*
G37*
G36*
G01*
X-11652600Y32768250D02*
X-11652600Y32255750D01*
G75*
G02*
X-11871350Y32037000I-218750J0D01*
G01*
X-12308850Y32037000D01*
G75*
G02*
X-12527600Y32255750I0J218750D01*
G01*
X-12527600Y32768250D01*
G75*
G02*
X-12308850Y32987000I218750J0D01*
G01*
X-11871350Y32987000D01*
G75*
G02*
X-11652600Y32768250I0J-218750D01*
G01*
G37*
G36*
G01*
X-13253100Y27942250D02*
X-13253100Y27429750D01*
G75*
G02*
X-13471850Y27211000I-218750J0D01*
G01*
X-13909350Y27211000D01*
G75*
G02*
X-14128100Y27429750I0J218750D01*
G01*
X-14128100Y27942250D01*
G75*
G02*
X-13909350Y28161000I218750J0D01*
G01*
X-13471850Y28161000D01*
G75*
G02*
X-13253100Y27942250I0J-218750D01*
G01*
G37*
G36*
G01*
X-11678100Y27942250D02*
X-11678100Y27429750D01*
G75*
G02*
X-11896850Y27211000I-218750J0D01*
G01*
X-12334350Y27211000D01*
G75*
G02*
X-12553100Y27429750I0J218750D01*
G01*
X-12553100Y27942250D01*
G75*
G02*
X-12334350Y28161000I218750J0D01*
G01*
X-11896850Y28161000D01*
G75*
G02*
X-11678100Y27942250I0J-218750D01*
G01*
G37*
G36*
G01*
X-25960850Y31044500D02*
X-25448350Y31044500D01*
G75*
G02*
X-25229600Y30825750I0J-218750D01*
G01*
X-25229600Y30388250D01*
G75*
G02*
X-25448350Y30169500I-218750J0D01*
G01*
X-25960850Y30169500D01*
G75*
G02*
X-26179600Y30388250I0J218750D01*
G01*
X-26179600Y30825750D01*
G75*
G02*
X-25960850Y31044500I218750J0D01*
G01*
G37*
G36*
G01*
X-25960850Y32619500D02*
X-25448350Y32619500D01*
G75*
G02*
X-25229600Y32400750I0J-218750D01*
G01*
X-25229600Y31963250D01*
G75*
G02*
X-25448350Y31744500I-218750J0D01*
G01*
X-25960850Y31744500D01*
G75*
G02*
X-26179600Y31963250I0J218750D01*
G01*
X-26179600Y32400750D01*
G75*
G02*
X-25960850Y32619500I218750J0D01*
G01*
G37*
G36*
G01*
X-20118850Y30917500D02*
X-19606350Y30917500D01*
G75*
G02*
X-19387600Y30698750I0J-218750D01*
G01*
X-19387600Y30261250D01*
G75*
G02*
X-19606350Y30042500I-218750J0D01*
G01*
X-20118850Y30042500D01*
G75*
G02*
X-20337600Y30261250I0J218750D01*
G01*
X-20337600Y30698750D01*
G75*
G02*
X-20118850Y30917500I218750J0D01*
G01*
G37*
G36*
G01*
X-20118850Y32492500D02*
X-19606350Y32492500D01*
G75*
G02*
X-19387600Y32273750I0J-218750D01*
G01*
X-19387600Y31836250D01*
G75*
G02*
X-19606350Y31617500I-218750J0D01*
G01*
X-20118850Y31617500D01*
G75*
G02*
X-20337600Y31836250I0J218750D01*
G01*
X-20337600Y32273750D01*
G75*
G02*
X-20118850Y32492500I218750J0D01*
G01*
G37*
D11*
X-24247600Y28184000D03*
X-23747600Y28184000D03*
X-23247600Y28184000D03*
X-22747600Y28184000D03*
X-22247600Y28184000D03*
X-21747600Y28184000D03*
X-21247600Y28184000D03*
X-20747600Y28184000D03*
X-20247600Y28184000D03*
X-19747600Y28184000D03*
X-19247600Y28184000D03*
X-18747600Y28184000D03*
X-18247600Y28184000D03*
X-17747600Y28184000D03*
X-17247600Y28184000D03*
X-16747600Y28184000D03*
D12*
X-16062600Y27499000D03*
X-16062600Y26999000D03*
X-16062600Y26499000D03*
X-16062600Y25999000D03*
X-16062600Y25499000D03*
X-16062600Y24999000D03*
X-16062600Y24499000D03*
X-16062600Y23999000D03*
X-16062600Y23499000D03*
X-16062600Y22999000D03*
X-16062600Y22499000D03*
X-16062600Y21999000D03*
X-16062600Y21499000D03*
X-16062600Y20999000D03*
X-16062600Y20499000D03*
X-16062600Y19999000D03*
D11*
X-16747600Y19314000D03*
X-17247600Y19314000D03*
X-17747600Y19314000D03*
X-18247600Y19314000D03*
X-18747600Y19314000D03*
X-19247600Y19314000D03*
X-19747600Y19314000D03*
X-20247600Y19314000D03*
X-20747600Y19314000D03*
X-21247600Y19314000D03*
X-21747600Y19314000D03*
X-22247600Y19314000D03*
X-22747600Y19314000D03*
X-23247600Y19314000D03*
X-23747600Y19314000D03*
X-24247600Y19314000D03*
D12*
X-24932600Y19999000D03*
X-24932600Y20499000D03*
X-24932600Y20999000D03*
X-24932600Y21499000D03*
X-24932600Y21999000D03*
X-24932600Y22499000D03*
X-24932600Y22999000D03*
X-24932600Y23499000D03*
X-24932600Y23999000D03*
X-24932600Y24499000D03*
X-24932600Y24999000D03*
X-24932600Y25499000D03*
X-24932600Y25999000D03*
X-24932600Y26499000D03*
X-24932600Y26999000D03*
X-24932600Y27499000D03*
G36*
G01*
X-13002350Y16352000D02*
X-13514850Y16352000D01*
G75*
G02*
X-13733600Y16570750I0J218750D01*
G01*
X-13733600Y17008250D01*
G75*
G02*
X-13514850Y17227000I218750J0D01*
G01*
X-13002350Y17227000D01*
G75*
G02*
X-12783600Y17008250I0J-218750D01*
G01*
X-12783600Y16570750D01*
G75*
G02*
X-13002350Y16352000I-218750J0D01*
G01*
G37*
G36*
G01*
X-13002350Y14777000D02*
X-13514850Y14777000D01*
G75*
G02*
X-13733600Y14995750I0J218750D01*
G01*
X-13733600Y15433250D01*
G75*
G02*
X-13514850Y15652000I218750J0D01*
G01*
X-13002350Y15652000D01*
G75*
G02*
X-12783600Y15433250I0J-218750D01*
G01*
X-12783600Y14995750D01*
G75*
G02*
X-13002350Y14777000I-218750J0D01*
G01*
G37*
G36*
G01*
X-27767600Y19047750D02*
X-27767600Y19560250D01*
G75*
G02*
X-27548850Y19779000I218750J0D01*
G01*
X-27111350Y19779000D01*
G75*
G02*
X-26892600Y19560250I0J-218750D01*
G01*
X-26892600Y19047750D01*
G75*
G02*
X-27111350Y18829000I-218750J0D01*
G01*
X-27548850Y18829000D01*
G75*
G02*
X-27767600Y19047750I0J218750D01*
G01*
G37*
G36*
G01*
X-29342600Y19047750D02*
X-29342600Y19560250D01*
G75*
G02*
X-29123850Y19779000I218750J0D01*
G01*
X-28686350Y19779000D01*
G75*
G02*
X-28467600Y19560250I0J-218750D01*
G01*
X-28467600Y19047750D01*
G75*
G02*
X-28686350Y18829000I-218750J0D01*
G01*
X-29123850Y18829000D01*
G75*
G02*
X-29342600Y19047750I0J218750D01*
G01*
G37*
G36*
G01*
X-13227600Y25402250D02*
X-13227600Y24889750D01*
G75*
G02*
X-13446350Y24671000I-218750J0D01*
G01*
X-13883850Y24671000D01*
G75*
G02*
X-14102600Y24889750I0J218750D01*
G01*
X-14102600Y25402250D01*
G75*
G02*
X-13883850Y25621000I218750J0D01*
G01*
X-13446350Y25621000D01*
G75*
G02*
X-13227600Y25402250I0J-218750D01*
G01*
G37*
G36*
G01*
X-11652600Y25402250D02*
X-11652600Y24889750D01*
G75*
G02*
X-11871350Y24671000I-218750J0D01*
G01*
X-12308850Y24671000D01*
G75*
G02*
X-12527600Y24889750I0J218750D01*
G01*
X-12527600Y25402250D01*
G75*
G02*
X-12308850Y25621000I218750J0D01*
G01*
X-11871350Y25621000D01*
G75*
G02*
X-11652600Y25402250I0J-218750D01*
G01*
G37*
G36*
G01*
X-15927850Y30892000D02*
X-15415350Y30892000D01*
G75*
G02*
X-15196600Y30673250I0J-218750D01*
G01*
X-15196600Y30235750D01*
G75*
G02*
X-15415350Y30017000I-218750J0D01*
G01*
X-15927850Y30017000D01*
G75*
G02*
X-16146600Y30235750I0J218750D01*
G01*
X-16146600Y30673250D01*
G75*
G02*
X-15927850Y30892000I218750J0D01*
G01*
G37*
G36*
G01*
X-15927850Y32467000D02*
X-15415350Y32467000D01*
G75*
G02*
X-15196600Y32248250I0J-218750D01*
G01*
X-15196600Y31810750D01*
G75*
G02*
X-15415350Y31592000I-218750J0D01*
G01*
X-15927850Y31592000D01*
G75*
G02*
X-16146600Y31810750I0J218750D01*
G01*
X-16146600Y32248250D01*
G75*
G02*
X-15927850Y32467000I218750J0D01*
G01*
G37*
G36*
G01*
X-21896850Y30917500D02*
X-21384350Y30917500D01*
G75*
G02*
X-21165600Y30698750I0J-218750D01*
G01*
X-21165600Y30261250D01*
G75*
G02*
X-21384350Y30042500I-218750J0D01*
G01*
X-21896850Y30042500D01*
G75*
G02*
X-22115600Y30261250I0J218750D01*
G01*
X-22115600Y30698750D01*
G75*
G02*
X-21896850Y30917500I218750J0D01*
G01*
G37*
G36*
G01*
X-21896850Y32492500D02*
X-21384350Y32492500D01*
G75*
G02*
X-21165600Y32273750I0J-218750D01*
G01*
X-21165600Y31836250D01*
G75*
G02*
X-21384350Y31617500I-218750J0D01*
G01*
X-21896850Y31617500D01*
G75*
G02*
X-22115600Y31836250I0J218750D01*
G01*
X-22115600Y32273750D01*
G75*
G02*
X-21896850Y32492500I218750J0D01*
G01*
G37*
M02*
