G04 #@! TF.GenerationSoftware,KiCad,Pcbnew,(5.1.6)-1*
G04 #@! TF.CreationDate,2020-07-05T14:39:03+08:00*
G04 #@! TF.ProjectId,inteli210AT,696e7465-6c69-4323-9130-41542e6b6963,rev?*
G04 #@! TF.SameCoordinates,Original*
G04 #@! TF.FileFunction,Profile,NP*
%FSLAX46Y46*%
G04 Gerber Fmt 4.6, Leading zero omitted, Abs format (unit mm)*
G04 Created by KiCad (PCBNEW (5.1.6)-1) date 2020-07-05 14:39:03*
%MOMM*%
%LPD*%
G01*
G04 APERTURE LIST*
G04 #@! TA.AperFunction,Profile*
%ADD10C,0.050000*%
G04 #@! TD*
G04 #@! TA.AperFunction,Profile*
%ADD11C,0.100000*%
G04 #@! TD*
G04 APERTURE END LIST*
D10*
X0Y50005400D02*
X0Y3953600D01*
X-994600Y51000000D02*
X-63000000Y51000000D01*
D11*
X-64000000Y50000000D02*
G75*
G02*
X-63000000Y51000000I1000000J0D01*
G01*
X-994600Y51000000D02*
G75*
G02*
X0Y50005400I0J-994600D01*
G01*
X-20300000Y6478600D02*
G75*
G03*
X-23950000Y6478600I-1825000J0D01*
G01*
X-20300000Y6478600D02*
X-20300000Y3953600D01*
X-50300000Y7303600D02*
G75*
G02*
X-49300000Y8303600I1000000J0D01*
G01*
X-32973993Y8303312D02*
G75*
G02*
X-31950000Y7303600I23993J-999712D01*
G01*
X-51300000Y0D02*
G75*
G03*
X-50300000Y1000000I0J1000000D01*
G01*
X-64000000Y1000000D02*
G75*
G03*
X-63000000Y0I1000000J0D01*
G01*
X-63000000Y0D02*
X-51300000Y0D01*
X-31950000Y53600D02*
X-23950000Y53600D01*
X-50300000Y7303600D02*
X-50300000Y1000000D01*
X-64000000Y1000000D02*
X-64000000Y7374000D01*
X-49300000Y8303600D02*
X-32974000Y8303600D01*
X-31950000Y7303600D02*
X-31950000Y53600D01*
X-23950000Y53600D02*
X-23950000Y6478600D01*
X-64000000Y7374000D02*
X-64000000Y50000000D01*
X-9100000Y3003600D02*
X-9100000Y-3946400D01*
X-7200000Y3003600D02*
X-7200000Y-3946400D01*
X-20300000Y3953600D02*
X-20300000Y-3946400D01*
X-19800000Y-4446400D02*
X-9600000Y-4446400D01*
X0Y3953600D02*
X0Y-3946400D01*
X-6700000Y-4446400D02*
X-500000Y-4446400D01*
X-20300000Y-3946400D02*
X-19800000Y-4446400D01*
X-9100000Y-3946400D02*
X-9600000Y-4446400D01*
X-7200000Y-3946400D02*
X-6700000Y-4446400D01*
X0Y-3946400D02*
X-500000Y-4446400D01*
X-9100000Y3003600D02*
G75*
G02*
X-7200000Y3003600I950000J0D01*
G01*
M02*
