G04 #@! TF.GenerationSoftware,KiCad,Pcbnew,(5.1.6)-1*
G04 #@! TF.CreationDate,2020-07-05T14:39:03+08:00*
G04 #@! TF.ProjectId,inteli210AT,696e7465-6c69-4323-9130-41542e6b6963,rev?*
G04 #@! TF.SameCoordinates,Original*
G04 #@! TF.FileFunction,Copper,L1,Top*
G04 #@! TF.FilePolarity,Positive*
%FSLAX46Y46*%
G04 Gerber Fmt 4.6, Leading zero omitted, Abs format (unit mm)*
G04 Created by KiCad (PCBNEW (5.1.6)-1) date 2020-07-05 14:39:03*
%MOMM*%
%LPD*%
G01*
G04 APERTURE LIST*
G04 #@! TA.AperFunction,NonConductor*
%ADD10C,0.300000*%
G04 #@! TD*
G04 #@! TA.AperFunction,EtchedComponent*
%ADD11C,0.010000*%
G04 #@! TD*
G04 #@! TA.AperFunction,ComponentPad*
%ADD12C,1.398000*%
G04 #@! TD*
G04 #@! TA.AperFunction,ComponentPad*
%ADD13C,2.445000*%
G04 #@! TD*
G04 #@! TA.AperFunction,ComponentPad*
%ADD14C,1.530000*%
G04 #@! TD*
G04 #@! TA.AperFunction,ComponentPad*
%ADD15R,1.398000X1.398000*%
G04 #@! TD*
G04 #@! TA.AperFunction,ConnectorPad*
%ADD16R,0.700000X4.300000*%
G04 #@! TD*
G04 #@! TA.AperFunction,ConnectorPad*
%ADD17R,0.700000X3.200000*%
G04 #@! TD*
G04 #@! TA.AperFunction,ComponentPad*
%ADD18C,1.500000*%
G04 #@! TD*
G04 #@! TA.AperFunction,SMDPad,CuDef*
%ADD19R,3.400000X3.400000*%
G04 #@! TD*
G04 #@! TA.AperFunction,SMDPad,CuDef*
%ADD20R,0.260000X0.840000*%
G04 #@! TD*
G04 #@! TA.AperFunction,SMDPad,CuDef*
%ADD21R,0.840000X0.260000*%
G04 #@! TD*
G04 #@! TA.AperFunction,ViaPad*
%ADD22C,0.500000*%
G04 #@! TD*
G04 #@! TA.AperFunction,ViaPad*
%ADD23C,0.450000*%
G04 #@! TD*
G04 #@! TA.AperFunction,Conductor*
%ADD24C,0.250000*%
G04 #@! TD*
G04 #@! TA.AperFunction,Conductor*
%ADD25C,0.300000*%
G04 #@! TD*
G04 #@! TA.AperFunction,Conductor*
%ADD26C,0.127000*%
G04 #@! TD*
G04 #@! TA.AperFunction,Conductor*
%ADD27C,0.177800*%
G04 #@! TD*
G04 #@! TA.AperFunction,Conductor*
%ADD28C,0.100000*%
G04 #@! TD*
G04 #@! TA.AperFunction,Conductor*
%ADD29C,0.154000*%
G04 #@! TD*
G04 #@! TA.AperFunction,Conductor*
%ADD30C,0.254000*%
G04 #@! TD*
G04 APERTURE END LIST*
D10*
X-19074457Y47243142D02*
X-19074457Y48443142D01*
X-18503028Y48043142D02*
X-18503028Y47243142D01*
X-18503028Y47928857D02*
X-18445885Y47986000D01*
X-18331600Y48043142D01*
X-18160171Y48043142D01*
X-18045885Y47986000D01*
X-17988742Y47871714D01*
X-17988742Y47243142D01*
X-17588742Y48043142D02*
X-17131600Y48043142D01*
X-17417314Y48443142D02*
X-17417314Y47414571D01*
X-17360171Y47300285D01*
X-17245885Y47243142D01*
X-17131600Y47243142D01*
X-16274457Y47300285D02*
X-16388742Y47243142D01*
X-16617314Y47243142D01*
X-16731600Y47300285D01*
X-16788742Y47414571D01*
X-16788742Y47871714D01*
X-16731600Y47986000D01*
X-16617314Y48043142D01*
X-16388742Y48043142D01*
X-16274457Y47986000D01*
X-16217314Y47871714D01*
X-16217314Y47757428D01*
X-16788742Y47643142D01*
X-15531600Y47243142D02*
X-15645885Y47300285D01*
X-15703028Y47414571D01*
X-15703028Y48443142D01*
X-14160171Y47243142D02*
X-14160171Y48043142D01*
X-14160171Y48443142D02*
X-14217314Y48386000D01*
X-14160171Y48328857D01*
X-14103028Y48386000D01*
X-14160171Y48443142D01*
X-14160171Y48328857D01*
X-13645885Y48328857D02*
X-13588742Y48386000D01*
X-13474457Y48443142D01*
X-13188742Y48443142D01*
X-13074457Y48386000D01*
X-13017314Y48328857D01*
X-12960171Y48214571D01*
X-12960171Y48100285D01*
X-13017314Y47928857D01*
X-13703028Y47243142D01*
X-12960171Y47243142D01*
X-11817314Y47243142D02*
X-12503028Y47243142D01*
X-12160171Y47243142D02*
X-12160171Y48443142D01*
X-12274457Y48271714D01*
X-12388742Y48157428D01*
X-12503028Y48100285D01*
X-11074457Y48443142D02*
X-10960171Y48443142D01*
X-10845885Y48386000D01*
X-10788742Y48328857D01*
X-10731600Y48214571D01*
X-10674457Y47986000D01*
X-10674457Y47700285D01*
X-10731600Y47471714D01*
X-10788742Y47357428D01*
X-10845885Y47300285D01*
X-10960171Y47243142D01*
X-11074457Y47243142D01*
X-11188742Y47300285D01*
X-11245885Y47357428D01*
X-11303028Y47471714D01*
X-11360171Y47700285D01*
X-11360171Y47986000D01*
X-11303028Y48214571D01*
X-11245885Y48328857D01*
X-11188742Y48386000D01*
X-11074457Y48443142D01*
X-10160171Y47700285D02*
X-9245885Y47700285D01*
X-8845885Y48443142D02*
X-8160171Y48443142D01*
X-8503028Y47243142D02*
X-8503028Y48443142D01*
X-7131600Y47243142D02*
X-7817314Y47243142D01*
X-7474457Y47243142D02*
X-7474457Y48443142D01*
X-7588742Y48271714D01*
X-7703028Y48157428D01*
X-7817314Y48100285D01*
X-24560171Y45143142D02*
X-25245885Y45143142D01*
X-24903028Y45143142D02*
X-24903028Y46343142D01*
X-25017314Y46171714D01*
X-25131600Y46057428D01*
X-25245885Y46000285D01*
X-23817314Y46343142D02*
X-23703028Y46343142D01*
X-23588742Y46286000D01*
X-23531600Y46228857D01*
X-23474457Y46114571D01*
X-23417314Y45886000D01*
X-23417314Y45600285D01*
X-23474457Y45371714D01*
X-23531600Y45257428D01*
X-23588742Y45200285D01*
X-23703028Y45143142D01*
X-23817314Y45143142D01*
X-23931600Y45200285D01*
X-23988742Y45257428D01*
X-24045885Y45371714D01*
X-24103028Y45600285D01*
X-24103028Y45886000D01*
X-24045885Y46114571D01*
X-23988742Y46228857D01*
X-23931600Y46286000D01*
X-23817314Y46343142D01*
X-22674457Y46343142D02*
X-22560171Y46343142D01*
X-22445885Y46286000D01*
X-22388742Y46228857D01*
X-22331600Y46114571D01*
X-22274457Y45886000D01*
X-22274457Y45600285D01*
X-22331600Y45371714D01*
X-22388742Y45257428D01*
X-22445885Y45200285D01*
X-22560171Y45143142D01*
X-22674457Y45143142D01*
X-22788742Y45200285D01*
X-22845885Y45257428D01*
X-22903028Y45371714D01*
X-22960171Y45600285D01*
X-22960171Y45886000D01*
X-22903028Y46114571D01*
X-22845885Y46228857D01*
X-22788742Y46286000D01*
X-22674457Y46343142D01*
X-21531600Y46343142D02*
X-21417314Y46343142D01*
X-21303028Y46286000D01*
X-21245885Y46228857D01*
X-21188742Y46114571D01*
X-21131600Y45886000D01*
X-21131600Y45600285D01*
X-21188742Y45371714D01*
X-21245885Y45257428D01*
X-21303028Y45200285D01*
X-21417314Y45143142D01*
X-21531600Y45143142D01*
X-21645885Y45200285D01*
X-21703028Y45257428D01*
X-21760171Y45371714D01*
X-21817314Y45600285D01*
X-21817314Y45886000D01*
X-21760171Y46114571D01*
X-21703028Y46228857D01*
X-21645885Y46286000D01*
X-21531600Y46343142D01*
X-20617314Y45143142D02*
X-20617314Y46343142D01*
X-20217314Y45486000D01*
X-19817314Y46343142D01*
X-19817314Y45143142D01*
X-19245885Y45143142D02*
X-19245885Y46343142D01*
X-19245885Y45886000D02*
X-19131600Y45943142D01*
X-18903028Y45943142D01*
X-18788742Y45886000D01*
X-18731600Y45828857D01*
X-18674457Y45714571D01*
X-18674457Y45371714D01*
X-18731600Y45257428D01*
X-18788742Y45200285D01*
X-18903028Y45143142D01*
X-19131600Y45143142D01*
X-19245885Y45200285D01*
X-18160171Y45943142D02*
X-18160171Y44743142D01*
X-18160171Y45886000D02*
X-18045885Y45943142D01*
X-17817314Y45943142D01*
X-17703028Y45886000D01*
X-17645885Y45828857D01*
X-17588742Y45714571D01*
X-17588742Y45371714D01*
X-17645885Y45257428D01*
X-17703028Y45200285D01*
X-17817314Y45143142D01*
X-18045885Y45143142D01*
X-18160171Y45200285D01*
X-17131600Y45200285D02*
X-17017314Y45143142D01*
X-16788742Y45143142D01*
X-16674457Y45200285D01*
X-16617314Y45314571D01*
X-16617314Y45371714D01*
X-16674457Y45486000D01*
X-16788742Y45543142D01*
X-16960171Y45543142D01*
X-17074457Y45600285D01*
X-17131600Y45714571D01*
X-17131600Y45771714D01*
X-17074457Y45886000D01*
X-16960171Y45943142D01*
X-16788742Y45943142D01*
X-16674457Y45886000D01*
X-15188742Y45143142D02*
X-15188742Y46343142D01*
X-14503028Y45143142D01*
X-14503028Y46343142D01*
X-13474457Y45200285D02*
X-13588742Y45143142D01*
X-13817314Y45143142D01*
X-13931600Y45200285D01*
X-13988742Y45314571D01*
X-13988742Y45771714D01*
X-13931600Y45886000D01*
X-13817314Y45943142D01*
X-13588742Y45943142D01*
X-13474457Y45886000D01*
X-13417314Y45771714D01*
X-13417314Y45657428D01*
X-13988742Y45543142D01*
X-13074457Y45943142D02*
X-12617314Y45943142D01*
X-12903028Y46343142D02*
X-12903028Y45314571D01*
X-12845885Y45200285D01*
X-12731600Y45143142D01*
X-12617314Y45143142D01*
X-12331600Y45943142D02*
X-12103028Y45143142D01*
X-11874457Y45714571D01*
X-11645885Y45143142D01*
X-11417314Y45943142D01*
X-10788742Y45143142D02*
X-10903028Y45200285D01*
X-10960171Y45257428D01*
X-11017314Y45371714D01*
X-11017314Y45714571D01*
X-10960171Y45828857D01*
X-10903028Y45886000D01*
X-10788742Y45943142D01*
X-10617314Y45943142D01*
X-10503028Y45886000D01*
X-10445885Y45828857D01*
X-10388742Y45714571D01*
X-10388742Y45371714D01*
X-10445885Y45257428D01*
X-10503028Y45200285D01*
X-10617314Y45143142D01*
X-10788742Y45143142D01*
X-9874457Y45143142D02*
X-9874457Y45943142D01*
X-9874457Y45714571D02*
X-9817314Y45828857D01*
X-9760171Y45886000D01*
X-9645885Y45943142D01*
X-9531600Y45943142D01*
X-9131600Y45143142D02*
X-9131600Y46343142D01*
X-9017314Y45600285D02*
X-8674457Y45143142D01*
X-8674457Y45943142D02*
X-9131600Y45486000D01*
X-7303028Y45486000D02*
X-6731600Y45486000D01*
X-7417314Y45143142D02*
X-7017314Y46343142D01*
X-6617314Y45143142D01*
X-5703028Y45143142D02*
X-5703028Y46343142D01*
X-5703028Y45200285D02*
X-5817314Y45143142D01*
X-6045885Y45143142D01*
X-6160171Y45200285D01*
X-6217314Y45257428D01*
X-6274457Y45371714D01*
X-6274457Y45714571D01*
X-6217314Y45828857D01*
X-6160171Y45886000D01*
X-6045885Y45943142D01*
X-5817314Y45943142D01*
X-5703028Y45886000D01*
X-4617314Y45143142D02*
X-4617314Y45771714D01*
X-4674457Y45886000D01*
X-4788742Y45943142D01*
X-5017314Y45943142D01*
X-5131600Y45886000D01*
X-4617314Y45200285D02*
X-4731600Y45143142D01*
X-5017314Y45143142D01*
X-5131600Y45200285D01*
X-5188742Y45314571D01*
X-5188742Y45428857D01*
X-5131600Y45543142D01*
X-5017314Y45600285D01*
X-4731600Y45600285D01*
X-4617314Y45657428D01*
X-4045885Y45943142D02*
X-4045885Y44743142D01*
X-4045885Y45886000D02*
X-3931600Y45943142D01*
X-3703028Y45943142D01*
X-3588742Y45886000D01*
X-3531600Y45828857D01*
X-3474457Y45714571D01*
X-3474457Y45371714D01*
X-3531600Y45257428D01*
X-3588742Y45200285D01*
X-3703028Y45143142D01*
X-3931600Y45143142D01*
X-4045885Y45200285D01*
X-3131600Y45943142D02*
X-2674457Y45943142D01*
X-2960171Y46343142D02*
X-2960171Y45314571D01*
X-2903028Y45200285D01*
X-2788742Y45143142D01*
X-2674457Y45143142D01*
X-1817314Y45200285D02*
X-1931600Y45143142D01*
X-2160171Y45143142D01*
X-2274457Y45200285D01*
X-2331600Y45314571D01*
X-2331600Y45771714D01*
X-2274457Y45886000D01*
X-2160171Y45943142D01*
X-1931600Y45943142D01*
X-1817314Y45886000D01*
X-1760171Y45771714D01*
X-1760171Y45657428D01*
X-2331600Y45543142D01*
X-1245885Y45143142D02*
X-1245885Y45943142D01*
X-1245885Y45714571D02*
X-1188742Y45828857D01*
X-1131600Y45886000D01*
X-1017314Y45943142D01*
X-903028Y45943142D01*
D11*
G36*
X-37999906Y46698842D02*
G01*
X-37967381Y46686264D01*
X-37917807Y46661288D01*
X-37846626Y46622124D01*
X-37841084Y46619012D01*
X-37775526Y46581524D01*
X-37720202Y46548681D01*
X-37680545Y46523795D01*
X-37661988Y46510180D01*
X-37661469Y46509513D01*
X-37665952Y46490610D01*
X-37686514Y46448395D01*
X-37721817Y46385168D01*
X-37770520Y46303228D01*
X-37831282Y46204878D01*
X-37902764Y46092415D01*
X-37920555Y46064835D01*
X-37966907Y45988301D01*
X-38000658Y45922444D01*
X-38018847Y45873218D01*
X-38020714Y45863493D01*
X-38019885Y45820688D01*
X-38010606Y45752791D01*
X-37994032Y45664157D01*
X-37971320Y45559141D01*
X-37943627Y45442098D01*
X-37912110Y45317384D01*
X-37877925Y45189355D01*
X-37842229Y45062366D01*
X-37806179Y44940772D01*
X-37770932Y44828928D01*
X-37737644Y44731190D01*
X-37707472Y44651913D01*
X-37686439Y44604878D01*
X-37661663Y44554775D01*
X-37638270Y44506832D01*
X-37637003Y44504207D01*
X-37598301Y44455780D01*
X-37541816Y44423172D01*
X-37476061Y44407546D01*
X-37409549Y44410063D01*
X-37350795Y44431886D01*
X-37317742Y44460618D01*
X-37270141Y44539417D01*
X-37235261Y44637622D01*
X-37216123Y44745221D01*
X-37213412Y44806220D01*
X-37224330Y44920065D01*
X-37256376Y45014340D01*
X-37311274Y45093621D01*
X-37328393Y45111267D01*
X-37379339Y45160765D01*
X-37382837Y45510638D01*
X-37386336Y45860511D01*
X-37297182Y45995469D01*
X-37255346Y46056555D01*
X-37215055Y46111507D01*
X-37182057Y46152664D01*
X-37167874Y46167808D01*
X-37127719Y46205190D01*
X-37073335Y46175902D01*
X-37038961Y46154916D01*
X-37020154Y46138622D01*
X-37018951Y46135693D01*
X-37006097Y46123272D01*
X-36984104Y46114023D01*
X-36962850Y46105687D01*
X-36930306Y46089851D01*
X-36883678Y46064967D01*
X-36820171Y46029491D01*
X-36736992Y45981877D01*
X-36631347Y45920578D01*
X-36573938Y45887068D01*
X-36506406Y45846929D01*
X-36462115Y45818341D01*
X-36437145Y45797961D01*
X-36427577Y45782447D01*
X-36429492Y45768454D01*
X-36431089Y45765204D01*
X-36446624Y45744734D01*
X-36479864Y45706335D01*
X-36526938Y45654304D01*
X-36583972Y45592934D01*
X-36633300Y45540910D01*
X-36746970Y45417433D01*
X-36835895Y45310409D01*
X-36900866Y45218760D01*
X-36942679Y45141412D01*
X-36956783Y45102134D01*
X-36962608Y45067751D01*
X-36968625Y45009101D01*
X-36974304Y44932883D01*
X-36979116Y44845798D01*
X-36981381Y44790732D01*
X-36984541Y44695536D01*
X-36985931Y44625938D01*
X-36985142Y44576591D01*
X-36981765Y44542146D01*
X-36975392Y44517257D01*
X-36965613Y44496575D01*
X-36957933Y44483947D01*
X-36913579Y44435274D01*
X-36856426Y44401355D01*
X-36796292Y44386562D01*
X-36751227Y44391914D01*
X-36710424Y44415070D01*
X-36659276Y44456538D01*
X-36604958Y44509088D01*
X-36554643Y44565484D01*
X-36515506Y44618495D01*
X-36501095Y44644111D01*
X-36479509Y44679186D01*
X-36440247Y44732611D01*
X-36386898Y44800211D01*
X-36323048Y44877810D01*
X-36252285Y44961232D01*
X-36178196Y45046302D01*
X-36104368Y45128845D01*
X-36034389Y45204684D01*
X-35971845Y45269644D01*
X-35922740Y45317331D01*
X-35868221Y45364968D01*
X-35822358Y45400092D01*
X-35790189Y45419051D01*
X-35779511Y45421136D01*
X-35763147Y45412726D01*
X-35722329Y45390154D01*
X-35659414Y45354776D01*
X-35576756Y45307946D01*
X-35476711Y45251019D01*
X-35361634Y45185351D01*
X-35233881Y45112297D01*
X-35095806Y45033212D01*
X-34949766Y44949452D01*
X-34798116Y44862371D01*
X-34643210Y44773324D01*
X-34487405Y44683668D01*
X-34333056Y44594757D01*
X-34182518Y44507946D01*
X-34038146Y44424591D01*
X-33902296Y44346046D01*
X-33777323Y44273667D01*
X-33665583Y44208810D01*
X-33569430Y44152829D01*
X-33491221Y44107080D01*
X-33433311Y44072917D01*
X-33398054Y44051696D01*
X-33387835Y44045037D01*
X-33401598Y44043720D01*
X-33444896Y44042441D01*
X-33516286Y44041204D01*
X-33614327Y44040017D01*
X-33737578Y44038885D01*
X-33884597Y44037814D01*
X-34053943Y44036811D01*
X-34244174Y44035881D01*
X-34453849Y44035032D01*
X-34681527Y44034268D01*
X-34925765Y44033597D01*
X-35185123Y44033024D01*
X-35458159Y44032556D01*
X-35743432Y44032198D01*
X-36039500Y44031958D01*
X-36344921Y44031841D01*
X-36473076Y44031829D01*
X-39573030Y44031829D01*
X-39351947Y44415153D01*
X-39305144Y44496320D01*
X-39244898Y44600834D01*
X-39173222Y44725199D01*
X-39092131Y44865918D01*
X-39003638Y45019497D01*
X-38909760Y45182438D01*
X-38812509Y45351246D01*
X-38713900Y45522425D01*
X-38615947Y45692479D01*
X-38591175Y45735488D01*
X-38500848Y45892143D01*
X-38414711Y46041197D01*
X-38334058Y46180432D01*
X-38260184Y46307629D01*
X-38194383Y46420568D01*
X-38137950Y46517032D01*
X-38092179Y46594800D01*
X-38058365Y46651654D01*
X-38037802Y46685375D01*
X-38032047Y46693960D01*
X-38019942Y46700811D01*
X-37999906Y46698842D01*
G37*
X-37999906Y46698842D02*
X-37967381Y46686264D01*
X-37917807Y46661288D01*
X-37846626Y46622124D01*
X-37841084Y46619012D01*
X-37775526Y46581524D01*
X-37720202Y46548681D01*
X-37680545Y46523795D01*
X-37661988Y46510180D01*
X-37661469Y46509513D01*
X-37665952Y46490610D01*
X-37686514Y46448395D01*
X-37721817Y46385168D01*
X-37770520Y46303228D01*
X-37831282Y46204878D01*
X-37902764Y46092415D01*
X-37920555Y46064835D01*
X-37966907Y45988301D01*
X-38000658Y45922444D01*
X-38018847Y45873218D01*
X-38020714Y45863493D01*
X-38019885Y45820688D01*
X-38010606Y45752791D01*
X-37994032Y45664157D01*
X-37971320Y45559141D01*
X-37943627Y45442098D01*
X-37912110Y45317384D01*
X-37877925Y45189355D01*
X-37842229Y45062366D01*
X-37806179Y44940772D01*
X-37770932Y44828928D01*
X-37737644Y44731190D01*
X-37707472Y44651913D01*
X-37686439Y44604878D01*
X-37661663Y44554775D01*
X-37638270Y44506832D01*
X-37637003Y44504207D01*
X-37598301Y44455780D01*
X-37541816Y44423172D01*
X-37476061Y44407546D01*
X-37409549Y44410063D01*
X-37350795Y44431886D01*
X-37317742Y44460618D01*
X-37270141Y44539417D01*
X-37235261Y44637622D01*
X-37216123Y44745221D01*
X-37213412Y44806220D01*
X-37224330Y44920065D01*
X-37256376Y45014340D01*
X-37311274Y45093621D01*
X-37328393Y45111267D01*
X-37379339Y45160765D01*
X-37382837Y45510638D01*
X-37386336Y45860511D01*
X-37297182Y45995469D01*
X-37255346Y46056555D01*
X-37215055Y46111507D01*
X-37182057Y46152664D01*
X-37167874Y46167808D01*
X-37127719Y46205190D01*
X-37073335Y46175902D01*
X-37038961Y46154916D01*
X-37020154Y46138622D01*
X-37018951Y46135693D01*
X-37006097Y46123272D01*
X-36984104Y46114023D01*
X-36962850Y46105687D01*
X-36930306Y46089851D01*
X-36883678Y46064967D01*
X-36820171Y46029491D01*
X-36736992Y45981877D01*
X-36631347Y45920578D01*
X-36573938Y45887068D01*
X-36506406Y45846929D01*
X-36462115Y45818341D01*
X-36437145Y45797961D01*
X-36427577Y45782447D01*
X-36429492Y45768454D01*
X-36431089Y45765204D01*
X-36446624Y45744734D01*
X-36479864Y45706335D01*
X-36526938Y45654304D01*
X-36583972Y45592934D01*
X-36633300Y45540910D01*
X-36746970Y45417433D01*
X-36835895Y45310409D01*
X-36900866Y45218760D01*
X-36942679Y45141412D01*
X-36956783Y45102134D01*
X-36962608Y45067751D01*
X-36968625Y45009101D01*
X-36974304Y44932883D01*
X-36979116Y44845798D01*
X-36981381Y44790732D01*
X-36984541Y44695536D01*
X-36985931Y44625938D01*
X-36985142Y44576591D01*
X-36981765Y44542146D01*
X-36975392Y44517257D01*
X-36965613Y44496575D01*
X-36957933Y44483947D01*
X-36913579Y44435274D01*
X-36856426Y44401355D01*
X-36796292Y44386562D01*
X-36751227Y44391914D01*
X-36710424Y44415070D01*
X-36659276Y44456538D01*
X-36604958Y44509088D01*
X-36554643Y44565484D01*
X-36515506Y44618495D01*
X-36501095Y44644111D01*
X-36479509Y44679186D01*
X-36440247Y44732611D01*
X-36386898Y44800211D01*
X-36323048Y44877810D01*
X-36252285Y44961232D01*
X-36178196Y45046302D01*
X-36104368Y45128845D01*
X-36034389Y45204684D01*
X-35971845Y45269644D01*
X-35922740Y45317331D01*
X-35868221Y45364968D01*
X-35822358Y45400092D01*
X-35790189Y45419051D01*
X-35779511Y45421136D01*
X-35763147Y45412726D01*
X-35722329Y45390154D01*
X-35659414Y45354776D01*
X-35576756Y45307946D01*
X-35476711Y45251019D01*
X-35361634Y45185351D01*
X-35233881Y45112297D01*
X-35095806Y45033212D01*
X-34949766Y44949452D01*
X-34798116Y44862371D01*
X-34643210Y44773324D01*
X-34487405Y44683668D01*
X-34333056Y44594757D01*
X-34182518Y44507946D01*
X-34038146Y44424591D01*
X-33902296Y44346046D01*
X-33777323Y44273667D01*
X-33665583Y44208810D01*
X-33569430Y44152829D01*
X-33491221Y44107080D01*
X-33433311Y44072917D01*
X-33398054Y44051696D01*
X-33387835Y44045037D01*
X-33401598Y44043720D01*
X-33444896Y44042441D01*
X-33516286Y44041204D01*
X-33614327Y44040017D01*
X-33737578Y44038885D01*
X-33884597Y44037814D01*
X-34053943Y44036811D01*
X-34244174Y44035881D01*
X-34453849Y44035032D01*
X-34681527Y44034268D01*
X-34925765Y44033597D01*
X-35185123Y44033024D01*
X-35458159Y44032556D01*
X-35743432Y44032198D01*
X-36039500Y44031958D01*
X-36344921Y44031841D01*
X-36473076Y44031829D01*
X-39573030Y44031829D01*
X-39351947Y44415153D01*
X-39305144Y44496320D01*
X-39244898Y44600834D01*
X-39173222Y44725199D01*
X-39092131Y44865918D01*
X-39003638Y45019497D01*
X-38909760Y45182438D01*
X-38812509Y45351246D01*
X-38713900Y45522425D01*
X-38615947Y45692479D01*
X-38591175Y45735488D01*
X-38500848Y45892143D01*
X-38414711Y46041197D01*
X-38334058Y46180432D01*
X-38260184Y46307629D01*
X-38194383Y46420568D01*
X-38137950Y46517032D01*
X-38092179Y46594800D01*
X-38058365Y46651654D01*
X-38037802Y46685375D01*
X-38032047Y46693960D01*
X-38019942Y46700811D01*
X-37999906Y46698842D01*
G36*
X-34334472Y46755381D02*
G01*
X-34323092Y46736307D01*
X-34297512Y46692579D01*
X-34258998Y46626381D01*
X-34208814Y46539898D01*
X-34148225Y46435315D01*
X-34078497Y46314817D01*
X-34000893Y46180588D01*
X-33916680Y46034813D01*
X-33827121Y45879677D01*
X-33735002Y45720000D01*
X-33640924Y45556883D01*
X-33550598Y45400291D01*
X-33465335Y45252494D01*
X-33386443Y45115760D01*
X-33315231Y44992358D01*
X-33253009Y44884556D01*
X-33201087Y44794623D01*
X-33160772Y44724827D01*
X-33133376Y44677436D01*
X-33120493Y44655214D01*
X-33099493Y44617670D01*
X-33088075Y44594169D01*
X-33087449Y44590080D01*
X-33101364Y44597758D01*
X-33140059Y44619797D01*
X-33201513Y44655029D01*
X-33283702Y44702289D01*
X-33384604Y44760411D01*
X-33502195Y44828229D01*
X-33634454Y44904576D01*
X-33779358Y44988286D01*
X-33934883Y45078194D01*
X-34099008Y45173133D01*
X-34161451Y45209268D01*
X-34328513Y45305917D01*
X-34487926Y45398062D01*
X-34637645Y45484525D01*
X-34775624Y45564129D01*
X-34899815Y45635695D01*
X-35008173Y45698045D01*
X-35098652Y45750002D01*
X-35169204Y45790387D01*
X-35217785Y45818022D01*
X-35242346Y45831728D01*
X-35244915Y45833026D01*
X-35237431Y45844780D01*
X-35211386Y45876205D01*
X-35169441Y45924406D01*
X-35114254Y45986490D01*
X-35048483Y46059561D01*
X-34974788Y46140724D01*
X-34895827Y46227084D01*
X-34814260Y46315747D01*
X-34732746Y46403818D01*
X-34653943Y46488401D01*
X-34580510Y46566603D01*
X-34515107Y46635528D01*
X-34460392Y46692281D01*
X-34419023Y46733968D01*
X-34404836Y46747637D01*
X-34357820Y46791799D01*
X-34334472Y46755381D01*
G37*
X-34334472Y46755381D02*
X-34323092Y46736307D01*
X-34297512Y46692579D01*
X-34258998Y46626381D01*
X-34208814Y46539898D01*
X-34148225Y46435315D01*
X-34078497Y46314817D01*
X-34000893Y46180588D01*
X-33916680Y46034813D01*
X-33827121Y45879677D01*
X-33735002Y45720000D01*
X-33640924Y45556883D01*
X-33550598Y45400291D01*
X-33465335Y45252494D01*
X-33386443Y45115760D01*
X-33315231Y44992358D01*
X-33253009Y44884556D01*
X-33201087Y44794623D01*
X-33160772Y44724827D01*
X-33133376Y44677436D01*
X-33120493Y44655214D01*
X-33099493Y44617670D01*
X-33088075Y44594169D01*
X-33087449Y44590080D01*
X-33101364Y44597758D01*
X-33140059Y44619797D01*
X-33201513Y44655029D01*
X-33283702Y44702289D01*
X-33384604Y44760411D01*
X-33502195Y44828229D01*
X-33634454Y44904576D01*
X-33779358Y44988286D01*
X-33934883Y45078194D01*
X-34099008Y45173133D01*
X-34161451Y45209268D01*
X-34328513Y45305917D01*
X-34487926Y45398062D01*
X-34637645Y45484525D01*
X-34775624Y45564129D01*
X-34899815Y45635695D01*
X-35008173Y45698045D01*
X-35098652Y45750002D01*
X-35169204Y45790387D01*
X-35217785Y45818022D01*
X-35242346Y45831728D01*
X-35244915Y45833026D01*
X-35237431Y45844780D01*
X-35211386Y45876205D01*
X-35169441Y45924406D01*
X-35114254Y45986490D01*
X-35048483Y46059561D01*
X-34974788Y46140724D01*
X-34895827Y46227084D01*
X-34814260Y46315747D01*
X-34732746Y46403818D01*
X-34653943Y46488401D01*
X-34580510Y46566603D01*
X-34515107Y46635528D01*
X-34460392Y46692281D01*
X-34419023Y46733968D01*
X-34404836Y46747637D01*
X-34357820Y46791799D01*
X-34334472Y46755381D01*
G36*
X-36157957Y49904165D02*
G01*
X-36134935Y49866755D01*
X-36099466Y49807486D01*
X-36053004Y49728882D01*
X-35997004Y49633462D01*
X-35932919Y49523750D01*
X-35862204Y49402266D01*
X-35786313Y49271532D01*
X-35706701Y49134070D01*
X-35624822Y48992402D01*
X-35542130Y48849049D01*
X-35460079Y48706533D01*
X-35380124Y48567376D01*
X-35303719Y48434099D01*
X-35232318Y48309224D01*
X-35167376Y48195273D01*
X-35110347Y48094767D01*
X-35062685Y48010228D01*
X-35025845Y47944178D01*
X-35001280Y47899138D01*
X-34990446Y47877630D01*
X-34990049Y47876286D01*
X-35003499Y47858035D01*
X-35040886Y47830118D01*
X-35097765Y47795275D01*
X-35169688Y47756246D01*
X-35244985Y47719157D01*
X-35347440Y47674183D01*
X-35455183Y47633774D01*
X-35571927Y47597031D01*
X-35701382Y47563058D01*
X-35847260Y47530956D01*
X-36013274Y47499827D01*
X-36203134Y47468773D01*
X-36399531Y47439855D01*
X-36570166Y47414200D01*
X-36713455Y47388802D01*
X-36832992Y47362398D01*
X-36932370Y47333727D01*
X-37015182Y47301527D01*
X-37085022Y47264535D01*
X-37145482Y47221488D01*
X-37200155Y47171125D01*
X-37217786Y47152417D01*
X-37256000Y47108861D01*
X-37284268Y47073318D01*
X-37297382Y47052417D01*
X-37297732Y47050703D01*
X-37302320Y47040194D01*
X-37318242Y47040076D01*
X-37348734Y47051746D01*
X-37397032Y47076604D01*
X-37466373Y47116048D01*
X-37514561Y47144413D01*
X-37586417Y47188753D01*
X-37642258Y47226721D01*
X-37678333Y47255584D01*
X-37690887Y47272612D01*
X-37690879Y47272736D01*
X-37683094Y47288963D01*
X-37661108Y47329600D01*
X-37626197Y47392433D01*
X-37579637Y47475248D01*
X-37522705Y47575828D01*
X-37456677Y47691960D01*
X-37382828Y47821429D01*
X-37302436Y47962020D01*
X-37216776Y48111518D01*
X-37127124Y48267708D01*
X-37034757Y48428376D01*
X-36940951Y48591307D01*
X-36846982Y48754287D01*
X-36754126Y48915100D01*
X-36663660Y49071532D01*
X-36576859Y49221367D01*
X-36495000Y49362392D01*
X-36419359Y49492391D01*
X-36351213Y49609151D01*
X-36291837Y49710455D01*
X-36242507Y49794089D01*
X-36204500Y49857838D01*
X-36179093Y49899489D01*
X-36167560Y49916825D01*
X-36167077Y49917195D01*
X-36157957Y49904165D01*
G37*
X-36157957Y49904165D02*
X-36134935Y49866755D01*
X-36099466Y49807486D01*
X-36053004Y49728882D01*
X-35997004Y49633462D01*
X-35932919Y49523750D01*
X-35862204Y49402266D01*
X-35786313Y49271532D01*
X-35706701Y49134070D01*
X-35624822Y48992402D01*
X-35542130Y48849049D01*
X-35460079Y48706533D01*
X-35380124Y48567376D01*
X-35303719Y48434099D01*
X-35232318Y48309224D01*
X-35167376Y48195273D01*
X-35110347Y48094767D01*
X-35062685Y48010228D01*
X-35025845Y47944178D01*
X-35001280Y47899138D01*
X-34990446Y47877630D01*
X-34990049Y47876286D01*
X-35003499Y47858035D01*
X-35040886Y47830118D01*
X-35097765Y47795275D01*
X-35169688Y47756246D01*
X-35244985Y47719157D01*
X-35347440Y47674183D01*
X-35455183Y47633774D01*
X-35571927Y47597031D01*
X-35701382Y47563058D01*
X-35847260Y47530956D01*
X-36013274Y47499827D01*
X-36203134Y47468773D01*
X-36399531Y47439855D01*
X-36570166Y47414200D01*
X-36713455Y47388802D01*
X-36832992Y47362398D01*
X-36932370Y47333727D01*
X-37015182Y47301527D01*
X-37085022Y47264535D01*
X-37145482Y47221488D01*
X-37200155Y47171125D01*
X-37217786Y47152417D01*
X-37256000Y47108861D01*
X-37284268Y47073318D01*
X-37297382Y47052417D01*
X-37297732Y47050703D01*
X-37302320Y47040194D01*
X-37318242Y47040076D01*
X-37348734Y47051746D01*
X-37397032Y47076604D01*
X-37466373Y47116048D01*
X-37514561Y47144413D01*
X-37586417Y47188753D01*
X-37642258Y47226721D01*
X-37678333Y47255584D01*
X-37690887Y47272612D01*
X-37690879Y47272736D01*
X-37683094Y47288963D01*
X-37661108Y47329600D01*
X-37626197Y47392433D01*
X-37579637Y47475248D01*
X-37522705Y47575828D01*
X-37456677Y47691960D01*
X-37382828Y47821429D01*
X-37302436Y47962020D01*
X-37216776Y48111518D01*
X-37127124Y48267708D01*
X-37034757Y48428376D01*
X-36940951Y48591307D01*
X-36846982Y48754287D01*
X-36754126Y48915100D01*
X-36663660Y49071532D01*
X-36576859Y49221367D01*
X-36495000Y49362392D01*
X-36419359Y49492391D01*
X-36351213Y49609151D01*
X-36291837Y49710455D01*
X-36242507Y49794089D01*
X-36204500Y49857838D01*
X-36179093Y49899489D01*
X-36167560Y49916825D01*
X-36167077Y49917195D01*
X-36157957Y49904165D01*
G36*
X-28478178Y43972178D02*
G01*
X-31998971Y43972178D01*
X-31998971Y44839802D01*
X-28478178Y44839802D01*
X-28478178Y43972178D01*
G37*
X-28478178Y43972178D02*
X-31998971Y43972178D01*
X-31998971Y44839802D01*
X-28478178Y44839802D01*
X-28478178Y43972178D01*
G36*
X-28101570Y49925152D02*
G01*
X-28102189Y49838069D01*
X-28553914Y49379109D01*
X-29005639Y48920148D01*
X-29005968Y48709529D01*
X-29006297Y48498911D01*
X-29281390Y48498911D01*
X-29288478Y48445470D01*
X-29291162Y48421112D01*
X-29295687Y48375241D01*
X-29301809Y48310595D01*
X-29309288Y48229909D01*
X-29317881Y48135919D01*
X-29327346Y48031363D01*
X-29337442Y47918975D01*
X-29347926Y47801493D01*
X-29358556Y47681652D01*
X-29369091Y47562189D01*
X-29379287Y47445841D01*
X-29388905Y47335343D01*
X-29397700Y47233431D01*
X-29405432Y47142842D01*
X-29411858Y47066313D01*
X-29416737Y47006579D01*
X-29419825Y46966376D01*
X-29420883Y46948441D01*
X-29420882Y46948356D01*
X-29413173Y46933965D01*
X-29390019Y46904252D01*
X-29351105Y46858869D01*
X-29296116Y46797471D01*
X-29224736Y46719712D01*
X-29136651Y46625246D01*
X-29031546Y46513728D01*
X-28909105Y46384812D01*
X-28874690Y46348713D01*
X-28328863Y45776584D01*
X-28417119Y45688564D01*
X-28488515Y45766242D01*
X-28514634Y45794314D01*
X-28555434Y45837726D01*
X-28608223Y45893634D01*
X-28670309Y45959192D01*
X-28739000Y46031559D01*
X-28811604Y46107888D01*
X-28855040Y46153476D01*
X-28936584Y46238881D01*
X-29002496Y46307290D01*
X-29054456Y46359947D01*
X-29094145Y46398095D01*
X-29123243Y46422980D01*
X-29143431Y46435844D01*
X-29156390Y46437932D01*
X-29163800Y46430487D01*
X-29167342Y46414754D01*
X-29168697Y46391977D01*
X-29168879Y46385761D01*
X-29178297Y46342939D01*
X-29201503Y46291181D01*
X-29233864Y46238672D01*
X-29270748Y46193597D01*
X-29285507Y46179672D01*
X-29361233Y46130953D01*
X-29449692Y46103694D01*
X-29527900Y46097227D01*
X-29616532Y46109424D01*
X-29698388Y46145187D01*
X-29770836Y46203278D01*
X-29784203Y46217738D01*
X-29833082Y46273267D01*
X-30678674Y46273267D01*
X-30678674Y46097227D01*
X-30905010Y46097227D01*
X-30905010Y46179469D01*
X-30907850Y46235614D01*
X-30917393Y46274584D01*
X-30928991Y46295781D01*
X-30937277Y46310948D01*
X-30944373Y46332938D01*
X-30950748Y46365013D01*
X-30956872Y46410431D01*
X-30963216Y46472452D01*
X-30970250Y46554338D01*
X-30975066Y46615254D01*
X-30997161Y46900657D01*
X-31539565Y46351195D01*
X-31637637Y46251772D01*
X-31731784Y46156185D01*
X-31820285Y46066190D01*
X-31901420Y45983543D01*
X-31973469Y45909999D01*
X-32034712Y45847316D01*
X-32083427Y45797248D01*
X-32117896Y45761552D01*
X-32136379Y45742005D01*
X-32166743Y45711056D01*
X-32192071Y45689470D01*
X-32205695Y45682277D01*
X-32223095Y45690703D01*
X-32248460Y45711755D01*
X-32257058Y45720329D01*
X-32293514Y45758380D01*
X-32092802Y45962342D01*
X-32041596Y46014301D01*
X-31975569Y46081180D01*
X-31897618Y46160050D01*
X-31810638Y46247986D01*
X-31717526Y46342059D01*
X-31621179Y46439342D01*
X-31524492Y46536907D01*
X-31455134Y46606855D01*
X-31349703Y46713450D01*
X-31261129Y46803693D01*
X-31188281Y46878808D01*
X-31130023Y46940014D01*
X-31085225Y46988534D01*
X-31063021Y47013871D01*
X-30884724Y47013871D01*
X-30862401Y46728445D01*
X-30855669Y46644781D01*
X-30849157Y46568273D01*
X-30843234Y46502919D01*
X-30838268Y46452719D01*
X-30834629Y46421671D01*
X-30833458Y46414727D01*
X-30826838Y46386435D01*
X-29877364Y46386435D01*
X-29871026Y46465394D01*
X-29851890Y46558685D01*
X-29811846Y46641209D01*
X-29753418Y46709962D01*
X-29679129Y46761937D01*
X-29595748Y46793137D01*
X-29568698Y46807772D01*
X-29555156Y46839181D01*
X-29554872Y46840566D01*
X-29553247Y46853826D01*
X-29555256Y46867405D01*
X-29562858Y46883819D01*
X-29578016Y46905589D01*
X-29602688Y46935233D01*
X-29638836Y46975268D01*
X-29688420Y47028215D01*
X-29753401Y47096591D01*
X-29757599Y47100995D01*
X-29827493Y47174389D01*
X-29901800Y47252563D01*
X-29975414Y47330136D01*
X-30043229Y47401725D01*
X-30100140Y47461949D01*
X-30112832Y47475413D01*
X-30161487Y47526180D01*
X-30204709Y47569625D01*
X-30239395Y47602759D01*
X-30262444Y47622595D01*
X-30270182Y47626954D01*
X-30281722Y47617830D01*
X-30308710Y47592800D01*
X-30349021Y47553948D01*
X-30400529Y47503357D01*
X-30461109Y47443112D01*
X-30528636Y47375296D01*
X-30583826Y47319435D01*
X-30884724Y47013871D01*
X-31063021Y47013871D01*
X-31052751Y47025589D01*
X-31031471Y47052401D01*
X-31020251Y47070192D01*
X-31017754Y47078430D01*
X-31018700Y47096410D01*
X-31021573Y47137108D01*
X-31026187Y47198181D01*
X-31032358Y47277287D01*
X-31039898Y47372086D01*
X-31048621Y47480233D01*
X-31058343Y47599388D01*
X-31068876Y47727209D01*
X-31077365Y47829365D01*
X-31125396Y48405326D01*
X-31001805Y48405326D01*
X-31001273Y48392896D01*
X-30998769Y48357890D01*
X-30994496Y48302785D01*
X-30988653Y48230057D01*
X-30981443Y48142186D01*
X-30973066Y48041649D01*
X-30963723Y47930923D01*
X-30954758Y47825795D01*
X-30944602Y47706517D01*
X-30935142Y47593920D01*
X-30926596Y47490695D01*
X-30919179Y47399527D01*
X-30913108Y47323105D01*
X-30908601Y47264117D01*
X-30905873Y47225251D01*
X-30905116Y47210156D01*
X-30903935Y47200762D01*
X-30899256Y47197034D01*
X-30889276Y47200529D01*
X-30872190Y47212801D01*
X-30846196Y47235406D01*
X-30809490Y47269900D01*
X-30760267Y47317838D01*
X-30696726Y47380776D01*
X-30629305Y47448032D01*
X-30353601Y47723523D01*
X-30355533Y47725594D01*
X-30173290Y47725594D01*
X-30164984Y47714220D01*
X-30141733Y47687437D01*
X-30105865Y47647708D01*
X-30059713Y47597493D01*
X-30005606Y47539254D01*
X-29945874Y47475453D01*
X-29882848Y47408551D01*
X-29818858Y47341010D01*
X-29756236Y47275290D01*
X-29697310Y47213854D01*
X-29644412Y47159163D01*
X-29599872Y47113678D01*
X-29566020Y47079862D01*
X-29545188Y47060174D01*
X-29539506Y47056163D01*
X-29537634Y47069109D01*
X-29533746Y47104866D01*
X-29528057Y47161196D01*
X-29520781Y47235860D01*
X-29512131Y47326620D01*
X-29502322Y47431238D01*
X-29491566Y47547474D01*
X-29480079Y47673092D01*
X-29470907Y47774382D01*
X-29459174Y47905721D01*
X-29448335Y48029448D01*
X-29438570Y48143319D01*
X-29430063Y48245089D01*
X-29422995Y48332513D01*
X-29417549Y48403347D01*
X-29413908Y48455347D01*
X-29412253Y48486268D01*
X-29412442Y48494297D01*
X-29422334Y48487146D01*
X-29447524Y48464159D01*
X-29485810Y48427561D01*
X-29534989Y48379578D01*
X-29592861Y48322434D01*
X-29657222Y48258353D01*
X-29725871Y48189562D01*
X-29796605Y48118284D01*
X-29867222Y48046745D01*
X-29935520Y47977170D01*
X-29999296Y47911783D01*
X-30056350Y47852809D01*
X-30104478Y47802473D01*
X-30141478Y47763001D01*
X-30165148Y47736617D01*
X-30173290Y47725594D01*
X-30355533Y47725594D01*
X-30456409Y47833705D01*
X-30508768Y47889623D01*
X-30567535Y47952052D01*
X-30630385Y48018557D01*
X-30694995Y48086702D01*
X-30759042Y48154052D01*
X-30820203Y48218172D01*
X-30876153Y48276628D01*
X-30924570Y48326982D01*
X-30963130Y48366802D01*
X-30989509Y48393650D01*
X-31001384Y48405092D01*
X-31001805Y48405326D01*
X-31125396Y48405326D01*
X-31137401Y48549274D01*
X-31737938Y49180842D01*
X-32338475Y49812411D01*
X-32338034Y49900685D01*
X-32337592Y49988960D01*
X-32240583Y49885334D01*
X-32186291Y49827537D01*
X-32122192Y49759632D01*
X-32050016Y49683428D01*
X-31971492Y49600731D01*
X-31888349Y49513347D01*
X-31802319Y49423085D01*
X-31715130Y49331750D01*
X-31628513Y49241151D01*
X-31544197Y49153093D01*
X-31463912Y49069385D01*
X-31389387Y48991833D01*
X-31322354Y48922243D01*
X-31264541Y48862424D01*
X-31217679Y48814182D01*
X-31183496Y48779324D01*
X-31163724Y48759657D01*
X-31159390Y48755884D01*
X-31159092Y48769008D01*
X-31160731Y48802611D01*
X-31164023Y48852120D01*
X-31168682Y48912963D01*
X-31170682Y48937268D01*
X-31185577Y49115049D01*
X-31068955Y49115049D01*
X-31062934Y49086757D01*
X-31059863Y49064382D01*
X-31055548Y49022283D01*
X-31050488Y48965822D01*
X-31045181Y48900365D01*
X-31043344Y48876138D01*
X-31037927Y48806579D01*
X-31032459Y48741982D01*
X-31027488Y48688452D01*
X-31023561Y48652090D01*
X-31022675Y48645491D01*
X-31019334Y48631944D01*
X-31012101Y48616086D01*
X-30999440Y48596139D01*
X-30979811Y48570327D01*
X-30951678Y48536871D01*
X-30913502Y48493993D01*
X-30863746Y48439917D01*
X-30800871Y48372864D01*
X-30723341Y48291057D01*
X-30644251Y48208050D01*
X-30565564Y48125906D01*
X-30492112Y48049831D01*
X-30425724Y47981675D01*
X-30368227Y47923288D01*
X-30321451Y47876519D01*
X-30287224Y47843218D01*
X-30267373Y47825233D01*
X-30263140Y47822558D01*
X-30252003Y47832259D01*
X-30225971Y47857559D01*
X-30187570Y47895918D01*
X-30139328Y47944800D01*
X-30083770Y48001666D01*
X-30043592Y48043094D01*
X-29833831Y48260000D01*
X-30452337Y48260000D01*
X-30452337Y48498911D01*
X-29697881Y48498911D01*
X-29697881Y48392458D01*
X-29559565Y48530346D01*
X-29461447Y48628160D01*
X-29270357Y48628160D01*
X-29268529Y48612730D01*
X-29259277Y48604133D01*
X-29236950Y48600387D01*
X-29195895Y48599511D01*
X-29188624Y48599505D01*
X-29106891Y48599505D01*
X-29106891Y48818828D01*
X-29188624Y48737821D01*
X-29234730Y48688572D01*
X-29262306Y48650841D01*
X-29270357Y48628160D01*
X-29461447Y48628160D01*
X-29421248Y48668234D01*
X-29421248Y48791048D01*
X-29420863Y48847550D01*
X-29419100Y48883495D01*
X-29415050Y48903470D01*
X-29407801Y48912063D01*
X-29396870Y48913861D01*
X-29384712Y48916502D01*
X-29375727Y48927088D01*
X-29368826Y48949619D01*
X-29362924Y48988091D01*
X-29356935Y49046502D01*
X-29355013Y49067896D01*
X-29350852Y49115049D01*
X-31068955Y49115049D01*
X-31185577Y49115049D01*
X-31345109Y49115049D01*
X-31345109Y49228218D01*
X-31277314Y49228218D01*
X-31237662Y49229304D01*
X-31216116Y49234546D01*
X-31213480Y49237666D01*
X-31074616Y49237666D01*
X-31067308Y49230538D01*
X-31041993Y49228338D01*
X-31024908Y49228218D01*
X-30967881Y49228218D01*
X-30755221Y49228218D01*
X-29340698Y49228218D01*
X-29388542Y49277214D01*
X-29462850Y49337676D01*
X-29554816Y49384309D01*
X-29665998Y49417751D01*
X-29776471Y49436247D01*
X-29848773Y49444878D01*
X-29848773Y49353960D01*
X-30427188Y49353960D01*
X-30427188Y49457107D01*
X-30512065Y49448504D01*
X-30571368Y49441244D01*
X-30634551Y49431621D01*
X-30672386Y49424748D01*
X-30747832Y49409593D01*
X-30751526Y49318905D01*
X-30755221Y49228218D01*
X-30967881Y49228218D01*
X-30967881Y49278515D01*
X-30969544Y49310024D01*
X-30973697Y49327537D01*
X-30975371Y49328812D01*
X-30993987Y49320746D01*
X-31021183Y49301180D01*
X-31048448Y49277056D01*
X-31067267Y49255318D01*
X-31068943Y49252492D01*
X-31074616Y49237666D01*
X-31213480Y49237666D01*
X-31205662Y49246919D01*
X-31201442Y49260396D01*
X-31184219Y49295373D01*
X-31151138Y49337421D01*
X-31107893Y49380644D01*
X-31060174Y49419146D01*
X-31028830Y49439199D01*
X-30993123Y49461149D01*
X-30974819Y49479589D01*
X-30968388Y49501332D01*
X-30967894Y49514282D01*
X-30967894Y49517425D01*
X-30326594Y49517425D01*
X-30326594Y49454554D01*
X-29949367Y49454554D01*
X-29949367Y49517425D01*
X-30326594Y49517425D01*
X-30967894Y49517425D01*
X-30967881Y49555148D01*
X-30862048Y49555148D01*
X-30813355Y49553971D01*
X-30775405Y49550835D01*
X-30754308Y49546329D01*
X-30752023Y49544505D01*
X-30738641Y49541705D01*
X-30706074Y49542852D01*
X-30659916Y49547607D01*
X-30628376Y49551997D01*
X-30571188Y49560622D01*
X-30518886Y49568409D01*
X-30479582Y49574153D01*
X-30468055Y49575785D01*
X-30437937Y49585112D01*
X-30427188Y49599728D01*
X-30423920Y49605680D01*
X-30412230Y49610222D01*
X-30389288Y49613530D01*
X-30352265Y49615785D01*
X-30298332Y49617166D01*
X-30224660Y49617850D01*
X-30137980Y49618020D01*
X-30045471Y49617923D01*
X-29975094Y49617470D01*
X-29923836Y49616410D01*
X-29888680Y49614497D01*
X-29866611Y49611481D01*
X-29854615Y49607115D01*
X-29849676Y49601151D01*
X-29848773Y49594216D01*
X-29841079Y49572205D01*
X-29815879Y49559679D01*
X-29769991Y49555212D01*
X-29761736Y49555148D01*
X-29684027Y49547132D01*
X-29595767Y49525064D01*
X-29504915Y49491916D01*
X-29419430Y49450661D01*
X-29347274Y49404269D01*
X-29337928Y49396918D01*
X-29307467Y49373002D01*
X-29289428Y49363424D01*
X-29276831Y49366520D01*
X-29263900Y49379296D01*
X-29225707Y49404322D01*
X-29176002Y49413929D01*
X-29122476Y49408933D01*
X-29072822Y49390149D01*
X-29034733Y49358394D01*
X-29031975Y49354703D01*
X-29003474Y49295425D01*
X-28998172Y49234066D01*
X-29015482Y49175573D01*
X-29054820Y49124896D01*
X-29059630Y49120711D01*
X-29087560Y49100833D01*
X-29115898Y49092079D01*
X-29155737Y49091447D01*
X-29165689Y49092008D01*
X-29204668Y49093438D01*
X-29224746Y49090161D01*
X-29232015Y49080272D01*
X-29232760Y49071039D01*
X-29234284Y49044256D01*
X-29238065Y49003975D01*
X-29240782Y48979876D01*
X-29244723Y48941599D01*
X-29243084Y48922004D01*
X-29233579Y48914842D01*
X-29216649Y48913861D01*
X-29206608Y48917099D01*
X-29190410Y48927580D01*
X-29166855Y48946452D01*
X-29134743Y48974865D01*
X-29092872Y49013965D01*
X-29040043Y49064903D01*
X-28975055Y49128827D01*
X-28896709Y49206886D01*
X-28803803Y49300228D01*
X-28695137Y49410002D01*
X-28642769Y49463048D01*
X-28100951Y50012233D01*
X-28101570Y49925152D01*
G37*
X-28101570Y49925152D02*
X-28102189Y49838069D01*
X-28553914Y49379109D01*
X-29005639Y48920148D01*
X-29005968Y48709529D01*
X-29006297Y48498911D01*
X-29281390Y48498911D01*
X-29288478Y48445470D01*
X-29291162Y48421112D01*
X-29295687Y48375241D01*
X-29301809Y48310595D01*
X-29309288Y48229909D01*
X-29317881Y48135919D01*
X-29327346Y48031363D01*
X-29337442Y47918975D01*
X-29347926Y47801493D01*
X-29358556Y47681652D01*
X-29369091Y47562189D01*
X-29379287Y47445841D01*
X-29388905Y47335343D01*
X-29397700Y47233431D01*
X-29405432Y47142842D01*
X-29411858Y47066313D01*
X-29416737Y47006579D01*
X-29419825Y46966376D01*
X-29420883Y46948441D01*
X-29420882Y46948356D01*
X-29413173Y46933965D01*
X-29390019Y46904252D01*
X-29351105Y46858869D01*
X-29296116Y46797471D01*
X-29224736Y46719712D01*
X-29136651Y46625246D01*
X-29031546Y46513728D01*
X-28909105Y46384812D01*
X-28874690Y46348713D01*
X-28328863Y45776584D01*
X-28417119Y45688564D01*
X-28488515Y45766242D01*
X-28514634Y45794314D01*
X-28555434Y45837726D01*
X-28608223Y45893634D01*
X-28670309Y45959192D01*
X-28739000Y46031559D01*
X-28811604Y46107888D01*
X-28855040Y46153476D01*
X-28936584Y46238881D01*
X-29002496Y46307290D01*
X-29054456Y46359947D01*
X-29094145Y46398095D01*
X-29123243Y46422980D01*
X-29143431Y46435844D01*
X-29156390Y46437932D01*
X-29163800Y46430487D01*
X-29167342Y46414754D01*
X-29168697Y46391977D01*
X-29168879Y46385761D01*
X-29178297Y46342939D01*
X-29201503Y46291181D01*
X-29233864Y46238672D01*
X-29270748Y46193597D01*
X-29285507Y46179672D01*
X-29361233Y46130953D01*
X-29449692Y46103694D01*
X-29527900Y46097227D01*
X-29616532Y46109424D01*
X-29698388Y46145187D01*
X-29770836Y46203278D01*
X-29784203Y46217738D01*
X-29833082Y46273267D01*
X-30678674Y46273267D01*
X-30678674Y46097227D01*
X-30905010Y46097227D01*
X-30905010Y46179469D01*
X-30907850Y46235614D01*
X-30917393Y46274584D01*
X-30928991Y46295781D01*
X-30937277Y46310948D01*
X-30944373Y46332938D01*
X-30950748Y46365013D01*
X-30956872Y46410431D01*
X-30963216Y46472452D01*
X-30970250Y46554338D01*
X-30975066Y46615254D01*
X-30997161Y46900657D01*
X-31539565Y46351195D01*
X-31637637Y46251772D01*
X-31731784Y46156185D01*
X-31820285Y46066190D01*
X-31901420Y45983543D01*
X-31973469Y45909999D01*
X-32034712Y45847316D01*
X-32083427Y45797248D01*
X-32117896Y45761552D01*
X-32136379Y45742005D01*
X-32166743Y45711056D01*
X-32192071Y45689470D01*
X-32205695Y45682277D01*
X-32223095Y45690703D01*
X-32248460Y45711755D01*
X-32257058Y45720329D01*
X-32293514Y45758380D01*
X-32092802Y45962342D01*
X-32041596Y46014301D01*
X-31975569Y46081180D01*
X-31897618Y46160050D01*
X-31810638Y46247986D01*
X-31717526Y46342059D01*
X-31621179Y46439342D01*
X-31524492Y46536907D01*
X-31455134Y46606855D01*
X-31349703Y46713450D01*
X-31261129Y46803693D01*
X-31188281Y46878808D01*
X-31130023Y46940014D01*
X-31085225Y46988534D01*
X-31063021Y47013871D01*
X-30884724Y47013871D01*
X-30862401Y46728445D01*
X-30855669Y46644781D01*
X-30849157Y46568273D01*
X-30843234Y46502919D01*
X-30838268Y46452719D01*
X-30834629Y46421671D01*
X-30833458Y46414727D01*
X-30826838Y46386435D01*
X-29877364Y46386435D01*
X-29871026Y46465394D01*
X-29851890Y46558685D01*
X-29811846Y46641209D01*
X-29753418Y46709962D01*
X-29679129Y46761937D01*
X-29595748Y46793137D01*
X-29568698Y46807772D01*
X-29555156Y46839181D01*
X-29554872Y46840566D01*
X-29553247Y46853826D01*
X-29555256Y46867405D01*
X-29562858Y46883819D01*
X-29578016Y46905589D01*
X-29602688Y46935233D01*
X-29638836Y46975268D01*
X-29688420Y47028215D01*
X-29753401Y47096591D01*
X-29757599Y47100995D01*
X-29827493Y47174389D01*
X-29901800Y47252563D01*
X-29975414Y47330136D01*
X-30043229Y47401725D01*
X-30100140Y47461949D01*
X-30112832Y47475413D01*
X-30161487Y47526180D01*
X-30204709Y47569625D01*
X-30239395Y47602759D01*
X-30262444Y47622595D01*
X-30270182Y47626954D01*
X-30281722Y47617830D01*
X-30308710Y47592800D01*
X-30349021Y47553948D01*
X-30400529Y47503357D01*
X-30461109Y47443112D01*
X-30528636Y47375296D01*
X-30583826Y47319435D01*
X-30884724Y47013871D01*
X-31063021Y47013871D01*
X-31052751Y47025589D01*
X-31031471Y47052401D01*
X-31020251Y47070192D01*
X-31017754Y47078430D01*
X-31018700Y47096410D01*
X-31021573Y47137108D01*
X-31026187Y47198181D01*
X-31032358Y47277287D01*
X-31039898Y47372086D01*
X-31048621Y47480233D01*
X-31058343Y47599388D01*
X-31068876Y47727209D01*
X-31077365Y47829365D01*
X-31125396Y48405326D01*
X-31001805Y48405326D01*
X-31001273Y48392896D01*
X-30998769Y48357890D01*
X-30994496Y48302785D01*
X-30988653Y48230057D01*
X-30981443Y48142186D01*
X-30973066Y48041649D01*
X-30963723Y47930923D01*
X-30954758Y47825795D01*
X-30944602Y47706517D01*
X-30935142Y47593920D01*
X-30926596Y47490695D01*
X-30919179Y47399527D01*
X-30913108Y47323105D01*
X-30908601Y47264117D01*
X-30905873Y47225251D01*
X-30905116Y47210156D01*
X-30903935Y47200762D01*
X-30899256Y47197034D01*
X-30889276Y47200529D01*
X-30872190Y47212801D01*
X-30846196Y47235406D01*
X-30809490Y47269900D01*
X-30760267Y47317838D01*
X-30696726Y47380776D01*
X-30629305Y47448032D01*
X-30353601Y47723523D01*
X-30355533Y47725594D01*
X-30173290Y47725594D01*
X-30164984Y47714220D01*
X-30141733Y47687437D01*
X-30105865Y47647708D01*
X-30059713Y47597493D01*
X-30005606Y47539254D01*
X-29945874Y47475453D01*
X-29882848Y47408551D01*
X-29818858Y47341010D01*
X-29756236Y47275290D01*
X-29697310Y47213854D01*
X-29644412Y47159163D01*
X-29599872Y47113678D01*
X-29566020Y47079862D01*
X-29545188Y47060174D01*
X-29539506Y47056163D01*
X-29537634Y47069109D01*
X-29533746Y47104866D01*
X-29528057Y47161196D01*
X-29520781Y47235860D01*
X-29512131Y47326620D01*
X-29502322Y47431238D01*
X-29491566Y47547474D01*
X-29480079Y47673092D01*
X-29470907Y47774382D01*
X-29459174Y47905721D01*
X-29448335Y48029448D01*
X-29438570Y48143319D01*
X-29430063Y48245089D01*
X-29422995Y48332513D01*
X-29417549Y48403347D01*
X-29413908Y48455347D01*
X-29412253Y48486268D01*
X-29412442Y48494297D01*
X-29422334Y48487146D01*
X-29447524Y48464159D01*
X-29485810Y48427561D01*
X-29534989Y48379578D01*
X-29592861Y48322434D01*
X-29657222Y48258353D01*
X-29725871Y48189562D01*
X-29796605Y48118284D01*
X-29867222Y48046745D01*
X-29935520Y47977170D01*
X-29999296Y47911783D01*
X-30056350Y47852809D01*
X-30104478Y47802473D01*
X-30141478Y47763001D01*
X-30165148Y47736617D01*
X-30173290Y47725594D01*
X-30355533Y47725594D01*
X-30456409Y47833705D01*
X-30508768Y47889623D01*
X-30567535Y47952052D01*
X-30630385Y48018557D01*
X-30694995Y48086702D01*
X-30759042Y48154052D01*
X-30820203Y48218172D01*
X-30876153Y48276628D01*
X-30924570Y48326982D01*
X-30963130Y48366802D01*
X-30989509Y48393650D01*
X-31001384Y48405092D01*
X-31001805Y48405326D01*
X-31125396Y48405326D01*
X-31137401Y48549274D01*
X-31737938Y49180842D01*
X-32338475Y49812411D01*
X-32338034Y49900685D01*
X-32337592Y49988960D01*
X-32240583Y49885334D01*
X-32186291Y49827537D01*
X-32122192Y49759632D01*
X-32050016Y49683428D01*
X-31971492Y49600731D01*
X-31888349Y49513347D01*
X-31802319Y49423085D01*
X-31715130Y49331750D01*
X-31628513Y49241151D01*
X-31544197Y49153093D01*
X-31463912Y49069385D01*
X-31389387Y48991833D01*
X-31322354Y48922243D01*
X-31264541Y48862424D01*
X-31217679Y48814182D01*
X-31183496Y48779324D01*
X-31163724Y48759657D01*
X-31159390Y48755884D01*
X-31159092Y48769008D01*
X-31160731Y48802611D01*
X-31164023Y48852120D01*
X-31168682Y48912963D01*
X-31170682Y48937268D01*
X-31185577Y49115049D01*
X-31068955Y49115049D01*
X-31062934Y49086757D01*
X-31059863Y49064382D01*
X-31055548Y49022283D01*
X-31050488Y48965822D01*
X-31045181Y48900365D01*
X-31043344Y48876138D01*
X-31037927Y48806579D01*
X-31032459Y48741982D01*
X-31027488Y48688452D01*
X-31023561Y48652090D01*
X-31022675Y48645491D01*
X-31019334Y48631944D01*
X-31012101Y48616086D01*
X-30999440Y48596139D01*
X-30979811Y48570327D01*
X-30951678Y48536871D01*
X-30913502Y48493993D01*
X-30863746Y48439917D01*
X-30800871Y48372864D01*
X-30723341Y48291057D01*
X-30644251Y48208050D01*
X-30565564Y48125906D01*
X-30492112Y48049831D01*
X-30425724Y47981675D01*
X-30368227Y47923288D01*
X-30321451Y47876519D01*
X-30287224Y47843218D01*
X-30267373Y47825233D01*
X-30263140Y47822558D01*
X-30252003Y47832259D01*
X-30225971Y47857559D01*
X-30187570Y47895918D01*
X-30139328Y47944800D01*
X-30083770Y48001666D01*
X-30043592Y48043094D01*
X-29833831Y48260000D01*
X-30452337Y48260000D01*
X-30452337Y48498911D01*
X-29697881Y48498911D01*
X-29697881Y48392458D01*
X-29559565Y48530346D01*
X-29461447Y48628160D01*
X-29270357Y48628160D01*
X-29268529Y48612730D01*
X-29259277Y48604133D01*
X-29236950Y48600387D01*
X-29195895Y48599511D01*
X-29188624Y48599505D01*
X-29106891Y48599505D01*
X-29106891Y48818828D01*
X-29188624Y48737821D01*
X-29234730Y48688572D01*
X-29262306Y48650841D01*
X-29270357Y48628160D01*
X-29461447Y48628160D01*
X-29421248Y48668234D01*
X-29421248Y48791048D01*
X-29420863Y48847550D01*
X-29419100Y48883495D01*
X-29415050Y48903470D01*
X-29407801Y48912063D01*
X-29396870Y48913861D01*
X-29384712Y48916502D01*
X-29375727Y48927088D01*
X-29368826Y48949619D01*
X-29362924Y48988091D01*
X-29356935Y49046502D01*
X-29355013Y49067896D01*
X-29350852Y49115049D01*
X-31068955Y49115049D01*
X-31185577Y49115049D01*
X-31345109Y49115049D01*
X-31345109Y49228218D01*
X-31277314Y49228218D01*
X-31237662Y49229304D01*
X-31216116Y49234546D01*
X-31213480Y49237666D01*
X-31074616Y49237666D01*
X-31067308Y49230538D01*
X-31041993Y49228338D01*
X-31024908Y49228218D01*
X-30967881Y49228218D01*
X-30755221Y49228218D01*
X-29340698Y49228218D01*
X-29388542Y49277214D01*
X-29462850Y49337676D01*
X-29554816Y49384309D01*
X-29665998Y49417751D01*
X-29776471Y49436247D01*
X-29848773Y49444878D01*
X-29848773Y49353960D01*
X-30427188Y49353960D01*
X-30427188Y49457107D01*
X-30512065Y49448504D01*
X-30571368Y49441244D01*
X-30634551Y49431621D01*
X-30672386Y49424748D01*
X-30747832Y49409593D01*
X-30751526Y49318905D01*
X-30755221Y49228218D01*
X-30967881Y49228218D01*
X-30967881Y49278515D01*
X-30969544Y49310024D01*
X-30973697Y49327537D01*
X-30975371Y49328812D01*
X-30993987Y49320746D01*
X-31021183Y49301180D01*
X-31048448Y49277056D01*
X-31067267Y49255318D01*
X-31068943Y49252492D01*
X-31074616Y49237666D01*
X-31213480Y49237666D01*
X-31205662Y49246919D01*
X-31201442Y49260396D01*
X-31184219Y49295373D01*
X-31151138Y49337421D01*
X-31107893Y49380644D01*
X-31060174Y49419146D01*
X-31028830Y49439199D01*
X-30993123Y49461149D01*
X-30974819Y49479589D01*
X-30968388Y49501332D01*
X-30967894Y49514282D01*
X-30967894Y49517425D01*
X-30326594Y49517425D01*
X-30326594Y49454554D01*
X-29949367Y49454554D01*
X-29949367Y49517425D01*
X-30326594Y49517425D01*
X-30967894Y49517425D01*
X-30967881Y49555148D01*
X-30862048Y49555148D01*
X-30813355Y49553971D01*
X-30775405Y49550835D01*
X-30754308Y49546329D01*
X-30752023Y49544505D01*
X-30738641Y49541705D01*
X-30706074Y49542852D01*
X-30659916Y49547607D01*
X-30628376Y49551997D01*
X-30571188Y49560622D01*
X-30518886Y49568409D01*
X-30479582Y49574153D01*
X-30468055Y49575785D01*
X-30437937Y49585112D01*
X-30427188Y49599728D01*
X-30423920Y49605680D01*
X-30412230Y49610222D01*
X-30389288Y49613530D01*
X-30352265Y49615785D01*
X-30298332Y49617166D01*
X-30224660Y49617850D01*
X-30137980Y49618020D01*
X-30045471Y49617923D01*
X-29975094Y49617470D01*
X-29923836Y49616410D01*
X-29888680Y49614497D01*
X-29866611Y49611481D01*
X-29854615Y49607115D01*
X-29849676Y49601151D01*
X-29848773Y49594216D01*
X-29841079Y49572205D01*
X-29815879Y49559679D01*
X-29769991Y49555212D01*
X-29761736Y49555148D01*
X-29684027Y49547132D01*
X-29595767Y49525064D01*
X-29504915Y49491916D01*
X-29419430Y49450661D01*
X-29347274Y49404269D01*
X-29337928Y49396918D01*
X-29307467Y49373002D01*
X-29289428Y49363424D01*
X-29276831Y49366520D01*
X-29263900Y49379296D01*
X-29225707Y49404322D01*
X-29176002Y49413929D01*
X-29122476Y49408933D01*
X-29072822Y49390149D01*
X-29034733Y49358394D01*
X-29031975Y49354703D01*
X-29003474Y49295425D01*
X-28998172Y49234066D01*
X-29015482Y49175573D01*
X-29054820Y49124896D01*
X-29059630Y49120711D01*
X-29087560Y49100833D01*
X-29115898Y49092079D01*
X-29155737Y49091447D01*
X-29165689Y49092008D01*
X-29204668Y49093438D01*
X-29224746Y49090161D01*
X-29232015Y49080272D01*
X-29232760Y49071039D01*
X-29234284Y49044256D01*
X-29238065Y49003975D01*
X-29240782Y48979876D01*
X-29244723Y48941599D01*
X-29243084Y48922004D01*
X-29233579Y48914842D01*
X-29216649Y48913861D01*
X-29206608Y48917099D01*
X-29190410Y48927580D01*
X-29166855Y48946452D01*
X-29134743Y48974865D01*
X-29092872Y49013965D01*
X-29040043Y49064903D01*
X-28975055Y49128827D01*
X-28896709Y49206886D01*
X-28803803Y49300228D01*
X-28695137Y49410002D01*
X-28642769Y49463048D01*
X-28100951Y50012233D01*
X-28101570Y49925152D01*
G04 #@! TA.AperFunction,SMDPad,CuDef*
G36*
G01*
X-40420250Y34956000D02*
X-39907750Y34956000D01*
G75*
G02*
X-39689000Y34737250I0J-218750D01*
G01*
X-39689000Y34299750D01*
G75*
G02*
X-39907750Y34081000I-218750J0D01*
G01*
X-40420250Y34081000D01*
G75*
G02*
X-40639000Y34299750I0J218750D01*
G01*
X-40639000Y34737250D01*
G75*
G02*
X-40420250Y34956000I218750J0D01*
G01*
G37*
G04 #@! TD.AperFunction*
G04 #@! TA.AperFunction,SMDPad,CuDef*
G36*
G01*
X-40420250Y36531000D02*
X-39907750Y36531000D01*
G75*
G02*
X-39689000Y36312250I0J-218750D01*
G01*
X-39689000Y35874750D01*
G75*
G02*
X-39907750Y35656000I-218750J0D01*
G01*
X-40420250Y35656000D01*
G75*
G02*
X-40639000Y35874750I0J218750D01*
G01*
X-40639000Y36312250D01*
G75*
G02*
X-40420250Y36531000I218750J0D01*
G01*
G37*
G04 #@! TD.AperFunction*
G04 #@! TA.AperFunction,SMDPad,CuDef*
G36*
G01*
X-42325250Y34956000D02*
X-41812750Y34956000D01*
G75*
G02*
X-41594000Y34737250I0J-218750D01*
G01*
X-41594000Y34299750D01*
G75*
G02*
X-41812750Y34081000I-218750J0D01*
G01*
X-42325250Y34081000D01*
G75*
G02*
X-42544000Y34299750I0J218750D01*
G01*
X-42544000Y34737250D01*
G75*
G02*
X-42325250Y34956000I218750J0D01*
G01*
G37*
G04 #@! TD.AperFunction*
G04 #@! TA.AperFunction,SMDPad,CuDef*
G36*
G01*
X-42325250Y36531000D02*
X-41812750Y36531000D01*
G75*
G02*
X-41594000Y36312250I0J-218750D01*
G01*
X-41594000Y35874750D01*
G75*
G02*
X-41812750Y35656000I-218750J0D01*
G01*
X-42325250Y35656000D01*
G75*
G02*
X-42544000Y35874750I0J218750D01*
G01*
X-42544000Y36312250D01*
G75*
G02*
X-42325250Y36531000I218750J0D01*
G01*
G37*
G04 #@! TD.AperFunction*
D12*
X-45518600Y30820000D03*
X-48058600Y19390000D03*
D13*
X-51358600Y17355000D03*
X-51358600Y32845000D03*
D14*
X-59308600Y21015000D03*
X-59308600Y18475000D03*
X-59308600Y29185000D03*
X-59308600Y31725000D03*
D12*
X-45518600Y20660000D03*
X-48058600Y21930000D03*
X-45518600Y23200000D03*
X-48058600Y24470000D03*
X-45518600Y25740000D03*
X-48058600Y27010000D03*
X-45518600Y28280000D03*
D15*
X-48058600Y29550000D03*
G04 #@! TA.AperFunction,SMDPad,CuDef*
G36*
G01*
X-25804600Y34077750D02*
X-25804600Y34590250D01*
G75*
G02*
X-25585850Y34809000I218750J0D01*
G01*
X-25148350Y34809000D01*
G75*
G02*
X-24929600Y34590250I0J-218750D01*
G01*
X-24929600Y34077750D01*
G75*
G02*
X-25148350Y33859000I-218750J0D01*
G01*
X-25585850Y33859000D01*
G75*
G02*
X-25804600Y34077750I0J218750D01*
G01*
G37*
G04 #@! TD.AperFunction*
G04 #@! TA.AperFunction,SMDPad,CuDef*
G36*
G01*
X-27379600Y34077750D02*
X-27379600Y34590250D01*
G75*
G02*
X-27160850Y34809000I218750J0D01*
G01*
X-26723350Y34809000D01*
G75*
G02*
X-26504600Y34590250I0J-218750D01*
G01*
X-26504600Y34077750D01*
G75*
G02*
X-26723350Y33859000I-218750J0D01*
G01*
X-27160850Y33859000D01*
G75*
G02*
X-27379600Y34077750I0J218750D01*
G01*
G37*
G04 #@! TD.AperFunction*
G04 #@! TA.AperFunction,SMDPad,CuDef*
G36*
G01*
X-38406850Y22027500D02*
X-37894350Y22027500D01*
G75*
G02*
X-37675600Y21808750I0J-218750D01*
G01*
X-37675600Y21371250D01*
G75*
G02*
X-37894350Y21152500I-218750J0D01*
G01*
X-38406850Y21152500D01*
G75*
G02*
X-38625600Y21371250I0J218750D01*
G01*
X-38625600Y21808750D01*
G75*
G02*
X-38406850Y22027500I218750J0D01*
G01*
G37*
G04 #@! TD.AperFunction*
G04 #@! TA.AperFunction,SMDPad,CuDef*
G36*
G01*
X-38406850Y23602500D02*
X-37894350Y23602500D01*
G75*
G02*
X-37675600Y23383750I0J-218750D01*
G01*
X-37675600Y22946250D01*
G75*
G02*
X-37894350Y22727500I-218750J0D01*
G01*
X-38406850Y22727500D01*
G75*
G02*
X-38625600Y22946250I0J218750D01*
G01*
X-38625600Y23383750D01*
G75*
G02*
X-38406850Y23602500I218750J0D01*
G01*
G37*
G04 #@! TD.AperFunction*
G04 #@! TA.AperFunction,SMDPad,CuDef*
G36*
G01*
X-33830350Y13278500D02*
X-34342850Y13278500D01*
G75*
G02*
X-34561600Y13497250I0J218750D01*
G01*
X-34561600Y13934750D01*
G75*
G02*
X-34342850Y14153500I218750J0D01*
G01*
X-33830350Y14153500D01*
G75*
G02*
X-33611600Y13934750I0J-218750D01*
G01*
X-33611600Y13497250D01*
G75*
G02*
X-33830350Y13278500I-218750J0D01*
G01*
G37*
G04 #@! TD.AperFunction*
G04 #@! TA.AperFunction,SMDPad,CuDef*
G36*
G01*
X-33830350Y11703500D02*
X-34342850Y11703500D01*
G75*
G02*
X-34561600Y11922250I0J218750D01*
G01*
X-34561600Y12359750D01*
G75*
G02*
X-34342850Y12578500I218750J0D01*
G01*
X-33830350Y12578500D01*
G75*
G02*
X-33611600Y12359750I0J-218750D01*
G01*
X-33611600Y11922250D01*
G75*
G02*
X-33830350Y11703500I-218750J0D01*
G01*
G37*
G04 #@! TD.AperFunction*
G04 #@! TA.AperFunction,SMDPad,CuDef*
G36*
G01*
X-43990350Y11500500D02*
X-44502850Y11500500D01*
G75*
G02*
X-44721600Y11719250I0J218750D01*
G01*
X-44721600Y12156750D01*
G75*
G02*
X-44502850Y12375500I218750J0D01*
G01*
X-43990350Y12375500D01*
G75*
G02*
X-43771600Y12156750I0J-218750D01*
G01*
X-43771600Y11719250D01*
G75*
G02*
X-43990350Y11500500I-218750J0D01*
G01*
G37*
G04 #@! TD.AperFunction*
G04 #@! TA.AperFunction,SMDPad,CuDef*
G36*
G01*
X-43990350Y9925500D02*
X-44502850Y9925500D01*
G75*
G02*
X-44721600Y10144250I0J218750D01*
G01*
X-44721600Y10581750D01*
G75*
G02*
X-44502850Y10800500I218750J0D01*
G01*
X-43990350Y10800500D01*
G75*
G02*
X-43771600Y10581750I0J-218750D01*
G01*
X-43771600Y10144250D01*
G75*
G02*
X-43990350Y9925500I-218750J0D01*
G01*
G37*
G04 #@! TD.AperFunction*
D16*
X-5650000Y-996400D03*
X-6650000Y-996400D03*
X-650000Y-996400D03*
D17*
X-1650000Y-446400D03*
D16*
X-2650000Y-996400D03*
X-3650000Y-996400D03*
X-4650000Y-996400D03*
X-9650000Y-996400D03*
X-10650000Y-996400D03*
X-11650000Y-996400D03*
X-12650000Y-996400D03*
X-13650000Y-996400D03*
X-14650000Y-996400D03*
X-15650000Y-996400D03*
X-16650000Y-996400D03*
X-17650000Y-996400D03*
X-18650000Y-996400D03*
X-19650000Y-996400D03*
G04 #@! TA.AperFunction,SMDPad,CuDef*
G36*
G01*
X-13383350Y23083000D02*
X-13895850Y23083000D01*
G75*
G02*
X-14114600Y23301750I0J218750D01*
G01*
X-14114600Y23739250D01*
G75*
G02*
X-13895850Y23958000I218750J0D01*
G01*
X-13383350Y23958000D01*
G75*
G02*
X-13164600Y23739250I0J-218750D01*
G01*
X-13164600Y23301750D01*
G75*
G02*
X-13383350Y23083000I-218750J0D01*
G01*
G37*
G04 #@! TD.AperFunction*
G04 #@! TA.AperFunction,SMDPad,CuDef*
G36*
G01*
X-13383350Y21508000D02*
X-13895850Y21508000D01*
G75*
G02*
X-14114600Y21726750I0J218750D01*
G01*
X-14114600Y22164250D01*
G75*
G02*
X-13895850Y22383000I218750J0D01*
G01*
X-13383350Y22383000D01*
G75*
G02*
X-13164600Y22164250I0J-218750D01*
G01*
X-13164600Y21726750D01*
G75*
G02*
X-13383350Y21508000I-218750J0D01*
G01*
G37*
G04 #@! TD.AperFunction*
G04 #@! TA.AperFunction,SMDPad,CuDef*
G36*
G01*
X-10052600Y18925250D02*
X-10052600Y18412750D01*
G75*
G02*
X-10271350Y18194000I-218750J0D01*
G01*
X-10708850Y18194000D01*
G75*
G02*
X-10927600Y18412750I0J218750D01*
G01*
X-10927600Y18925250D01*
G75*
G02*
X-10708850Y19144000I218750J0D01*
G01*
X-10271350Y19144000D01*
G75*
G02*
X-10052600Y18925250I0J-218750D01*
G01*
G37*
G04 #@! TD.AperFunction*
G04 #@! TA.AperFunction,SMDPad,CuDef*
G36*
G01*
X-8477600Y18925250D02*
X-8477600Y18412750D01*
G75*
G02*
X-8696350Y18194000I-218750J0D01*
G01*
X-9133850Y18194000D01*
G75*
G02*
X-9352600Y18412750I0J218750D01*
G01*
X-9352600Y18925250D01*
G75*
G02*
X-9133850Y19144000I218750J0D01*
G01*
X-8696350Y19144000D01*
G75*
G02*
X-8477600Y18925250I0J-218750D01*
G01*
G37*
G04 #@! TD.AperFunction*
G04 #@! TA.AperFunction,SMDPad,CuDef*
G36*
G01*
X-16021600Y17020250D02*
X-16021600Y16507750D01*
G75*
G02*
X-16240350Y16289000I-218750J0D01*
G01*
X-16677850Y16289000D01*
G75*
G02*
X-16896600Y16507750I0J218750D01*
G01*
X-16896600Y17020250D01*
G75*
G02*
X-16677850Y17239000I218750J0D01*
G01*
X-16240350Y17239000D01*
G75*
G02*
X-16021600Y17020250I0J-218750D01*
G01*
G37*
G04 #@! TD.AperFunction*
G04 #@! TA.AperFunction,SMDPad,CuDef*
G36*
G01*
X-14446600Y17020250D02*
X-14446600Y16507750D01*
G75*
G02*
X-14665350Y16289000I-218750J0D01*
G01*
X-15102850Y16289000D01*
G75*
G02*
X-15321600Y16507750I0J218750D01*
G01*
X-15321600Y17020250D01*
G75*
G02*
X-15102850Y17239000I218750J0D01*
G01*
X-14665350Y17239000D01*
G75*
G02*
X-14446600Y17020250I0J-218750D01*
G01*
G37*
G04 #@! TD.AperFunction*
G04 #@! TA.AperFunction,SMDPad,CuDef*
G36*
G01*
X-3728100Y29974250D02*
X-3728100Y29461750D01*
G75*
G02*
X-3946850Y29243000I-218750J0D01*
G01*
X-4384350Y29243000D01*
G75*
G02*
X-4603100Y29461750I0J218750D01*
G01*
X-4603100Y29974250D01*
G75*
G02*
X-4384350Y30193000I218750J0D01*
G01*
X-3946850Y30193000D01*
G75*
G02*
X-3728100Y29974250I0J-218750D01*
G01*
G37*
G04 #@! TD.AperFunction*
G04 #@! TA.AperFunction,SMDPad,CuDef*
G36*
G01*
X-2153100Y29974250D02*
X-2153100Y29461750D01*
G75*
G02*
X-2371850Y29243000I-218750J0D01*
G01*
X-2809350Y29243000D01*
G75*
G02*
X-3028100Y29461750I0J218750D01*
G01*
X-3028100Y29974250D01*
G75*
G02*
X-2809350Y30193000I218750J0D01*
G01*
X-2371850Y30193000D01*
G75*
G02*
X-2153100Y29974250I0J-218750D01*
G01*
G37*
G04 #@! TD.AperFunction*
G04 #@! TA.AperFunction,SMDPad,CuDef*
G36*
G01*
X-10052600Y20576250D02*
X-10052600Y20063750D01*
G75*
G02*
X-10271350Y19845000I-218750J0D01*
G01*
X-10708850Y19845000D01*
G75*
G02*
X-10927600Y20063750I0J218750D01*
G01*
X-10927600Y20576250D01*
G75*
G02*
X-10708850Y20795000I218750J0D01*
G01*
X-10271350Y20795000D01*
G75*
G02*
X-10052600Y20576250I0J-218750D01*
G01*
G37*
G04 #@! TD.AperFunction*
G04 #@! TA.AperFunction,SMDPad,CuDef*
G36*
G01*
X-8477600Y20576250D02*
X-8477600Y20063750D01*
G75*
G02*
X-8696350Y19845000I-218750J0D01*
G01*
X-9133850Y19845000D01*
G75*
G02*
X-9352600Y20063750I0J218750D01*
G01*
X-9352600Y20576250D01*
G75*
G02*
X-9133850Y20795000I218750J0D01*
G01*
X-8696350Y20795000D01*
G75*
G02*
X-8477600Y20576250I0J-218750D01*
G01*
G37*
G04 #@! TD.AperFunction*
G04 #@! TA.AperFunction,SMDPad,CuDef*
G36*
G01*
X-12244850Y22383000D02*
X-11732350Y22383000D01*
G75*
G02*
X-11513600Y22164250I0J-218750D01*
G01*
X-11513600Y21726750D01*
G75*
G02*
X-11732350Y21508000I-218750J0D01*
G01*
X-12244850Y21508000D01*
G75*
G02*
X-12463600Y21726750I0J218750D01*
G01*
X-12463600Y22164250D01*
G75*
G02*
X-12244850Y22383000I218750J0D01*
G01*
G37*
G04 #@! TD.AperFunction*
G04 #@! TA.AperFunction,SMDPad,CuDef*
G36*
G01*
X-12244850Y23958000D02*
X-11732350Y23958000D01*
G75*
G02*
X-11513600Y23739250I0J-218750D01*
G01*
X-11513600Y23301750D01*
G75*
G02*
X-11732350Y23083000I-218750J0D01*
G01*
X-12244850Y23083000D01*
G75*
G02*
X-12463600Y23301750I0J218750D01*
G01*
X-12463600Y23739250D01*
G75*
G02*
X-12244850Y23958000I218750J0D01*
G01*
G37*
G04 #@! TD.AperFunction*
G04 #@! TA.AperFunction,SMDPad,CuDef*
G36*
G01*
X-56849350Y36697500D02*
X-57361850Y36697500D01*
G75*
G02*
X-57580600Y36916250I0J218750D01*
G01*
X-57580600Y37353750D01*
G75*
G02*
X-57361850Y37572500I218750J0D01*
G01*
X-56849350Y37572500D01*
G75*
G02*
X-56630600Y37353750I0J-218750D01*
G01*
X-56630600Y36916250D01*
G75*
G02*
X-56849350Y36697500I-218750J0D01*
G01*
G37*
G04 #@! TD.AperFunction*
G04 #@! TA.AperFunction,SMDPad,CuDef*
G36*
G01*
X-56849350Y35122500D02*
X-57361850Y35122500D01*
G75*
G02*
X-57580600Y35341250I0J218750D01*
G01*
X-57580600Y35778750D01*
G75*
G02*
X-57361850Y35997500I218750J0D01*
G01*
X-56849350Y35997500D01*
G75*
G02*
X-56630600Y35778750I0J-218750D01*
G01*
X-56630600Y35341250D01*
G75*
G02*
X-56849350Y35122500I-218750J0D01*
G01*
G37*
G04 #@! TD.AperFunction*
G04 #@! TA.AperFunction,SMDPad,CuDef*
G36*
G01*
X-59008350Y36697500D02*
X-59520850Y36697500D01*
G75*
G02*
X-59739600Y36916250I0J218750D01*
G01*
X-59739600Y37353750D01*
G75*
G02*
X-59520850Y37572500I218750J0D01*
G01*
X-59008350Y37572500D01*
G75*
G02*
X-58789600Y37353750I0J-218750D01*
G01*
X-58789600Y36916250D01*
G75*
G02*
X-59008350Y36697500I-218750J0D01*
G01*
G37*
G04 #@! TD.AperFunction*
G04 #@! TA.AperFunction,SMDPad,CuDef*
G36*
G01*
X-59008350Y35122500D02*
X-59520850Y35122500D01*
G75*
G02*
X-59739600Y35341250I0J218750D01*
G01*
X-59739600Y35778750D01*
G75*
G02*
X-59520850Y35997500I218750J0D01*
G01*
X-59008350Y35997500D01*
G75*
G02*
X-58789600Y35778750I0J-218750D01*
G01*
X-58789600Y35341250D01*
G75*
G02*
X-59008350Y35122500I-218750J0D01*
G01*
G37*
G04 #@! TD.AperFunction*
G04 #@! TA.AperFunction,SMDPad,CuDef*
G36*
G01*
X-59361850Y13137500D02*
X-58849350Y13137500D01*
G75*
G02*
X-58630600Y12918750I0J-218750D01*
G01*
X-58630600Y12481250D01*
G75*
G02*
X-58849350Y12262500I-218750J0D01*
G01*
X-59361850Y12262500D01*
G75*
G02*
X-59580600Y12481250I0J218750D01*
G01*
X-59580600Y12918750D01*
G75*
G02*
X-59361850Y13137500I218750J0D01*
G01*
G37*
G04 #@! TD.AperFunction*
G04 #@! TA.AperFunction,SMDPad,CuDef*
G36*
G01*
X-59361850Y14712500D02*
X-58849350Y14712500D01*
G75*
G02*
X-58630600Y14493750I0J-218750D01*
G01*
X-58630600Y14056250D01*
G75*
G02*
X-58849350Y13837500I-218750J0D01*
G01*
X-59361850Y13837500D01*
G75*
G02*
X-59580600Y14056250I0J218750D01*
G01*
X-59580600Y14493750D01*
G75*
G02*
X-59361850Y14712500I218750J0D01*
G01*
G37*
G04 #@! TD.AperFunction*
G04 #@! TA.AperFunction,SMDPad,CuDef*
G36*
G01*
X-61520850Y13137500D02*
X-61008350Y13137500D01*
G75*
G02*
X-60789600Y12918750I0J-218750D01*
G01*
X-60789600Y12481250D01*
G75*
G02*
X-61008350Y12262500I-218750J0D01*
G01*
X-61520850Y12262500D01*
G75*
G02*
X-61739600Y12481250I0J218750D01*
G01*
X-61739600Y12918750D01*
G75*
G02*
X-61520850Y13137500I218750J0D01*
G01*
G37*
G04 #@! TD.AperFunction*
G04 #@! TA.AperFunction,SMDPad,CuDef*
G36*
G01*
X-61520850Y14712500D02*
X-61008350Y14712500D01*
G75*
G02*
X-60789600Y14493750I0J-218750D01*
G01*
X-60789600Y14056250D01*
G75*
G02*
X-61008350Y13837500I-218750J0D01*
G01*
X-61520850Y13837500D01*
G75*
G02*
X-61739600Y14056250I0J218750D01*
G01*
X-61739600Y14493750D01*
G75*
G02*
X-61520850Y14712500I218750J0D01*
G01*
G37*
G04 #@! TD.AperFunction*
D18*
X-8305600Y24838000D03*
X-8305600Y29718000D03*
G04 #@! TA.AperFunction,SMDPad,CuDef*
G36*
G01*
X-13895850Y29749000D02*
X-13383350Y29749000D01*
G75*
G02*
X-13164600Y29530250I0J-218750D01*
G01*
X-13164600Y29092750D01*
G75*
G02*
X-13383350Y28874000I-218750J0D01*
G01*
X-13895850Y28874000D01*
G75*
G02*
X-14114600Y29092750I0J218750D01*
G01*
X-14114600Y29530250D01*
G75*
G02*
X-13895850Y29749000I218750J0D01*
G01*
G37*
G04 #@! TD.AperFunction*
G04 #@! TA.AperFunction,SMDPad,CuDef*
G36*
G01*
X-13895850Y31324000D02*
X-13383350Y31324000D01*
G75*
G02*
X-13164600Y31105250I0J-218750D01*
G01*
X-13164600Y30667750D01*
G75*
G02*
X-13383350Y30449000I-218750J0D01*
G01*
X-13895850Y30449000D01*
G75*
G02*
X-14114600Y30667750I0J218750D01*
G01*
X-14114600Y31105250D01*
G75*
G02*
X-13895850Y31324000I218750J0D01*
G01*
G37*
G04 #@! TD.AperFunction*
G04 #@! TA.AperFunction,SMDPad,CuDef*
G36*
G01*
X-23006600Y33911250D02*
X-23006600Y33398750D01*
G75*
G02*
X-23225350Y33180000I-218750J0D01*
G01*
X-23662850Y33180000D01*
G75*
G02*
X-23881600Y33398750I0J218750D01*
G01*
X-23881600Y33911250D01*
G75*
G02*
X-23662850Y34130000I218750J0D01*
G01*
X-23225350Y34130000D01*
G75*
G02*
X-23006600Y33911250I0J-218750D01*
G01*
G37*
G04 #@! TD.AperFunction*
G04 #@! TA.AperFunction,SMDPad,CuDef*
G36*
G01*
X-21431600Y33911250D02*
X-21431600Y33398750D01*
G75*
G02*
X-21650350Y33180000I-218750J0D01*
G01*
X-22087850Y33180000D01*
G75*
G02*
X-22306600Y33398750I0J218750D01*
G01*
X-22306600Y33911250D01*
G75*
G02*
X-22087850Y34130000I218750J0D01*
G01*
X-21650350Y34130000D01*
G75*
G02*
X-21431600Y33911250I0J-218750D01*
G01*
G37*
G04 #@! TD.AperFunction*
G04 #@! TA.AperFunction,SMDPad,CuDef*
G36*
G01*
X-20499850Y34067000D02*
X-19987350Y34067000D01*
G75*
G02*
X-19768600Y33848250I0J-218750D01*
G01*
X-19768600Y33410750D01*
G75*
G02*
X-19987350Y33192000I-218750J0D01*
G01*
X-20499850Y33192000D01*
G75*
G02*
X-20718600Y33410750I0J218750D01*
G01*
X-20718600Y33848250D01*
G75*
G02*
X-20499850Y34067000I218750J0D01*
G01*
G37*
G04 #@! TD.AperFunction*
G04 #@! TA.AperFunction,SMDPad,CuDef*
G36*
G01*
X-20499850Y35642000D02*
X-19987350Y35642000D01*
G75*
G02*
X-19768600Y35423250I0J-218750D01*
G01*
X-19768600Y34985750D01*
G75*
G02*
X-19987350Y34767000I-218750J0D01*
G01*
X-20499850Y34767000D01*
G75*
G02*
X-20718600Y34985750I0J218750D01*
G01*
X-20718600Y35423250D01*
G75*
G02*
X-20499850Y35642000I218750J0D01*
G01*
G37*
G04 #@! TD.AperFunction*
G04 #@! TA.AperFunction,SMDPad,CuDef*
G36*
G01*
X-3702600Y25021250D02*
X-3702600Y24508750D01*
G75*
G02*
X-3921350Y24290000I-218750J0D01*
G01*
X-4358850Y24290000D01*
G75*
G02*
X-4577600Y24508750I0J218750D01*
G01*
X-4577600Y25021250D01*
G75*
G02*
X-4358850Y25240000I218750J0D01*
G01*
X-3921350Y25240000D01*
G75*
G02*
X-3702600Y25021250I0J-218750D01*
G01*
G37*
G04 #@! TD.AperFunction*
G04 #@! TA.AperFunction,SMDPad,CuDef*
G36*
G01*
X-2127600Y25021250D02*
X-2127600Y24508750D01*
G75*
G02*
X-2346350Y24290000I-218750J0D01*
G01*
X-2783850Y24290000D01*
G75*
G02*
X-3002600Y24508750I0J218750D01*
G01*
X-3002600Y25021250D01*
G75*
G02*
X-2783850Y25240000I218750J0D01*
G01*
X-2346350Y25240000D01*
G75*
G02*
X-2127600Y25021250I0J-218750D01*
G01*
G37*
G04 #@! TD.AperFunction*
G04 #@! TA.AperFunction,SMDPad,CuDef*
G36*
G01*
X-24813350Y13304000D02*
X-25325850Y13304000D01*
G75*
G02*
X-25544600Y13522750I0J218750D01*
G01*
X-25544600Y13960250D01*
G75*
G02*
X-25325850Y14179000I218750J0D01*
G01*
X-24813350Y14179000D01*
G75*
G02*
X-24594600Y13960250I0J-218750D01*
G01*
X-24594600Y13522750D01*
G75*
G02*
X-24813350Y13304000I-218750J0D01*
G01*
G37*
G04 #@! TD.AperFunction*
G04 #@! TA.AperFunction,SMDPad,CuDef*
G36*
G01*
X-24813350Y11729000D02*
X-25325850Y11729000D01*
G75*
G02*
X-25544600Y11947750I0J218750D01*
G01*
X-25544600Y12385250D01*
G75*
G02*
X-25325850Y12604000I218750J0D01*
G01*
X-24813350Y12604000D01*
G75*
G02*
X-24594600Y12385250I0J-218750D01*
G01*
X-24594600Y11947750D01*
G75*
G02*
X-24813350Y11729000I-218750J0D01*
G01*
G37*
G04 #@! TD.AperFunction*
G04 #@! TA.AperFunction,SMDPad,CuDef*
G36*
G01*
X-25194350Y16479000D02*
X-25706850Y16479000D01*
G75*
G02*
X-25925600Y16697750I0J218750D01*
G01*
X-25925600Y17135250D01*
G75*
G02*
X-25706850Y17354000I218750J0D01*
G01*
X-25194350Y17354000D01*
G75*
G02*
X-24975600Y17135250I0J-218750D01*
G01*
X-24975600Y16697750D01*
G75*
G02*
X-25194350Y16479000I-218750J0D01*
G01*
G37*
G04 #@! TD.AperFunction*
G04 #@! TA.AperFunction,SMDPad,CuDef*
G36*
G01*
X-25194350Y14904000D02*
X-25706850Y14904000D01*
G75*
G02*
X-25925600Y15122750I0J218750D01*
G01*
X-25925600Y15560250D01*
G75*
G02*
X-25706850Y15779000I218750J0D01*
G01*
X-25194350Y15779000D01*
G75*
G02*
X-24975600Y15560250I0J-218750D01*
G01*
X-24975600Y15122750D01*
G75*
G02*
X-25194350Y14904000I-218750J0D01*
G01*
G37*
G04 #@! TD.AperFunction*
G04 #@! TA.AperFunction,SMDPad,CuDef*
G36*
G01*
X-10027100Y17274250D02*
X-10027100Y16761750D01*
G75*
G02*
X-10245850Y16543000I-218750J0D01*
G01*
X-10683350Y16543000D01*
G75*
G02*
X-10902100Y16761750I0J218750D01*
G01*
X-10902100Y17274250D01*
G75*
G02*
X-10683350Y17493000I218750J0D01*
G01*
X-10245850Y17493000D01*
G75*
G02*
X-10027100Y17274250I0J-218750D01*
G01*
G37*
G04 #@! TD.AperFunction*
G04 #@! TA.AperFunction,SMDPad,CuDef*
G36*
G01*
X-8452100Y17274250D02*
X-8452100Y16761750D01*
G75*
G02*
X-8670850Y16543000I-218750J0D01*
G01*
X-9108350Y16543000D01*
G75*
G02*
X-9327100Y16761750I0J218750D01*
G01*
X-9327100Y17274250D01*
G75*
G02*
X-9108350Y17493000I218750J0D01*
G01*
X-8670850Y17493000D01*
G75*
G02*
X-8452100Y17274250I0J-218750D01*
G01*
G37*
G04 #@! TD.AperFunction*
G04 #@! TA.AperFunction,SMDPad,CuDef*
G36*
G01*
X-28529600Y10030750D02*
X-28529600Y10543250D01*
G75*
G02*
X-28310850Y10762000I218750J0D01*
G01*
X-27873350Y10762000D01*
G75*
G02*
X-27654600Y10543250I0J-218750D01*
G01*
X-27654600Y10030750D01*
G75*
G02*
X-27873350Y9812000I-218750J0D01*
G01*
X-28310850Y9812000D01*
G75*
G02*
X-28529600Y10030750I0J218750D01*
G01*
G37*
G04 #@! TD.AperFunction*
G04 #@! TA.AperFunction,SMDPad,CuDef*
G36*
G01*
X-30104600Y10030750D02*
X-30104600Y10543250D01*
G75*
G02*
X-29885850Y10762000I218750J0D01*
G01*
X-29448350Y10762000D01*
G75*
G02*
X-29229600Y10543250I0J-218750D01*
G01*
X-29229600Y10030750D01*
G75*
G02*
X-29448350Y9812000I-218750J0D01*
G01*
X-29885850Y9812000D01*
G75*
G02*
X-30104600Y10030750I0J218750D01*
G01*
G37*
G04 #@! TD.AperFunction*
G04 #@! TA.AperFunction,SMDPad,CuDef*
G36*
G01*
X-27767600Y20698750D02*
X-27767600Y21211250D01*
G75*
G02*
X-27548850Y21430000I218750J0D01*
G01*
X-27111350Y21430000D01*
G75*
G02*
X-26892600Y21211250I0J-218750D01*
G01*
X-26892600Y20698750D01*
G75*
G02*
X-27111350Y20480000I-218750J0D01*
G01*
X-27548850Y20480000D01*
G75*
G02*
X-27767600Y20698750I0J218750D01*
G01*
G37*
G04 #@! TD.AperFunction*
G04 #@! TA.AperFunction,SMDPad,CuDef*
G36*
G01*
X-29342600Y20698750D02*
X-29342600Y21211250D01*
G75*
G02*
X-29123850Y21430000I218750J0D01*
G01*
X-28686350Y21430000D01*
G75*
G02*
X-28467600Y21211250I0J-218750D01*
G01*
X-28467600Y20698750D01*
G75*
G02*
X-28686350Y20480000I-218750J0D01*
G01*
X-29123850Y20480000D01*
G75*
G02*
X-29342600Y20698750I0J218750D01*
G01*
G37*
G04 #@! TD.AperFunction*
G04 #@! TA.AperFunction,SMDPad,CuDef*
G36*
G01*
X-27767600Y22349750D02*
X-27767600Y22862250D01*
G75*
G02*
X-27548850Y23081000I218750J0D01*
G01*
X-27111350Y23081000D01*
G75*
G02*
X-26892600Y22862250I0J-218750D01*
G01*
X-26892600Y22349750D01*
G75*
G02*
X-27111350Y22131000I-218750J0D01*
G01*
X-27548850Y22131000D01*
G75*
G02*
X-27767600Y22349750I0J218750D01*
G01*
G37*
G04 #@! TD.AperFunction*
G04 #@! TA.AperFunction,SMDPad,CuDef*
G36*
G01*
X-29342600Y22349750D02*
X-29342600Y22862250D01*
G75*
G02*
X-29123850Y23081000I218750J0D01*
G01*
X-28686350Y23081000D01*
G75*
G02*
X-28467600Y22862250I0J-218750D01*
G01*
X-28467600Y22349750D01*
G75*
G02*
X-28686350Y22131000I-218750J0D01*
G01*
X-29123850Y22131000D01*
G75*
G02*
X-29342600Y22349750I0J218750D01*
G01*
G37*
G04 #@! TD.AperFunction*
G04 #@! TA.AperFunction,SMDPad,CuDef*
G36*
G01*
X-30942600Y23365750D02*
X-30942600Y23878250D01*
G75*
G02*
X-30723850Y24097000I218750J0D01*
G01*
X-30286350Y24097000D01*
G75*
G02*
X-30067600Y23878250I0J-218750D01*
G01*
X-30067600Y23365750D01*
G75*
G02*
X-30286350Y23147000I-218750J0D01*
G01*
X-30723850Y23147000D01*
G75*
G02*
X-30942600Y23365750I0J218750D01*
G01*
G37*
G04 #@! TD.AperFunction*
G04 #@! TA.AperFunction,SMDPad,CuDef*
G36*
G01*
X-32517600Y23365750D02*
X-32517600Y23878250D01*
G75*
G02*
X-32298850Y24097000I218750J0D01*
G01*
X-31861350Y24097000D01*
G75*
G02*
X-31642600Y23878250I0J-218750D01*
G01*
X-31642600Y23365750D01*
G75*
G02*
X-31861350Y23147000I-218750J0D01*
G01*
X-32298850Y23147000D01*
G75*
G02*
X-32517600Y23365750I0J218750D01*
G01*
G37*
G04 #@! TD.AperFunction*
G04 #@! TA.AperFunction,SMDPad,CuDef*
G36*
G01*
X-6304800Y11435350D02*
X-6304800Y11947850D01*
G75*
G02*
X-6086050Y12166600I218750J0D01*
G01*
X-5648550Y12166600D01*
G75*
G02*
X-5429800Y11947850I0J-218750D01*
G01*
X-5429800Y11435350D01*
G75*
G02*
X-5648550Y11216600I-218750J0D01*
G01*
X-6086050Y11216600D01*
G75*
G02*
X-6304800Y11435350I0J218750D01*
G01*
G37*
G04 #@! TD.AperFunction*
G04 #@! TA.AperFunction,SMDPad,CuDef*
G36*
G01*
X-7879800Y11435350D02*
X-7879800Y11947850D01*
G75*
G02*
X-7661050Y12166600I218750J0D01*
G01*
X-7223550Y12166600D01*
G75*
G02*
X-7004800Y11947850I0J-218750D01*
G01*
X-7004800Y11435350D01*
G75*
G02*
X-7223550Y11216600I-218750J0D01*
G01*
X-7661050Y11216600D01*
G75*
G02*
X-7879800Y11435350I0J218750D01*
G01*
G37*
G04 #@! TD.AperFunction*
G04 #@! TA.AperFunction,SMDPad,CuDef*
G36*
G01*
X-6304800Y9657350D02*
X-6304800Y10169850D01*
G75*
G02*
X-6086050Y10388600I218750J0D01*
G01*
X-5648550Y10388600D01*
G75*
G02*
X-5429800Y10169850I0J-218750D01*
G01*
X-5429800Y9657350D01*
G75*
G02*
X-5648550Y9438600I-218750J0D01*
G01*
X-6086050Y9438600D01*
G75*
G02*
X-6304800Y9657350I0J218750D01*
G01*
G37*
G04 #@! TD.AperFunction*
G04 #@! TA.AperFunction,SMDPad,CuDef*
G36*
G01*
X-7879800Y9657350D02*
X-7879800Y10169850D01*
G75*
G02*
X-7661050Y10388600I218750J0D01*
G01*
X-7223550Y10388600D01*
G75*
G02*
X-7004800Y10169850I0J-218750D01*
G01*
X-7004800Y9657350D01*
G75*
G02*
X-7223550Y9438600I-218750J0D01*
G01*
X-7661050Y9438600D01*
G75*
G02*
X-7879800Y9657350I0J218750D01*
G01*
G37*
G04 #@! TD.AperFunction*
G04 #@! TA.AperFunction,SMDPad,CuDef*
G36*
G01*
X-41048600Y18294000D02*
X-41348600Y18294000D01*
G75*
G02*
X-41498600Y18444000I0J150000D01*
G01*
X-41498600Y19744000D01*
G75*
G02*
X-41348600Y19894000I150000J0D01*
G01*
X-41048600Y19894000D01*
G75*
G02*
X-40898600Y19744000I0J-150000D01*
G01*
X-40898600Y18444000D01*
G75*
G02*
X-41048600Y18294000I-150000J0D01*
G01*
G37*
G04 #@! TD.AperFunction*
G04 #@! TA.AperFunction,SMDPad,CuDef*
G36*
G01*
X-39778600Y18294000D02*
X-40078600Y18294000D01*
G75*
G02*
X-40228600Y18444000I0J150000D01*
G01*
X-40228600Y19744000D01*
G75*
G02*
X-40078600Y19894000I150000J0D01*
G01*
X-39778600Y19894000D01*
G75*
G02*
X-39628600Y19744000I0J-150000D01*
G01*
X-39628600Y18444000D01*
G75*
G02*
X-39778600Y18294000I-150000J0D01*
G01*
G37*
G04 #@! TD.AperFunction*
G04 #@! TA.AperFunction,SMDPad,CuDef*
G36*
G01*
X-38508600Y18294000D02*
X-38808600Y18294000D01*
G75*
G02*
X-38958600Y18444000I0J150000D01*
G01*
X-38958600Y19744000D01*
G75*
G02*
X-38808600Y19894000I150000J0D01*
G01*
X-38508600Y19894000D01*
G75*
G02*
X-38358600Y19744000I0J-150000D01*
G01*
X-38358600Y18444000D01*
G75*
G02*
X-38508600Y18294000I-150000J0D01*
G01*
G37*
G04 #@! TD.AperFunction*
G04 #@! TA.AperFunction,SMDPad,CuDef*
G36*
G01*
X-37238600Y18294000D02*
X-37538600Y18294000D01*
G75*
G02*
X-37688600Y18444000I0J150000D01*
G01*
X-37688600Y19744000D01*
G75*
G02*
X-37538600Y19894000I150000J0D01*
G01*
X-37238600Y19894000D01*
G75*
G02*
X-37088600Y19744000I0J-150000D01*
G01*
X-37088600Y18444000D01*
G75*
G02*
X-37238600Y18294000I-150000J0D01*
G01*
G37*
G04 #@! TD.AperFunction*
G04 #@! TA.AperFunction,SMDPad,CuDef*
G36*
G01*
X-37238600Y11094000D02*
X-37538600Y11094000D01*
G75*
G02*
X-37688600Y11244000I0J150000D01*
G01*
X-37688600Y12544000D01*
G75*
G02*
X-37538600Y12694000I150000J0D01*
G01*
X-37238600Y12694000D01*
G75*
G02*
X-37088600Y12544000I0J-150000D01*
G01*
X-37088600Y11244000D01*
G75*
G02*
X-37238600Y11094000I-150000J0D01*
G01*
G37*
G04 #@! TD.AperFunction*
G04 #@! TA.AperFunction,SMDPad,CuDef*
G36*
G01*
X-38508600Y11094000D02*
X-38808600Y11094000D01*
G75*
G02*
X-38958600Y11244000I0J150000D01*
G01*
X-38958600Y12544000D01*
G75*
G02*
X-38808600Y12694000I150000J0D01*
G01*
X-38508600Y12694000D01*
G75*
G02*
X-38358600Y12544000I0J-150000D01*
G01*
X-38358600Y11244000D01*
G75*
G02*
X-38508600Y11094000I-150000J0D01*
G01*
G37*
G04 #@! TD.AperFunction*
G04 #@! TA.AperFunction,SMDPad,CuDef*
G36*
G01*
X-39778600Y11094000D02*
X-40078600Y11094000D01*
G75*
G02*
X-40228600Y11244000I0J150000D01*
G01*
X-40228600Y12544000D01*
G75*
G02*
X-40078600Y12694000I150000J0D01*
G01*
X-39778600Y12694000D01*
G75*
G02*
X-39628600Y12544000I0J-150000D01*
G01*
X-39628600Y11244000D01*
G75*
G02*
X-39778600Y11094000I-150000J0D01*
G01*
G37*
G04 #@! TD.AperFunction*
G04 #@! TA.AperFunction,SMDPad,CuDef*
G36*
G01*
X-41048600Y11094000D02*
X-41348600Y11094000D01*
G75*
G02*
X-41498600Y11244000I0J150000D01*
G01*
X-41498600Y12544000D01*
G75*
G02*
X-41348600Y12694000I150000J0D01*
G01*
X-41048600Y12694000D01*
G75*
G02*
X-40898600Y12544000I0J-150000D01*
G01*
X-40898600Y11244000D01*
G75*
G02*
X-41048600Y11094000I-150000J0D01*
G01*
G37*
G04 #@! TD.AperFunction*
G04 #@! TA.AperFunction,SMDPad,CuDef*
G36*
G01*
X-30942600Y26667750D02*
X-30942600Y27180250D01*
G75*
G02*
X-30723850Y27399000I218750J0D01*
G01*
X-30286350Y27399000D01*
G75*
G02*
X-30067600Y27180250I0J-218750D01*
G01*
X-30067600Y26667750D01*
G75*
G02*
X-30286350Y26449000I-218750J0D01*
G01*
X-30723850Y26449000D01*
G75*
G02*
X-30942600Y26667750I0J218750D01*
G01*
G37*
G04 #@! TD.AperFunction*
G04 #@! TA.AperFunction,SMDPad,CuDef*
G36*
G01*
X-32517600Y26667750D02*
X-32517600Y27180250D01*
G75*
G02*
X-32298850Y27399000I218750J0D01*
G01*
X-31861350Y27399000D01*
G75*
G02*
X-31642600Y27180250I0J-218750D01*
G01*
X-31642600Y26667750D01*
G75*
G02*
X-31861350Y26449000I-218750J0D01*
G01*
X-32298850Y26449000D01*
G75*
G02*
X-32517600Y26667750I0J218750D01*
G01*
G37*
G04 #@! TD.AperFunction*
G04 #@! TA.AperFunction,SMDPad,CuDef*
G36*
G01*
X-27767600Y24000750D02*
X-27767600Y24513250D01*
G75*
G02*
X-27548850Y24732000I218750J0D01*
G01*
X-27111350Y24732000D01*
G75*
G02*
X-26892600Y24513250I0J-218750D01*
G01*
X-26892600Y24000750D01*
G75*
G02*
X-27111350Y23782000I-218750J0D01*
G01*
X-27548850Y23782000D01*
G75*
G02*
X-27767600Y24000750I0J218750D01*
G01*
G37*
G04 #@! TD.AperFunction*
G04 #@! TA.AperFunction,SMDPad,CuDef*
G36*
G01*
X-29342600Y24000750D02*
X-29342600Y24513250D01*
G75*
G02*
X-29123850Y24732000I218750J0D01*
G01*
X-28686350Y24732000D01*
G75*
G02*
X-28467600Y24513250I0J-218750D01*
G01*
X-28467600Y24000750D01*
G75*
G02*
X-28686350Y23782000I-218750J0D01*
G01*
X-29123850Y23782000D01*
G75*
G02*
X-29342600Y24000750I0J218750D01*
G01*
G37*
G04 #@! TD.AperFunction*
G04 #@! TA.AperFunction,SMDPad,CuDef*
G36*
G01*
X-27767600Y25651750D02*
X-27767600Y26164250D01*
G75*
G02*
X-27548850Y26383000I218750J0D01*
G01*
X-27111350Y26383000D01*
G75*
G02*
X-26892600Y26164250I0J-218750D01*
G01*
X-26892600Y25651750D01*
G75*
G02*
X-27111350Y25433000I-218750J0D01*
G01*
X-27548850Y25433000D01*
G75*
G02*
X-27767600Y25651750I0J218750D01*
G01*
G37*
G04 #@! TD.AperFunction*
G04 #@! TA.AperFunction,SMDPad,CuDef*
G36*
G01*
X-29342600Y25651750D02*
X-29342600Y26164250D01*
G75*
G02*
X-29123850Y26383000I218750J0D01*
G01*
X-28686350Y26383000D01*
G75*
G02*
X-28467600Y26164250I0J-218750D01*
G01*
X-28467600Y25651750D01*
G75*
G02*
X-28686350Y25433000I-218750J0D01*
G01*
X-29123850Y25433000D01*
G75*
G02*
X-29342600Y25651750I0J218750D01*
G01*
G37*
G04 #@! TD.AperFunction*
G04 #@! TA.AperFunction,SMDPad,CuDef*
G36*
G01*
X-30942600Y25016750D02*
X-30942600Y25529250D01*
G75*
G02*
X-30723850Y25748000I218750J0D01*
G01*
X-30286350Y25748000D01*
G75*
G02*
X-30067600Y25529250I0J-218750D01*
G01*
X-30067600Y25016750D01*
G75*
G02*
X-30286350Y24798000I-218750J0D01*
G01*
X-30723850Y24798000D01*
G75*
G02*
X-30942600Y25016750I0J218750D01*
G01*
G37*
G04 #@! TD.AperFunction*
G04 #@! TA.AperFunction,SMDPad,CuDef*
G36*
G01*
X-32517600Y25016750D02*
X-32517600Y25529250D01*
G75*
G02*
X-32298850Y25748000I218750J0D01*
G01*
X-31861350Y25748000D01*
G75*
G02*
X-31642600Y25529250I0J-218750D01*
G01*
X-31642600Y25016750D01*
G75*
G02*
X-31861350Y24798000I-218750J0D01*
G01*
X-32298850Y24798000D01*
G75*
G02*
X-32517600Y25016750I0J218750D01*
G01*
G37*
G04 #@! TD.AperFunction*
G04 #@! TA.AperFunction,SMDPad,CuDef*
G36*
G01*
X-27767600Y27302750D02*
X-27767600Y27815250D01*
G75*
G02*
X-27548850Y28034000I218750J0D01*
G01*
X-27111350Y28034000D01*
G75*
G02*
X-26892600Y27815250I0J-218750D01*
G01*
X-26892600Y27302750D01*
G75*
G02*
X-27111350Y27084000I-218750J0D01*
G01*
X-27548850Y27084000D01*
G75*
G02*
X-27767600Y27302750I0J218750D01*
G01*
G37*
G04 #@! TD.AperFunction*
G04 #@! TA.AperFunction,SMDPad,CuDef*
G36*
G01*
X-29342600Y27302750D02*
X-29342600Y27815250D01*
G75*
G02*
X-29123850Y28034000I218750J0D01*
G01*
X-28686350Y28034000D01*
G75*
G02*
X-28467600Y27815250I0J-218750D01*
G01*
X-28467600Y27302750D01*
G75*
G02*
X-28686350Y27084000I-218750J0D01*
G01*
X-29123850Y27084000D01*
G75*
G02*
X-29342600Y27302750I0J218750D01*
G01*
G37*
G04 #@! TD.AperFunction*
G04 #@! TA.AperFunction,SMDPad,CuDef*
G36*
G01*
X-27611850Y29622000D02*
X-27099350Y29622000D01*
G75*
G02*
X-26880600Y29403250I0J-218750D01*
G01*
X-26880600Y28965750D01*
G75*
G02*
X-27099350Y28747000I-218750J0D01*
G01*
X-27611850Y28747000D01*
G75*
G02*
X-27830600Y28965750I0J218750D01*
G01*
X-27830600Y29403250D01*
G75*
G02*
X-27611850Y29622000I218750J0D01*
G01*
G37*
G04 #@! TD.AperFunction*
G04 #@! TA.AperFunction,SMDPad,CuDef*
G36*
G01*
X-27611850Y31197000D02*
X-27099350Y31197000D01*
G75*
G02*
X-26880600Y30978250I0J-218750D01*
G01*
X-26880600Y30540750D01*
G75*
G02*
X-27099350Y30322000I-218750J0D01*
G01*
X-27611850Y30322000D01*
G75*
G02*
X-27830600Y30540750I0J218750D01*
G01*
X-27830600Y30978250D01*
G75*
G02*
X-27611850Y31197000I218750J0D01*
G01*
G37*
G04 #@! TD.AperFunction*
G04 #@! TA.AperFunction,SMDPad,CuDef*
G36*
G01*
X-15321600Y14856750D02*
X-15321600Y15369250D01*
G75*
G02*
X-15102850Y15588000I218750J0D01*
G01*
X-14665350Y15588000D01*
G75*
G02*
X-14446600Y15369250I0J-218750D01*
G01*
X-14446600Y14856750D01*
G75*
G02*
X-14665350Y14638000I-218750J0D01*
G01*
X-15102850Y14638000D01*
G75*
G02*
X-15321600Y14856750I0J218750D01*
G01*
G37*
G04 #@! TD.AperFunction*
G04 #@! TA.AperFunction,SMDPad,CuDef*
G36*
G01*
X-16896600Y14856750D02*
X-16896600Y15369250D01*
G75*
G02*
X-16677850Y15588000I218750J0D01*
G01*
X-16240350Y15588000D01*
G75*
G02*
X-16021600Y15369250I0J-218750D01*
G01*
X-16021600Y14856750D01*
G75*
G02*
X-16240350Y14638000I-218750J0D01*
G01*
X-16677850Y14638000D01*
G75*
G02*
X-16896600Y14856750I0J218750D01*
G01*
G37*
G04 #@! TD.AperFunction*
G04 #@! TA.AperFunction,SMDPad,CuDef*
G36*
G01*
X-30942600Y21714750D02*
X-30942600Y22227250D01*
G75*
G02*
X-30723850Y22446000I218750J0D01*
G01*
X-30286350Y22446000D01*
G75*
G02*
X-30067600Y22227250I0J-218750D01*
G01*
X-30067600Y21714750D01*
G75*
G02*
X-30286350Y21496000I-218750J0D01*
G01*
X-30723850Y21496000D01*
G75*
G02*
X-30942600Y21714750I0J218750D01*
G01*
G37*
G04 #@! TD.AperFunction*
G04 #@! TA.AperFunction,SMDPad,CuDef*
G36*
G01*
X-32517600Y21714750D02*
X-32517600Y22227250D01*
G75*
G02*
X-32298850Y22446000I218750J0D01*
G01*
X-31861350Y22446000D01*
G75*
G02*
X-31642600Y22227250I0J-218750D01*
G01*
X-31642600Y21714750D01*
G75*
G02*
X-31861350Y21496000I-218750J0D01*
G01*
X-32298850Y21496000D01*
G75*
G02*
X-32517600Y21714750I0J218750D01*
G01*
G37*
G04 #@! TD.AperFunction*
G04 #@! TA.AperFunction,SMDPad,CuDef*
G36*
G01*
X-13227600Y32768250D02*
X-13227600Y32255750D01*
G75*
G02*
X-13446350Y32037000I-218750J0D01*
G01*
X-13883850Y32037000D01*
G75*
G02*
X-14102600Y32255750I0J218750D01*
G01*
X-14102600Y32768250D01*
G75*
G02*
X-13883850Y32987000I218750J0D01*
G01*
X-13446350Y32987000D01*
G75*
G02*
X-13227600Y32768250I0J-218750D01*
G01*
G37*
G04 #@! TD.AperFunction*
G04 #@! TA.AperFunction,SMDPad,CuDef*
G36*
G01*
X-11652600Y32768250D02*
X-11652600Y32255750D01*
G75*
G02*
X-11871350Y32037000I-218750J0D01*
G01*
X-12308850Y32037000D01*
G75*
G02*
X-12527600Y32255750I0J218750D01*
G01*
X-12527600Y32768250D01*
G75*
G02*
X-12308850Y32987000I218750J0D01*
G01*
X-11871350Y32987000D01*
G75*
G02*
X-11652600Y32768250I0J-218750D01*
G01*
G37*
G04 #@! TD.AperFunction*
G04 #@! TA.AperFunction,SMDPad,CuDef*
G36*
G01*
X-13253100Y27942250D02*
X-13253100Y27429750D01*
G75*
G02*
X-13471850Y27211000I-218750J0D01*
G01*
X-13909350Y27211000D01*
G75*
G02*
X-14128100Y27429750I0J218750D01*
G01*
X-14128100Y27942250D01*
G75*
G02*
X-13909350Y28161000I218750J0D01*
G01*
X-13471850Y28161000D01*
G75*
G02*
X-13253100Y27942250I0J-218750D01*
G01*
G37*
G04 #@! TD.AperFunction*
G04 #@! TA.AperFunction,SMDPad,CuDef*
G36*
G01*
X-11678100Y27942250D02*
X-11678100Y27429750D01*
G75*
G02*
X-11896850Y27211000I-218750J0D01*
G01*
X-12334350Y27211000D01*
G75*
G02*
X-12553100Y27429750I0J218750D01*
G01*
X-12553100Y27942250D01*
G75*
G02*
X-12334350Y28161000I218750J0D01*
G01*
X-11896850Y28161000D01*
G75*
G02*
X-11678100Y27942250I0J-218750D01*
G01*
G37*
G04 #@! TD.AperFunction*
G04 #@! TA.AperFunction,SMDPad,CuDef*
G36*
G01*
X-25960850Y31044500D02*
X-25448350Y31044500D01*
G75*
G02*
X-25229600Y30825750I0J-218750D01*
G01*
X-25229600Y30388250D01*
G75*
G02*
X-25448350Y30169500I-218750J0D01*
G01*
X-25960850Y30169500D01*
G75*
G02*
X-26179600Y30388250I0J218750D01*
G01*
X-26179600Y30825750D01*
G75*
G02*
X-25960850Y31044500I218750J0D01*
G01*
G37*
G04 #@! TD.AperFunction*
G04 #@! TA.AperFunction,SMDPad,CuDef*
G36*
G01*
X-25960850Y32619500D02*
X-25448350Y32619500D01*
G75*
G02*
X-25229600Y32400750I0J-218750D01*
G01*
X-25229600Y31963250D01*
G75*
G02*
X-25448350Y31744500I-218750J0D01*
G01*
X-25960850Y31744500D01*
G75*
G02*
X-26179600Y31963250I0J218750D01*
G01*
X-26179600Y32400750D01*
G75*
G02*
X-25960850Y32619500I218750J0D01*
G01*
G37*
G04 #@! TD.AperFunction*
G04 #@! TA.AperFunction,SMDPad,CuDef*
G36*
G01*
X-20118850Y30917500D02*
X-19606350Y30917500D01*
G75*
G02*
X-19387600Y30698750I0J-218750D01*
G01*
X-19387600Y30261250D01*
G75*
G02*
X-19606350Y30042500I-218750J0D01*
G01*
X-20118850Y30042500D01*
G75*
G02*
X-20337600Y30261250I0J218750D01*
G01*
X-20337600Y30698750D01*
G75*
G02*
X-20118850Y30917500I218750J0D01*
G01*
G37*
G04 #@! TD.AperFunction*
G04 #@! TA.AperFunction,SMDPad,CuDef*
G36*
G01*
X-20118850Y32492500D02*
X-19606350Y32492500D01*
G75*
G02*
X-19387600Y32273750I0J-218750D01*
G01*
X-19387600Y31836250D01*
G75*
G02*
X-19606350Y31617500I-218750J0D01*
G01*
X-20118850Y31617500D01*
G75*
G02*
X-20337600Y31836250I0J218750D01*
G01*
X-20337600Y32273750D01*
G75*
G02*
X-20118850Y32492500I218750J0D01*
G01*
G37*
G04 #@! TD.AperFunction*
D19*
X-20497600Y23749000D03*
D20*
X-24247600Y28184000D03*
X-23747600Y28184000D03*
X-23247600Y28184000D03*
X-22747600Y28184000D03*
X-22247600Y28184000D03*
X-21747600Y28184000D03*
X-21247600Y28184000D03*
X-20747600Y28184000D03*
X-20247600Y28184000D03*
X-19747600Y28184000D03*
X-19247600Y28184000D03*
X-18747600Y28184000D03*
X-18247600Y28184000D03*
X-17747600Y28184000D03*
X-17247600Y28184000D03*
X-16747600Y28184000D03*
D21*
X-16062600Y27499000D03*
X-16062600Y26999000D03*
X-16062600Y26499000D03*
X-16062600Y25999000D03*
X-16062600Y25499000D03*
X-16062600Y24999000D03*
X-16062600Y24499000D03*
X-16062600Y23999000D03*
X-16062600Y23499000D03*
X-16062600Y22999000D03*
X-16062600Y22499000D03*
X-16062600Y21999000D03*
X-16062600Y21499000D03*
X-16062600Y20999000D03*
X-16062600Y20499000D03*
X-16062600Y19999000D03*
D20*
X-16747600Y19314000D03*
X-17247600Y19314000D03*
X-17747600Y19314000D03*
X-18247600Y19314000D03*
X-18747600Y19314000D03*
X-19247600Y19314000D03*
X-19747600Y19314000D03*
X-20247600Y19314000D03*
X-20747600Y19314000D03*
X-21247600Y19314000D03*
X-21747600Y19314000D03*
X-22247600Y19314000D03*
X-22747600Y19314000D03*
X-23247600Y19314000D03*
X-23747600Y19314000D03*
X-24247600Y19314000D03*
D21*
X-24932600Y19999000D03*
X-24932600Y20499000D03*
X-24932600Y20999000D03*
X-24932600Y21499000D03*
X-24932600Y21999000D03*
X-24932600Y22499000D03*
X-24932600Y22999000D03*
X-24932600Y23499000D03*
X-24932600Y23999000D03*
X-24932600Y24499000D03*
X-24932600Y24999000D03*
X-24932600Y25499000D03*
X-24932600Y25999000D03*
X-24932600Y26499000D03*
X-24932600Y26999000D03*
X-24932600Y27499000D03*
G04 #@! TA.AperFunction,SMDPad,CuDef*
G36*
G01*
X-13002350Y16352000D02*
X-13514850Y16352000D01*
G75*
G02*
X-13733600Y16570750I0J218750D01*
G01*
X-13733600Y17008250D01*
G75*
G02*
X-13514850Y17227000I218750J0D01*
G01*
X-13002350Y17227000D01*
G75*
G02*
X-12783600Y17008250I0J-218750D01*
G01*
X-12783600Y16570750D01*
G75*
G02*
X-13002350Y16352000I-218750J0D01*
G01*
G37*
G04 #@! TD.AperFunction*
G04 #@! TA.AperFunction,SMDPad,CuDef*
G36*
G01*
X-13002350Y14777000D02*
X-13514850Y14777000D01*
G75*
G02*
X-13733600Y14995750I0J218750D01*
G01*
X-13733600Y15433250D01*
G75*
G02*
X-13514850Y15652000I218750J0D01*
G01*
X-13002350Y15652000D01*
G75*
G02*
X-12783600Y15433250I0J-218750D01*
G01*
X-12783600Y14995750D01*
G75*
G02*
X-13002350Y14777000I-218750J0D01*
G01*
G37*
G04 #@! TD.AperFunction*
G04 #@! TA.AperFunction,SMDPad,CuDef*
G36*
G01*
X-27767600Y19047750D02*
X-27767600Y19560250D01*
G75*
G02*
X-27548850Y19779000I218750J0D01*
G01*
X-27111350Y19779000D01*
G75*
G02*
X-26892600Y19560250I0J-218750D01*
G01*
X-26892600Y19047750D01*
G75*
G02*
X-27111350Y18829000I-218750J0D01*
G01*
X-27548850Y18829000D01*
G75*
G02*
X-27767600Y19047750I0J218750D01*
G01*
G37*
G04 #@! TD.AperFunction*
G04 #@! TA.AperFunction,SMDPad,CuDef*
G36*
G01*
X-29342600Y19047750D02*
X-29342600Y19560250D01*
G75*
G02*
X-29123850Y19779000I218750J0D01*
G01*
X-28686350Y19779000D01*
G75*
G02*
X-28467600Y19560250I0J-218750D01*
G01*
X-28467600Y19047750D01*
G75*
G02*
X-28686350Y18829000I-218750J0D01*
G01*
X-29123850Y18829000D01*
G75*
G02*
X-29342600Y19047750I0J218750D01*
G01*
G37*
G04 #@! TD.AperFunction*
G04 #@! TA.AperFunction,SMDPad,CuDef*
G36*
G01*
X-13227600Y25402250D02*
X-13227600Y24889750D01*
G75*
G02*
X-13446350Y24671000I-218750J0D01*
G01*
X-13883850Y24671000D01*
G75*
G02*
X-14102600Y24889750I0J218750D01*
G01*
X-14102600Y25402250D01*
G75*
G02*
X-13883850Y25621000I218750J0D01*
G01*
X-13446350Y25621000D01*
G75*
G02*
X-13227600Y25402250I0J-218750D01*
G01*
G37*
G04 #@! TD.AperFunction*
G04 #@! TA.AperFunction,SMDPad,CuDef*
G36*
G01*
X-11652600Y25402250D02*
X-11652600Y24889750D01*
G75*
G02*
X-11871350Y24671000I-218750J0D01*
G01*
X-12308850Y24671000D01*
G75*
G02*
X-12527600Y24889750I0J218750D01*
G01*
X-12527600Y25402250D01*
G75*
G02*
X-12308850Y25621000I218750J0D01*
G01*
X-11871350Y25621000D01*
G75*
G02*
X-11652600Y25402250I0J-218750D01*
G01*
G37*
G04 #@! TD.AperFunction*
G04 #@! TA.AperFunction,SMDPad,CuDef*
G36*
G01*
X-15927850Y30892000D02*
X-15415350Y30892000D01*
G75*
G02*
X-15196600Y30673250I0J-218750D01*
G01*
X-15196600Y30235750D01*
G75*
G02*
X-15415350Y30017000I-218750J0D01*
G01*
X-15927850Y30017000D01*
G75*
G02*
X-16146600Y30235750I0J218750D01*
G01*
X-16146600Y30673250D01*
G75*
G02*
X-15927850Y30892000I218750J0D01*
G01*
G37*
G04 #@! TD.AperFunction*
G04 #@! TA.AperFunction,SMDPad,CuDef*
G36*
G01*
X-15927850Y32467000D02*
X-15415350Y32467000D01*
G75*
G02*
X-15196600Y32248250I0J-218750D01*
G01*
X-15196600Y31810750D01*
G75*
G02*
X-15415350Y31592000I-218750J0D01*
G01*
X-15927850Y31592000D01*
G75*
G02*
X-16146600Y31810750I0J218750D01*
G01*
X-16146600Y32248250D01*
G75*
G02*
X-15927850Y32467000I218750J0D01*
G01*
G37*
G04 #@! TD.AperFunction*
G04 #@! TA.AperFunction,SMDPad,CuDef*
G36*
G01*
X-21896850Y30917500D02*
X-21384350Y30917500D01*
G75*
G02*
X-21165600Y30698750I0J-218750D01*
G01*
X-21165600Y30261250D01*
G75*
G02*
X-21384350Y30042500I-218750J0D01*
G01*
X-21896850Y30042500D01*
G75*
G02*
X-22115600Y30261250I0J218750D01*
G01*
X-22115600Y30698750D01*
G75*
G02*
X-21896850Y30917500I218750J0D01*
G01*
G37*
G04 #@! TD.AperFunction*
G04 #@! TA.AperFunction,SMDPad,CuDef*
G36*
G01*
X-21896850Y32492500D02*
X-21384350Y32492500D01*
G75*
G02*
X-21165600Y32273750I0J-218750D01*
G01*
X-21165600Y31836250D01*
G75*
G02*
X-21384350Y31617500I-218750J0D01*
G01*
X-21896850Y31617500D01*
G75*
G02*
X-22115600Y31836250I0J218750D01*
G01*
X-22115600Y32273750D01*
G75*
G02*
X-21896850Y32492500I218750J0D01*
G01*
G37*
G04 #@! TD.AperFunction*
D22*
X-17894100Y16573500D03*
X-17894100Y15557500D03*
X-19672100Y15557500D03*
X-19672100Y16573500D03*
D23*
X-36245600Y10033000D03*
X-1447600Y28956000D03*
X-1574600Y25273000D03*
X-11099600Y25654000D03*
X-11226600Y28067000D03*
X-12750600Y30353000D03*
X-10972600Y31750000D03*
X-15163600Y32893000D03*
X-22656600Y32004000D03*
X-24942600Y33147000D03*
X-29641600Y27940000D03*
X-33070600Y27432000D03*
X-33070600Y22479000D03*
X-29641600Y24257000D03*
X-29641600Y19304000D03*
X-22148600Y25400000D03*
X-18846600Y25400000D03*
X-18846600Y22098000D03*
X-22148600Y22098000D03*
X-22275600Y23749000D03*
X-18719600Y23749000D03*
X-20497600Y25527000D03*
X-20497600Y21844000D03*
X-28364600Y33864000D03*
D22*
X-12725200Y18161000D03*
X-6972100Y6032500D03*
X-5829100Y6032500D03*
X-5829100Y7175500D03*
X-6972100Y7175500D03*
X-6236500Y2603500D03*
X-16687600Y2540000D03*
X-13639600Y2540000D03*
X-3162100Y2667000D03*
X-749100Y2857500D03*
X-43847000Y36068000D03*
X-40545000Y37719000D03*
X-20955000Y36449000D03*
X-36703000Y27940000D03*
X-35941000Y27051000D03*
X-38005000Y37846000D03*
X-38894000Y37084000D03*
D23*
X-59772600Y38735000D03*
X-42087600Y20828000D03*
X-14147600Y33528000D03*
X-16179600Y29591000D03*
X-17703600Y29337000D03*
X-24434600Y30607000D03*
X-27355600Y31750000D03*
X-33070600Y25781000D03*
X-33070600Y24130000D03*
X-29641600Y25908000D03*
X-29641600Y22606000D03*
X-29641600Y20955000D03*
X-25704600Y14605000D03*
X-25069600Y11303000D03*
X-7797600Y20320000D03*
X-7924600Y17018000D03*
X-24815600Y29337000D03*
X-15036600Y24003000D03*
X-11099600Y23876000D03*
X-24053600Y23622000D03*
X-32308600Y11684000D03*
X-46024600Y10160000D03*
X-36626600Y23368000D03*
D22*
X-22224800Y20396200D03*
X-17398800Y18110200D03*
X-11099600Y2476500D03*
D23*
X-17703600Y24384000D03*
X-17576600Y26416000D03*
X-24180600Y20193000D03*
X-41198600Y9652000D03*
X-23875514Y20650629D03*
X-37515600Y9906000D03*
X-23926600Y21336000D03*
X-37134600Y16129000D03*
X-23164600Y21590000D03*
X-35610600Y17145000D03*
X-25831600Y18288000D03*
D22*
X-26339600Y12446000D03*
D23*
X-14909600Y20955000D03*
X-11323100Y18542000D03*
X-19209100Y29217502D03*
X-35994245Y28102588D03*
X-35586243Y27694586D03*
X-19786100Y29217502D03*
X-20709100Y29217502D03*
X-37780599Y37228001D03*
X-21286100Y29217502D03*
X-38188601Y36819999D03*
D22*
X-46101000Y10795000D03*
D23*
X-17576600Y20574000D03*
X-20624600Y20701000D03*
D22*
X-44831000Y17526000D03*
X-4178100Y8445500D03*
X-7734100Y18605500D03*
X-17589974Y6654126D03*
D23*
X-28498600Y8953500D03*
X-12496600Y20320000D03*
X-11480600Y20320000D03*
D22*
X-15417600Y5080000D03*
X-13576100Y18542000D03*
X-18275100Y5651500D03*
X-10718600Y21590000D03*
X-18406100Y16002000D03*
X-19033100Y16002000D03*
X-6400600Y6290500D03*
X-6400600Y6917500D03*
D24*
X-2590600Y29718000D02*
X-2209600Y29718000D01*
X-2209600Y29718000D02*
X-1447600Y28956000D01*
X-2565100Y24765000D02*
X-2082600Y24765000D01*
X-2082600Y24765000D02*
X-1574600Y25273000D01*
X-12090100Y25146000D02*
X-11607600Y25146000D01*
X-11607600Y25146000D02*
X-11099600Y25654000D01*
X-12115600Y27686000D02*
X-11607600Y27686000D01*
X-11607600Y27686000D02*
X-11226600Y28067000D01*
X-13639600Y30886500D02*
X-13284100Y30886500D01*
X-13284100Y30886500D02*
X-12750600Y30353000D01*
X-12090100Y32512000D02*
X-11734600Y32512000D01*
X-11734600Y32512000D02*
X-10972600Y31750000D01*
X-15671600Y32029500D02*
X-15671600Y32385000D01*
X-15671600Y32385000D02*
X-15163600Y32893000D01*
X-19862600Y32492500D02*
X-19354600Y33000500D01*
X-19862600Y32055000D02*
X-19862600Y32492500D01*
X-19768600Y35204500D02*
X-20243600Y35204500D01*
X-19354600Y34790500D02*
X-19768600Y35204500D01*
X-19354600Y34417000D02*
X-19354600Y34790500D01*
X-19354600Y33000500D02*
X-19354600Y34417000D01*
X-21869100Y32283500D02*
X-21640600Y32055000D01*
X-21869100Y33655000D02*
X-21869100Y32283500D01*
X-21640600Y32055000D02*
X-22605600Y32055000D01*
X-22605600Y32055000D02*
X-22656600Y32004000D01*
X-25704600Y32182000D02*
X-25704600Y32385000D01*
X-25704600Y32385000D02*
X-24942600Y33147000D01*
X-28905100Y27559000D02*
X-29260600Y27559000D01*
X-29260600Y27559000D02*
X-29641600Y27940000D01*
X-28905100Y24257000D02*
X-29641600Y24257000D01*
X-28905100Y19304000D02*
X-29641600Y19304000D01*
D25*
X-20497600Y23749000D02*
X-22148600Y25400000D01*
X-20497600Y23749000D02*
X-18846600Y25400000D01*
X-20497600Y23749000D02*
X-18846600Y22098000D01*
X-20497600Y23749000D02*
X-22148600Y22098000D01*
X-20497600Y23749000D02*
X-22275600Y23749000D01*
X-20497600Y23749000D02*
X-18719600Y23749000D01*
X-20497600Y23749000D02*
X-20497600Y25527000D01*
X-20497600Y23749000D02*
X-20497600Y21844000D01*
D24*
X-37388600Y11676000D02*
X-37388600Y11894000D01*
X-37388600Y11676000D02*
X-37387146Y11616771D01*
X-37387146Y11616771D02*
X-37382788Y11557683D01*
X-37382788Y11557683D02*
X-37375535Y11498881D01*
X-37375535Y11498881D02*
X-37365406Y11440506D01*
X-37365406Y11440506D02*
X-37352425Y11382698D01*
X-37352425Y11382698D02*
X-37336623Y11325596D01*
X-37336623Y11325596D02*
X-37318038Y11269339D01*
X-37318038Y11269339D02*
X-37296715Y11214061D01*
X-37296715Y11214061D02*
X-37272705Y11159896D01*
X-37272705Y11159896D02*
X-37246067Y11106975D01*
X-37246067Y11106975D02*
X-37216864Y11055424D01*
X-37216864Y11055424D02*
X-37185166Y11005368D01*
X-37185166Y11005368D02*
X-37151051Y10956928D01*
X-37151051Y10956928D02*
X-37114600Y10910221D01*
X-37114600Y10910221D02*
X-37075901Y10865358D01*
X-37075901Y10865358D02*
X-37035047Y10822447D01*
X-37035047Y10822447D02*
X-36245600Y10033000D01*
X-32362600Y26924000D02*
X-32080100Y26924000D01*
X-32362600Y26924000D02*
X-32386293Y26924582D01*
X-32386293Y26924582D02*
X-32409927Y26926326D01*
X-32409927Y26926326D02*
X-32433448Y26929227D01*
X-32433448Y26929227D02*
X-32456799Y26933278D01*
X-32456799Y26933278D02*
X-32479922Y26938471D01*
X-32479922Y26938471D02*
X-32502763Y26944792D01*
X-32502763Y26944792D02*
X-32525266Y26952226D01*
X-32525266Y26952226D02*
X-32547377Y26960755D01*
X-32547377Y26960755D02*
X-32569043Y26970359D01*
X-32569043Y26970359D02*
X-32590212Y26981014D01*
X-32590212Y26981014D02*
X-32610832Y26992695D01*
X-32610832Y26992695D02*
X-32630854Y27005374D01*
X-32630854Y27005374D02*
X-32650230Y27019021D01*
X-32650230Y27019021D02*
X-32668913Y27033601D01*
X-32668913Y27033601D02*
X-32686859Y27049081D01*
X-32686859Y27049081D02*
X-32704022Y27065422D01*
X-32704022Y27065422D02*
X-33070600Y27432000D01*
X-32462600Y21971000D02*
X-32080100Y21971000D01*
X-32462600Y21971000D02*
X-32474447Y21971291D01*
X-32474447Y21971291D02*
X-32486264Y21972163D01*
X-32486264Y21972163D02*
X-32498024Y21973614D01*
X-32498024Y21973614D02*
X-32509700Y21975639D01*
X-32509700Y21975639D02*
X-32521261Y21978236D01*
X-32521261Y21978236D02*
X-32532682Y21981396D01*
X-32532682Y21981396D02*
X-32543933Y21985113D01*
X-32543933Y21985113D02*
X-32554989Y21989378D01*
X-32554989Y21989378D02*
X-32565822Y21994180D01*
X-32565822Y21994180D02*
X-32576406Y21999507D01*
X-32576406Y21999507D02*
X-32586716Y22005348D01*
X-32586716Y22005348D02*
X-32596727Y22011687D01*
X-32596727Y22011687D02*
X-32606415Y22018511D01*
X-32606415Y22018511D02*
X-32615757Y22025801D01*
X-32615757Y22025801D02*
X-32624730Y22033541D01*
X-32624730Y22033541D02*
X-32633311Y22041711D01*
X-32633311Y22041711D02*
X-33070600Y22479000D01*
D26*
X-26942100Y34334000D02*
X-27379600Y34334000D01*
X-27379600Y34334000D02*
X-27894600Y34334000D01*
X-27894600Y34334000D02*
X-28364600Y33864000D01*
D24*
X-16459100Y14638000D02*
X-16070500Y14249400D01*
X-16459100Y15113000D02*
X-16459100Y14638000D01*
X-13258600Y14777000D02*
X-13258600Y15214500D01*
X-13786200Y14249400D02*
X-13258600Y14777000D01*
X-16070500Y14249400D02*
X-13786200Y14249400D01*
X-12783600Y15214500D02*
X-12191800Y15806300D01*
X-13258600Y15214500D02*
X-12783600Y15214500D01*
X-12191800Y15806300D02*
X-12191800Y17627600D01*
X-12191800Y17627600D02*
X-12725200Y18161000D01*
X-5650000Y2017000D02*
X-6236500Y2603500D01*
X-5650000Y-996400D02*
X-5650000Y2017000D01*
X-16650000Y-996400D02*
X-16650000Y2502400D01*
X-16650000Y2502400D02*
X-16687600Y2540000D01*
X-13650000Y-996400D02*
X-13650000Y2529600D01*
X-13650000Y2529600D02*
X-13639600Y2540000D01*
X-2650000Y-996400D02*
X-2650000Y2154900D01*
X-2650000Y2154900D02*
X-3162100Y2667000D01*
X-749100Y-897300D02*
X-650000Y-996400D01*
X-749100Y2857500D02*
X-749100Y-897300D01*
D25*
X-40164000Y36093500D02*
X-42069000Y36093500D01*
X-42069000Y36093500D02*
X-43821500Y36093500D01*
X-43821500Y36093500D02*
X-43847000Y36068000D01*
X-40164000Y36093500D02*
X-40164000Y37338000D01*
X-40164000Y37338000D02*
X-40545000Y37719000D01*
D24*
X-20243600Y35204500D02*
X-20243600Y35737600D01*
X-20243600Y35737600D02*
X-20955000Y36449000D01*
X-20955000Y36449000D02*
X-20955000Y36449000D01*
X-13665100Y32512000D02*
X-13665100Y33045500D01*
X-13665100Y33045500D02*
X-14147600Y33528000D01*
X-15671600Y30454500D02*
X-15671600Y30099000D01*
X-15671600Y30099000D02*
X-16179600Y29591000D01*
X-17747600Y28184000D02*
X-17747600Y29293000D01*
X-17747600Y29293000D02*
X-17703600Y29337000D01*
X-25704600Y30607000D02*
X-24434600Y30607000D01*
X-27355600Y30759500D02*
X-27355600Y31750000D01*
X-28905100Y25908000D02*
X-29641600Y25908000D01*
X-28905100Y22606000D02*
X-29641600Y22606000D01*
X-28905100Y20955000D02*
X-29641600Y20955000D01*
X-30276600Y21971000D02*
X-29641600Y22606000D01*
X-30505100Y21971000D02*
X-30276600Y21971000D01*
X-25069600Y12166500D02*
X-25069600Y11303000D01*
X-8915100Y20320000D02*
X-7797600Y20320000D01*
X-8889600Y17018000D02*
X-7924600Y17018000D01*
D27*
X-24247600Y28184000D02*
X-24247600Y28769000D01*
X-24247600Y28769000D02*
X-24815600Y29337000D01*
X-16062600Y23999000D02*
X-15040600Y23999000D01*
X-15040600Y23999000D02*
X-15036600Y24003000D01*
X-11988600Y23520500D02*
X-11455100Y23520500D01*
X-11455100Y23520500D02*
X-11099600Y23876000D01*
X-24932600Y22999000D02*
X-24334800Y22999000D01*
X-24053600Y23280200D02*
X-24053600Y23622000D01*
X-24334800Y22999000D02*
X-24053600Y23280200D01*
D24*
X-59264600Y37927000D02*
X-59264600Y37135000D01*
X-59264600Y37927000D02*
X-59265473Y37962539D01*
X-59265473Y37962539D02*
X-59268088Y37997991D01*
X-59268088Y37997991D02*
X-59272440Y38033272D01*
X-59272440Y38033272D02*
X-59278517Y38068298D01*
X-59278517Y38068298D02*
X-59286306Y38102983D01*
X-59286306Y38102983D02*
X-59295787Y38137244D01*
X-59295787Y38137244D02*
X-59306938Y38170998D01*
X-59306938Y38170998D02*
X-59319732Y38204165D01*
X-59319732Y38204165D02*
X-59334138Y38236664D01*
X-59334138Y38236664D02*
X-59350121Y38268417D01*
X-59350121Y38268417D02*
X-59367643Y38299348D01*
X-59367643Y38299348D02*
X-59386661Y38329381D01*
X-59386661Y38329381D02*
X-59407131Y38358445D01*
X-59407131Y38358445D02*
X-59429001Y38386470D01*
X-59429001Y38386470D02*
X-59452221Y38413388D01*
X-59452221Y38413388D02*
X-59476733Y38439133D01*
X-59476733Y38439133D02*
X-59772600Y38735000D01*
X-41198600Y19439000D02*
X-41198600Y19094000D01*
X-41198600Y19439000D02*
X-41200055Y19498230D01*
X-41200055Y19498230D02*
X-41204413Y19557318D01*
X-41204413Y19557318D02*
X-41211666Y19616120D01*
X-41211666Y19616120D02*
X-41221795Y19674496D01*
X-41221795Y19674496D02*
X-41234776Y19732304D01*
X-41234776Y19732304D02*
X-41250578Y19789405D01*
X-41250578Y19789405D02*
X-41269163Y19845663D01*
X-41269163Y19845663D02*
X-41290486Y19900941D01*
X-41290486Y19900941D02*
X-41314496Y19955106D01*
X-41314496Y19955106D02*
X-41341134Y20008027D01*
X-41341134Y20008027D02*
X-41370337Y20059578D01*
X-41370337Y20059578D02*
X-41402035Y20109634D01*
X-41402035Y20109634D02*
X-41436150Y20158074D01*
X-41436150Y20158074D02*
X-41472601Y20204782D01*
X-41472601Y20204782D02*
X-41511300Y20249645D01*
X-41511300Y20249645D02*
X-41552154Y20292554D01*
X-41552154Y20292554D02*
X-42087600Y20828000D01*
X-32362600Y25273000D02*
X-32080100Y25273000D01*
X-32362600Y25273000D02*
X-32386293Y25273582D01*
X-32386293Y25273582D02*
X-32409927Y25275326D01*
X-32409927Y25275326D02*
X-32433448Y25278227D01*
X-32433448Y25278227D02*
X-32456799Y25282278D01*
X-32456799Y25282278D02*
X-32479922Y25287471D01*
X-32479922Y25287471D02*
X-32502763Y25293792D01*
X-32502763Y25293792D02*
X-32525266Y25301226D01*
X-32525266Y25301226D02*
X-32547377Y25309755D01*
X-32547377Y25309755D02*
X-32569043Y25319359D01*
X-32569043Y25319359D02*
X-32590212Y25330014D01*
X-32590212Y25330014D02*
X-32610832Y25341695D01*
X-32610832Y25341695D02*
X-32630854Y25354374D01*
X-32630854Y25354374D02*
X-32650230Y25368021D01*
X-32650230Y25368021D02*
X-32668913Y25382601D01*
X-32668913Y25382601D02*
X-32686859Y25398081D01*
X-32686859Y25398081D02*
X-32704022Y25414422D01*
X-32704022Y25414422D02*
X-33070600Y25781000D01*
X-32362600Y23622000D02*
X-32080100Y23622000D01*
X-32362600Y23622000D02*
X-32386293Y23622582D01*
X-32386293Y23622582D02*
X-32409927Y23624326D01*
X-32409927Y23624326D02*
X-32433448Y23627227D01*
X-32433448Y23627227D02*
X-32456799Y23631278D01*
X-32456799Y23631278D02*
X-32479922Y23636471D01*
X-32479922Y23636471D02*
X-32502763Y23642792D01*
X-32502763Y23642792D02*
X-32525266Y23650226D01*
X-32525266Y23650226D02*
X-32547377Y23658755D01*
X-32547377Y23658755D02*
X-32569043Y23668359D01*
X-32569043Y23668359D02*
X-32590212Y23679014D01*
X-32590212Y23679014D02*
X-32610832Y23690695D01*
X-32610832Y23690695D02*
X-32630854Y23703374D01*
X-32630854Y23703374D02*
X-32650230Y23717021D01*
X-32650230Y23717021D02*
X-32668913Y23731601D01*
X-32668913Y23731601D02*
X-32686859Y23747081D01*
X-32686859Y23747081D02*
X-32704022Y23763422D01*
X-32704022Y23763422D02*
X-33070600Y24130000D01*
X-25450600Y15059000D02*
X-25450600Y15341500D01*
X-25450600Y15059000D02*
X-25451183Y15035309D01*
X-25451183Y15035309D02*
X-25452926Y15011674D01*
X-25452926Y15011674D02*
X-25455827Y14988153D01*
X-25455827Y14988153D02*
X-25459879Y14964803D01*
X-25459879Y14964803D02*
X-25465071Y14941679D01*
X-25465071Y14941679D02*
X-25471392Y14918839D01*
X-25471392Y14918839D02*
X-25478826Y14896336D01*
X-25478826Y14896336D02*
X-25487355Y14874225D01*
X-25487355Y14874225D02*
X-25496959Y14852559D01*
X-25496959Y14852559D02*
X-25507615Y14831390D01*
X-25507615Y14831390D02*
X-25519296Y14810770D01*
X-25519296Y14810770D02*
X-25531975Y14790748D01*
X-25531975Y14790748D02*
X-25545621Y14771372D01*
X-25545621Y14771372D02*
X-25560201Y14752689D01*
X-25560201Y14752689D02*
X-25575681Y14734744D01*
X-25575681Y14734744D02*
X-25592022Y14717579D01*
X-25592022Y14717579D02*
X-25704600Y14605000D01*
X-34086600Y12141000D02*
X-34086600Y11684000D01*
X-34086600Y11684000D02*
X-33578600Y11176000D01*
X-33578600Y11176000D02*
X-32816600Y11176000D01*
X-32816600Y11176000D02*
X-32308600Y11684000D01*
X-44246600Y9925500D02*
X-44520100Y9652000D01*
X-44246600Y10363000D02*
X-44246600Y9925500D01*
X-44520100Y9652000D02*
X-45516600Y9652000D01*
X-45516600Y9652000D02*
X-46024600Y10160000D01*
X-38150600Y23165000D02*
X-38150600Y23602500D01*
X-38150600Y23602500D02*
X-38150600Y23622000D01*
X-38150600Y23622000D02*
X-37642600Y24130000D01*
X-37642600Y24130000D02*
X-37134600Y24130000D01*
X-37134600Y24130000D02*
X-36626600Y23622000D01*
X-36626600Y23622000D02*
X-36626600Y23368000D01*
X-19247600Y19984000D02*
X-19380400Y20116800D01*
X-19247600Y19314000D02*
X-19247600Y19984000D01*
X-19380400Y20116800D02*
X-21158000Y20116800D01*
X-21158000Y20116800D02*
X-21437400Y20396200D01*
X-21437400Y20396200D02*
X-22224800Y20396200D01*
X-14884100Y17239000D02*
X-15450500Y17805400D01*
X-14884100Y16764000D02*
X-14884100Y17239000D01*
X-15450500Y17805400D02*
X-17094000Y17805400D01*
X-17094000Y17805400D02*
X-17398800Y18110200D01*
X-14884100Y15113000D02*
X-14884100Y16764000D01*
X-30589100Y11684000D02*
X-31990402Y11684000D01*
X-29667100Y10762000D02*
X-30589100Y11684000D01*
X-31990402Y11684000D02*
X-32308600Y11684000D01*
X-29667100Y10287000D02*
X-29667100Y10762000D01*
X-11453153Y2476500D02*
X-11099600Y2476500D01*
X-11577100Y2476500D02*
X-11453153Y2476500D01*
X-12650000Y1403600D02*
X-11577100Y2476500D01*
X-12650000Y-996400D02*
X-12650000Y1403600D01*
X-58724600Y10160000D02*
X-46024600Y10160000D01*
X-61264600Y12700000D02*
X-58724600Y10160000D01*
D27*
X-24872600Y27559000D02*
X-24932600Y27499000D01*
X-25603194Y28477394D02*
X-25689015Y28559102D01*
X-25689015Y28559102D02*
X-25778740Y28636500D01*
X-25778740Y28636500D02*
X-25872156Y28709402D01*
X-25872156Y28709402D02*
X-25969036Y28777633D01*
X-25969036Y28777633D02*
X-26069147Y28841028D01*
X-26069147Y28841028D02*
X-26172249Y28899434D01*
X-26172249Y28899434D02*
X-26278092Y28952711D01*
X-26278092Y28952711D02*
X-26386421Y29000730D01*
X-26386421Y29000730D02*
X-26496977Y29043376D01*
X-26496977Y29043376D02*
X-26609492Y29080546D01*
X-26609492Y29080546D02*
X-26723695Y29112150D01*
X-26723695Y29112150D02*
X-26839311Y29138113D01*
X-26839311Y29138113D02*
X-26956062Y29158371D01*
X-26956062Y29158371D02*
X-27073666Y29172876D01*
X-27073666Y29172876D02*
X-27191841Y29181593D01*
X-27191841Y29181593D02*
X-27310300Y29184500D01*
X-27310300Y29184500D02*
X-27355600Y29184500D01*
X-24824800Y27559000D02*
X-24872600Y27559000D01*
X-24824800Y27559000D02*
X-24816292Y27559628D01*
X-24816292Y27559628D02*
X-24807967Y27561498D01*
X-24807967Y27561498D02*
X-24800007Y27564568D01*
X-24800007Y27564568D02*
X-24792583Y27568774D01*
X-24792583Y27568774D02*
X-24785857Y27574023D01*
X-24785857Y27574023D02*
X-24779974Y27580202D01*
X-24779974Y27580202D02*
X-24775061Y27587178D01*
X-24775061Y27587178D02*
X-24771225Y27594799D01*
X-24771225Y27594799D02*
X-24768548Y27602900D01*
X-24768548Y27602900D02*
X-24767090Y27611306D01*
X-24767090Y27611306D02*
X-24766880Y27619836D01*
X-24766880Y27619836D02*
X-24767925Y27628304D01*
X-24767925Y27628304D02*
X-24770200Y27636527D01*
X-24770200Y27636527D02*
X-24773658Y27644327D01*
X-24773658Y27644327D02*
X-24778222Y27651535D01*
X-24778222Y27651535D02*
X-24783795Y27657995D01*
X-24783795Y27657995D02*
X-25603194Y28477394D01*
D24*
X-23444100Y33180000D02*
X-23444100Y33655000D01*
X-23444100Y31808500D02*
X-23444100Y33180000D01*
X-22115600Y30480000D02*
X-23444100Y31808500D01*
X-21640600Y30480000D02*
X-22115600Y30480000D01*
D25*
X-16747600Y18594000D02*
X-16441600Y18288000D01*
X-16747600Y19314000D02*
X-16747600Y18594000D01*
X-13258600Y17227000D02*
X-13258600Y16789500D01*
X-16747600Y20034000D02*
X-16747600Y19314000D01*
X-16747600Y22314002D02*
X-16747600Y20034000D01*
X-16562602Y22499000D02*
X-16747600Y22314002D01*
X-16062600Y22499000D02*
X-16562602Y22499000D01*
X-26212600Y19984000D02*
X-26189944Y19984000D01*
D27*
X-21747600Y27586200D02*
X-20577400Y26416000D01*
X-21747600Y28184000D02*
X-21747600Y27586200D01*
X-20577400Y26416000D02*
X-18592600Y26416000D01*
X-16675600Y24499000D02*
X-16062600Y24499000D01*
X-18592600Y26416000D02*
X-16675600Y24499000D01*
X-16062600Y24499000D02*
X-15175600Y24499000D01*
X-14528600Y25146000D02*
X-13665100Y25146000D01*
X-15175600Y24499000D02*
X-14528600Y25146000D01*
X-16660400Y22499000D02*
X-16062600Y22499000D01*
X-21747600Y27586200D02*
X-23418600Y25915200D01*
X-24334800Y22499000D02*
X-24932600Y22499000D01*
X-23418600Y23415200D02*
X-24334800Y22499000D01*
X-23418600Y25915200D02*
X-23418600Y23415200D01*
D24*
X-24932600Y22499000D02*
X-23311600Y22499000D01*
X-23311600Y22499000D02*
X-22021600Y21209000D01*
X-22021600Y21209000D02*
X-18211600Y21209000D01*
X-16921600Y22499000D02*
X-16062600Y22499000D01*
X-18211600Y21209000D02*
X-16921600Y22499000D01*
D25*
X-26821890Y19374711D02*
X-26212600Y19984000D01*
X-26821890Y19374711D02*
X-26830473Y19366541D01*
X-26830473Y19366541D02*
X-26839445Y19358801D01*
X-26839445Y19358801D02*
X-26848787Y19351511D01*
X-26848787Y19351511D02*
X-26858475Y19344688D01*
X-26858475Y19344688D02*
X-26868486Y19338348D01*
X-26868486Y19338348D02*
X-26878796Y19332508D01*
X-26878796Y19332508D02*
X-26889380Y19327180D01*
X-26889380Y19327180D02*
X-26900213Y19322378D01*
X-26900213Y19322378D02*
X-26911268Y19318113D01*
X-26911268Y19318113D02*
X-26922520Y19314396D01*
X-26922520Y19314396D02*
X-26933940Y19311236D01*
X-26933940Y19311236D02*
X-26945502Y19308640D01*
X-26945502Y19308640D02*
X-26957177Y19306614D01*
X-26957177Y19306614D02*
X-26968937Y19305163D01*
X-26968937Y19305163D02*
X-26980755Y19304292D01*
X-26980755Y19304292D02*
X-26992600Y19304000D01*
X-26992600Y19304000D02*
X-27330100Y19304000D01*
X-26170733Y20003212D02*
X-26189944Y19984000D01*
X-26170733Y20003212D02*
X-26146221Y20028959D01*
X-26146221Y20028959D02*
X-26123002Y20055876D01*
X-26123002Y20055876D02*
X-26101131Y20083901D01*
X-26101131Y20083901D02*
X-26080662Y20112965D01*
X-26080662Y20112965D02*
X-26061643Y20142998D01*
X-26061643Y20142998D02*
X-26044122Y20173929D01*
X-26044122Y20173929D02*
X-26028138Y20205682D01*
X-26028138Y20205682D02*
X-26013733Y20238181D01*
X-26013733Y20238181D02*
X-26000939Y20271347D01*
X-26000939Y20271347D02*
X-25989788Y20305102D01*
X-25989788Y20305102D02*
X-25980307Y20339363D01*
X-25980307Y20339363D02*
X-25972518Y20374048D01*
X-25972518Y20374048D02*
X-25966440Y20409073D01*
X-25966440Y20409073D02*
X-25962089Y20444354D01*
X-25962089Y20444354D02*
X-25959474Y20479807D01*
X-25959474Y20479807D02*
X-25958600Y20515344D01*
X-25852534Y22331067D02*
X-25864791Y22318195D01*
X-25864791Y22318195D02*
X-25876401Y22304736D01*
X-25876401Y22304736D02*
X-25887336Y22290723D01*
X-25887336Y22290723D02*
X-25897570Y22276191D01*
X-25897570Y22276191D02*
X-25907080Y22261174D01*
X-25907080Y22261174D02*
X-25915841Y22245709D01*
X-25915841Y22245709D02*
X-25923832Y22229833D01*
X-25923832Y22229833D02*
X-25931035Y22213583D01*
X-25931035Y22213583D02*
X-25937432Y22197000D01*
X-25937432Y22197000D02*
X-25943007Y22180122D01*
X-25943007Y22180122D02*
X-25947748Y22162992D01*
X-25947748Y22162992D02*
X-25951642Y22145649D01*
X-25951642Y22145649D02*
X-25954681Y22128136D01*
X-25954681Y22128136D02*
X-25956857Y22110496D01*
X-25956857Y22110496D02*
X-25958164Y22092770D01*
X-25958164Y22092770D02*
X-25958600Y22075000D01*
X-25958600Y22075000D02*
X-25958600Y20515344D01*
X-25534600Y22499000D02*
X-24932600Y22499000D01*
X-25534600Y22499000D02*
X-25552370Y22498565D01*
X-25552370Y22498565D02*
X-25570096Y22497258D01*
X-25570096Y22497258D02*
X-25587736Y22495082D01*
X-25587736Y22495082D02*
X-25605249Y22492043D01*
X-25605249Y22492043D02*
X-25622592Y22488149D01*
X-25622592Y22488149D02*
X-25639722Y22483408D01*
X-25639722Y22483408D02*
X-25656600Y22477833D01*
X-25656600Y22477833D02*
X-25673183Y22471436D01*
X-25673183Y22471436D02*
X-25689433Y22464233D01*
X-25689433Y22464233D02*
X-25705309Y22456242D01*
X-25705309Y22456242D02*
X-25720774Y22447481D01*
X-25720774Y22447481D02*
X-25735791Y22437971D01*
X-25735791Y22437971D02*
X-25750323Y22427737D01*
X-25750323Y22427737D02*
X-25764336Y22416802D01*
X-25764336Y22416802D02*
X-25777795Y22405192D01*
X-25777795Y22405192D02*
X-25790667Y22392935D01*
X-25790667Y22392935D02*
X-25852534Y22331067D01*
X-13824626Y17793026D02*
X-13258600Y17227000D01*
X-13824626Y17793026D02*
X-13884700Y17850222D01*
X-13884700Y17850222D02*
X-13947509Y17904400D01*
X-13947509Y17904400D02*
X-14012899Y17955432D01*
X-14012899Y17955432D02*
X-14080715Y18003193D01*
X-14080715Y18003193D02*
X-14150793Y18047570D01*
X-14150793Y18047570D02*
X-14222964Y18088454D01*
X-14222964Y18088454D02*
X-14297054Y18125748D01*
X-14297054Y18125748D02*
X-14372885Y18159361D01*
X-14372885Y18159361D02*
X-14450274Y18189213D01*
X-14450274Y18189213D02*
X-14529034Y18215232D01*
X-14529034Y18215232D02*
X-14608977Y18237355D01*
X-14608977Y18237355D02*
X-14689908Y18255529D01*
X-14689908Y18255529D02*
X-14771634Y18269710D01*
X-14771634Y18269710D02*
X-14853957Y18279863D01*
X-14853957Y18279863D02*
X-14936679Y18285965D01*
X-14936679Y18285965D02*
X-15019600Y18288000D01*
X-15019600Y18288000D02*
X-16441600Y18288000D01*
D24*
X-21747600Y30373000D02*
X-21640600Y30480000D01*
X-21747600Y28184000D02*
X-21747600Y30373000D01*
X-13690600Y27211000D02*
X-13690600Y27686000D01*
X-13902600Y26999000D02*
X-13690600Y27211000D01*
X-16062600Y26999000D02*
X-13902600Y26999000D01*
X-20337600Y30480000D02*
X-19862600Y30480000D01*
X-20562610Y30705010D02*
X-20337600Y30480000D01*
X-20562610Y32872990D02*
X-20562610Y30705010D01*
X-20243600Y33192000D02*
X-20562610Y32872990D01*
X-20243600Y33629500D02*
X-20243600Y33192000D01*
D27*
X-20247600Y27586200D02*
X-20247600Y28184000D01*
X-19660400Y26999000D02*
X-20247600Y27586200D01*
X-16062600Y26999000D02*
X-19660400Y26999000D01*
X-17703600Y24042200D02*
X-17703600Y24384000D01*
X-16062600Y22999000D02*
X-16660400Y22999000D01*
X-16660400Y22999000D02*
X-17703600Y24042200D01*
X-16993600Y26999000D02*
X-16062600Y26999000D01*
X-17576600Y26416000D02*
X-16993600Y26999000D01*
D24*
X-20247600Y30095000D02*
X-20247600Y28184000D01*
X-19862600Y30480000D02*
X-20247600Y30095000D01*
D27*
X-26892600Y27559000D02*
X-27330100Y27559000D01*
X-26440400Y27559000D02*
X-26892600Y27559000D01*
X-26440400Y27559000D02*
X-26398940Y27557983D01*
X-26398940Y27557983D02*
X-26357579Y27554932D01*
X-26357579Y27554932D02*
X-26316417Y27549855D01*
X-26316417Y27549855D02*
X-26275554Y27542765D01*
X-26275554Y27542765D02*
X-26235089Y27533678D01*
X-26235089Y27533678D02*
X-26195117Y27522616D01*
X-26195117Y27522616D02*
X-26155737Y27509607D01*
X-26155737Y27509607D02*
X-26117043Y27494681D01*
X-26117043Y27494681D02*
X-26079128Y27477874D01*
X-26079128Y27477874D02*
X-26042083Y27459227D01*
X-26042083Y27459227D02*
X-26005997Y27438785D01*
X-26005997Y27438785D02*
X-25970958Y27416597D01*
X-25970958Y27416597D02*
X-25937050Y27392716D01*
X-25937050Y27392716D02*
X-25904355Y27367200D01*
X-25904355Y27367200D02*
X-25872951Y27340111D01*
X-25872951Y27340111D02*
X-25842913Y27311513D01*
X-25180400Y26999000D02*
X-24932600Y26999000D01*
X-25180400Y26999000D02*
X-25221862Y27000018D01*
X-25221862Y27000018D02*
X-25263223Y27003069D01*
X-25263223Y27003069D02*
X-25304384Y27008146D01*
X-25304384Y27008146D02*
X-25345247Y27015236D01*
X-25345247Y27015236D02*
X-25385713Y27024323D01*
X-25385713Y27024323D02*
X-25425684Y27035385D01*
X-25425684Y27035385D02*
X-25465064Y27048394D01*
X-25465064Y27048394D02*
X-25503759Y27063320D01*
X-25503759Y27063320D02*
X-25541674Y27080127D01*
X-25541674Y27080127D02*
X-25578719Y27098774D01*
X-25578719Y27098774D02*
X-25614805Y27119216D01*
X-25614805Y27119216D02*
X-25649844Y27141405D01*
X-25649844Y27141405D02*
X-25683752Y27165285D01*
X-25683752Y27165285D02*
X-25716448Y27190801D01*
X-25716448Y27190801D02*
X-25747852Y27217891D01*
X-25747852Y27217891D02*
X-25777888Y27246488D01*
X-25777888Y27246488D02*
X-25842913Y27311513D01*
X-30038690Y25244090D02*
X-30067600Y25273000D01*
X-30067600Y25273000D02*
X-30505100Y25273000D01*
X-25935310Y25244090D02*
X-30038690Y25244090D01*
X-25935310Y25244090D02*
X-25917542Y25244527D01*
X-25917542Y25244527D02*
X-25899815Y25245835D01*
X-25899815Y25245835D02*
X-25882175Y25248010D01*
X-25882175Y25248010D02*
X-25864662Y25251049D01*
X-25864662Y25251049D02*
X-25847320Y25254944D01*
X-25847320Y25254944D02*
X-25830189Y25259684D01*
X-25830189Y25259684D02*
X-25813312Y25265260D01*
X-25813312Y25265260D02*
X-25796728Y25271657D01*
X-25796728Y25271657D02*
X-25780479Y25278860D01*
X-25780479Y25278860D02*
X-25764603Y25286851D01*
X-25764603Y25286851D02*
X-25749137Y25295612D01*
X-25749137Y25295612D02*
X-25734121Y25305122D01*
X-25734121Y25305122D02*
X-25719589Y25315356D01*
X-25719589Y25315356D02*
X-25705576Y25326292D01*
X-25705576Y25326292D02*
X-25692117Y25337901D01*
X-25692117Y25337901D02*
X-25679244Y25350157D01*
X-25340400Y25499000D02*
X-24932600Y25499000D01*
X-25340400Y25499000D02*
X-25362908Y25498449D01*
X-25362908Y25498449D02*
X-25385361Y25496793D01*
X-25385361Y25496793D02*
X-25407706Y25494037D01*
X-25407706Y25494037D02*
X-25429889Y25490188D01*
X-25429889Y25490188D02*
X-25451856Y25485255D01*
X-25451856Y25485255D02*
X-25473554Y25479250D01*
X-25473554Y25479250D02*
X-25494932Y25472188D01*
X-25494932Y25472188D02*
X-25515938Y25464085D01*
X-25515938Y25464085D02*
X-25536521Y25454961D01*
X-25536521Y25454961D02*
X-25556631Y25444839D01*
X-25556631Y25444839D02*
X-25576220Y25433742D01*
X-25576220Y25433742D02*
X-25595241Y25421697D01*
X-25595241Y25421697D02*
X-25613649Y25408733D01*
X-25613649Y25408733D02*
X-25631398Y25394882D01*
X-25631398Y25394882D02*
X-25648446Y25380176D01*
X-25648446Y25380176D02*
X-25664751Y25364651D01*
X-25664751Y25364651D02*
X-25679244Y25350157D01*
X-30363679Y24238422D02*
X-29681190Y24920910D01*
X-30363679Y24238422D02*
X-30380021Y24221259D01*
X-30380021Y24221259D02*
X-30395501Y24203313D01*
X-30395501Y24203313D02*
X-30410081Y24184630D01*
X-30410081Y24184630D02*
X-30423727Y24165254D01*
X-30423727Y24165254D02*
X-30436406Y24145232D01*
X-30436406Y24145232D02*
X-30448087Y24124611D01*
X-30448087Y24124611D02*
X-30458743Y24103443D01*
X-30458743Y24103443D02*
X-30468347Y24081777D01*
X-30468347Y24081777D02*
X-30476876Y24059666D01*
X-30476876Y24059666D02*
X-30484310Y24037163D01*
X-30484310Y24037163D02*
X-30490631Y24014322D01*
X-30490631Y24014322D02*
X-30495823Y23991199D01*
X-30495823Y23991199D02*
X-30499875Y23967848D01*
X-30499875Y23967848D02*
X-30502776Y23944327D01*
X-30502776Y23944327D02*
X-30504519Y23920693D01*
X-30504519Y23920693D02*
X-30505100Y23897000D01*
X-30505100Y23897000D02*
X-30505100Y23622000D01*
X-25765608Y24920910D02*
X-29681190Y24920910D01*
X-25765608Y24920910D02*
X-25759686Y24921056D01*
X-25759686Y24921056D02*
X-25753777Y24921492D01*
X-25753777Y24921492D02*
X-25747897Y24922217D01*
X-25747897Y24922217D02*
X-25742059Y24923230D01*
X-25742059Y24923230D02*
X-25736278Y24924529D01*
X-25736278Y24924529D02*
X-25730568Y24926109D01*
X-25730568Y24926109D02*
X-25724942Y24927967D01*
X-25724942Y24927967D02*
X-25719415Y24930100D01*
X-25719415Y24930100D02*
X-25713998Y24932501D01*
X-25713998Y24932501D02*
X-25708706Y24935164D01*
X-25708706Y24935164D02*
X-25703551Y24938085D01*
X-25703551Y24938085D02*
X-25698546Y24941255D01*
X-25698546Y24941255D02*
X-25693702Y24944666D01*
X-25693702Y24944666D02*
X-25689031Y24948311D01*
X-25689031Y24948311D02*
X-25684545Y24952181D01*
X-25684545Y24952181D02*
X-25680253Y24956266D01*
X-25587518Y24999000D02*
X-24932600Y24999000D01*
X-25587518Y24999000D02*
X-25593442Y24998856D01*
X-25593442Y24998856D02*
X-25599350Y24998420D01*
X-25599350Y24998420D02*
X-25605231Y24997695D01*
X-25605231Y24997695D02*
X-25611068Y24996682D01*
X-25611068Y24996682D02*
X-25616849Y24995384D01*
X-25616849Y24995384D02*
X-25622559Y24993804D01*
X-25622559Y24993804D02*
X-25628185Y24991945D01*
X-25628185Y24991945D02*
X-25633713Y24989813D01*
X-25633713Y24989813D02*
X-25639129Y24987412D01*
X-25639129Y24987412D02*
X-25644422Y24984748D01*
X-25644422Y24984748D02*
X-25649577Y24981828D01*
X-25649577Y24981828D02*
X-25654582Y24978658D01*
X-25654582Y24978658D02*
X-25659426Y24975247D01*
X-25659426Y24975247D02*
X-25664097Y24971602D01*
X-25664097Y24971602D02*
X-25668584Y24967732D01*
X-25668584Y24967732D02*
X-25672874Y24963646D01*
X-25672874Y24963646D02*
X-25680253Y24956266D01*
X-25023600Y25908000D02*
X-24932600Y25999000D01*
X-27330100Y25908000D02*
X-25023600Y25908000D01*
X-26680468Y22818133D02*
X-26706215Y22793621D01*
X-26706215Y22793621D02*
X-26733132Y22770402D01*
X-26733132Y22770402D02*
X-26761157Y22748531D01*
X-26761157Y22748531D02*
X-26790221Y22728062D01*
X-26790221Y22728062D02*
X-26820254Y22709043D01*
X-26820254Y22709043D02*
X-26851185Y22691522D01*
X-26851185Y22691522D02*
X-26882938Y22675538D01*
X-26882938Y22675538D02*
X-26915437Y22661133D01*
X-26915437Y22661133D02*
X-26948603Y22648339D01*
X-26948603Y22648339D02*
X-26982358Y22637188D01*
X-26982358Y22637188D02*
X-27016619Y22627707D01*
X-27016619Y22627707D02*
X-27051304Y22619918D01*
X-27051304Y22619918D02*
X-27086329Y22613840D01*
X-27086329Y22613840D02*
X-27121610Y22609489D01*
X-27121610Y22609489D02*
X-27157063Y22606874D01*
X-27157063Y22606874D02*
X-27192600Y22606000D01*
X-27192600Y22606000D02*
X-27330100Y22606000D01*
X-25099600Y23999000D02*
X-24932600Y23999000D01*
X-25099600Y23999000D02*
X-25146984Y23997838D01*
X-25146984Y23997838D02*
X-25194254Y23994351D01*
X-25194254Y23994351D02*
X-25241296Y23988549D01*
X-25241296Y23988549D02*
X-25287996Y23980446D01*
X-25287996Y23980446D02*
X-25334243Y23970061D01*
X-25334243Y23970061D02*
X-25379924Y23957419D01*
X-25379924Y23957419D02*
X-25424930Y23942551D01*
X-25424930Y23942551D02*
X-25469152Y23925493D01*
X-25469152Y23925493D02*
X-25512484Y23906285D01*
X-25512484Y23906285D02*
X-25554822Y23884974D01*
X-25554822Y23884974D02*
X-25596062Y23861612D01*
X-25596062Y23861612D02*
X-25636107Y23836254D01*
X-25636107Y23836254D02*
X-25674859Y23808962D01*
X-25674859Y23808962D02*
X-25712225Y23779801D01*
X-25712225Y23779801D02*
X-25748116Y23748842D01*
X-25748116Y23748842D02*
X-25782443Y23716158D01*
X-25782443Y23716158D02*
X-26680468Y22818133D01*
X-26751179Y21096422D02*
X-26768344Y21080081D01*
X-26768344Y21080081D02*
X-26786289Y21064602D01*
X-26786289Y21064602D02*
X-26804972Y21050021D01*
X-26804972Y21050021D02*
X-26824348Y21036375D01*
X-26824348Y21036375D02*
X-26844370Y21023696D01*
X-26844370Y21023696D02*
X-26864990Y21012015D01*
X-26864990Y21012015D02*
X-26886159Y21001359D01*
X-26886159Y21001359D02*
X-26907825Y20991755D01*
X-26907825Y20991755D02*
X-26929936Y20983226D01*
X-26929936Y20983226D02*
X-26952439Y20975792D01*
X-26952439Y20975792D02*
X-26975279Y20969471D01*
X-26975279Y20969471D02*
X-26998403Y20964279D01*
X-26998403Y20964279D02*
X-27021753Y20960227D01*
X-27021753Y20960227D02*
X-27045274Y20957326D01*
X-27045274Y20957326D02*
X-27068909Y20955583D01*
X-27068909Y20955583D02*
X-27092600Y20955000D01*
X-27092600Y20955000D02*
X-27330100Y20955000D01*
X-26466600Y21581000D02*
X-26467183Y21557309D01*
X-26467183Y21557309D02*
X-26468926Y21533674D01*
X-26468926Y21533674D02*
X-26471827Y21510153D01*
X-26471827Y21510153D02*
X-26475879Y21486803D01*
X-26475879Y21486803D02*
X-26481071Y21463679D01*
X-26481071Y21463679D02*
X-26487392Y21440839D01*
X-26487392Y21440839D02*
X-26494826Y21418336D01*
X-26494826Y21418336D02*
X-26503355Y21396225D01*
X-26503355Y21396225D02*
X-26512959Y21374559D01*
X-26512959Y21374559D02*
X-26523615Y21353390D01*
X-26523615Y21353390D02*
X-26535296Y21332770D01*
X-26535296Y21332770D02*
X-26547975Y21312748D01*
X-26547975Y21312748D02*
X-26561621Y21293372D01*
X-26561621Y21293372D02*
X-26576201Y21274689D01*
X-26576201Y21274689D02*
X-26591681Y21256744D01*
X-26591681Y21256744D02*
X-26608022Y21239579D01*
X-26608022Y21239579D02*
X-26751179Y21096422D01*
X-26113047Y22916354D02*
X-26153901Y22873445D01*
X-26153901Y22873445D02*
X-26192600Y22828582D01*
X-26192600Y22828582D02*
X-26229052Y22781874D01*
X-26229052Y22781874D02*
X-26263167Y22733434D01*
X-26263167Y22733434D02*
X-26294864Y22683378D01*
X-26294864Y22683378D02*
X-26324067Y22631827D01*
X-26324067Y22631827D02*
X-26350706Y22578906D01*
X-26350706Y22578906D02*
X-26374715Y22524741D01*
X-26374715Y22524741D02*
X-26396038Y22469463D01*
X-26396038Y22469463D02*
X-26414623Y22413205D01*
X-26414623Y22413205D02*
X-26430425Y22356104D01*
X-26430425Y22356104D02*
X-26443407Y22298296D01*
X-26443407Y22298296D02*
X-26453536Y22239920D01*
X-26453536Y22239920D02*
X-26460788Y22181118D01*
X-26460788Y22181118D02*
X-26465147Y22122030D01*
X-26465147Y22122030D02*
X-26466600Y22062800D01*
X-26466600Y22062800D02*
X-26466600Y21581000D01*
X-25030400Y23499000D02*
X-24932600Y23499000D01*
X-25030400Y23499000D02*
X-25089630Y23497547D01*
X-25089630Y23497547D02*
X-25148718Y23493188D01*
X-25148718Y23493188D02*
X-25207520Y23485936D01*
X-25207520Y23485936D02*
X-25265896Y23475807D01*
X-25265896Y23475807D02*
X-25323704Y23462825D01*
X-25323704Y23462825D02*
X-25380805Y23447023D01*
X-25380805Y23447023D02*
X-25437063Y23428438D01*
X-25437063Y23428438D02*
X-25492341Y23407115D01*
X-25492341Y23407115D02*
X-25546506Y23383106D01*
X-25546506Y23383106D02*
X-25599427Y23356467D01*
X-25599427Y23356467D02*
X-25650978Y23327264D01*
X-25650978Y23327264D02*
X-25701034Y23295567D01*
X-25701034Y23295567D02*
X-25749474Y23261452D01*
X-25749474Y23261452D02*
X-25796182Y23225000D01*
X-25796182Y23225000D02*
X-25841045Y23186301D01*
X-25841045Y23186301D02*
X-25883954Y23145447D01*
X-25883954Y23145447D02*
X-26113047Y22916354D01*
X-25530400Y24499000D02*
X-24932600Y24499000D01*
X-27330100Y24257000D02*
X-26892600Y24257000D01*
X-26500600Y24499000D02*
X-25530400Y24499000D01*
X-26500600Y24499000D02*
X-26518370Y24498565D01*
X-26518370Y24498565D02*
X-26536096Y24497257D01*
X-26536096Y24497257D02*
X-26553737Y24495081D01*
X-26553737Y24495081D02*
X-26571249Y24492043D01*
X-26571249Y24492043D02*
X-26588592Y24488148D01*
X-26588592Y24488148D02*
X-26605722Y24483408D01*
X-26605722Y24483408D02*
X-26622600Y24477832D01*
X-26622600Y24477832D02*
X-26639183Y24471435D01*
X-26639183Y24471435D02*
X-26655433Y24464232D01*
X-26655433Y24464232D02*
X-26671309Y24456241D01*
X-26671309Y24456241D02*
X-26686774Y24447480D01*
X-26686774Y24447480D02*
X-26701791Y24437971D01*
X-26701791Y24437971D02*
X-26716323Y24427736D01*
X-26716323Y24427736D02*
X-26730336Y24416801D01*
X-26730336Y24416801D02*
X-26743795Y24405191D01*
X-26743795Y24405191D02*
X-26756667Y24392934D01*
X-26756667Y24392934D02*
X-26892600Y24257000D01*
X-30067600Y26924000D02*
X-30505100Y26924000D01*
X-30038690Y26895090D02*
X-30067600Y26924000D01*
X-26176490Y26895090D02*
X-30038690Y26895090D01*
X-26176490Y26895090D02*
X-26146876Y26894363D01*
X-26146876Y26894363D02*
X-26117332Y26892184D01*
X-26117332Y26892184D02*
X-26087931Y26888558D01*
X-26087931Y26888558D02*
X-26058743Y26883493D01*
X-26058743Y26883493D02*
X-26029839Y26877003D01*
X-26029839Y26877003D02*
X-26001289Y26869102D01*
X-26001289Y26869102D02*
X-25973160Y26859809D01*
X-25973160Y26859809D02*
X-25945521Y26849148D01*
X-25945521Y26849148D02*
X-25918439Y26837143D01*
X-25918439Y26837143D02*
X-25891978Y26823824D01*
X-25891978Y26823824D02*
X-25866203Y26809222D01*
X-25866203Y26809222D02*
X-25841175Y26793374D01*
X-25841175Y26793374D02*
X-25816955Y26776316D01*
X-25816955Y26776316D02*
X-25793601Y26758091D01*
X-25793601Y26758091D02*
X-25771170Y26738741D01*
X-25771170Y26738741D02*
X-25749714Y26718314D01*
X-25230400Y26499000D02*
X-24932600Y26499000D01*
X-25230400Y26499000D02*
X-25265939Y26499873D01*
X-25265939Y26499873D02*
X-25301391Y26502488D01*
X-25301391Y26502488D02*
X-25336672Y26506840D01*
X-25336672Y26506840D02*
X-25371698Y26512917D01*
X-25371698Y26512917D02*
X-25406383Y26520706D01*
X-25406383Y26520706D02*
X-25440644Y26530187D01*
X-25440644Y26530187D02*
X-25474398Y26541338D01*
X-25474398Y26541338D02*
X-25507565Y26554132D01*
X-25507565Y26554132D02*
X-25540064Y26568538D01*
X-25540064Y26568538D02*
X-25571817Y26584521D01*
X-25571817Y26584521D02*
X-25602748Y26602043D01*
X-25602748Y26602043D02*
X-25632781Y26621061D01*
X-25632781Y26621061D02*
X-25661845Y26641531D01*
X-25661845Y26641531D02*
X-25689870Y26663401D01*
X-25689870Y26663401D02*
X-25716788Y26686621D01*
X-25716788Y26686621D02*
X-25742533Y26711133D01*
X-25742533Y26711133D02*
X-25749714Y26718314D01*
X-24932600Y20499000D02*
X-24486600Y20499000D01*
X-24486600Y20499000D02*
X-24180600Y20193000D01*
X-41198600Y9652000D02*
X-41198600Y11894000D01*
D24*
X-41198600Y13716000D02*
X-41198600Y11894000D01*
X-41452600Y13970000D02*
X-41198600Y13716000D01*
X-43230600Y13970000D02*
X-41452600Y13970000D01*
X-44246600Y11938000D02*
X-44246600Y12954000D01*
X-44246600Y12954000D02*
X-43230600Y13970000D01*
D27*
X-24932600Y20999000D02*
X-24223885Y20999000D01*
X-24223885Y20999000D02*
X-23875514Y20650629D01*
X-39928600Y11694000D02*
X-39928600Y11894000D01*
X-39928600Y11694000D02*
X-39926856Y11622925D01*
X-39926856Y11622925D02*
X-39921625Y11552020D01*
X-39921625Y11552020D02*
X-39912922Y11481457D01*
X-39912922Y11481457D02*
X-39900767Y11411407D01*
X-39900767Y11411407D02*
X-39885190Y11342037D01*
X-39885190Y11342037D02*
X-39866227Y11273515D01*
X-39866227Y11273515D02*
X-39843925Y11206006D01*
X-39843925Y11206006D02*
X-39818338Y11139673D01*
X-39818338Y11139673D02*
X-39789526Y11074675D01*
X-39789526Y11074675D02*
X-39757560Y11011169D01*
X-39757560Y11011169D02*
X-39722516Y10949308D01*
X-39722516Y10949308D02*
X-39684480Y10889241D01*
X-39684480Y10889241D02*
X-39643541Y10831113D01*
X-39643541Y10831113D02*
X-39599800Y10775064D01*
X-39599800Y10775064D02*
X-39553361Y10721229D01*
X-39553361Y10721229D02*
X-39504336Y10669736D01*
X-37740600Y9906000D02*
X-37515600Y9906000D01*
X-37740600Y9906000D02*
X-37859060Y9908909D01*
X-37859060Y9908909D02*
X-37977235Y9917626D01*
X-37977235Y9917626D02*
X-38094839Y9932131D01*
X-38094839Y9932131D02*
X-38211590Y9952389D01*
X-38211590Y9952389D02*
X-38327207Y9978351D01*
X-38327207Y9978351D02*
X-38441410Y10009956D01*
X-38441410Y10009956D02*
X-38553925Y10047126D01*
X-38553925Y10047126D02*
X-38664480Y10089772D01*
X-38664480Y10089772D02*
X-38772810Y10137791D01*
X-38772810Y10137791D02*
X-38878653Y10191068D01*
X-38878653Y10191068D02*
X-38981755Y10249474D01*
X-38981755Y10249474D02*
X-39081866Y10312869D01*
X-39081866Y10312869D02*
X-39178746Y10381100D01*
X-39178746Y10381100D02*
X-39272162Y10454002D01*
X-39272162Y10454002D02*
X-39361888Y10531400D01*
X-39361888Y10531400D02*
X-39447707Y10613107D01*
X-39447707Y10613107D02*
X-39504336Y10669736D01*
X-24932600Y21499000D02*
X-24089600Y21499000D01*
X-24089600Y21499000D02*
X-23926600Y21336000D01*
X-38658600Y18853000D02*
X-38658600Y19094000D01*
X-38658600Y18853000D02*
X-38655111Y18710849D01*
X-38655111Y18710849D02*
X-38644650Y18569039D01*
X-38644650Y18569039D02*
X-38627244Y18427914D01*
X-38627244Y18427914D02*
X-38602934Y18287813D01*
X-38602934Y18287813D02*
X-38571779Y18149073D01*
X-38571779Y18149073D02*
X-38533854Y18012030D01*
X-38533854Y18012030D02*
X-38489250Y17877012D01*
X-38489250Y17877012D02*
X-38438075Y17744345D01*
X-38438075Y17744345D02*
X-38380452Y17614349D01*
X-38380452Y17614349D02*
X-38316520Y17487338D01*
X-38316520Y17487338D02*
X-38246432Y17363616D01*
X-38246432Y17363616D02*
X-38170359Y17243482D01*
X-38170359Y17243482D02*
X-38088482Y17127226D01*
X-38088482Y17127226D02*
X-38000999Y17015128D01*
X-38000999Y17015128D02*
X-37908121Y16907457D01*
X-37908121Y16907457D02*
X-37810072Y16804472D01*
X-37810072Y16804472D02*
X-37134600Y16129000D01*
X-24932600Y21999000D02*
X-23573600Y21999000D01*
X-23573600Y21999000D02*
X-23164600Y21590000D01*
X-37388600Y18180000D02*
X-37388600Y19094000D01*
X-37388600Y18180000D02*
X-37387438Y18132617D01*
X-37387438Y18132617D02*
X-37383951Y18085347D01*
X-37383951Y18085347D02*
X-37378149Y18038305D01*
X-37378149Y18038305D02*
X-37370046Y17991605D01*
X-37370046Y17991605D02*
X-37359661Y17945358D01*
X-37359661Y17945358D02*
X-37347019Y17899677D01*
X-37347019Y17899677D02*
X-37332151Y17854671D01*
X-37332151Y17854671D02*
X-37315093Y17810449D01*
X-37315093Y17810449D02*
X-37295885Y17767117D01*
X-37295885Y17767117D02*
X-37274575Y17724780D01*
X-37274575Y17724780D02*
X-37251212Y17683539D01*
X-37251212Y17683539D02*
X-37225854Y17643495D01*
X-37225854Y17643495D02*
X-37198562Y17604743D01*
X-37198562Y17604743D02*
X-37169401Y17567377D01*
X-37169401Y17567377D02*
X-37138442Y17531486D01*
X-37138442Y17531486D02*
X-37105758Y17497158D01*
X-36353600Y17145000D02*
X-35610600Y17145000D01*
X-36353600Y17145000D02*
X-36400984Y17146164D01*
X-36400984Y17146164D02*
X-36448254Y17149651D01*
X-36448254Y17149651D02*
X-36495296Y17155453D01*
X-36495296Y17155453D02*
X-36541996Y17163556D01*
X-36541996Y17163556D02*
X-36588243Y17173941D01*
X-36588243Y17173941D02*
X-36633924Y17186583D01*
X-36633924Y17186583D02*
X-36678930Y17201451D01*
X-36678930Y17201451D02*
X-36723153Y17218509D01*
X-36723153Y17218509D02*
X-36766484Y17237717D01*
X-36766484Y17237717D02*
X-36808822Y17259027D01*
X-36808822Y17259027D02*
X-36850062Y17282390D01*
X-36850062Y17282390D02*
X-36890107Y17307748D01*
X-36890107Y17307748D02*
X-36928859Y17335040D01*
X-36928859Y17335040D02*
X-36966225Y17364201D01*
X-36966225Y17364201D02*
X-37002116Y17395160D01*
X-37002116Y17395160D02*
X-37036443Y17427843D01*
X-37036443Y17427843D02*
X-37105758Y17497158D01*
X-13661100Y23499000D02*
X-13639600Y23520500D01*
X-16062600Y23499000D02*
X-13661100Y23499000D01*
X-13693100Y21999000D02*
X-13639600Y21945500D01*
X-16062600Y21999000D02*
X-13693100Y21999000D01*
D24*
X-25831600Y19692000D02*
X-25831600Y18288000D01*
X-25831600Y19692000D02*
X-25831252Y19706216D01*
X-25831252Y19706216D02*
X-25830206Y19720397D01*
X-25830206Y19720397D02*
X-25828465Y19734509D01*
X-25828465Y19734509D02*
X-25826034Y19748519D01*
X-25826034Y19748519D02*
X-25822919Y19762393D01*
X-25822919Y19762393D02*
X-25819126Y19776098D01*
X-25819126Y19776098D02*
X-25814666Y19789599D01*
X-25814666Y19789599D02*
X-25809549Y19802866D01*
X-25809549Y19802866D02*
X-25803786Y19815866D01*
X-25803786Y19815866D02*
X-25797393Y19828567D01*
X-25797393Y19828567D02*
X-25790384Y19840939D01*
X-25790384Y19840939D02*
X-25782777Y19852952D01*
X-25782777Y19852952D02*
X-25774589Y19864578D01*
X-25774589Y19864578D02*
X-25765841Y19875788D01*
X-25765841Y19875788D02*
X-25756553Y19886555D01*
X-25756553Y19886555D02*
X-25746748Y19896853D01*
X-25524600Y19999000D02*
X-24932600Y19999000D01*
X-25524600Y19999000D02*
X-25538816Y19998652D01*
X-25538816Y19998652D02*
X-25552997Y19997606D01*
X-25552997Y19997606D02*
X-25567109Y19995866D01*
X-25567109Y19995866D02*
X-25581120Y19993435D01*
X-25581120Y19993435D02*
X-25594994Y19990319D01*
X-25594994Y19990319D02*
X-25608698Y19986527D01*
X-25608698Y19986527D02*
X-25622200Y19982066D01*
X-25622200Y19982066D02*
X-25635467Y19976949D01*
X-25635467Y19976949D02*
X-25648466Y19971187D01*
X-25648466Y19971187D02*
X-25661168Y19964793D01*
X-25661168Y19964793D02*
X-25673540Y19957785D01*
X-25673540Y19957785D02*
X-25685553Y19950177D01*
X-25685553Y19950177D02*
X-25697179Y19941990D01*
X-25697179Y19941990D02*
X-25708389Y19933242D01*
X-25708389Y19933242D02*
X-25719156Y19923954D01*
X-25719156Y19923954D02*
X-25729454Y19914148D01*
X-25729454Y19914148D02*
X-25746748Y19896853D01*
X-26339600Y11602000D02*
X-26339600Y12446000D01*
X-28092100Y10287000D02*
X-27654600Y10287000D01*
X-27654600Y10287000D02*
X-26339600Y11602000D01*
X-26339600Y12092447D02*
X-26339600Y12446000D01*
X-9650000Y-996400D02*
X-9650000Y4138400D01*
X-26339600Y11906998D02*
X-26339600Y12092447D01*
X-24211602Y9779000D02*
X-26339600Y11906998D01*
X-17703600Y6096000D02*
X-21386600Y9779000D01*
X-9650000Y4138400D02*
X-11607600Y6096000D01*
X-11607600Y6096000D02*
X-17703600Y6096000D01*
X-21386600Y9779000D02*
X-24211602Y9779000D01*
D26*
X-16062600Y20999000D02*
X-14953600Y20999000D01*
X-14953600Y20999000D02*
X-14909600Y20955000D01*
X-10617100Y18542000D02*
X-10490100Y18669000D01*
X-11323100Y18542000D02*
X-10617100Y18542000D01*
X-10464600Y18643500D02*
X-10490100Y18669000D01*
X-10464600Y17018000D02*
X-10464600Y18643500D01*
D24*
X-23747600Y18644000D02*
X-23747600Y19314000D01*
X-24834179Y17057922D02*
X-24851344Y17041581D01*
X-24851344Y17041581D02*
X-24869289Y17026102D01*
X-24869289Y17026102D02*
X-24887972Y17011521D01*
X-24887972Y17011521D02*
X-24907348Y16997875D01*
X-24907348Y16997875D02*
X-24927370Y16985196D01*
X-24927370Y16985196D02*
X-24947990Y16973515D01*
X-24947990Y16973515D02*
X-24969159Y16962859D01*
X-24969159Y16962859D02*
X-24990825Y16953255D01*
X-24990825Y16953255D02*
X-25012936Y16944726D01*
X-25012936Y16944726D02*
X-25035439Y16937292D01*
X-25035439Y16937292D02*
X-25058279Y16930971D01*
X-25058279Y16930971D02*
X-25081403Y16925779D01*
X-25081403Y16925779D02*
X-25104753Y16921727D01*
X-25104753Y16921727D02*
X-25128274Y16918826D01*
X-25128274Y16918826D02*
X-25151909Y16917083D01*
X-25151909Y16917083D02*
X-25175600Y16916500D01*
X-25175600Y16916500D02*
X-25450600Y16916500D01*
X-23747600Y18544500D02*
X-23747600Y18644000D01*
X-23747600Y18544500D02*
X-23748764Y18497117D01*
X-23748764Y18497117D02*
X-23752251Y18449847D01*
X-23752251Y18449847D02*
X-23758053Y18402805D01*
X-23758053Y18402805D02*
X-23766156Y18356105D01*
X-23766156Y18356105D02*
X-23776541Y18309858D01*
X-23776541Y18309858D02*
X-23789183Y18264177D01*
X-23789183Y18264177D02*
X-23804051Y18219171D01*
X-23804051Y18219171D02*
X-23821109Y18174949D01*
X-23821109Y18174949D02*
X-23840317Y18131617D01*
X-23840317Y18131617D02*
X-23861628Y18089280D01*
X-23861628Y18089280D02*
X-23884990Y18048040D01*
X-23884990Y18048040D02*
X-23910348Y18007995D01*
X-23910348Y18007995D02*
X-23937641Y17969243D01*
X-23937641Y17969243D02*
X-23966802Y17931877D01*
X-23966802Y17931877D02*
X-23997761Y17895987D01*
X-23997761Y17895987D02*
X-24030443Y17861658D01*
X-24030443Y17861658D02*
X-24834179Y17057922D01*
D26*
X-23247600Y19314000D02*
X-23247600Y18154200D01*
X-23247600Y18154200D02*
X-24485400Y16916400D01*
X-24485400Y16916400D02*
X-24485400Y14478000D01*
X-24485400Y14478000D02*
X-24739400Y14224000D01*
X-25024600Y14224000D02*
X-25069600Y14179000D01*
X-25069600Y14179000D02*
X-25069600Y13741500D01*
X-24739400Y14224000D02*
X-25024600Y14224000D01*
D28*
X-18747600Y18794000D02*
X-18747600Y19314000D01*
X-16459100Y16764000D02*
X-16896600Y16764000D01*
X-18747600Y18765000D02*
X-18747600Y18794000D01*
X-18747600Y18765000D02*
X-18747164Y18747232D01*
X-18747164Y18747232D02*
X-18745857Y18729505D01*
X-18745857Y18729505D02*
X-18743681Y18711865D01*
X-18743681Y18711865D02*
X-18740642Y18694352D01*
X-18740642Y18694352D02*
X-18736748Y18677010D01*
X-18736748Y18677010D02*
X-18732007Y18659879D01*
X-18732007Y18659879D02*
X-18726432Y18643002D01*
X-18726432Y18643002D02*
X-18720035Y18626419D01*
X-18720035Y18626419D02*
X-18712832Y18610169D01*
X-18712832Y18610169D02*
X-18704840Y18594293D01*
X-18704840Y18594293D02*
X-18696079Y18578827D01*
X-18696079Y18578827D02*
X-18686570Y18563811D01*
X-18686570Y18563811D02*
X-18676336Y18549279D01*
X-18676336Y18549279D02*
X-18665400Y18535266D01*
X-18665400Y18535266D02*
X-18653791Y18521808D01*
X-18653791Y18521808D02*
X-18641534Y18508934D01*
X-18641534Y18508934D02*
X-16896600Y16764000D01*
D24*
X-13639600Y28874000D02*
X-13639600Y29311500D01*
X-13684600Y28829000D02*
X-13639600Y28874000D01*
X-13893600Y28829000D02*
X-13684600Y28829000D01*
X-16062600Y27499000D02*
X-15223600Y27499000D01*
X-15223600Y27499000D02*
X-13893600Y28829000D01*
X-59178369Y21506040D02*
X-59204388Y21584801D01*
X-59156246Y21426098D02*
X-59178369Y21506040D01*
X-59138072Y21345166D02*
X-59156246Y21426098D01*
X-59204388Y21584801D02*
X-59234240Y21662189D01*
X-59105600Y21015473D02*
X-59107636Y21098395D01*
X-59107636Y21098395D02*
X-59113738Y21181118D01*
X-59113738Y21181118D02*
X-59123892Y21263441D01*
X-59123892Y21263441D02*
X-59138072Y21345166D01*
D29*
X-58366599Y15014001D02*
X-58366599Y16182401D01*
X-59105600Y14275000D02*
X-58366599Y15014001D01*
X-58366599Y16182401D02*
X-57785000Y16764000D01*
X-57785000Y16764000D02*
X-57785000Y20447000D01*
X-58353000Y21015000D02*
X-59308600Y21015000D01*
X-57785000Y20447000D02*
X-58353000Y21015000D01*
X-61264600Y14275000D02*
X-61264600Y17729400D01*
X-60519000Y18475000D02*
X-59308600Y18475000D01*
X-61264600Y17729400D02*
X-60519000Y18475000D01*
D24*
X-59308600Y29185000D02*
X-58013600Y30480000D01*
X-58013600Y30480000D02*
X-58013600Y30791400D01*
X-58013600Y30791400D02*
X-57563000Y31242000D01*
X-57563000Y31242000D02*
X-57563000Y33528000D01*
X-57105600Y33985400D02*
X-57105600Y35560000D01*
X-57563000Y33528000D02*
X-57105600Y33985400D01*
X-59226921Y31088280D02*
X-58981800Y31345741D01*
X-58981800Y31345741D02*
X-58749605Y31614919D01*
X-59308600Y35516000D02*
X-59264600Y35560000D01*
D25*
X-59264600Y31769000D02*
X-59308600Y31725000D01*
X-59264600Y35560000D02*
X-59264600Y31769000D01*
D29*
X-56941500Y31554198D02*
X-56179500Y32316198D01*
X-16747600Y28814001D02*
X-16747600Y28184000D01*
X-17467802Y39764500D02*
X-16857100Y39153798D01*
X-56941500Y27373802D02*
X-56941500Y31554198D01*
X-54446198Y39764500D02*
X-17467802Y39764500D01*
X-50227698Y20660000D02*
X-56941500Y27373802D01*
X-45518600Y20660000D02*
X-50227698Y20660000D01*
X-56179500Y32316198D02*
X-56179500Y38031198D01*
X-16857100Y39153798D02*
X-16857100Y28923501D01*
X-56179500Y38031198D02*
X-54446198Y39764500D01*
X-16857100Y28923501D02*
X-16747600Y28814001D01*
X-17247600Y28814001D02*
X-17247600Y28184000D01*
X-17138100Y28923501D02*
X-17247600Y28814001D01*
X-17138100Y39037402D02*
X-17138100Y28923501D01*
X-17584198Y39483500D02*
X-17138100Y39037402D01*
X-55898500Y37914802D02*
X-54329802Y39483500D01*
X-51263438Y23145382D02*
X-51283259Y23186540D01*
X-51253273Y23055164D02*
X-51253273Y23100846D01*
X-51924455Y23827735D02*
X-51965612Y23847556D01*
X-51563650Y22681847D02*
X-51311741Y22933755D01*
X-51611952Y22604974D02*
X-51592131Y22646132D01*
X-56660500Y31437802D02*
X-55898500Y32199802D01*
X-51622117Y22560438D02*
X-51611952Y22604974D01*
X-51622117Y22514757D02*
X-51622117Y22560438D01*
X-52681932Y23518863D02*
X-52717648Y23547346D01*
X-51611952Y22470220D02*
X-51622117Y22514757D01*
X-51592131Y22429063D02*
X-51611952Y22470220D01*
X-52141524Y23827735D02*
X-52177239Y23799254D01*
X-51563650Y22393348D02*
X-51592131Y22429063D01*
X-52177239Y23799254D02*
X-52429147Y23547345D01*
X-51311741Y22933755D02*
X-51283259Y22969471D01*
X-51442240Y22334879D02*
X-51486776Y22345044D01*
X-51283259Y22969471D02*
X-51263438Y23010628D01*
X-52640774Y23499042D02*
X-52681932Y23518863D01*
X-51396558Y22334879D02*
X-51442240Y22334879D01*
X-51352022Y22345044D02*
X-51396558Y22334879D01*
X-51840437Y23587627D02*
X-51830272Y23632163D01*
X-51263438Y23010628D02*
X-51253273Y23055164D01*
X-51929021Y22922043D02*
X-51973557Y22911878D01*
X-51310865Y22364865D02*
X-51352022Y22345044D01*
X-51275149Y22393347D02*
X-51310865Y22364865D01*
X-51023241Y22645256D02*
X-51275149Y22393347D01*
X-50987526Y22673737D02*
X-51023241Y22645256D01*
X-50946368Y22693558D02*
X-50987526Y22673737D01*
X-51034953Y22027975D02*
X-51015132Y22069133D01*
X-51045118Y21983439D02*
X-51034953Y22027975D01*
X-51045118Y21937758D02*
X-51045118Y21983439D01*
X-51486776Y22345044D02*
X-51527934Y22364865D01*
X-50770457Y22673737D02*
X-50811614Y22693558D01*
X-55898500Y32199802D02*
X-55898500Y37914802D01*
X-51015132Y22069133D02*
X-50986651Y22104848D01*
X-51034953Y21893221D02*
X-51045118Y21937758D01*
X-50734742Y22645256D02*
X-50770457Y22673737D01*
X-50676274Y22523847D02*
X-50686439Y22568383D01*
X-51015132Y21852064D02*
X-51034953Y21893221D01*
X-50986651Y22104848D02*
X-50734742Y22356756D01*
X-56660500Y27490198D02*
X-56660500Y31437802D01*
X-50706260Y22609541D02*
X-50734742Y22645256D01*
X-52100366Y23847556D02*
X-52141524Y23827735D01*
X-50856151Y22703723D02*
X-50901832Y22703723D01*
X-48058600Y21930000D02*
X-49047600Y20941000D01*
X-52019239Y22911878D02*
X-52063775Y22922043D01*
X-51592131Y22646132D02*
X-51563650Y22681847D01*
X-50986651Y21816349D02*
X-51015132Y21852064D01*
X-50734742Y22356756D02*
X-50706260Y22392472D01*
X-52140649Y22970347D02*
X-52169130Y23006062D01*
X-51253273Y23100846D02*
X-51263438Y23145382D01*
X-51965612Y23847556D02*
X-52010149Y23857721D01*
X-50901832Y22703723D02*
X-50946368Y22693558D01*
X-50111302Y20941000D02*
X-50986651Y21816349D01*
X-51888740Y23799254D02*
X-51924455Y23827735D01*
X-50686439Y22433629D02*
X-50676274Y22478165D01*
X-51527934Y22364865D02*
X-51563650Y22393348D01*
X-52596238Y23488877D02*
X-52640774Y23499042D01*
X-50676274Y22478165D02*
X-50676274Y22523847D01*
X-50706260Y22392472D02*
X-50686439Y22433629D01*
X-50686439Y22568383D02*
X-50706260Y22609541D01*
X-49047600Y20941000D02*
X-50111302Y20941000D01*
X-50811614Y22693558D02*
X-50856151Y22703723D01*
X-51283259Y23186540D02*
X-51311741Y23222255D01*
X-51311741Y23222255D02*
X-51347456Y23250736D01*
X-51347456Y23250736D02*
X-51388613Y23270557D01*
X-51388613Y23270557D02*
X-51433150Y23280722D01*
X-51433150Y23280722D02*
X-51478831Y23280722D01*
X-51478831Y23280722D02*
X-51523367Y23270557D01*
X-51523367Y23270557D02*
X-51564525Y23250736D01*
X-51564525Y23250736D02*
X-51600240Y23222255D01*
X-51600240Y23222255D02*
X-51852148Y22970346D01*
X-51852148Y22970346D02*
X-51887864Y22941864D01*
X-51887864Y22941864D02*
X-51929021Y22922043D01*
X-51973557Y22911878D02*
X-52019239Y22911878D01*
X-52063775Y22922043D02*
X-52104933Y22941864D01*
X-52104933Y22941864D02*
X-52140649Y22970347D01*
X-52169130Y23006062D02*
X-52188951Y23047219D01*
X-52188951Y23047219D02*
X-52199116Y23091756D01*
X-52199116Y23091756D02*
X-52199116Y23137437D01*
X-52199116Y23137437D02*
X-52188951Y23181973D01*
X-52188951Y23181973D02*
X-52169130Y23223131D01*
X-52169130Y23223131D02*
X-52140649Y23258846D01*
X-52140649Y23258846D02*
X-51888740Y23510754D01*
X-51888740Y23510754D02*
X-51860258Y23546470D01*
X-51860258Y23546470D02*
X-51840437Y23587627D01*
X-51830272Y23632163D02*
X-51830272Y23677845D01*
X-51830272Y23677845D02*
X-51840437Y23722381D01*
X-51840437Y23722381D02*
X-51860258Y23763539D01*
X-51860258Y23763539D02*
X-51888740Y23799254D01*
X-52010149Y23857721D02*
X-52055830Y23857721D01*
X-52055830Y23857721D02*
X-52100366Y23847556D01*
X-52429147Y23547345D02*
X-52464863Y23518863D01*
X-52464863Y23518863D02*
X-52506020Y23499042D01*
X-52506020Y23499042D02*
X-52550556Y23488877D01*
X-52550556Y23488877D02*
X-52596238Y23488877D01*
X-52717648Y23547346D02*
X-56660500Y27490198D01*
X-54329802Y39483500D02*
X-17584198Y39483500D01*
X-19357100Y29069502D02*
X-19209100Y29217502D01*
X-19357100Y28923501D02*
X-19357100Y29069502D01*
X-19247600Y28814001D02*
X-19357100Y28923501D01*
X-19247600Y28184000D02*
X-19247600Y28814001D01*
X-18357100Y28923501D02*
X-18247600Y28814001D01*
X-18357100Y36462798D02*
X-18357100Y28923501D01*
X-20769802Y38875500D02*
X-18357100Y36462798D01*
X-34430500Y34186798D02*
X-29741798Y38875500D01*
X-29741798Y38875500D02*
X-20769802Y38875500D01*
X-34430500Y29457029D02*
X-34430500Y34186798D01*
X-35784941Y28102588D02*
X-34430500Y29457029D01*
X-18247600Y28814001D02*
X-18247600Y28184000D01*
X-35994245Y28102588D02*
X-35784941Y28102588D01*
X-35586243Y27903890D02*
X-34149500Y29340633D01*
X-35586243Y27694586D02*
X-35586243Y27903890D01*
X-18638100Y28923501D02*
X-18747600Y28814001D01*
X-34149500Y29340633D02*
X-34149500Y34070402D01*
X-34149500Y34070402D02*
X-29625402Y38594500D01*
X-29625402Y38594500D02*
X-20886198Y38594500D01*
X-20886198Y38594500D02*
X-18638100Y36346402D01*
X-18638100Y36346402D02*
X-18638100Y28923501D01*
X-18747600Y28814001D02*
X-18747600Y28184000D01*
X-19747600Y28814001D02*
X-19638100Y28923501D01*
X-19747600Y28184000D02*
X-19747600Y28814001D01*
X-19638100Y29069502D02*
X-19786100Y29217502D01*
X-19638100Y28923501D02*
X-19638100Y29069502D01*
X-20747600Y28184000D02*
X-20747600Y28814001D01*
X-20857100Y29069502D02*
X-20709100Y29217502D01*
X-20747600Y28814001D02*
X-20857100Y28923501D01*
X-20857100Y28923501D02*
X-20857100Y29069502D01*
X-37780599Y37018697D02*
X-37780599Y37228001D01*
X-37094100Y31573202D02*
X-37094100Y36332198D01*
X-41936500Y28815500D02*
X-39851802Y28815500D01*
X-42123546Y28750049D02*
X-42066665Y28785790D01*
X-42171049Y28702546D02*
X-42123546Y28750049D01*
X-42206790Y28645665D02*
X-42171049Y28702546D01*
X-42228978Y28582256D02*
X-42206790Y28645665D01*
X-42236500Y28462382D02*
X-42236500Y28515500D01*
X-42406334Y28192091D02*
X-42349453Y28227832D01*
X-42469743Y28169903D02*
X-42406334Y28192091D01*
X-42003256Y28807978D02*
X-41936500Y28815500D01*
X-43466209Y28332216D02*
X-43444021Y28395625D01*
X-42066665Y28785790D02*
X-42003256Y28807978D01*
X-43606334Y28192091D02*
X-43549453Y28227832D01*
X-43669743Y28169903D02*
X-43606334Y28192091D01*
X-42301950Y28275335D02*
X-42266209Y28332216D01*
X-43371049Y28702546D02*
X-43323546Y28750049D01*
X-43736500Y28162382D02*
X-43669743Y28169903D01*
X-43803256Y28169903D02*
X-43736500Y28162382D01*
X-42771049Y28275335D02*
X-42723546Y28227832D01*
X-43406790Y28645665D02*
X-43371049Y28702546D01*
X-43866665Y28192091D02*
X-43803256Y28169903D01*
X-43971049Y28275335D02*
X-43923546Y28227832D01*
X-42723546Y28227832D02*
X-42666665Y28192091D01*
X-44006790Y28332216D02*
X-43971049Y28275335D01*
X-42949453Y28750049D02*
X-42901950Y28702546D01*
X-44028978Y28395625D02*
X-44006790Y28332216D01*
X-43549453Y28227832D02*
X-43501950Y28275335D01*
X-37094100Y36332198D02*
X-37780599Y37018697D01*
X-43266665Y28785790D02*
X-43203256Y28807978D01*
X-44206334Y28785790D02*
X-44149453Y28750049D01*
X-44336500Y28815500D02*
X-44269743Y28807978D01*
X-45518600Y28280000D02*
X-44983100Y28815500D01*
X-44269743Y28807978D02*
X-44206334Y28785790D01*
X-39851802Y28815500D02*
X-37094100Y31573202D01*
X-43136500Y28815500D02*
X-43069743Y28807978D01*
X-44101950Y28702546D02*
X-44066209Y28645665D01*
X-42244021Y28395625D02*
X-42236500Y28462382D01*
X-44036500Y28515500D02*
X-44036500Y28462382D01*
X-44149453Y28750049D02*
X-44101950Y28702546D01*
X-42266209Y28332216D02*
X-42244021Y28395625D01*
X-43501950Y28275335D02*
X-43466209Y28332216D01*
X-44066209Y28645665D02*
X-44044021Y28582256D01*
X-44983100Y28815500D02*
X-44336500Y28815500D01*
X-42603256Y28169903D02*
X-42536500Y28162382D01*
X-44044021Y28582256D02*
X-44036500Y28515500D01*
X-43323546Y28750049D02*
X-43266665Y28785790D01*
X-43923546Y28227832D02*
X-43866665Y28192091D01*
X-43069743Y28807978D02*
X-43006334Y28785790D01*
X-44036500Y28462382D02*
X-44028978Y28395625D01*
X-43444021Y28395625D02*
X-43436500Y28462382D01*
X-43436500Y28462382D02*
X-43436500Y28515500D01*
X-43203256Y28807978D02*
X-43136500Y28815500D01*
X-42806790Y28332216D02*
X-42771049Y28275335D01*
X-43436500Y28515500D02*
X-43428978Y28582256D01*
X-42536500Y28162382D02*
X-42469743Y28169903D01*
X-42901950Y28702546D02*
X-42866209Y28645665D01*
X-43428978Y28582256D02*
X-43406790Y28645665D01*
X-42844021Y28582256D02*
X-42836500Y28515500D01*
X-42236500Y28515500D02*
X-42228978Y28582256D01*
X-43006334Y28785790D02*
X-42949453Y28750049D01*
X-42866209Y28645665D02*
X-42844021Y28582256D01*
X-42836500Y28515500D02*
X-42836500Y28462382D01*
X-42836500Y28462382D02*
X-42828978Y28395625D01*
X-42349453Y28227832D02*
X-42301950Y28275335D01*
X-42828978Y28395625D02*
X-42806790Y28332216D01*
X-42666665Y28192091D02*
X-42603256Y28169903D01*
X-21138100Y29069502D02*
X-21286100Y29217502D01*
X-21247600Y28814001D02*
X-21138100Y28923501D01*
X-21247600Y28184000D02*
X-21247600Y28814001D01*
X-21138100Y28923501D02*
X-21138100Y29069502D01*
X-45038618Y29096500D02*
X-45492118Y29550000D01*
X-38188601Y36819999D02*
X-37979297Y36819999D01*
X-39968198Y29096500D02*
X-45038618Y29096500D01*
X-45492118Y29550000D02*
X-48058600Y29550000D01*
X-37375100Y36215802D02*
X-37375100Y31689598D01*
X-37979297Y36819999D02*
X-37375100Y36215802D01*
X-37375100Y31689598D02*
X-39968198Y29096500D01*
D27*
X-59105600Y12562500D02*
X-59105600Y12700000D01*
X-59105600Y12562500D02*
X-59104728Y12526963D01*
X-59104728Y12526963D02*
X-59102113Y12491510D01*
X-59102113Y12491510D02*
X-59097761Y12456229D01*
X-59097761Y12456229D02*
X-59091684Y12421204D01*
D24*
X-59105600Y12700000D02*
X-59105600Y11861600D01*
X-59105600Y11861600D02*
X-58039000Y10795000D01*
X-58039000Y10795000D02*
X-46101000Y10795000D01*
D27*
X-17247600Y20245000D02*
X-17576600Y20574000D01*
X-17247600Y19314000D02*
X-17247600Y20245000D01*
X-18536800Y20701000D02*
X-20624600Y20701000D01*
X-17747600Y19314000D02*
X-17747600Y19911800D01*
X-17747600Y19911800D02*
X-18536800Y20701000D01*
D29*
X-60103000Y40132000D02*
X-58071000Y40132000D01*
X-60865000Y39370000D02*
X-60103000Y40132000D01*
X-60865000Y28321000D02*
X-60865000Y39370000D01*
X-58071000Y40132000D02*
X-57105600Y39166600D01*
X-59976000Y27432000D02*
X-60865000Y28321000D01*
X-59364338Y27432000D02*
X-59976000Y27432000D01*
X-49458338Y17526000D02*
X-59364338Y27432000D01*
X-57105600Y39166600D02*
X-57105600Y37135000D01*
X-49458338Y17526000D02*
X-44831000Y17526000D01*
D24*
X-4603100Y29718000D02*
X-8305600Y29718000D01*
X-4165600Y29718000D02*
X-4603100Y29718000D01*
D26*
X-16062600Y26499000D02*
X-15432599Y26499000D01*
X-15432599Y26499000D02*
X-15321099Y26387500D01*
X-8305600Y28886500D02*
X-8305600Y29718000D01*
X-8305600Y28886500D02*
X-8306473Y28850963D01*
X-8306473Y28850963D02*
X-8309088Y28815510D01*
X-8309088Y28815510D02*
X-8313440Y28780229D01*
X-8313440Y28780229D02*
X-8319517Y28745204D01*
X-8319517Y28745204D02*
X-8327306Y28710519D01*
X-8327306Y28710519D02*
X-8336788Y28676258D01*
X-8336788Y28676258D02*
X-8347939Y28642503D01*
X-8347939Y28642503D02*
X-8360732Y28609337D01*
X-8360732Y28609337D02*
X-8375138Y28576838D01*
X-8375138Y28576838D02*
X-8391121Y28545085D01*
X-8391121Y28545085D02*
X-8408643Y28514154D01*
X-8408643Y28514154D02*
X-8427662Y28484121D01*
X-8427662Y28484121D02*
X-8448131Y28455057D01*
X-8448131Y28455057D02*
X-8470002Y28427032D01*
X-8470002Y28427032D02*
X-8493221Y28400114D01*
X-8493221Y28400114D02*
X-8517733Y28374368D01*
X-9307179Y27584922D02*
X-8517733Y28374368D01*
X-9307179Y27584922D02*
X-9324344Y27568581D01*
X-9324344Y27568581D02*
X-9342289Y27553102D01*
X-9342289Y27553102D02*
X-9360972Y27538521D01*
X-9360972Y27538521D02*
X-9380348Y27524875D01*
X-9380348Y27524875D02*
X-9400370Y27512196D01*
X-9400370Y27512196D02*
X-9420990Y27500515D01*
X-9420990Y27500515D02*
X-9442159Y27489859D01*
X-9442159Y27489859D02*
X-9463825Y27480255D01*
X-9463825Y27480255D02*
X-9485936Y27471726D01*
X-9485936Y27471726D02*
X-9508439Y27464292D01*
X-9508439Y27464292D02*
X-9531279Y27457971D01*
X-9531279Y27457971D02*
X-9554403Y27452779D01*
X-9554403Y27452779D02*
X-9577753Y27448727D01*
X-9577753Y27448727D02*
X-9601274Y27445826D01*
X-9601274Y27445826D02*
X-9624909Y27444083D01*
X-9624909Y27444083D02*
X-9648600Y27443500D01*
X-10480103Y27231368D02*
X-10454358Y27255881D01*
X-10454358Y27255881D02*
X-10427440Y27279100D01*
X-10427440Y27279100D02*
X-10399415Y27300971D01*
X-10399415Y27300971D02*
X-10370351Y27321440D01*
X-10370351Y27321440D02*
X-10340317Y27340459D01*
X-10340317Y27340459D02*
X-10309387Y27357981D01*
X-10309387Y27357981D02*
X-10277634Y27373964D01*
X-10277634Y27373964D02*
X-10245135Y27388369D01*
X-10245135Y27388369D02*
X-10211968Y27401163D01*
X-10211968Y27401163D02*
X-10178214Y27412314D01*
X-10178214Y27412314D02*
X-10143953Y27421795D01*
X-10143953Y27421795D02*
X-10109268Y27429584D01*
X-10109268Y27429584D02*
X-10074242Y27435662D01*
X-10074242Y27435662D02*
X-10038961Y27440013D01*
X-10038961Y27440013D02*
X-10003509Y27442628D01*
X-10003509Y27442628D02*
X-9967970Y27443500D01*
X-9967970Y27443500D02*
X-9648600Y27443500D01*
X-12323970Y26387500D02*
X-15321099Y26387500D01*
X-12323970Y26387500D02*
X-12205511Y26390409D01*
X-12205511Y26390409D02*
X-12087336Y26399126D01*
X-12087336Y26399126D02*
X-11969732Y26413632D01*
X-11969732Y26413632D02*
X-11852981Y26433890D01*
X-11852981Y26433890D02*
X-11737365Y26459852D01*
X-11737365Y26459852D02*
X-11623162Y26491457D01*
X-11623162Y26491457D02*
X-11510647Y26528627D01*
X-11510647Y26528627D02*
X-11400091Y26571273D01*
X-11400091Y26571273D02*
X-11291762Y26619292D01*
X-11291762Y26619292D02*
X-11185919Y26672569D01*
X-11185919Y26672569D02*
X-11082817Y26730975D01*
X-11082817Y26730975D02*
X-10982706Y26794370D01*
X-10982706Y26794370D02*
X-10885826Y26862601D01*
X-10885826Y26862601D02*
X-10792411Y26935503D01*
X-10792411Y26935503D02*
X-10702685Y27012901D01*
X-10702685Y27012901D02*
X-10616864Y27094608D01*
X-10616864Y27094608D02*
X-10480103Y27231368D01*
D24*
X-8232600Y24765000D02*
X-8305600Y24838000D01*
X-4140100Y24765000D02*
X-8232600Y24765000D01*
D26*
X-15432599Y25999000D02*
X-15321099Y26110500D01*
X-16062600Y25999000D02*
X-15432599Y25999000D01*
X-10365363Y26954368D02*
X-10339618Y26978881D01*
X-10339618Y26978881D02*
X-10312700Y27002100D01*
X-10312700Y27002100D02*
X-10284675Y27023971D01*
X-10284675Y27023971D02*
X-10255611Y27044440D01*
X-10255611Y27044440D02*
X-10225577Y27063459D01*
X-10225577Y27063459D02*
X-10194647Y27080981D01*
X-10194647Y27080981D02*
X-10162894Y27096964D01*
X-10162894Y27096964D02*
X-10130395Y27111369D01*
X-10130395Y27111369D02*
X-10097228Y27124163D01*
X-10097228Y27124163D02*
X-10063474Y27135314D01*
X-10063474Y27135314D02*
X-10029213Y27144795D01*
X-10029213Y27144795D02*
X-9994528Y27152584D01*
X-9994528Y27152584D02*
X-9959502Y27158662D01*
X-9959502Y27158662D02*
X-9924221Y27163013D01*
X-9924221Y27163013D02*
X-9888769Y27165628D01*
X-9888769Y27165628D02*
X-9853230Y27166500D01*
X-9165758Y26883658D02*
X-9200086Y26916341D01*
X-9200086Y26916341D02*
X-9235977Y26947301D01*
X-9235977Y26947301D02*
X-9273343Y26976461D01*
X-9273343Y26976461D02*
X-9312095Y27003754D01*
X-9312095Y27003754D02*
X-9352139Y27029112D01*
X-9352139Y27029112D02*
X-9393380Y27052474D01*
X-9393380Y27052474D02*
X-9435717Y27073785D01*
X-9435717Y27073785D02*
X-9479049Y27092993D01*
X-9479049Y27092993D02*
X-9523271Y27110051D01*
X-9523271Y27110051D02*
X-9568277Y27124919D01*
X-9568277Y27124919D02*
X-9613958Y27137561D01*
X-9613958Y27137561D02*
X-9660205Y27147946D01*
X-9660205Y27147946D02*
X-9706905Y27156049D01*
X-9706905Y27156049D02*
X-9753947Y27161851D01*
X-9753947Y27161851D02*
X-9801217Y27165338D01*
X-9801217Y27165338D02*
X-9848600Y27166500D01*
X-9848600Y27166500D02*
X-9853230Y27166500D01*
X-8305600Y25023500D02*
X-8305600Y24838000D01*
X-8305600Y25023500D02*
X-8308509Y25141960D01*
X-8308509Y25141960D02*
X-8317226Y25260135D01*
X-8317226Y25260135D02*
X-8331731Y25377739D01*
X-8331731Y25377739D02*
X-8351989Y25494490D01*
X-8351989Y25494490D02*
X-8377951Y25610107D01*
X-8377951Y25610107D02*
X-8409556Y25724310D01*
X-8409556Y25724310D02*
X-8446726Y25836825D01*
X-8446726Y25836825D02*
X-8489372Y25947380D01*
X-8489372Y25947380D02*
X-8537391Y26055710D01*
X-8537391Y26055710D02*
X-8590668Y26161553D01*
X-8590668Y26161553D02*
X-8649074Y26264655D01*
X-8649074Y26264655D02*
X-8712469Y26364766D01*
X-8712469Y26364766D02*
X-8780700Y26461646D01*
X-8780700Y26461646D02*
X-8853602Y26555062D01*
X-8853602Y26555062D02*
X-8931000Y26644788D01*
X-8931000Y26644788D02*
X-9012707Y26730607D01*
X-9012707Y26730607D02*
X-9165758Y26883658D01*
X-12209230Y26110500D02*
X-15321099Y26110500D01*
X-12209230Y26110500D02*
X-12090771Y26113409D01*
X-12090771Y26113409D02*
X-11972596Y26122126D01*
X-11972596Y26122126D02*
X-11854992Y26136632D01*
X-11854992Y26136632D02*
X-11738241Y26156890D01*
X-11738241Y26156890D02*
X-11622625Y26182852D01*
X-11622625Y26182852D02*
X-11508422Y26214457D01*
X-11508422Y26214457D02*
X-11395907Y26251627D01*
X-11395907Y26251627D02*
X-11285351Y26294273D01*
X-11285351Y26294273D02*
X-11177022Y26342292D01*
X-11177022Y26342292D02*
X-11071179Y26395569D01*
X-11071179Y26395569D02*
X-10968077Y26453975D01*
X-10968077Y26453975D02*
X-10867966Y26517370D01*
X-10867966Y26517370D02*
X-10771086Y26585601D01*
X-10771086Y26585601D02*
X-10677671Y26658503D01*
X-10677671Y26658503D02*
X-10587945Y26735901D01*
X-10587945Y26735901D02*
X-10502124Y26817608D01*
X-10502124Y26817608D02*
X-10365363Y26954368D01*
X-6650000Y3153897D02*
X-4114600Y5689297D01*
X-6650000Y-996400D02*
X-6650000Y3153897D01*
X-4114600Y5689297D02*
X-4114600Y8382000D01*
X-4114600Y8382000D02*
X-4178100Y8445500D01*
X-8851600Y18605500D02*
X-8915100Y18669000D01*
X-7734100Y18605500D02*
X-8851600Y18605500D01*
X-25831600Y17843500D02*
X-24815600Y17843500D01*
X-26720600Y16954500D02*
X-25831600Y17843500D01*
X-26720600Y13970000D02*
X-26720600Y16954500D01*
X-25768100Y13017500D02*
X-26720600Y13970000D01*
X-17589974Y7007679D02*
X-21440795Y10858500D01*
X-24815600Y17843500D02*
X-24247600Y18411500D01*
X-17589974Y6654126D02*
X-17589974Y7007679D01*
X-21440795Y10858500D02*
X-22402600Y10858500D01*
X-22402600Y10858500D02*
X-24561600Y13017500D01*
X-24247600Y18411500D02*
X-24247600Y19314000D01*
X-24561600Y13017500D02*
X-25768100Y13017500D01*
D24*
X-1650000Y23800600D02*
X-1650000Y-446400D01*
X-876100Y24574500D02*
X-1650000Y23800600D01*
X-876100Y29050502D02*
X-876100Y24574500D01*
X-889000Y29063402D02*
X-876100Y29050502D01*
X-63614100Y12763500D02*
X-63614100Y33134100D01*
X-59804100Y8953500D02*
X-63614100Y12763500D01*
X-2921000Y42418000D02*
X-889000Y40386000D01*
X-28498600Y8953500D02*
X-59804100Y8953500D01*
X-63627000Y40132000D02*
X-62611000Y41148000D01*
X-63627000Y33147000D02*
X-63627000Y40132000D01*
X-62611000Y41148000D02*
X-30988000Y41148000D01*
X-30988000Y41148000D02*
X-29718000Y42418000D01*
X-63614100Y33134100D02*
X-63627000Y33147000D01*
X-29718000Y42418000D02*
X-2921000Y42418000D01*
X-889000Y40386000D02*
X-889000Y29063402D01*
D26*
X-16062600Y21499000D02*
X-14564600Y21499000D01*
X-14564600Y21499000D02*
X-13385600Y20320000D01*
X-13385600Y20320000D02*
X-12496600Y20320000D01*
X-11480600Y20320000D02*
X-10490100Y20320000D01*
X-14650000Y-996400D02*
X-14650000Y4312400D01*
X-14650000Y4312400D02*
X-15417600Y5080000D01*
X-13326101Y18791999D02*
X-12492599Y18791999D01*
X-13576100Y18542000D02*
X-13326101Y18791999D01*
X-11480600Y19803998D02*
X-11480600Y20320000D01*
X-12492599Y18791999D02*
X-11480600Y19803998D01*
X-15515600Y20499000D02*
X-14193600Y19177000D01*
X-16062600Y20499000D02*
X-15515600Y20499000D01*
X-12877600Y19177000D02*
X-11988600Y20066000D01*
X-14193600Y19177000D02*
X-12877600Y19177000D01*
X-11988600Y20066000D02*
X-11988600Y21945500D01*
X-15650000Y-996400D02*
X-15650000Y4296400D01*
X-15650000Y4296400D02*
X-16814600Y5461000D01*
X-16814600Y5461000D02*
X-18084600Y5461000D01*
X-18084600Y5461000D02*
X-18275100Y5651500D01*
X-11633100Y21590000D02*
X-11988600Y21945500D01*
X-10718600Y21590000D02*
X-11633100Y21590000D01*
D29*
X-19747600Y19314000D02*
X-19747600Y18683999D01*
X-19747600Y18683999D02*
X-19857100Y18574499D01*
X-19857100Y18574499D02*
X-19857100Y17846198D01*
X-18579100Y16175000D02*
X-18406100Y16002000D01*
X-19857100Y17846198D02*
X-18579100Y16568198D01*
X-18579100Y16568198D02*
X-18579100Y16175000D01*
X-20247600Y18683999D02*
X-20138100Y18574499D01*
X-20247600Y19314000D02*
X-20247600Y18683999D01*
X-20138100Y18574499D02*
X-20138100Y17729802D01*
X-18860100Y16175000D02*
X-19033100Y16002000D01*
X-20138100Y17729802D02*
X-18860100Y16451802D01*
X-18860100Y16451802D02*
X-18860100Y16175000D01*
X-22638100Y18574499D02*
X-22638100Y13625802D01*
X-22747600Y19314000D02*
X-22747600Y18683999D01*
X-22747600Y18683999D02*
X-22638100Y18574499D01*
X-22638100Y13625802D02*
X-17888798Y8876500D01*
X-17888798Y8876500D02*
X-11665798Y8876500D01*
X-6573600Y6463500D02*
X-6400600Y6290500D01*
X-11665798Y8876500D02*
X-9252798Y6463500D01*
X-9252798Y6463500D02*
X-6573600Y6463500D01*
X-22247600Y19314000D02*
X-22247600Y18683999D01*
X-22247600Y18683999D02*
X-22357100Y18574499D01*
X-22357100Y18574499D02*
X-22357100Y13742198D01*
X-22357100Y13742198D02*
X-17772402Y9157500D01*
X-17772402Y9157500D02*
X-11549402Y9157500D01*
X-11549402Y9157500D02*
X-9136402Y6744500D01*
X-9136402Y6744500D02*
X-6573600Y6744500D01*
X-6573600Y6744500D02*
X-6400600Y6917500D01*
X-4009500Y1163100D02*
X-3650000Y803600D01*
X-4009500Y3208402D02*
X-4009500Y1163100D01*
X-2450100Y4767802D02*
X-4009500Y3208402D01*
X-3650000Y803600D02*
X-3650000Y-996400D01*
X-2450100Y9964198D02*
X-2450100Y4767802D01*
X-5867300Y11691600D02*
X-5118800Y10943100D01*
X-5118800Y10943100D02*
X-3429002Y10943100D01*
X-3429002Y10943100D02*
X-2450100Y9964198D01*
X-3545398Y10662100D02*
X-2731100Y9847802D01*
X-5867300Y9913600D02*
X-5118800Y10662100D01*
X-5118800Y10662100D02*
X-3545398Y10662100D01*
X-4290500Y1163100D02*
X-4650000Y803600D01*
X-2731100Y9847802D02*
X-2731100Y4884198D01*
X-4290500Y3324798D02*
X-4290500Y1163100D01*
X-2731100Y4884198D02*
X-4290500Y3324798D01*
X-4650000Y803600D02*
X-4650000Y-996400D01*
X-21138100Y18574499D02*
X-21138100Y14284802D01*
X-21247600Y19314000D02*
X-21247600Y18683999D01*
X-21247600Y18683999D02*
X-21138100Y18574499D01*
X-8190800Y10662100D02*
X-7442300Y9913600D01*
X-21138100Y14284802D02*
X-17515398Y10662100D01*
X-17515398Y10662100D02*
X-8190800Y10662100D01*
X-20747600Y18683999D02*
X-20857100Y18574499D01*
X-20857100Y18574499D02*
X-20857100Y14401198D01*
X-20747600Y19314000D02*
X-20747600Y18683999D01*
X-17399002Y10943100D02*
X-8190800Y10943100D01*
X-20857100Y14401198D02*
X-17399002Y10943100D01*
X-8190800Y10943100D02*
X-7442300Y11691600D01*
D24*
X-38658600Y12694000D02*
X-38658600Y11894000D01*
X-37636600Y13716000D02*
X-38658600Y12694000D01*
X-34086600Y13716000D02*
X-37636600Y13716000D01*
X-39166600Y20828000D02*
X-38404600Y20828000D01*
X-38150600Y21082000D02*
X-38150600Y21590000D01*
X-38404600Y20828000D02*
X-38150600Y21082000D01*
X-39928600Y19094000D02*
X-39928600Y20066000D01*
X-39928600Y20066000D02*
X-39166600Y20828000D01*
D26*
X-22247600Y28731000D02*
X-23864600Y30348000D01*
X-22247600Y28184000D02*
X-22247600Y28731000D01*
X-23864600Y30348000D02*
X-23864600Y32664000D01*
X-23864600Y32664000D02*
X-24514600Y33314000D01*
X-24929600Y34334000D02*
X-25367100Y34334000D01*
X-24514600Y33919000D02*
X-24929600Y34334000D01*
X-24514600Y33314000D02*
X-24514600Y33919000D01*
D25*
X-40164000Y34518500D02*
X-42069000Y34518500D01*
D30*
G36*
X-38640000Y32766000D02*
G01*
X-40164000Y32766000D01*
X-40188776Y32763560D01*
X-40212601Y32756333D01*
X-40234557Y32744597D01*
X-40253803Y32728803D01*
X-40269597Y32709557D01*
X-40281333Y32687601D01*
X-40288560Y32663776D01*
X-40291000Y32639000D01*
X-40291000Y29845000D01*
X-44791476Y29845000D01*
X-44777650Y29899445D01*
X-45518600Y30640395D01*
X-45532743Y30626253D01*
X-45712348Y30805858D01*
X-45698205Y30820000D01*
X-45338995Y30820000D01*
X-44598045Y30079050D01*
X-44364379Y30138389D01*
X-44253582Y30376664D01*
X-44191398Y30631975D01*
X-44180218Y30894512D01*
X-44220471Y31154186D01*
X-44310610Y31401017D01*
X-44364379Y31501611D01*
X-44598045Y31560950D01*
X-45338995Y30820000D01*
X-45698205Y30820000D01*
X-46439155Y31560950D01*
X-46514000Y31541943D01*
X-46514000Y31740555D01*
X-46259550Y31740555D01*
X-45518600Y30999605D01*
X-44777650Y31740555D01*
X-44836989Y31974221D01*
X-45075264Y32085018D01*
X-45330575Y32147202D01*
X-45593112Y32158382D01*
X-45852786Y32118129D01*
X-46099617Y32027990D01*
X-46200211Y31974221D01*
X-46259550Y31740555D01*
X-46514000Y31740555D01*
X-46514000Y32385000D01*
X-42958000Y32385000D01*
X-42933224Y32387440D01*
X-42909399Y32394667D01*
X-42887443Y32406403D01*
X-42868197Y32422197D01*
X-42852403Y32441443D01*
X-42840667Y32463399D01*
X-42833440Y32487224D01*
X-42831000Y32512000D01*
X-42831000Y33514386D01*
X-42788180Y33491498D01*
X-42668482Y33455188D01*
X-42544000Y33442928D01*
X-42354750Y33446000D01*
X-42196000Y33604750D01*
X-42196000Y34391500D01*
X-41942000Y34391500D01*
X-41942000Y33604750D01*
X-41783250Y33446000D01*
X-41594000Y33442928D01*
X-41469518Y33455188D01*
X-41349820Y33491498D01*
X-41239506Y33550463D01*
X-41142815Y33629815D01*
X-41116500Y33661880D01*
X-41090185Y33629815D01*
X-40993494Y33550463D01*
X-40883180Y33491498D01*
X-40763482Y33455188D01*
X-40639000Y33442928D01*
X-40449750Y33446000D01*
X-40291000Y33604750D01*
X-40291000Y34391500D01*
X-40037000Y34391500D01*
X-40037000Y33604750D01*
X-39878250Y33446000D01*
X-39689000Y33442928D01*
X-39564518Y33455188D01*
X-39444820Y33491498D01*
X-39334506Y33550463D01*
X-39237815Y33629815D01*
X-39158463Y33726506D01*
X-39099498Y33836820D01*
X-39063188Y33956518D01*
X-39050928Y34081000D01*
X-39054000Y34232750D01*
X-39212750Y34391500D01*
X-40037000Y34391500D01*
X-40291000Y34391500D01*
X-41115250Y34391500D01*
X-41116500Y34390250D01*
X-41117750Y34391500D01*
X-41942000Y34391500D01*
X-42196000Y34391500D01*
X-42216000Y34391500D01*
X-42216000Y34645500D01*
X-42196000Y34645500D01*
X-42196000Y34665500D01*
X-41942000Y34665500D01*
X-41942000Y34645500D01*
X-41117750Y34645500D01*
X-41116500Y34646750D01*
X-41115250Y34645500D01*
X-40291000Y34645500D01*
X-40291000Y34665500D01*
X-40037000Y34665500D01*
X-40037000Y34645500D01*
X-39212750Y34645500D01*
X-39054000Y34804250D01*
X-39050928Y34956000D01*
X-39060383Y35052000D01*
X-38640000Y35052000D01*
X-38640000Y32766000D01*
G37*
X-38640000Y32766000D02*
X-40164000Y32766000D01*
X-40188776Y32763560D01*
X-40212601Y32756333D01*
X-40234557Y32744597D01*
X-40253803Y32728803D01*
X-40269597Y32709557D01*
X-40281333Y32687601D01*
X-40288560Y32663776D01*
X-40291000Y32639000D01*
X-40291000Y29845000D01*
X-44791476Y29845000D01*
X-44777650Y29899445D01*
X-45518600Y30640395D01*
X-45532743Y30626253D01*
X-45712348Y30805858D01*
X-45698205Y30820000D01*
X-45338995Y30820000D01*
X-44598045Y30079050D01*
X-44364379Y30138389D01*
X-44253582Y30376664D01*
X-44191398Y30631975D01*
X-44180218Y30894512D01*
X-44220471Y31154186D01*
X-44310610Y31401017D01*
X-44364379Y31501611D01*
X-44598045Y31560950D01*
X-45338995Y30820000D01*
X-45698205Y30820000D01*
X-46439155Y31560950D01*
X-46514000Y31541943D01*
X-46514000Y31740555D01*
X-46259550Y31740555D01*
X-45518600Y30999605D01*
X-44777650Y31740555D01*
X-44836989Y31974221D01*
X-45075264Y32085018D01*
X-45330575Y32147202D01*
X-45593112Y32158382D01*
X-45852786Y32118129D01*
X-46099617Y32027990D01*
X-46200211Y31974221D01*
X-46259550Y31740555D01*
X-46514000Y31740555D01*
X-46514000Y32385000D01*
X-42958000Y32385000D01*
X-42933224Y32387440D01*
X-42909399Y32394667D01*
X-42887443Y32406403D01*
X-42868197Y32422197D01*
X-42852403Y32441443D01*
X-42840667Y32463399D01*
X-42833440Y32487224D01*
X-42831000Y32512000D01*
X-42831000Y33514386D01*
X-42788180Y33491498D01*
X-42668482Y33455188D01*
X-42544000Y33442928D01*
X-42354750Y33446000D01*
X-42196000Y33604750D01*
X-42196000Y34391500D01*
X-41942000Y34391500D01*
X-41942000Y33604750D01*
X-41783250Y33446000D01*
X-41594000Y33442928D01*
X-41469518Y33455188D01*
X-41349820Y33491498D01*
X-41239506Y33550463D01*
X-41142815Y33629815D01*
X-41116500Y33661880D01*
X-41090185Y33629815D01*
X-40993494Y33550463D01*
X-40883180Y33491498D01*
X-40763482Y33455188D01*
X-40639000Y33442928D01*
X-40449750Y33446000D01*
X-40291000Y33604750D01*
X-40291000Y34391500D01*
X-40037000Y34391500D01*
X-40037000Y33604750D01*
X-39878250Y33446000D01*
X-39689000Y33442928D01*
X-39564518Y33455188D01*
X-39444820Y33491498D01*
X-39334506Y33550463D01*
X-39237815Y33629815D01*
X-39158463Y33726506D01*
X-39099498Y33836820D01*
X-39063188Y33956518D01*
X-39050928Y34081000D01*
X-39054000Y34232750D01*
X-39212750Y34391500D01*
X-40037000Y34391500D01*
X-40291000Y34391500D01*
X-41115250Y34391500D01*
X-41116500Y34390250D01*
X-41117750Y34391500D01*
X-41942000Y34391500D01*
X-42196000Y34391500D01*
X-42216000Y34391500D01*
X-42216000Y34645500D01*
X-42196000Y34645500D01*
X-42196000Y34665500D01*
X-41942000Y34665500D01*
X-41942000Y34645500D01*
X-41117750Y34645500D01*
X-41116500Y34646750D01*
X-41115250Y34645500D01*
X-40291000Y34645500D01*
X-40291000Y34665500D01*
X-40037000Y34665500D01*
X-40037000Y34645500D01*
X-39212750Y34645500D01*
X-39054000Y34804250D01*
X-39050928Y34956000D01*
X-39060383Y35052000D01*
X-38640000Y35052000D01*
X-38640000Y32766000D01*
M02*
