G04 #@! TF.GenerationSoftware,KiCad,Pcbnew,(5.1.6)-1*
G04 #@! TF.CreationDate,2020-07-05T14:39:03+08:00*
G04 #@! TF.ProjectId,inteli210AT,696e7465-6c69-4323-9130-41542e6b6963,rev?*
G04 #@! TF.SameCoordinates,Original*
G04 #@! TF.FileFunction,Soldermask,Top*
G04 #@! TF.FilePolarity,Negative*
%FSLAX46Y46*%
G04 Gerber Fmt 4.6, Leading zero omitted, Abs format (unit mm)*
G04 Created by KiCad (PCBNEW (5.1.6)-1) date 2020-07-05 14:39:03*
%MOMM*%
%LPD*%
G01*
G04 APERTURE LIST*
%ADD10C,0.100000*%
%ADD11C,0.010000*%
G04 APERTURE END LIST*
D10*
G36*
X-330000Y49885600D02*
G01*
X-317300Y43053000D01*
X-25704600Y43053000D01*
X-25704600Y50546000D01*
X-1193600Y50749200D01*
X-330000Y49885600D01*
G37*
X-330000Y49885600D02*
X-317300Y43053000D01*
X-25704600Y43053000D01*
X-25704600Y50546000D01*
X-1193600Y50749200D01*
X-330000Y49885600D01*
G36*
X860000Y-5030400D02*
G01*
X-20476000Y-5030400D01*
X-20476000Y1319600D01*
X860000Y1319600D01*
X860000Y-5030400D01*
G37*
X860000Y-5030400D02*
X-20476000Y-5030400D01*
X-20476000Y1319600D01*
X860000Y1319600D01*
X860000Y-5030400D01*
D11*
G36*
X-37999906Y46698842D02*
G01*
X-37967381Y46686264D01*
X-37917807Y46661288D01*
X-37846626Y46622124D01*
X-37841084Y46619012D01*
X-37775526Y46581524D01*
X-37720202Y46548681D01*
X-37680545Y46523795D01*
X-37661988Y46510180D01*
X-37661469Y46509513D01*
X-37665952Y46490610D01*
X-37686514Y46448395D01*
X-37721817Y46385168D01*
X-37770520Y46303228D01*
X-37831282Y46204878D01*
X-37902764Y46092415D01*
X-37920555Y46064835D01*
X-37966907Y45988301D01*
X-38000658Y45922444D01*
X-38018847Y45873218D01*
X-38020714Y45863493D01*
X-38019885Y45820688D01*
X-38010606Y45752791D01*
X-37994032Y45664157D01*
X-37971320Y45559141D01*
X-37943627Y45442098D01*
X-37912110Y45317384D01*
X-37877925Y45189355D01*
X-37842229Y45062366D01*
X-37806179Y44940772D01*
X-37770932Y44828928D01*
X-37737644Y44731190D01*
X-37707472Y44651913D01*
X-37686439Y44604878D01*
X-37661663Y44554775D01*
X-37638270Y44506832D01*
X-37637003Y44504207D01*
X-37598301Y44455780D01*
X-37541816Y44423172D01*
X-37476061Y44407546D01*
X-37409549Y44410063D01*
X-37350795Y44431886D01*
X-37317742Y44460618D01*
X-37270141Y44539417D01*
X-37235261Y44637622D01*
X-37216123Y44745221D01*
X-37213412Y44806220D01*
X-37224330Y44920065D01*
X-37256376Y45014340D01*
X-37311274Y45093621D01*
X-37328393Y45111267D01*
X-37379339Y45160765D01*
X-37382837Y45510638D01*
X-37386336Y45860511D01*
X-37297182Y45995469D01*
X-37255346Y46056555D01*
X-37215055Y46111507D01*
X-37182057Y46152664D01*
X-37167874Y46167808D01*
X-37127719Y46205190D01*
X-37073335Y46175902D01*
X-37038961Y46154916D01*
X-37020154Y46138622D01*
X-37018951Y46135693D01*
X-37006097Y46123272D01*
X-36984104Y46114023D01*
X-36962850Y46105687D01*
X-36930306Y46089851D01*
X-36883678Y46064967D01*
X-36820171Y46029491D01*
X-36736992Y45981877D01*
X-36631347Y45920578D01*
X-36573938Y45887068D01*
X-36506406Y45846929D01*
X-36462115Y45818341D01*
X-36437145Y45797961D01*
X-36427577Y45782447D01*
X-36429492Y45768454D01*
X-36431089Y45765204D01*
X-36446624Y45744734D01*
X-36479864Y45706335D01*
X-36526938Y45654304D01*
X-36583972Y45592934D01*
X-36633300Y45540910D01*
X-36746970Y45417433D01*
X-36835895Y45310409D01*
X-36900866Y45218760D01*
X-36942679Y45141412D01*
X-36956783Y45102134D01*
X-36962608Y45067751D01*
X-36968625Y45009101D01*
X-36974304Y44932883D01*
X-36979116Y44845798D01*
X-36981381Y44790732D01*
X-36984541Y44695536D01*
X-36985931Y44625938D01*
X-36985142Y44576591D01*
X-36981765Y44542146D01*
X-36975392Y44517257D01*
X-36965613Y44496575D01*
X-36957933Y44483947D01*
X-36913579Y44435274D01*
X-36856426Y44401355D01*
X-36796292Y44386562D01*
X-36751227Y44391914D01*
X-36710424Y44415070D01*
X-36659276Y44456538D01*
X-36604958Y44509088D01*
X-36554643Y44565484D01*
X-36515506Y44618495D01*
X-36501095Y44644111D01*
X-36479509Y44679186D01*
X-36440247Y44732611D01*
X-36386898Y44800211D01*
X-36323048Y44877810D01*
X-36252285Y44961232D01*
X-36178196Y45046302D01*
X-36104368Y45128845D01*
X-36034389Y45204684D01*
X-35971845Y45269644D01*
X-35922740Y45317331D01*
X-35868221Y45364968D01*
X-35822358Y45400092D01*
X-35790189Y45419051D01*
X-35779511Y45421136D01*
X-35763147Y45412726D01*
X-35722329Y45390154D01*
X-35659414Y45354776D01*
X-35576756Y45307946D01*
X-35476711Y45251019D01*
X-35361634Y45185351D01*
X-35233881Y45112297D01*
X-35095806Y45033212D01*
X-34949766Y44949452D01*
X-34798116Y44862371D01*
X-34643210Y44773324D01*
X-34487405Y44683668D01*
X-34333056Y44594757D01*
X-34182518Y44507946D01*
X-34038146Y44424591D01*
X-33902296Y44346046D01*
X-33777323Y44273667D01*
X-33665583Y44208810D01*
X-33569430Y44152829D01*
X-33491221Y44107080D01*
X-33433311Y44072917D01*
X-33398054Y44051696D01*
X-33387835Y44045037D01*
X-33401598Y44043720D01*
X-33444896Y44042441D01*
X-33516286Y44041204D01*
X-33614327Y44040017D01*
X-33737578Y44038885D01*
X-33884597Y44037814D01*
X-34053943Y44036811D01*
X-34244174Y44035881D01*
X-34453849Y44035032D01*
X-34681527Y44034268D01*
X-34925765Y44033597D01*
X-35185123Y44033024D01*
X-35458159Y44032556D01*
X-35743432Y44032198D01*
X-36039500Y44031958D01*
X-36344921Y44031841D01*
X-36473076Y44031829D01*
X-39573030Y44031829D01*
X-39351947Y44415153D01*
X-39305144Y44496320D01*
X-39244898Y44600834D01*
X-39173222Y44725199D01*
X-39092131Y44865918D01*
X-39003638Y45019497D01*
X-38909760Y45182438D01*
X-38812509Y45351246D01*
X-38713900Y45522425D01*
X-38615947Y45692479D01*
X-38591175Y45735488D01*
X-38500848Y45892143D01*
X-38414711Y46041197D01*
X-38334058Y46180432D01*
X-38260184Y46307629D01*
X-38194383Y46420568D01*
X-38137950Y46517032D01*
X-38092179Y46594800D01*
X-38058365Y46651654D01*
X-38037802Y46685375D01*
X-38032047Y46693960D01*
X-38019942Y46700811D01*
X-37999906Y46698842D01*
G37*
X-37999906Y46698842D02*
X-37967381Y46686264D01*
X-37917807Y46661288D01*
X-37846626Y46622124D01*
X-37841084Y46619012D01*
X-37775526Y46581524D01*
X-37720202Y46548681D01*
X-37680545Y46523795D01*
X-37661988Y46510180D01*
X-37661469Y46509513D01*
X-37665952Y46490610D01*
X-37686514Y46448395D01*
X-37721817Y46385168D01*
X-37770520Y46303228D01*
X-37831282Y46204878D01*
X-37902764Y46092415D01*
X-37920555Y46064835D01*
X-37966907Y45988301D01*
X-38000658Y45922444D01*
X-38018847Y45873218D01*
X-38020714Y45863493D01*
X-38019885Y45820688D01*
X-38010606Y45752791D01*
X-37994032Y45664157D01*
X-37971320Y45559141D01*
X-37943627Y45442098D01*
X-37912110Y45317384D01*
X-37877925Y45189355D01*
X-37842229Y45062366D01*
X-37806179Y44940772D01*
X-37770932Y44828928D01*
X-37737644Y44731190D01*
X-37707472Y44651913D01*
X-37686439Y44604878D01*
X-37661663Y44554775D01*
X-37638270Y44506832D01*
X-37637003Y44504207D01*
X-37598301Y44455780D01*
X-37541816Y44423172D01*
X-37476061Y44407546D01*
X-37409549Y44410063D01*
X-37350795Y44431886D01*
X-37317742Y44460618D01*
X-37270141Y44539417D01*
X-37235261Y44637622D01*
X-37216123Y44745221D01*
X-37213412Y44806220D01*
X-37224330Y44920065D01*
X-37256376Y45014340D01*
X-37311274Y45093621D01*
X-37328393Y45111267D01*
X-37379339Y45160765D01*
X-37382837Y45510638D01*
X-37386336Y45860511D01*
X-37297182Y45995469D01*
X-37255346Y46056555D01*
X-37215055Y46111507D01*
X-37182057Y46152664D01*
X-37167874Y46167808D01*
X-37127719Y46205190D01*
X-37073335Y46175902D01*
X-37038961Y46154916D01*
X-37020154Y46138622D01*
X-37018951Y46135693D01*
X-37006097Y46123272D01*
X-36984104Y46114023D01*
X-36962850Y46105687D01*
X-36930306Y46089851D01*
X-36883678Y46064967D01*
X-36820171Y46029491D01*
X-36736992Y45981877D01*
X-36631347Y45920578D01*
X-36573938Y45887068D01*
X-36506406Y45846929D01*
X-36462115Y45818341D01*
X-36437145Y45797961D01*
X-36427577Y45782447D01*
X-36429492Y45768454D01*
X-36431089Y45765204D01*
X-36446624Y45744734D01*
X-36479864Y45706335D01*
X-36526938Y45654304D01*
X-36583972Y45592934D01*
X-36633300Y45540910D01*
X-36746970Y45417433D01*
X-36835895Y45310409D01*
X-36900866Y45218760D01*
X-36942679Y45141412D01*
X-36956783Y45102134D01*
X-36962608Y45067751D01*
X-36968625Y45009101D01*
X-36974304Y44932883D01*
X-36979116Y44845798D01*
X-36981381Y44790732D01*
X-36984541Y44695536D01*
X-36985931Y44625938D01*
X-36985142Y44576591D01*
X-36981765Y44542146D01*
X-36975392Y44517257D01*
X-36965613Y44496575D01*
X-36957933Y44483947D01*
X-36913579Y44435274D01*
X-36856426Y44401355D01*
X-36796292Y44386562D01*
X-36751227Y44391914D01*
X-36710424Y44415070D01*
X-36659276Y44456538D01*
X-36604958Y44509088D01*
X-36554643Y44565484D01*
X-36515506Y44618495D01*
X-36501095Y44644111D01*
X-36479509Y44679186D01*
X-36440247Y44732611D01*
X-36386898Y44800211D01*
X-36323048Y44877810D01*
X-36252285Y44961232D01*
X-36178196Y45046302D01*
X-36104368Y45128845D01*
X-36034389Y45204684D01*
X-35971845Y45269644D01*
X-35922740Y45317331D01*
X-35868221Y45364968D01*
X-35822358Y45400092D01*
X-35790189Y45419051D01*
X-35779511Y45421136D01*
X-35763147Y45412726D01*
X-35722329Y45390154D01*
X-35659414Y45354776D01*
X-35576756Y45307946D01*
X-35476711Y45251019D01*
X-35361634Y45185351D01*
X-35233881Y45112297D01*
X-35095806Y45033212D01*
X-34949766Y44949452D01*
X-34798116Y44862371D01*
X-34643210Y44773324D01*
X-34487405Y44683668D01*
X-34333056Y44594757D01*
X-34182518Y44507946D01*
X-34038146Y44424591D01*
X-33902296Y44346046D01*
X-33777323Y44273667D01*
X-33665583Y44208810D01*
X-33569430Y44152829D01*
X-33491221Y44107080D01*
X-33433311Y44072917D01*
X-33398054Y44051696D01*
X-33387835Y44045037D01*
X-33401598Y44043720D01*
X-33444896Y44042441D01*
X-33516286Y44041204D01*
X-33614327Y44040017D01*
X-33737578Y44038885D01*
X-33884597Y44037814D01*
X-34053943Y44036811D01*
X-34244174Y44035881D01*
X-34453849Y44035032D01*
X-34681527Y44034268D01*
X-34925765Y44033597D01*
X-35185123Y44033024D01*
X-35458159Y44032556D01*
X-35743432Y44032198D01*
X-36039500Y44031958D01*
X-36344921Y44031841D01*
X-36473076Y44031829D01*
X-39573030Y44031829D01*
X-39351947Y44415153D01*
X-39305144Y44496320D01*
X-39244898Y44600834D01*
X-39173222Y44725199D01*
X-39092131Y44865918D01*
X-39003638Y45019497D01*
X-38909760Y45182438D01*
X-38812509Y45351246D01*
X-38713900Y45522425D01*
X-38615947Y45692479D01*
X-38591175Y45735488D01*
X-38500848Y45892143D01*
X-38414711Y46041197D01*
X-38334058Y46180432D01*
X-38260184Y46307629D01*
X-38194383Y46420568D01*
X-38137950Y46517032D01*
X-38092179Y46594800D01*
X-38058365Y46651654D01*
X-38037802Y46685375D01*
X-38032047Y46693960D01*
X-38019942Y46700811D01*
X-37999906Y46698842D01*
G36*
X-34334472Y46755381D02*
G01*
X-34323092Y46736307D01*
X-34297512Y46692579D01*
X-34258998Y46626381D01*
X-34208814Y46539898D01*
X-34148225Y46435315D01*
X-34078497Y46314817D01*
X-34000893Y46180588D01*
X-33916680Y46034813D01*
X-33827121Y45879677D01*
X-33735002Y45720000D01*
X-33640924Y45556883D01*
X-33550598Y45400291D01*
X-33465335Y45252494D01*
X-33386443Y45115760D01*
X-33315231Y44992358D01*
X-33253009Y44884556D01*
X-33201087Y44794623D01*
X-33160772Y44724827D01*
X-33133376Y44677436D01*
X-33120493Y44655214D01*
X-33099493Y44617670D01*
X-33088075Y44594169D01*
X-33087449Y44590080D01*
X-33101364Y44597758D01*
X-33140059Y44619797D01*
X-33201513Y44655029D01*
X-33283702Y44702289D01*
X-33384604Y44760411D01*
X-33502195Y44828229D01*
X-33634454Y44904576D01*
X-33779358Y44988286D01*
X-33934883Y45078194D01*
X-34099008Y45173133D01*
X-34161451Y45209268D01*
X-34328513Y45305917D01*
X-34487926Y45398062D01*
X-34637645Y45484525D01*
X-34775624Y45564129D01*
X-34899815Y45635695D01*
X-35008173Y45698045D01*
X-35098652Y45750002D01*
X-35169204Y45790387D01*
X-35217785Y45818022D01*
X-35242346Y45831728D01*
X-35244915Y45833026D01*
X-35237431Y45844780D01*
X-35211386Y45876205D01*
X-35169441Y45924406D01*
X-35114254Y45986490D01*
X-35048483Y46059561D01*
X-34974788Y46140724D01*
X-34895827Y46227084D01*
X-34814260Y46315747D01*
X-34732746Y46403818D01*
X-34653943Y46488401D01*
X-34580510Y46566603D01*
X-34515107Y46635528D01*
X-34460392Y46692281D01*
X-34419023Y46733968D01*
X-34404836Y46747637D01*
X-34357820Y46791799D01*
X-34334472Y46755381D01*
G37*
X-34334472Y46755381D02*
X-34323092Y46736307D01*
X-34297512Y46692579D01*
X-34258998Y46626381D01*
X-34208814Y46539898D01*
X-34148225Y46435315D01*
X-34078497Y46314817D01*
X-34000893Y46180588D01*
X-33916680Y46034813D01*
X-33827121Y45879677D01*
X-33735002Y45720000D01*
X-33640924Y45556883D01*
X-33550598Y45400291D01*
X-33465335Y45252494D01*
X-33386443Y45115760D01*
X-33315231Y44992358D01*
X-33253009Y44884556D01*
X-33201087Y44794623D01*
X-33160772Y44724827D01*
X-33133376Y44677436D01*
X-33120493Y44655214D01*
X-33099493Y44617670D01*
X-33088075Y44594169D01*
X-33087449Y44590080D01*
X-33101364Y44597758D01*
X-33140059Y44619797D01*
X-33201513Y44655029D01*
X-33283702Y44702289D01*
X-33384604Y44760411D01*
X-33502195Y44828229D01*
X-33634454Y44904576D01*
X-33779358Y44988286D01*
X-33934883Y45078194D01*
X-34099008Y45173133D01*
X-34161451Y45209268D01*
X-34328513Y45305917D01*
X-34487926Y45398062D01*
X-34637645Y45484525D01*
X-34775624Y45564129D01*
X-34899815Y45635695D01*
X-35008173Y45698045D01*
X-35098652Y45750002D01*
X-35169204Y45790387D01*
X-35217785Y45818022D01*
X-35242346Y45831728D01*
X-35244915Y45833026D01*
X-35237431Y45844780D01*
X-35211386Y45876205D01*
X-35169441Y45924406D01*
X-35114254Y45986490D01*
X-35048483Y46059561D01*
X-34974788Y46140724D01*
X-34895827Y46227084D01*
X-34814260Y46315747D01*
X-34732746Y46403818D01*
X-34653943Y46488401D01*
X-34580510Y46566603D01*
X-34515107Y46635528D01*
X-34460392Y46692281D01*
X-34419023Y46733968D01*
X-34404836Y46747637D01*
X-34357820Y46791799D01*
X-34334472Y46755381D01*
G36*
X-36157957Y49904165D02*
G01*
X-36134935Y49866755D01*
X-36099466Y49807486D01*
X-36053004Y49728882D01*
X-35997004Y49633462D01*
X-35932919Y49523750D01*
X-35862204Y49402266D01*
X-35786313Y49271532D01*
X-35706701Y49134070D01*
X-35624822Y48992402D01*
X-35542130Y48849049D01*
X-35460079Y48706533D01*
X-35380124Y48567376D01*
X-35303719Y48434099D01*
X-35232318Y48309224D01*
X-35167376Y48195273D01*
X-35110347Y48094767D01*
X-35062685Y48010228D01*
X-35025845Y47944178D01*
X-35001280Y47899138D01*
X-34990446Y47877630D01*
X-34990049Y47876286D01*
X-35003499Y47858035D01*
X-35040886Y47830118D01*
X-35097765Y47795275D01*
X-35169688Y47756246D01*
X-35244985Y47719157D01*
X-35347440Y47674183D01*
X-35455183Y47633774D01*
X-35571927Y47597031D01*
X-35701382Y47563058D01*
X-35847260Y47530956D01*
X-36013274Y47499827D01*
X-36203134Y47468773D01*
X-36399531Y47439855D01*
X-36570166Y47414200D01*
X-36713455Y47388802D01*
X-36832992Y47362398D01*
X-36932370Y47333727D01*
X-37015182Y47301527D01*
X-37085022Y47264535D01*
X-37145482Y47221488D01*
X-37200155Y47171125D01*
X-37217786Y47152417D01*
X-37256000Y47108861D01*
X-37284268Y47073318D01*
X-37297382Y47052417D01*
X-37297732Y47050703D01*
X-37302320Y47040194D01*
X-37318242Y47040076D01*
X-37348734Y47051746D01*
X-37397032Y47076604D01*
X-37466373Y47116048D01*
X-37514561Y47144413D01*
X-37586417Y47188753D01*
X-37642258Y47226721D01*
X-37678333Y47255584D01*
X-37690887Y47272612D01*
X-37690879Y47272736D01*
X-37683094Y47288963D01*
X-37661108Y47329600D01*
X-37626197Y47392433D01*
X-37579637Y47475248D01*
X-37522705Y47575828D01*
X-37456677Y47691960D01*
X-37382828Y47821429D01*
X-37302436Y47962020D01*
X-37216776Y48111518D01*
X-37127124Y48267708D01*
X-37034757Y48428376D01*
X-36940951Y48591307D01*
X-36846982Y48754287D01*
X-36754126Y48915100D01*
X-36663660Y49071532D01*
X-36576859Y49221367D01*
X-36495000Y49362392D01*
X-36419359Y49492391D01*
X-36351213Y49609151D01*
X-36291837Y49710455D01*
X-36242507Y49794089D01*
X-36204500Y49857838D01*
X-36179093Y49899489D01*
X-36167560Y49916825D01*
X-36167077Y49917195D01*
X-36157957Y49904165D01*
G37*
X-36157957Y49904165D02*
X-36134935Y49866755D01*
X-36099466Y49807486D01*
X-36053004Y49728882D01*
X-35997004Y49633462D01*
X-35932919Y49523750D01*
X-35862204Y49402266D01*
X-35786313Y49271532D01*
X-35706701Y49134070D01*
X-35624822Y48992402D01*
X-35542130Y48849049D01*
X-35460079Y48706533D01*
X-35380124Y48567376D01*
X-35303719Y48434099D01*
X-35232318Y48309224D01*
X-35167376Y48195273D01*
X-35110347Y48094767D01*
X-35062685Y48010228D01*
X-35025845Y47944178D01*
X-35001280Y47899138D01*
X-34990446Y47877630D01*
X-34990049Y47876286D01*
X-35003499Y47858035D01*
X-35040886Y47830118D01*
X-35097765Y47795275D01*
X-35169688Y47756246D01*
X-35244985Y47719157D01*
X-35347440Y47674183D01*
X-35455183Y47633774D01*
X-35571927Y47597031D01*
X-35701382Y47563058D01*
X-35847260Y47530956D01*
X-36013274Y47499827D01*
X-36203134Y47468773D01*
X-36399531Y47439855D01*
X-36570166Y47414200D01*
X-36713455Y47388802D01*
X-36832992Y47362398D01*
X-36932370Y47333727D01*
X-37015182Y47301527D01*
X-37085022Y47264535D01*
X-37145482Y47221488D01*
X-37200155Y47171125D01*
X-37217786Y47152417D01*
X-37256000Y47108861D01*
X-37284268Y47073318D01*
X-37297382Y47052417D01*
X-37297732Y47050703D01*
X-37302320Y47040194D01*
X-37318242Y47040076D01*
X-37348734Y47051746D01*
X-37397032Y47076604D01*
X-37466373Y47116048D01*
X-37514561Y47144413D01*
X-37586417Y47188753D01*
X-37642258Y47226721D01*
X-37678333Y47255584D01*
X-37690887Y47272612D01*
X-37690879Y47272736D01*
X-37683094Y47288963D01*
X-37661108Y47329600D01*
X-37626197Y47392433D01*
X-37579637Y47475248D01*
X-37522705Y47575828D01*
X-37456677Y47691960D01*
X-37382828Y47821429D01*
X-37302436Y47962020D01*
X-37216776Y48111518D01*
X-37127124Y48267708D01*
X-37034757Y48428376D01*
X-36940951Y48591307D01*
X-36846982Y48754287D01*
X-36754126Y48915100D01*
X-36663660Y49071532D01*
X-36576859Y49221367D01*
X-36495000Y49362392D01*
X-36419359Y49492391D01*
X-36351213Y49609151D01*
X-36291837Y49710455D01*
X-36242507Y49794089D01*
X-36204500Y49857838D01*
X-36179093Y49899489D01*
X-36167560Y49916825D01*
X-36167077Y49917195D01*
X-36157957Y49904165D01*
G36*
X-28478178Y43972178D02*
G01*
X-31998971Y43972178D01*
X-31998971Y44839802D01*
X-28478178Y44839802D01*
X-28478178Y43972178D01*
G37*
X-28478178Y43972178D02*
X-31998971Y43972178D01*
X-31998971Y44839802D01*
X-28478178Y44839802D01*
X-28478178Y43972178D01*
G36*
X-28101570Y49925152D02*
G01*
X-28102189Y49838069D01*
X-28553914Y49379109D01*
X-29005639Y48920148D01*
X-29005968Y48709529D01*
X-29006297Y48498911D01*
X-29281390Y48498911D01*
X-29288478Y48445470D01*
X-29291162Y48421112D01*
X-29295687Y48375241D01*
X-29301809Y48310595D01*
X-29309288Y48229909D01*
X-29317881Y48135919D01*
X-29327346Y48031363D01*
X-29337442Y47918975D01*
X-29347926Y47801493D01*
X-29358556Y47681652D01*
X-29369091Y47562189D01*
X-29379287Y47445841D01*
X-29388905Y47335343D01*
X-29397700Y47233431D01*
X-29405432Y47142842D01*
X-29411858Y47066313D01*
X-29416737Y47006579D01*
X-29419825Y46966376D01*
X-29420883Y46948441D01*
X-29420882Y46948356D01*
X-29413173Y46933965D01*
X-29390019Y46904252D01*
X-29351105Y46858869D01*
X-29296116Y46797471D01*
X-29224736Y46719712D01*
X-29136651Y46625246D01*
X-29031546Y46513728D01*
X-28909105Y46384812D01*
X-28874690Y46348713D01*
X-28328863Y45776584D01*
X-28417119Y45688564D01*
X-28488515Y45766242D01*
X-28514634Y45794314D01*
X-28555434Y45837726D01*
X-28608223Y45893634D01*
X-28670309Y45959192D01*
X-28739000Y46031559D01*
X-28811604Y46107888D01*
X-28855040Y46153476D01*
X-28936584Y46238881D01*
X-29002496Y46307290D01*
X-29054456Y46359947D01*
X-29094145Y46398095D01*
X-29123243Y46422980D01*
X-29143431Y46435844D01*
X-29156390Y46437932D01*
X-29163800Y46430487D01*
X-29167342Y46414754D01*
X-29168697Y46391977D01*
X-29168879Y46385761D01*
X-29178297Y46342939D01*
X-29201503Y46291181D01*
X-29233864Y46238672D01*
X-29270748Y46193597D01*
X-29285507Y46179672D01*
X-29361233Y46130953D01*
X-29449692Y46103694D01*
X-29527900Y46097227D01*
X-29616532Y46109424D01*
X-29698388Y46145187D01*
X-29770836Y46203278D01*
X-29784203Y46217738D01*
X-29833082Y46273267D01*
X-30678674Y46273267D01*
X-30678674Y46097227D01*
X-30905010Y46097227D01*
X-30905010Y46179469D01*
X-30907850Y46235614D01*
X-30917393Y46274584D01*
X-30928991Y46295781D01*
X-30937277Y46310948D01*
X-30944373Y46332938D01*
X-30950748Y46365013D01*
X-30956872Y46410431D01*
X-30963216Y46472452D01*
X-30970250Y46554338D01*
X-30975066Y46615254D01*
X-30997161Y46900657D01*
X-31539565Y46351195D01*
X-31637637Y46251772D01*
X-31731784Y46156185D01*
X-31820285Y46066190D01*
X-31901420Y45983543D01*
X-31973469Y45909999D01*
X-32034712Y45847316D01*
X-32083427Y45797248D01*
X-32117896Y45761552D01*
X-32136379Y45742005D01*
X-32166743Y45711056D01*
X-32192071Y45689470D01*
X-32205695Y45682277D01*
X-32223095Y45690703D01*
X-32248460Y45711755D01*
X-32257058Y45720329D01*
X-32293514Y45758380D01*
X-32092802Y45962342D01*
X-32041596Y46014301D01*
X-31975569Y46081180D01*
X-31897618Y46160050D01*
X-31810638Y46247986D01*
X-31717526Y46342059D01*
X-31621179Y46439342D01*
X-31524492Y46536907D01*
X-31455134Y46606855D01*
X-31349703Y46713450D01*
X-31261129Y46803693D01*
X-31188281Y46878808D01*
X-31130023Y46940014D01*
X-31085225Y46988534D01*
X-31063021Y47013871D01*
X-30884724Y47013871D01*
X-30862401Y46728445D01*
X-30855669Y46644781D01*
X-30849157Y46568273D01*
X-30843234Y46502919D01*
X-30838268Y46452719D01*
X-30834629Y46421671D01*
X-30833458Y46414727D01*
X-30826838Y46386435D01*
X-29877364Y46386435D01*
X-29871026Y46465394D01*
X-29851890Y46558685D01*
X-29811846Y46641209D01*
X-29753418Y46709962D01*
X-29679129Y46761937D01*
X-29595748Y46793137D01*
X-29568698Y46807772D01*
X-29555156Y46839181D01*
X-29554872Y46840566D01*
X-29553247Y46853826D01*
X-29555256Y46867405D01*
X-29562858Y46883819D01*
X-29578016Y46905589D01*
X-29602688Y46935233D01*
X-29638836Y46975268D01*
X-29688420Y47028215D01*
X-29753401Y47096591D01*
X-29757599Y47100995D01*
X-29827493Y47174389D01*
X-29901800Y47252563D01*
X-29975414Y47330136D01*
X-30043229Y47401725D01*
X-30100140Y47461949D01*
X-30112832Y47475413D01*
X-30161487Y47526180D01*
X-30204709Y47569625D01*
X-30239395Y47602759D01*
X-30262444Y47622595D01*
X-30270182Y47626954D01*
X-30281722Y47617830D01*
X-30308710Y47592800D01*
X-30349021Y47553948D01*
X-30400529Y47503357D01*
X-30461109Y47443112D01*
X-30528636Y47375296D01*
X-30583826Y47319435D01*
X-30884724Y47013871D01*
X-31063021Y47013871D01*
X-31052751Y47025589D01*
X-31031471Y47052401D01*
X-31020251Y47070192D01*
X-31017754Y47078430D01*
X-31018700Y47096410D01*
X-31021573Y47137108D01*
X-31026187Y47198181D01*
X-31032358Y47277287D01*
X-31039898Y47372086D01*
X-31048621Y47480233D01*
X-31058343Y47599388D01*
X-31068876Y47727209D01*
X-31077365Y47829365D01*
X-31125396Y48405326D01*
X-31001805Y48405326D01*
X-31001273Y48392896D01*
X-30998769Y48357890D01*
X-30994496Y48302785D01*
X-30988653Y48230057D01*
X-30981443Y48142186D01*
X-30973066Y48041649D01*
X-30963723Y47930923D01*
X-30954758Y47825795D01*
X-30944602Y47706517D01*
X-30935142Y47593920D01*
X-30926596Y47490695D01*
X-30919179Y47399527D01*
X-30913108Y47323105D01*
X-30908601Y47264117D01*
X-30905873Y47225251D01*
X-30905116Y47210156D01*
X-30903935Y47200762D01*
X-30899256Y47197034D01*
X-30889276Y47200529D01*
X-30872190Y47212801D01*
X-30846196Y47235406D01*
X-30809490Y47269900D01*
X-30760267Y47317838D01*
X-30696726Y47380776D01*
X-30629305Y47448032D01*
X-30353601Y47723523D01*
X-30355533Y47725594D01*
X-30173290Y47725594D01*
X-30164984Y47714220D01*
X-30141733Y47687437D01*
X-30105865Y47647708D01*
X-30059713Y47597493D01*
X-30005606Y47539254D01*
X-29945874Y47475453D01*
X-29882848Y47408551D01*
X-29818858Y47341010D01*
X-29756236Y47275290D01*
X-29697310Y47213854D01*
X-29644412Y47159163D01*
X-29599872Y47113678D01*
X-29566020Y47079862D01*
X-29545188Y47060174D01*
X-29539506Y47056163D01*
X-29537634Y47069109D01*
X-29533746Y47104866D01*
X-29528057Y47161196D01*
X-29520781Y47235860D01*
X-29512131Y47326620D01*
X-29502322Y47431238D01*
X-29491566Y47547474D01*
X-29480079Y47673092D01*
X-29470907Y47774382D01*
X-29459174Y47905721D01*
X-29448335Y48029448D01*
X-29438570Y48143319D01*
X-29430063Y48245089D01*
X-29422995Y48332513D01*
X-29417549Y48403347D01*
X-29413908Y48455347D01*
X-29412253Y48486268D01*
X-29412442Y48494297D01*
X-29422334Y48487146D01*
X-29447524Y48464159D01*
X-29485810Y48427561D01*
X-29534989Y48379578D01*
X-29592861Y48322434D01*
X-29657222Y48258353D01*
X-29725871Y48189562D01*
X-29796605Y48118284D01*
X-29867222Y48046745D01*
X-29935520Y47977170D01*
X-29999296Y47911783D01*
X-30056350Y47852809D01*
X-30104478Y47802473D01*
X-30141478Y47763001D01*
X-30165148Y47736617D01*
X-30173290Y47725594D01*
X-30355533Y47725594D01*
X-30456409Y47833705D01*
X-30508768Y47889623D01*
X-30567535Y47952052D01*
X-30630385Y48018557D01*
X-30694995Y48086702D01*
X-30759042Y48154052D01*
X-30820203Y48218172D01*
X-30876153Y48276628D01*
X-30924570Y48326982D01*
X-30963130Y48366802D01*
X-30989509Y48393650D01*
X-31001384Y48405092D01*
X-31001805Y48405326D01*
X-31125396Y48405326D01*
X-31137401Y48549274D01*
X-31737938Y49180842D01*
X-32338475Y49812411D01*
X-32338034Y49900685D01*
X-32337592Y49988960D01*
X-32240583Y49885334D01*
X-32186291Y49827537D01*
X-32122192Y49759632D01*
X-32050016Y49683428D01*
X-31971492Y49600731D01*
X-31888349Y49513347D01*
X-31802319Y49423085D01*
X-31715130Y49331750D01*
X-31628513Y49241151D01*
X-31544197Y49153093D01*
X-31463912Y49069385D01*
X-31389387Y48991833D01*
X-31322354Y48922243D01*
X-31264541Y48862424D01*
X-31217679Y48814182D01*
X-31183496Y48779324D01*
X-31163724Y48759657D01*
X-31159390Y48755884D01*
X-31159092Y48769008D01*
X-31160731Y48802611D01*
X-31164023Y48852120D01*
X-31168682Y48912963D01*
X-31170682Y48937268D01*
X-31185577Y49115049D01*
X-31068955Y49115049D01*
X-31062934Y49086757D01*
X-31059863Y49064382D01*
X-31055548Y49022283D01*
X-31050488Y48965822D01*
X-31045181Y48900365D01*
X-31043344Y48876138D01*
X-31037927Y48806579D01*
X-31032459Y48741982D01*
X-31027488Y48688452D01*
X-31023561Y48652090D01*
X-31022675Y48645491D01*
X-31019334Y48631944D01*
X-31012101Y48616086D01*
X-30999440Y48596139D01*
X-30979811Y48570327D01*
X-30951678Y48536871D01*
X-30913502Y48493993D01*
X-30863746Y48439917D01*
X-30800871Y48372864D01*
X-30723341Y48291057D01*
X-30644251Y48208050D01*
X-30565564Y48125906D01*
X-30492112Y48049831D01*
X-30425724Y47981675D01*
X-30368227Y47923288D01*
X-30321451Y47876519D01*
X-30287224Y47843218D01*
X-30267373Y47825233D01*
X-30263140Y47822558D01*
X-30252003Y47832259D01*
X-30225971Y47857559D01*
X-30187570Y47895918D01*
X-30139328Y47944800D01*
X-30083770Y48001666D01*
X-30043592Y48043094D01*
X-29833831Y48260000D01*
X-30452337Y48260000D01*
X-30452337Y48498911D01*
X-29697881Y48498911D01*
X-29697881Y48392458D01*
X-29559565Y48530346D01*
X-29461447Y48628160D01*
X-29270357Y48628160D01*
X-29268529Y48612730D01*
X-29259277Y48604133D01*
X-29236950Y48600387D01*
X-29195895Y48599511D01*
X-29188624Y48599505D01*
X-29106891Y48599505D01*
X-29106891Y48818828D01*
X-29188624Y48737821D01*
X-29234730Y48688572D01*
X-29262306Y48650841D01*
X-29270357Y48628160D01*
X-29461447Y48628160D01*
X-29421248Y48668234D01*
X-29421248Y48791048D01*
X-29420863Y48847550D01*
X-29419100Y48883495D01*
X-29415050Y48903470D01*
X-29407801Y48912063D01*
X-29396870Y48913861D01*
X-29384712Y48916502D01*
X-29375727Y48927088D01*
X-29368826Y48949619D01*
X-29362924Y48988091D01*
X-29356935Y49046502D01*
X-29355013Y49067896D01*
X-29350852Y49115049D01*
X-31068955Y49115049D01*
X-31185577Y49115049D01*
X-31345109Y49115049D01*
X-31345109Y49228218D01*
X-31277314Y49228218D01*
X-31237662Y49229304D01*
X-31216116Y49234546D01*
X-31213480Y49237666D01*
X-31074616Y49237666D01*
X-31067308Y49230538D01*
X-31041993Y49228338D01*
X-31024908Y49228218D01*
X-30967881Y49228218D01*
X-30755221Y49228218D01*
X-29340698Y49228218D01*
X-29388542Y49277214D01*
X-29462850Y49337676D01*
X-29554816Y49384309D01*
X-29665998Y49417751D01*
X-29776471Y49436247D01*
X-29848773Y49444878D01*
X-29848773Y49353960D01*
X-30427188Y49353960D01*
X-30427188Y49457107D01*
X-30512065Y49448504D01*
X-30571368Y49441244D01*
X-30634551Y49431621D01*
X-30672386Y49424748D01*
X-30747832Y49409593D01*
X-30751526Y49318905D01*
X-30755221Y49228218D01*
X-30967881Y49228218D01*
X-30967881Y49278515D01*
X-30969544Y49310024D01*
X-30973697Y49327537D01*
X-30975371Y49328812D01*
X-30993987Y49320746D01*
X-31021183Y49301180D01*
X-31048448Y49277056D01*
X-31067267Y49255318D01*
X-31068943Y49252492D01*
X-31074616Y49237666D01*
X-31213480Y49237666D01*
X-31205662Y49246919D01*
X-31201442Y49260396D01*
X-31184219Y49295373D01*
X-31151138Y49337421D01*
X-31107893Y49380644D01*
X-31060174Y49419146D01*
X-31028830Y49439199D01*
X-30993123Y49461149D01*
X-30974819Y49479589D01*
X-30968388Y49501332D01*
X-30967894Y49514282D01*
X-30967894Y49517425D01*
X-30326594Y49517425D01*
X-30326594Y49454554D01*
X-29949367Y49454554D01*
X-29949367Y49517425D01*
X-30326594Y49517425D01*
X-30967894Y49517425D01*
X-30967881Y49555148D01*
X-30862048Y49555148D01*
X-30813355Y49553971D01*
X-30775405Y49550835D01*
X-30754308Y49546329D01*
X-30752023Y49544505D01*
X-30738641Y49541705D01*
X-30706074Y49542852D01*
X-30659916Y49547607D01*
X-30628376Y49551997D01*
X-30571188Y49560622D01*
X-30518886Y49568409D01*
X-30479582Y49574153D01*
X-30468055Y49575785D01*
X-30437937Y49585112D01*
X-30427188Y49599728D01*
X-30423920Y49605680D01*
X-30412230Y49610222D01*
X-30389288Y49613530D01*
X-30352265Y49615785D01*
X-30298332Y49617166D01*
X-30224660Y49617850D01*
X-30137980Y49618020D01*
X-30045471Y49617923D01*
X-29975094Y49617470D01*
X-29923836Y49616410D01*
X-29888680Y49614497D01*
X-29866611Y49611481D01*
X-29854615Y49607115D01*
X-29849676Y49601151D01*
X-29848773Y49594216D01*
X-29841079Y49572205D01*
X-29815879Y49559679D01*
X-29769991Y49555212D01*
X-29761736Y49555148D01*
X-29684027Y49547132D01*
X-29595767Y49525064D01*
X-29504915Y49491916D01*
X-29419430Y49450661D01*
X-29347274Y49404269D01*
X-29337928Y49396918D01*
X-29307467Y49373002D01*
X-29289428Y49363424D01*
X-29276831Y49366520D01*
X-29263900Y49379296D01*
X-29225707Y49404322D01*
X-29176002Y49413929D01*
X-29122476Y49408933D01*
X-29072822Y49390149D01*
X-29034733Y49358394D01*
X-29031975Y49354703D01*
X-29003474Y49295425D01*
X-28998172Y49234066D01*
X-29015482Y49175573D01*
X-29054820Y49124896D01*
X-29059630Y49120711D01*
X-29087560Y49100833D01*
X-29115898Y49092079D01*
X-29155737Y49091447D01*
X-29165689Y49092008D01*
X-29204668Y49093438D01*
X-29224746Y49090161D01*
X-29232015Y49080272D01*
X-29232760Y49071039D01*
X-29234284Y49044256D01*
X-29238065Y49003975D01*
X-29240782Y48979876D01*
X-29244723Y48941599D01*
X-29243084Y48922004D01*
X-29233579Y48914842D01*
X-29216649Y48913861D01*
X-29206608Y48917099D01*
X-29190410Y48927580D01*
X-29166855Y48946452D01*
X-29134743Y48974865D01*
X-29092872Y49013965D01*
X-29040043Y49064903D01*
X-28975055Y49128827D01*
X-28896709Y49206886D01*
X-28803803Y49300228D01*
X-28695137Y49410002D01*
X-28642769Y49463048D01*
X-28100951Y50012233D01*
X-28101570Y49925152D01*
G37*
X-28101570Y49925152D02*
X-28102189Y49838069D01*
X-28553914Y49379109D01*
X-29005639Y48920148D01*
X-29005968Y48709529D01*
X-29006297Y48498911D01*
X-29281390Y48498911D01*
X-29288478Y48445470D01*
X-29291162Y48421112D01*
X-29295687Y48375241D01*
X-29301809Y48310595D01*
X-29309288Y48229909D01*
X-29317881Y48135919D01*
X-29327346Y48031363D01*
X-29337442Y47918975D01*
X-29347926Y47801493D01*
X-29358556Y47681652D01*
X-29369091Y47562189D01*
X-29379287Y47445841D01*
X-29388905Y47335343D01*
X-29397700Y47233431D01*
X-29405432Y47142842D01*
X-29411858Y47066313D01*
X-29416737Y47006579D01*
X-29419825Y46966376D01*
X-29420883Y46948441D01*
X-29420882Y46948356D01*
X-29413173Y46933965D01*
X-29390019Y46904252D01*
X-29351105Y46858869D01*
X-29296116Y46797471D01*
X-29224736Y46719712D01*
X-29136651Y46625246D01*
X-29031546Y46513728D01*
X-28909105Y46384812D01*
X-28874690Y46348713D01*
X-28328863Y45776584D01*
X-28417119Y45688564D01*
X-28488515Y45766242D01*
X-28514634Y45794314D01*
X-28555434Y45837726D01*
X-28608223Y45893634D01*
X-28670309Y45959192D01*
X-28739000Y46031559D01*
X-28811604Y46107888D01*
X-28855040Y46153476D01*
X-28936584Y46238881D01*
X-29002496Y46307290D01*
X-29054456Y46359947D01*
X-29094145Y46398095D01*
X-29123243Y46422980D01*
X-29143431Y46435844D01*
X-29156390Y46437932D01*
X-29163800Y46430487D01*
X-29167342Y46414754D01*
X-29168697Y46391977D01*
X-29168879Y46385761D01*
X-29178297Y46342939D01*
X-29201503Y46291181D01*
X-29233864Y46238672D01*
X-29270748Y46193597D01*
X-29285507Y46179672D01*
X-29361233Y46130953D01*
X-29449692Y46103694D01*
X-29527900Y46097227D01*
X-29616532Y46109424D01*
X-29698388Y46145187D01*
X-29770836Y46203278D01*
X-29784203Y46217738D01*
X-29833082Y46273267D01*
X-30678674Y46273267D01*
X-30678674Y46097227D01*
X-30905010Y46097227D01*
X-30905010Y46179469D01*
X-30907850Y46235614D01*
X-30917393Y46274584D01*
X-30928991Y46295781D01*
X-30937277Y46310948D01*
X-30944373Y46332938D01*
X-30950748Y46365013D01*
X-30956872Y46410431D01*
X-30963216Y46472452D01*
X-30970250Y46554338D01*
X-30975066Y46615254D01*
X-30997161Y46900657D01*
X-31539565Y46351195D01*
X-31637637Y46251772D01*
X-31731784Y46156185D01*
X-31820285Y46066190D01*
X-31901420Y45983543D01*
X-31973469Y45909999D01*
X-32034712Y45847316D01*
X-32083427Y45797248D01*
X-32117896Y45761552D01*
X-32136379Y45742005D01*
X-32166743Y45711056D01*
X-32192071Y45689470D01*
X-32205695Y45682277D01*
X-32223095Y45690703D01*
X-32248460Y45711755D01*
X-32257058Y45720329D01*
X-32293514Y45758380D01*
X-32092802Y45962342D01*
X-32041596Y46014301D01*
X-31975569Y46081180D01*
X-31897618Y46160050D01*
X-31810638Y46247986D01*
X-31717526Y46342059D01*
X-31621179Y46439342D01*
X-31524492Y46536907D01*
X-31455134Y46606855D01*
X-31349703Y46713450D01*
X-31261129Y46803693D01*
X-31188281Y46878808D01*
X-31130023Y46940014D01*
X-31085225Y46988534D01*
X-31063021Y47013871D01*
X-30884724Y47013871D01*
X-30862401Y46728445D01*
X-30855669Y46644781D01*
X-30849157Y46568273D01*
X-30843234Y46502919D01*
X-30838268Y46452719D01*
X-30834629Y46421671D01*
X-30833458Y46414727D01*
X-30826838Y46386435D01*
X-29877364Y46386435D01*
X-29871026Y46465394D01*
X-29851890Y46558685D01*
X-29811846Y46641209D01*
X-29753418Y46709962D01*
X-29679129Y46761937D01*
X-29595748Y46793137D01*
X-29568698Y46807772D01*
X-29555156Y46839181D01*
X-29554872Y46840566D01*
X-29553247Y46853826D01*
X-29555256Y46867405D01*
X-29562858Y46883819D01*
X-29578016Y46905589D01*
X-29602688Y46935233D01*
X-29638836Y46975268D01*
X-29688420Y47028215D01*
X-29753401Y47096591D01*
X-29757599Y47100995D01*
X-29827493Y47174389D01*
X-29901800Y47252563D01*
X-29975414Y47330136D01*
X-30043229Y47401725D01*
X-30100140Y47461949D01*
X-30112832Y47475413D01*
X-30161487Y47526180D01*
X-30204709Y47569625D01*
X-30239395Y47602759D01*
X-30262444Y47622595D01*
X-30270182Y47626954D01*
X-30281722Y47617830D01*
X-30308710Y47592800D01*
X-30349021Y47553948D01*
X-30400529Y47503357D01*
X-30461109Y47443112D01*
X-30528636Y47375296D01*
X-30583826Y47319435D01*
X-30884724Y47013871D01*
X-31063021Y47013871D01*
X-31052751Y47025589D01*
X-31031471Y47052401D01*
X-31020251Y47070192D01*
X-31017754Y47078430D01*
X-31018700Y47096410D01*
X-31021573Y47137108D01*
X-31026187Y47198181D01*
X-31032358Y47277287D01*
X-31039898Y47372086D01*
X-31048621Y47480233D01*
X-31058343Y47599388D01*
X-31068876Y47727209D01*
X-31077365Y47829365D01*
X-31125396Y48405326D01*
X-31001805Y48405326D01*
X-31001273Y48392896D01*
X-30998769Y48357890D01*
X-30994496Y48302785D01*
X-30988653Y48230057D01*
X-30981443Y48142186D01*
X-30973066Y48041649D01*
X-30963723Y47930923D01*
X-30954758Y47825795D01*
X-30944602Y47706517D01*
X-30935142Y47593920D01*
X-30926596Y47490695D01*
X-30919179Y47399527D01*
X-30913108Y47323105D01*
X-30908601Y47264117D01*
X-30905873Y47225251D01*
X-30905116Y47210156D01*
X-30903935Y47200762D01*
X-30899256Y47197034D01*
X-30889276Y47200529D01*
X-30872190Y47212801D01*
X-30846196Y47235406D01*
X-30809490Y47269900D01*
X-30760267Y47317838D01*
X-30696726Y47380776D01*
X-30629305Y47448032D01*
X-30353601Y47723523D01*
X-30355533Y47725594D01*
X-30173290Y47725594D01*
X-30164984Y47714220D01*
X-30141733Y47687437D01*
X-30105865Y47647708D01*
X-30059713Y47597493D01*
X-30005606Y47539254D01*
X-29945874Y47475453D01*
X-29882848Y47408551D01*
X-29818858Y47341010D01*
X-29756236Y47275290D01*
X-29697310Y47213854D01*
X-29644412Y47159163D01*
X-29599872Y47113678D01*
X-29566020Y47079862D01*
X-29545188Y47060174D01*
X-29539506Y47056163D01*
X-29537634Y47069109D01*
X-29533746Y47104866D01*
X-29528057Y47161196D01*
X-29520781Y47235860D01*
X-29512131Y47326620D01*
X-29502322Y47431238D01*
X-29491566Y47547474D01*
X-29480079Y47673092D01*
X-29470907Y47774382D01*
X-29459174Y47905721D01*
X-29448335Y48029448D01*
X-29438570Y48143319D01*
X-29430063Y48245089D01*
X-29422995Y48332513D01*
X-29417549Y48403347D01*
X-29413908Y48455347D01*
X-29412253Y48486268D01*
X-29412442Y48494297D01*
X-29422334Y48487146D01*
X-29447524Y48464159D01*
X-29485810Y48427561D01*
X-29534989Y48379578D01*
X-29592861Y48322434D01*
X-29657222Y48258353D01*
X-29725871Y48189562D01*
X-29796605Y48118284D01*
X-29867222Y48046745D01*
X-29935520Y47977170D01*
X-29999296Y47911783D01*
X-30056350Y47852809D01*
X-30104478Y47802473D01*
X-30141478Y47763001D01*
X-30165148Y47736617D01*
X-30173290Y47725594D01*
X-30355533Y47725594D01*
X-30456409Y47833705D01*
X-30508768Y47889623D01*
X-30567535Y47952052D01*
X-30630385Y48018557D01*
X-30694995Y48086702D01*
X-30759042Y48154052D01*
X-30820203Y48218172D01*
X-30876153Y48276628D01*
X-30924570Y48326982D01*
X-30963130Y48366802D01*
X-30989509Y48393650D01*
X-31001384Y48405092D01*
X-31001805Y48405326D01*
X-31125396Y48405326D01*
X-31137401Y48549274D01*
X-31737938Y49180842D01*
X-32338475Y49812411D01*
X-32338034Y49900685D01*
X-32337592Y49988960D01*
X-32240583Y49885334D01*
X-32186291Y49827537D01*
X-32122192Y49759632D01*
X-32050016Y49683428D01*
X-31971492Y49600731D01*
X-31888349Y49513347D01*
X-31802319Y49423085D01*
X-31715130Y49331750D01*
X-31628513Y49241151D01*
X-31544197Y49153093D01*
X-31463912Y49069385D01*
X-31389387Y48991833D01*
X-31322354Y48922243D01*
X-31264541Y48862424D01*
X-31217679Y48814182D01*
X-31183496Y48779324D01*
X-31163724Y48759657D01*
X-31159390Y48755884D01*
X-31159092Y48769008D01*
X-31160731Y48802611D01*
X-31164023Y48852120D01*
X-31168682Y48912963D01*
X-31170682Y48937268D01*
X-31185577Y49115049D01*
X-31068955Y49115049D01*
X-31062934Y49086757D01*
X-31059863Y49064382D01*
X-31055548Y49022283D01*
X-31050488Y48965822D01*
X-31045181Y48900365D01*
X-31043344Y48876138D01*
X-31037927Y48806579D01*
X-31032459Y48741982D01*
X-31027488Y48688452D01*
X-31023561Y48652090D01*
X-31022675Y48645491D01*
X-31019334Y48631944D01*
X-31012101Y48616086D01*
X-30999440Y48596139D01*
X-30979811Y48570327D01*
X-30951678Y48536871D01*
X-30913502Y48493993D01*
X-30863746Y48439917D01*
X-30800871Y48372864D01*
X-30723341Y48291057D01*
X-30644251Y48208050D01*
X-30565564Y48125906D01*
X-30492112Y48049831D01*
X-30425724Y47981675D01*
X-30368227Y47923288D01*
X-30321451Y47876519D01*
X-30287224Y47843218D01*
X-30267373Y47825233D01*
X-30263140Y47822558D01*
X-30252003Y47832259D01*
X-30225971Y47857559D01*
X-30187570Y47895918D01*
X-30139328Y47944800D01*
X-30083770Y48001666D01*
X-30043592Y48043094D01*
X-29833831Y48260000D01*
X-30452337Y48260000D01*
X-30452337Y48498911D01*
X-29697881Y48498911D01*
X-29697881Y48392458D01*
X-29559565Y48530346D01*
X-29461447Y48628160D01*
X-29270357Y48628160D01*
X-29268529Y48612730D01*
X-29259277Y48604133D01*
X-29236950Y48600387D01*
X-29195895Y48599511D01*
X-29188624Y48599505D01*
X-29106891Y48599505D01*
X-29106891Y48818828D01*
X-29188624Y48737821D01*
X-29234730Y48688572D01*
X-29262306Y48650841D01*
X-29270357Y48628160D01*
X-29461447Y48628160D01*
X-29421248Y48668234D01*
X-29421248Y48791048D01*
X-29420863Y48847550D01*
X-29419100Y48883495D01*
X-29415050Y48903470D01*
X-29407801Y48912063D01*
X-29396870Y48913861D01*
X-29384712Y48916502D01*
X-29375727Y48927088D01*
X-29368826Y48949619D01*
X-29362924Y48988091D01*
X-29356935Y49046502D01*
X-29355013Y49067896D01*
X-29350852Y49115049D01*
X-31068955Y49115049D01*
X-31185577Y49115049D01*
X-31345109Y49115049D01*
X-31345109Y49228218D01*
X-31277314Y49228218D01*
X-31237662Y49229304D01*
X-31216116Y49234546D01*
X-31213480Y49237666D01*
X-31074616Y49237666D01*
X-31067308Y49230538D01*
X-31041993Y49228338D01*
X-31024908Y49228218D01*
X-30967881Y49228218D01*
X-30755221Y49228218D01*
X-29340698Y49228218D01*
X-29388542Y49277214D01*
X-29462850Y49337676D01*
X-29554816Y49384309D01*
X-29665998Y49417751D01*
X-29776471Y49436247D01*
X-29848773Y49444878D01*
X-29848773Y49353960D01*
X-30427188Y49353960D01*
X-30427188Y49457107D01*
X-30512065Y49448504D01*
X-30571368Y49441244D01*
X-30634551Y49431621D01*
X-30672386Y49424748D01*
X-30747832Y49409593D01*
X-30751526Y49318905D01*
X-30755221Y49228218D01*
X-30967881Y49228218D01*
X-30967881Y49278515D01*
X-30969544Y49310024D01*
X-30973697Y49327537D01*
X-30975371Y49328812D01*
X-30993987Y49320746D01*
X-31021183Y49301180D01*
X-31048448Y49277056D01*
X-31067267Y49255318D01*
X-31068943Y49252492D01*
X-31074616Y49237666D01*
X-31213480Y49237666D01*
X-31205662Y49246919D01*
X-31201442Y49260396D01*
X-31184219Y49295373D01*
X-31151138Y49337421D01*
X-31107893Y49380644D01*
X-31060174Y49419146D01*
X-31028830Y49439199D01*
X-30993123Y49461149D01*
X-30974819Y49479589D01*
X-30968388Y49501332D01*
X-30967894Y49514282D01*
X-30967894Y49517425D01*
X-30326594Y49517425D01*
X-30326594Y49454554D01*
X-29949367Y49454554D01*
X-29949367Y49517425D01*
X-30326594Y49517425D01*
X-30967894Y49517425D01*
X-30967881Y49555148D01*
X-30862048Y49555148D01*
X-30813355Y49553971D01*
X-30775405Y49550835D01*
X-30754308Y49546329D01*
X-30752023Y49544505D01*
X-30738641Y49541705D01*
X-30706074Y49542852D01*
X-30659916Y49547607D01*
X-30628376Y49551997D01*
X-30571188Y49560622D01*
X-30518886Y49568409D01*
X-30479582Y49574153D01*
X-30468055Y49575785D01*
X-30437937Y49585112D01*
X-30427188Y49599728D01*
X-30423920Y49605680D01*
X-30412230Y49610222D01*
X-30389288Y49613530D01*
X-30352265Y49615785D01*
X-30298332Y49617166D01*
X-30224660Y49617850D01*
X-30137980Y49618020D01*
X-30045471Y49617923D01*
X-29975094Y49617470D01*
X-29923836Y49616410D01*
X-29888680Y49614497D01*
X-29866611Y49611481D01*
X-29854615Y49607115D01*
X-29849676Y49601151D01*
X-29848773Y49594216D01*
X-29841079Y49572205D01*
X-29815879Y49559679D01*
X-29769991Y49555212D01*
X-29761736Y49555148D01*
X-29684027Y49547132D01*
X-29595767Y49525064D01*
X-29504915Y49491916D01*
X-29419430Y49450661D01*
X-29347274Y49404269D01*
X-29337928Y49396918D01*
X-29307467Y49373002D01*
X-29289428Y49363424D01*
X-29276831Y49366520D01*
X-29263900Y49379296D01*
X-29225707Y49404322D01*
X-29176002Y49413929D01*
X-29122476Y49408933D01*
X-29072822Y49390149D01*
X-29034733Y49358394D01*
X-29031975Y49354703D01*
X-29003474Y49295425D01*
X-28998172Y49234066D01*
X-29015482Y49175573D01*
X-29054820Y49124896D01*
X-29059630Y49120711D01*
X-29087560Y49100833D01*
X-29115898Y49092079D01*
X-29155737Y49091447D01*
X-29165689Y49092008D01*
X-29204668Y49093438D01*
X-29224746Y49090161D01*
X-29232015Y49080272D01*
X-29232760Y49071039D01*
X-29234284Y49044256D01*
X-29238065Y49003975D01*
X-29240782Y48979876D01*
X-29244723Y48941599D01*
X-29243084Y48922004D01*
X-29233579Y48914842D01*
X-29216649Y48913861D01*
X-29206608Y48917099D01*
X-29190410Y48927580D01*
X-29166855Y48946452D01*
X-29134743Y48974865D01*
X-29092872Y49013965D01*
X-29040043Y49064903D01*
X-28975055Y49128827D01*
X-28896709Y49206886D01*
X-28803803Y49300228D01*
X-28695137Y49410002D01*
X-28642769Y49463048D01*
X-28100951Y50012233D01*
X-28101570Y49925152D01*
D10*
G36*
X-249000Y-3197400D02*
G01*
X-1051000Y-3197400D01*
X-1051000Y-2222399D01*
X-1053402Y-2198013D01*
X-1060515Y-2174564D01*
X-1072066Y-2152953D01*
X-1087611Y-2134011D01*
X-1106553Y-2118466D01*
X-1128164Y-2106915D01*
X-1151613Y-2099802D01*
X-1175999Y-2097400D01*
X-2124001Y-2097400D01*
X-2148387Y-2099802D01*
X-2171836Y-2106915D01*
X-2193447Y-2118466D01*
X-2212389Y-2134011D01*
X-2227934Y-2152953D01*
X-2239485Y-2174564D01*
X-2246598Y-2198013D01*
X-2249000Y-2222399D01*
X-2249000Y-3197400D01*
X-7051000Y-3197400D01*
X-7051000Y1204600D01*
X-249000Y1204600D01*
X-249000Y-3197400D01*
G37*
G36*
X-9249000Y-3197400D02*
G01*
X-20051000Y-3197400D01*
X-20051000Y1204600D01*
X-9249000Y1204600D01*
X-9249000Y-3197400D01*
G37*
G36*
X-59024744Y6208702D02*
G01*
X-58918421Y6187553D01*
X-58617958Y6063097D01*
X-58347549Y5882415D01*
X-58117585Y5652451D01*
X-57936903Y5382042D01*
X-57812447Y5081579D01*
X-57749000Y4762609D01*
X-57749000Y4437391D01*
X-57812447Y4118421D01*
X-57936903Y3817958D01*
X-58117585Y3547549D01*
X-58347549Y3317585D01*
X-58617958Y3136903D01*
X-58918421Y3012447D01*
X-59024744Y2991298D01*
X-59237389Y2949000D01*
X-59562611Y2949000D01*
X-59775256Y2991298D01*
X-59881579Y3012447D01*
X-60182042Y3136903D01*
X-60452451Y3317585D01*
X-60682415Y3547549D01*
X-60863097Y3817958D01*
X-60987553Y4118421D01*
X-61051000Y4437391D01*
X-61051000Y4762609D01*
X-60987553Y5081579D01*
X-60863097Y5382042D01*
X-60682415Y5652451D01*
X-60452451Y5882415D01*
X-60182042Y6063097D01*
X-59881579Y6187553D01*
X-59775256Y6208702D01*
X-59562611Y6251000D01*
X-59237389Y6251000D01*
X-59024744Y6208702D01*
G37*
G36*
X-5525209Y10435515D02*
G01*
X-5491231Y10425207D01*
X-5459910Y10408466D01*
X-5432461Y10385939D01*
X-5409934Y10358490D01*
X-5393193Y10327169D01*
X-5382885Y10293191D01*
X-5378800Y10251710D01*
X-5378800Y9575490D01*
X-5382885Y9534009D01*
X-5393193Y9500031D01*
X-5409934Y9468710D01*
X-5432461Y9441261D01*
X-5459910Y9418734D01*
X-5491231Y9401993D01*
X-5525209Y9391685D01*
X-5566690Y9387600D01*
X-6167910Y9387600D01*
X-6209391Y9391685D01*
X-6243369Y9401993D01*
X-6274690Y9418734D01*
X-6302139Y9441261D01*
X-6324666Y9468710D01*
X-6341407Y9500031D01*
X-6351715Y9534009D01*
X-6355800Y9575490D01*
X-6355800Y10251710D01*
X-6351715Y10293191D01*
X-6341407Y10327169D01*
X-6324666Y10358490D01*
X-6302139Y10385939D01*
X-6274690Y10408466D01*
X-6243369Y10425207D01*
X-6209391Y10435515D01*
X-6167910Y10439600D01*
X-5566690Y10439600D01*
X-5525209Y10435515D01*
G37*
G36*
X-7100209Y10435515D02*
G01*
X-7066231Y10425207D01*
X-7034910Y10408466D01*
X-7007461Y10385939D01*
X-6984934Y10358490D01*
X-6968193Y10327169D01*
X-6957885Y10293191D01*
X-6953800Y10251710D01*
X-6953800Y9575490D01*
X-6957885Y9534009D01*
X-6968193Y9500031D01*
X-6984934Y9468710D01*
X-7007461Y9441261D01*
X-7034910Y9418734D01*
X-7066231Y9401993D01*
X-7100209Y9391685D01*
X-7141690Y9387600D01*
X-7742910Y9387600D01*
X-7784391Y9391685D01*
X-7818369Y9401993D01*
X-7849690Y9418734D01*
X-7877139Y9441261D01*
X-7899666Y9468710D01*
X-7916407Y9500031D01*
X-7926715Y9534009D01*
X-7930800Y9575490D01*
X-7930800Y10251710D01*
X-7926715Y10293191D01*
X-7916407Y10327169D01*
X-7899666Y10358490D01*
X-7877139Y10385939D01*
X-7849690Y10408466D01*
X-7818369Y10425207D01*
X-7784391Y10435515D01*
X-7742910Y10439600D01*
X-7141690Y10439600D01*
X-7100209Y10435515D01*
G37*
G36*
X-29325009Y10808915D02*
G01*
X-29291031Y10798607D01*
X-29259710Y10781866D01*
X-29232261Y10759339D01*
X-29209734Y10731890D01*
X-29192993Y10700569D01*
X-29182685Y10666591D01*
X-29178600Y10625110D01*
X-29178600Y9948890D01*
X-29182685Y9907409D01*
X-29192993Y9873431D01*
X-29209734Y9842110D01*
X-29232261Y9814661D01*
X-29259710Y9792134D01*
X-29291031Y9775393D01*
X-29325009Y9765085D01*
X-29366490Y9761000D01*
X-29967710Y9761000D01*
X-30009191Y9765085D01*
X-30043169Y9775393D01*
X-30074490Y9792134D01*
X-30101939Y9814661D01*
X-30124466Y9842110D01*
X-30141207Y9873431D01*
X-30151515Y9907409D01*
X-30155600Y9948890D01*
X-30155600Y10625110D01*
X-30151515Y10666591D01*
X-30141207Y10700569D01*
X-30124466Y10731890D01*
X-30101939Y10759339D01*
X-30074490Y10781866D01*
X-30043169Y10798607D01*
X-30009191Y10808915D01*
X-29967710Y10813000D01*
X-29366490Y10813000D01*
X-29325009Y10808915D01*
G37*
G36*
X-27750009Y10808915D02*
G01*
X-27716031Y10798607D01*
X-27684710Y10781866D01*
X-27657261Y10759339D01*
X-27634734Y10731890D01*
X-27617993Y10700569D01*
X-27607685Y10666591D01*
X-27603600Y10625110D01*
X-27603600Y9948890D01*
X-27607685Y9907409D01*
X-27617993Y9873431D01*
X-27634734Y9842110D01*
X-27657261Y9814661D01*
X-27684710Y9792134D01*
X-27716031Y9775393D01*
X-27750009Y9765085D01*
X-27791490Y9761000D01*
X-28392710Y9761000D01*
X-28434191Y9765085D01*
X-28468169Y9775393D01*
X-28499490Y9792134D01*
X-28526939Y9814661D01*
X-28549466Y9842110D01*
X-28566207Y9873431D01*
X-28576515Y9907409D01*
X-28580600Y9948890D01*
X-28580600Y10625110D01*
X-28576515Y10666591D01*
X-28566207Y10700569D01*
X-28549466Y10731890D01*
X-28526939Y10759339D01*
X-28499490Y10781866D01*
X-28468169Y10798607D01*
X-28434191Y10808915D01*
X-28392710Y10813000D01*
X-27791490Y10813000D01*
X-27750009Y10808915D01*
G37*
G36*
X-43867009Y10847415D02*
G01*
X-43833031Y10837107D01*
X-43801710Y10820366D01*
X-43774261Y10797839D01*
X-43751734Y10770390D01*
X-43734993Y10739069D01*
X-43724685Y10705091D01*
X-43720600Y10663610D01*
X-43720600Y10062390D01*
X-43724685Y10020909D01*
X-43734993Y9986931D01*
X-43751734Y9955610D01*
X-43774261Y9928161D01*
X-43801710Y9905634D01*
X-43833031Y9888893D01*
X-43867009Y9878585D01*
X-43908490Y9874500D01*
X-44584710Y9874500D01*
X-44626191Y9878585D01*
X-44660169Y9888893D01*
X-44691490Y9905634D01*
X-44718939Y9928161D01*
X-44741466Y9955610D01*
X-44758207Y9986931D01*
X-44768515Y10020909D01*
X-44772600Y10062390D01*
X-44772600Y10663610D01*
X-44768515Y10705091D01*
X-44758207Y10739069D01*
X-44741466Y10770390D01*
X-44718939Y10797839D01*
X-44691490Y10820366D01*
X-44660169Y10837107D01*
X-44626191Y10847415D01*
X-44584710Y10851500D01*
X-43908490Y10851500D01*
X-43867009Y10847415D01*
G37*
G36*
X-40938672Y12742236D02*
G01*
X-40917591Y12735840D01*
X-40898155Y12725452D01*
X-40881124Y12711476D01*
X-40867148Y12694445D01*
X-40856760Y12675009D01*
X-40850364Y12653928D01*
X-40847600Y12625860D01*
X-40847600Y11162140D01*
X-40850364Y11134072D01*
X-40856760Y11112991D01*
X-40867148Y11093555D01*
X-40881124Y11076524D01*
X-40898155Y11062548D01*
X-40917591Y11052160D01*
X-40938672Y11045764D01*
X-40966740Y11043000D01*
X-41430460Y11043000D01*
X-41458528Y11045764D01*
X-41479609Y11052160D01*
X-41499045Y11062548D01*
X-41516076Y11076524D01*
X-41530052Y11093555D01*
X-41540440Y11112991D01*
X-41546836Y11134072D01*
X-41549600Y11162140D01*
X-41549600Y12625860D01*
X-41546836Y12653928D01*
X-41540440Y12675009D01*
X-41530052Y12694445D01*
X-41516076Y12711476D01*
X-41499045Y12725452D01*
X-41479609Y12735840D01*
X-41458528Y12742236D01*
X-41430460Y12745000D01*
X-40966740Y12745000D01*
X-40938672Y12742236D01*
G37*
G36*
X-39668672Y12742236D02*
G01*
X-39647591Y12735840D01*
X-39628155Y12725452D01*
X-39611124Y12711476D01*
X-39597148Y12694445D01*
X-39586760Y12675009D01*
X-39580364Y12653928D01*
X-39577600Y12625860D01*
X-39577600Y11162140D01*
X-39580364Y11134072D01*
X-39586760Y11112991D01*
X-39597148Y11093555D01*
X-39611124Y11076524D01*
X-39628155Y11062548D01*
X-39647591Y11052160D01*
X-39668672Y11045764D01*
X-39696740Y11043000D01*
X-40160460Y11043000D01*
X-40188528Y11045764D01*
X-40209609Y11052160D01*
X-40229045Y11062548D01*
X-40246076Y11076524D01*
X-40260052Y11093555D01*
X-40270440Y11112991D01*
X-40276836Y11134072D01*
X-40279600Y11162140D01*
X-40279600Y12625860D01*
X-40276836Y12653928D01*
X-40270440Y12675009D01*
X-40260052Y12694445D01*
X-40246076Y12711476D01*
X-40229045Y12725452D01*
X-40209609Y12735840D01*
X-40188528Y12742236D01*
X-40160460Y12745000D01*
X-39696740Y12745000D01*
X-39668672Y12742236D01*
G37*
G36*
X-38398672Y12742236D02*
G01*
X-38377591Y12735840D01*
X-38358155Y12725452D01*
X-38341124Y12711476D01*
X-38327148Y12694445D01*
X-38316760Y12675009D01*
X-38310364Y12653928D01*
X-38307600Y12625860D01*
X-38307600Y11162140D01*
X-38310364Y11134072D01*
X-38316760Y11112991D01*
X-38327148Y11093555D01*
X-38341124Y11076524D01*
X-38358155Y11062548D01*
X-38377591Y11052160D01*
X-38398672Y11045764D01*
X-38426740Y11043000D01*
X-38890460Y11043000D01*
X-38918528Y11045764D01*
X-38939609Y11052160D01*
X-38959045Y11062548D01*
X-38976076Y11076524D01*
X-38990052Y11093555D01*
X-39000440Y11112991D01*
X-39006836Y11134072D01*
X-39009600Y11162140D01*
X-39009600Y12625860D01*
X-39006836Y12653928D01*
X-39000440Y12675009D01*
X-38990052Y12694445D01*
X-38976076Y12711476D01*
X-38959045Y12725452D01*
X-38939609Y12735840D01*
X-38918528Y12742236D01*
X-38890460Y12745000D01*
X-38426740Y12745000D01*
X-38398672Y12742236D01*
G37*
G36*
X-37128672Y12742236D02*
G01*
X-37107591Y12735840D01*
X-37088155Y12725452D01*
X-37071124Y12711476D01*
X-37057148Y12694445D01*
X-37046760Y12675009D01*
X-37040364Y12653928D01*
X-37037600Y12625860D01*
X-37037600Y11162140D01*
X-37040364Y11134072D01*
X-37046760Y11112991D01*
X-37057148Y11093555D01*
X-37071124Y11076524D01*
X-37088155Y11062548D01*
X-37107591Y11052160D01*
X-37128672Y11045764D01*
X-37156740Y11043000D01*
X-37620460Y11043000D01*
X-37648528Y11045764D01*
X-37669609Y11052160D01*
X-37689045Y11062548D01*
X-37706076Y11076524D01*
X-37720052Y11093555D01*
X-37730440Y11112991D01*
X-37736836Y11134072D01*
X-37739600Y11162140D01*
X-37739600Y12625860D01*
X-37736836Y12653928D01*
X-37730440Y12675009D01*
X-37720052Y12694445D01*
X-37706076Y12711476D01*
X-37689045Y12725452D01*
X-37669609Y12735840D01*
X-37648528Y12742236D01*
X-37620460Y12745000D01*
X-37156740Y12745000D01*
X-37128672Y12742236D01*
G37*
G36*
X-5525209Y12213515D02*
G01*
X-5491231Y12203207D01*
X-5459910Y12186466D01*
X-5432461Y12163939D01*
X-5409934Y12136490D01*
X-5393193Y12105169D01*
X-5382885Y12071191D01*
X-5378800Y12029710D01*
X-5378800Y11353490D01*
X-5382885Y11312009D01*
X-5393193Y11278031D01*
X-5409934Y11246710D01*
X-5432461Y11219261D01*
X-5459910Y11196734D01*
X-5491231Y11179993D01*
X-5525209Y11169685D01*
X-5566690Y11165600D01*
X-6167910Y11165600D01*
X-6209391Y11169685D01*
X-6243369Y11179993D01*
X-6274690Y11196734D01*
X-6302139Y11219261D01*
X-6324666Y11246710D01*
X-6341407Y11278031D01*
X-6351715Y11312009D01*
X-6355800Y11353490D01*
X-6355800Y12029710D01*
X-6351715Y12071191D01*
X-6341407Y12105169D01*
X-6324666Y12136490D01*
X-6302139Y12163939D01*
X-6274690Y12186466D01*
X-6243369Y12203207D01*
X-6209391Y12213515D01*
X-6167910Y12217600D01*
X-5566690Y12217600D01*
X-5525209Y12213515D01*
G37*
G36*
X-7100209Y12213515D02*
G01*
X-7066231Y12203207D01*
X-7034910Y12186466D01*
X-7007461Y12163939D01*
X-6984934Y12136490D01*
X-6968193Y12105169D01*
X-6957885Y12071191D01*
X-6953800Y12029710D01*
X-6953800Y11353490D01*
X-6957885Y11312009D01*
X-6968193Y11278031D01*
X-6984934Y11246710D01*
X-7007461Y11219261D01*
X-7034910Y11196734D01*
X-7066231Y11179993D01*
X-7100209Y11169685D01*
X-7141690Y11165600D01*
X-7742910Y11165600D01*
X-7784391Y11169685D01*
X-7818369Y11179993D01*
X-7849690Y11196734D01*
X-7877139Y11219261D01*
X-7899666Y11246710D01*
X-7916407Y11278031D01*
X-7926715Y11312009D01*
X-7930800Y11353490D01*
X-7930800Y12029710D01*
X-7926715Y12071191D01*
X-7916407Y12105169D01*
X-7899666Y12136490D01*
X-7877139Y12163939D01*
X-7849690Y12186466D01*
X-7818369Y12203207D01*
X-7784391Y12213515D01*
X-7742910Y12217600D01*
X-7141690Y12217600D01*
X-7100209Y12213515D01*
G37*
G36*
X-43867009Y12422415D02*
G01*
X-43833031Y12412107D01*
X-43801710Y12395366D01*
X-43774261Y12372839D01*
X-43751734Y12345390D01*
X-43734993Y12314069D01*
X-43724685Y12280091D01*
X-43720600Y12238610D01*
X-43720600Y11637390D01*
X-43724685Y11595909D01*
X-43734993Y11561931D01*
X-43751734Y11530610D01*
X-43774261Y11503161D01*
X-43801710Y11480634D01*
X-43833031Y11463893D01*
X-43867009Y11453585D01*
X-43908490Y11449500D01*
X-44584710Y11449500D01*
X-44626191Y11453585D01*
X-44660169Y11463893D01*
X-44691490Y11480634D01*
X-44718939Y11503161D01*
X-44741466Y11530610D01*
X-44758207Y11561931D01*
X-44768515Y11595909D01*
X-44772600Y11637390D01*
X-44772600Y12238610D01*
X-44768515Y12280091D01*
X-44758207Y12314069D01*
X-44741466Y12345390D01*
X-44718939Y12372839D01*
X-44691490Y12395366D01*
X-44660169Y12412107D01*
X-44626191Y12422415D01*
X-44584710Y12426500D01*
X-43908490Y12426500D01*
X-43867009Y12422415D01*
G37*
G36*
X-33707009Y12625415D02*
G01*
X-33673031Y12615107D01*
X-33641710Y12598366D01*
X-33614261Y12575839D01*
X-33591734Y12548390D01*
X-33574993Y12517069D01*
X-33564685Y12483091D01*
X-33560600Y12441610D01*
X-33560600Y11840390D01*
X-33564685Y11798909D01*
X-33574993Y11764931D01*
X-33591734Y11733610D01*
X-33614261Y11706161D01*
X-33641710Y11683634D01*
X-33673031Y11666893D01*
X-33707009Y11656585D01*
X-33748490Y11652500D01*
X-34424710Y11652500D01*
X-34466191Y11656585D01*
X-34500169Y11666893D01*
X-34531490Y11683634D01*
X-34558939Y11706161D01*
X-34581466Y11733610D01*
X-34598207Y11764931D01*
X-34608515Y11798909D01*
X-34612600Y11840390D01*
X-34612600Y12441610D01*
X-34608515Y12483091D01*
X-34598207Y12517069D01*
X-34581466Y12548390D01*
X-34558939Y12575839D01*
X-34531490Y12598366D01*
X-34500169Y12615107D01*
X-34466191Y12625415D01*
X-34424710Y12629500D01*
X-33748490Y12629500D01*
X-33707009Y12625415D01*
G37*
G36*
X-24690009Y12650915D02*
G01*
X-24656031Y12640607D01*
X-24624710Y12623866D01*
X-24597261Y12601339D01*
X-24574734Y12573890D01*
X-24557993Y12542569D01*
X-24547685Y12508591D01*
X-24543600Y12467110D01*
X-24543600Y11865890D01*
X-24547685Y11824409D01*
X-24557993Y11790431D01*
X-24574734Y11759110D01*
X-24597261Y11731661D01*
X-24624710Y11709134D01*
X-24656031Y11692393D01*
X-24690009Y11682085D01*
X-24731490Y11678000D01*
X-25407710Y11678000D01*
X-25449191Y11682085D01*
X-25483169Y11692393D01*
X-25514490Y11709134D01*
X-25541939Y11731661D01*
X-25564466Y11759110D01*
X-25581207Y11790431D01*
X-25591515Y11824409D01*
X-25595600Y11865890D01*
X-25595600Y12467110D01*
X-25591515Y12508591D01*
X-25581207Y12542569D01*
X-25564466Y12573890D01*
X-25541939Y12601339D01*
X-25514490Y12623866D01*
X-25483169Y12640607D01*
X-25449191Y12650915D01*
X-25407710Y12655000D01*
X-24731490Y12655000D01*
X-24690009Y12650915D01*
G37*
G36*
X-58726009Y13184415D02*
G01*
X-58692031Y13174107D01*
X-58660710Y13157366D01*
X-58633261Y13134839D01*
X-58610734Y13107390D01*
X-58593993Y13076069D01*
X-58583685Y13042091D01*
X-58579600Y13000610D01*
X-58579600Y12399390D01*
X-58583685Y12357909D01*
X-58593993Y12323931D01*
X-58610734Y12292610D01*
X-58633261Y12265161D01*
X-58660710Y12242634D01*
X-58692031Y12225893D01*
X-58726009Y12215585D01*
X-58767490Y12211500D01*
X-59443710Y12211500D01*
X-59485191Y12215585D01*
X-59519169Y12225893D01*
X-59550490Y12242634D01*
X-59577939Y12265161D01*
X-59600466Y12292610D01*
X-59617207Y12323931D01*
X-59627515Y12357909D01*
X-59631600Y12399390D01*
X-59631600Y13000610D01*
X-59627515Y13042091D01*
X-59617207Y13076069D01*
X-59600466Y13107390D01*
X-59577939Y13134839D01*
X-59550490Y13157366D01*
X-59519169Y13174107D01*
X-59485191Y13184415D01*
X-59443710Y13188500D01*
X-58767490Y13188500D01*
X-58726009Y13184415D01*
G37*
G36*
X-60885009Y13184415D02*
G01*
X-60851031Y13174107D01*
X-60819710Y13157366D01*
X-60792261Y13134839D01*
X-60769734Y13107390D01*
X-60752993Y13076069D01*
X-60742685Y13042091D01*
X-60738600Y13000610D01*
X-60738600Y12399390D01*
X-60742685Y12357909D01*
X-60752993Y12323931D01*
X-60769734Y12292610D01*
X-60792261Y12265161D01*
X-60819710Y12242634D01*
X-60851031Y12225893D01*
X-60885009Y12215585D01*
X-60926490Y12211500D01*
X-61602710Y12211500D01*
X-61644191Y12215585D01*
X-61678169Y12225893D01*
X-61709490Y12242634D01*
X-61736939Y12265161D01*
X-61759466Y12292610D01*
X-61776207Y12323931D01*
X-61786515Y12357909D01*
X-61790600Y12399390D01*
X-61790600Y13000610D01*
X-61786515Y13042091D01*
X-61776207Y13076069D01*
X-61759466Y13107390D01*
X-61736939Y13134839D01*
X-61709490Y13157366D01*
X-61678169Y13174107D01*
X-61644191Y13184415D01*
X-61602710Y13188500D01*
X-60926490Y13188500D01*
X-60885009Y13184415D01*
G37*
G36*
X-33707009Y14200415D02*
G01*
X-33673031Y14190107D01*
X-33641710Y14173366D01*
X-33614261Y14150839D01*
X-33591734Y14123390D01*
X-33574993Y14092069D01*
X-33564685Y14058091D01*
X-33560600Y14016610D01*
X-33560600Y13415390D01*
X-33564685Y13373909D01*
X-33574993Y13339931D01*
X-33591734Y13308610D01*
X-33614261Y13281161D01*
X-33641710Y13258634D01*
X-33673031Y13241893D01*
X-33707009Y13231585D01*
X-33748490Y13227500D01*
X-34424710Y13227500D01*
X-34466191Y13231585D01*
X-34500169Y13241893D01*
X-34531490Y13258634D01*
X-34558939Y13281161D01*
X-34581466Y13308610D01*
X-34598207Y13339931D01*
X-34608515Y13373909D01*
X-34612600Y13415390D01*
X-34612600Y14016610D01*
X-34608515Y14058091D01*
X-34598207Y14092069D01*
X-34581466Y14123390D01*
X-34558939Y14150839D01*
X-34531490Y14173366D01*
X-34500169Y14190107D01*
X-34466191Y14200415D01*
X-34424710Y14204500D01*
X-33748490Y14204500D01*
X-33707009Y14200415D01*
G37*
G36*
X-24690009Y14225915D02*
G01*
X-24656031Y14215607D01*
X-24624710Y14198866D01*
X-24597261Y14176339D01*
X-24574734Y14148890D01*
X-24557993Y14117569D01*
X-24547685Y14083591D01*
X-24543600Y14042110D01*
X-24543600Y13440890D01*
X-24547685Y13399409D01*
X-24557993Y13365431D01*
X-24574734Y13334110D01*
X-24597261Y13306661D01*
X-24624710Y13284134D01*
X-24656031Y13267393D01*
X-24690009Y13257085D01*
X-24731490Y13253000D01*
X-25407710Y13253000D01*
X-25449191Y13257085D01*
X-25483169Y13267393D01*
X-25514490Y13284134D01*
X-25541939Y13306661D01*
X-25564466Y13334110D01*
X-25581207Y13365431D01*
X-25591515Y13399409D01*
X-25595600Y13440890D01*
X-25595600Y14042110D01*
X-25591515Y14083591D01*
X-25581207Y14117569D01*
X-25564466Y14148890D01*
X-25541939Y14176339D01*
X-25514490Y14198866D01*
X-25483169Y14215607D01*
X-25449191Y14225915D01*
X-25407710Y14230000D01*
X-24731490Y14230000D01*
X-24690009Y14225915D01*
G37*
G36*
X-58726009Y14759415D02*
G01*
X-58692031Y14749107D01*
X-58660710Y14732366D01*
X-58633261Y14709839D01*
X-58610734Y14682390D01*
X-58593993Y14651069D01*
X-58583685Y14617091D01*
X-58579600Y14575610D01*
X-58579600Y13974390D01*
X-58583685Y13932909D01*
X-58593993Y13898931D01*
X-58610734Y13867610D01*
X-58633261Y13840161D01*
X-58660710Y13817634D01*
X-58692031Y13800893D01*
X-58726009Y13790585D01*
X-58767490Y13786500D01*
X-59443710Y13786500D01*
X-59485191Y13790585D01*
X-59519169Y13800893D01*
X-59550490Y13817634D01*
X-59577939Y13840161D01*
X-59600466Y13867610D01*
X-59617207Y13898931D01*
X-59627515Y13932909D01*
X-59631600Y13974390D01*
X-59631600Y14575610D01*
X-59627515Y14617091D01*
X-59617207Y14651069D01*
X-59600466Y14682390D01*
X-59577939Y14709839D01*
X-59550490Y14732366D01*
X-59519169Y14749107D01*
X-59485191Y14759415D01*
X-59443710Y14763500D01*
X-58767490Y14763500D01*
X-58726009Y14759415D01*
G37*
G36*
X-60885009Y14759415D02*
G01*
X-60851031Y14749107D01*
X-60819710Y14732366D01*
X-60792261Y14709839D01*
X-60769734Y14682390D01*
X-60752993Y14651069D01*
X-60742685Y14617091D01*
X-60738600Y14575610D01*
X-60738600Y13974390D01*
X-60742685Y13932909D01*
X-60752993Y13898931D01*
X-60769734Y13867610D01*
X-60792261Y13840161D01*
X-60819710Y13817634D01*
X-60851031Y13800893D01*
X-60885009Y13790585D01*
X-60926490Y13786500D01*
X-61602710Y13786500D01*
X-61644191Y13790585D01*
X-61678169Y13800893D01*
X-61709490Y13817634D01*
X-61736939Y13840161D01*
X-61759466Y13867610D01*
X-61776207Y13898931D01*
X-61786515Y13932909D01*
X-61790600Y13974390D01*
X-61790600Y14575610D01*
X-61786515Y14617091D01*
X-61776207Y14651069D01*
X-61759466Y14682390D01*
X-61736939Y14709839D01*
X-61709490Y14732366D01*
X-61678169Y14749107D01*
X-61644191Y14759415D01*
X-61602710Y14763500D01*
X-60926490Y14763500D01*
X-60885009Y14759415D01*
G37*
G36*
X-14542009Y15634915D02*
G01*
X-14508031Y15624607D01*
X-14476710Y15607866D01*
X-14449261Y15585339D01*
X-14426734Y15557890D01*
X-14409993Y15526569D01*
X-14399685Y15492591D01*
X-14395600Y15451110D01*
X-14395600Y14774890D01*
X-14399685Y14733409D01*
X-14409993Y14699431D01*
X-14426734Y14668110D01*
X-14449261Y14640661D01*
X-14476710Y14618134D01*
X-14508031Y14601393D01*
X-14542009Y14591085D01*
X-14583490Y14587000D01*
X-15184710Y14587000D01*
X-15226191Y14591085D01*
X-15260169Y14601393D01*
X-15291490Y14618134D01*
X-15318939Y14640661D01*
X-15341466Y14668110D01*
X-15358207Y14699431D01*
X-15368515Y14733409D01*
X-15372600Y14774890D01*
X-15372600Y15451110D01*
X-15368515Y15492591D01*
X-15358207Y15526569D01*
X-15341466Y15557890D01*
X-15318939Y15585339D01*
X-15291490Y15607866D01*
X-15260169Y15624607D01*
X-15226191Y15634915D01*
X-15184710Y15639000D01*
X-14583490Y15639000D01*
X-14542009Y15634915D01*
G37*
G36*
X-16117009Y15634915D02*
G01*
X-16083031Y15624607D01*
X-16051710Y15607866D01*
X-16024261Y15585339D01*
X-16001734Y15557890D01*
X-15984993Y15526569D01*
X-15974685Y15492591D01*
X-15970600Y15451110D01*
X-15970600Y14774890D01*
X-15974685Y14733409D01*
X-15984993Y14699431D01*
X-16001734Y14668110D01*
X-16024261Y14640661D01*
X-16051710Y14618134D01*
X-16083031Y14601393D01*
X-16117009Y14591085D01*
X-16158490Y14587000D01*
X-16759710Y14587000D01*
X-16801191Y14591085D01*
X-16835169Y14601393D01*
X-16866490Y14618134D01*
X-16893939Y14640661D01*
X-16916466Y14668110D01*
X-16933207Y14699431D01*
X-16943515Y14733409D01*
X-16947600Y14774890D01*
X-16947600Y15451110D01*
X-16943515Y15492591D01*
X-16933207Y15526569D01*
X-16916466Y15557890D01*
X-16893939Y15585339D01*
X-16866490Y15607866D01*
X-16835169Y15624607D01*
X-16801191Y15634915D01*
X-16759710Y15639000D01*
X-16158490Y15639000D01*
X-16117009Y15634915D01*
G37*
G36*
X-12879009Y15698915D02*
G01*
X-12845031Y15688607D01*
X-12813710Y15671866D01*
X-12786261Y15649339D01*
X-12763734Y15621890D01*
X-12746993Y15590569D01*
X-12736685Y15556591D01*
X-12732600Y15515110D01*
X-12732600Y14913890D01*
X-12736685Y14872409D01*
X-12746993Y14838431D01*
X-12763734Y14807110D01*
X-12786261Y14779661D01*
X-12813710Y14757134D01*
X-12845031Y14740393D01*
X-12879009Y14730085D01*
X-12920490Y14726000D01*
X-13596710Y14726000D01*
X-13638191Y14730085D01*
X-13672169Y14740393D01*
X-13703490Y14757134D01*
X-13730939Y14779661D01*
X-13753466Y14807110D01*
X-13770207Y14838431D01*
X-13780515Y14872409D01*
X-13784600Y14913890D01*
X-13784600Y15515110D01*
X-13780515Y15556591D01*
X-13770207Y15590569D01*
X-13753466Y15621890D01*
X-13730939Y15649339D01*
X-13703490Y15671866D01*
X-13672169Y15688607D01*
X-13638191Y15698915D01*
X-13596710Y15703000D01*
X-12920490Y15703000D01*
X-12879009Y15698915D01*
G37*
G36*
X-25071009Y15825915D02*
G01*
X-25037031Y15815607D01*
X-25005710Y15798866D01*
X-24978261Y15776339D01*
X-24955734Y15748890D01*
X-24938993Y15717569D01*
X-24928685Y15683591D01*
X-24924600Y15642110D01*
X-24924600Y15040890D01*
X-24928685Y14999409D01*
X-24938993Y14965431D01*
X-24955734Y14934110D01*
X-24978261Y14906661D01*
X-25005710Y14884134D01*
X-25037031Y14867393D01*
X-25071009Y14857085D01*
X-25112490Y14853000D01*
X-25788710Y14853000D01*
X-25830191Y14857085D01*
X-25864169Y14867393D01*
X-25895490Y14884134D01*
X-25922939Y14906661D01*
X-25945466Y14934110D01*
X-25962207Y14965431D01*
X-25972515Y14999409D01*
X-25976600Y15040890D01*
X-25976600Y15642110D01*
X-25972515Y15683591D01*
X-25962207Y15717569D01*
X-25945466Y15748890D01*
X-25922939Y15776339D01*
X-25895490Y15798866D01*
X-25864169Y15815607D01*
X-25830191Y15825915D01*
X-25788710Y15830000D01*
X-25112490Y15830000D01*
X-25071009Y15825915D01*
G37*
G36*
X-50987135Y18579561D02*
G01*
X-50755373Y18483562D01*
X-50755372Y18483561D01*
X-50546791Y18344192D01*
X-50369408Y18166809D01*
X-50317070Y18088479D01*
X-50230038Y17958227D01*
X-50134039Y17726465D01*
X-50085100Y17480430D01*
X-50085100Y17229570D01*
X-50134039Y16983535D01*
X-50230038Y16751773D01*
X-50230039Y16751772D01*
X-50369408Y16543191D01*
X-50546791Y16365808D01*
X-50575610Y16346552D01*
X-50755373Y16226438D01*
X-50987135Y16130439D01*
X-51233170Y16081500D01*
X-51484030Y16081500D01*
X-51730065Y16130439D01*
X-51961827Y16226438D01*
X-52141590Y16346552D01*
X-52170409Y16365808D01*
X-52347792Y16543191D01*
X-52487161Y16751772D01*
X-52487162Y16751773D01*
X-52583161Y16983535D01*
X-52632100Y17229570D01*
X-52632100Y17480430D01*
X-52583161Y17726465D01*
X-52487162Y17958227D01*
X-52400130Y18088479D01*
X-52347792Y18166809D01*
X-52170409Y18344192D01*
X-51961828Y18483561D01*
X-51961827Y18483562D01*
X-51730065Y18579561D01*
X-51484030Y18628500D01*
X-51233170Y18628500D01*
X-50987135Y18579561D01*
G37*
G36*
X-14542009Y17285915D02*
G01*
X-14508031Y17275607D01*
X-14476710Y17258866D01*
X-14449261Y17236339D01*
X-14426734Y17208890D01*
X-14409993Y17177569D01*
X-14399685Y17143591D01*
X-14395600Y17102110D01*
X-14395600Y16425890D01*
X-14399685Y16384409D01*
X-14409993Y16350431D01*
X-14426734Y16319110D01*
X-14449261Y16291661D01*
X-14476710Y16269134D01*
X-14508031Y16252393D01*
X-14542009Y16242085D01*
X-14583490Y16238000D01*
X-15184710Y16238000D01*
X-15226191Y16242085D01*
X-15260169Y16252393D01*
X-15291490Y16269134D01*
X-15318939Y16291661D01*
X-15341466Y16319110D01*
X-15358207Y16350431D01*
X-15368515Y16384409D01*
X-15372600Y16425890D01*
X-15372600Y17102110D01*
X-15368515Y17143591D01*
X-15358207Y17177569D01*
X-15341466Y17208890D01*
X-15318939Y17236339D01*
X-15291490Y17258866D01*
X-15260169Y17275607D01*
X-15226191Y17285915D01*
X-15184710Y17290000D01*
X-14583490Y17290000D01*
X-14542009Y17285915D01*
G37*
G36*
X-16117009Y17285915D02*
G01*
X-16083031Y17275607D01*
X-16051710Y17258866D01*
X-16024261Y17236339D01*
X-16001734Y17208890D01*
X-15984993Y17177569D01*
X-15974685Y17143591D01*
X-15970600Y17102110D01*
X-15970600Y16425890D01*
X-15974685Y16384409D01*
X-15984993Y16350431D01*
X-16001734Y16319110D01*
X-16024261Y16291661D01*
X-16051710Y16269134D01*
X-16083031Y16252393D01*
X-16117009Y16242085D01*
X-16158490Y16238000D01*
X-16759710Y16238000D01*
X-16801191Y16242085D01*
X-16835169Y16252393D01*
X-16866490Y16269134D01*
X-16893939Y16291661D01*
X-16916466Y16319110D01*
X-16933207Y16350431D01*
X-16943515Y16384409D01*
X-16947600Y16425890D01*
X-16947600Y17102110D01*
X-16943515Y17143591D01*
X-16933207Y17177569D01*
X-16916466Y17208890D01*
X-16893939Y17236339D01*
X-16866490Y17258866D01*
X-16835169Y17275607D01*
X-16801191Y17285915D01*
X-16759710Y17290000D01*
X-16158490Y17290000D01*
X-16117009Y17285915D01*
G37*
G36*
X-12879009Y17273915D02*
G01*
X-12845031Y17263607D01*
X-12813710Y17246866D01*
X-12786261Y17224339D01*
X-12763734Y17196890D01*
X-12746993Y17165569D01*
X-12736685Y17131591D01*
X-12732600Y17090110D01*
X-12732600Y16488890D01*
X-12736685Y16447409D01*
X-12746993Y16413431D01*
X-12763734Y16382110D01*
X-12786261Y16354661D01*
X-12813710Y16332134D01*
X-12845031Y16315393D01*
X-12879009Y16305085D01*
X-12920490Y16301000D01*
X-13596710Y16301000D01*
X-13638191Y16305085D01*
X-13672169Y16315393D01*
X-13703490Y16332134D01*
X-13730939Y16354661D01*
X-13753466Y16382110D01*
X-13770207Y16413431D01*
X-13780515Y16447409D01*
X-13784600Y16488890D01*
X-13784600Y17090110D01*
X-13780515Y17131591D01*
X-13770207Y17165569D01*
X-13753466Y17196890D01*
X-13730939Y17224339D01*
X-13703490Y17246866D01*
X-13672169Y17263607D01*
X-13638191Y17273915D01*
X-13596710Y17278000D01*
X-12920490Y17278000D01*
X-12879009Y17273915D01*
G37*
G36*
X-25071009Y17400915D02*
G01*
X-25037031Y17390607D01*
X-25005710Y17373866D01*
X-24978261Y17351339D01*
X-24955734Y17323890D01*
X-24938993Y17292569D01*
X-24928685Y17258591D01*
X-24924600Y17217110D01*
X-24924600Y16615890D01*
X-24928685Y16574409D01*
X-24938993Y16540431D01*
X-24955734Y16509110D01*
X-24978261Y16481661D01*
X-25005710Y16459134D01*
X-25037031Y16442393D01*
X-25071009Y16432085D01*
X-25112490Y16428000D01*
X-25788710Y16428000D01*
X-25830191Y16432085D01*
X-25864169Y16442393D01*
X-25895490Y16459134D01*
X-25922939Y16481661D01*
X-25945466Y16509110D01*
X-25962207Y16540431D01*
X-25972515Y16574409D01*
X-25976600Y16615890D01*
X-25976600Y17217110D01*
X-25972515Y17258591D01*
X-25962207Y17292569D01*
X-25945466Y17323890D01*
X-25922939Y17351339D01*
X-25895490Y17373866D01*
X-25864169Y17390607D01*
X-25830191Y17400915D01*
X-25788710Y17405000D01*
X-25112490Y17405000D01*
X-25071009Y17400915D01*
G37*
G36*
X-10122509Y17539915D02*
G01*
X-10088531Y17529607D01*
X-10057210Y17512866D01*
X-10029761Y17490339D01*
X-10007234Y17462890D01*
X-9990493Y17431569D01*
X-9980185Y17397591D01*
X-9976100Y17356110D01*
X-9976100Y16679890D01*
X-9980185Y16638409D01*
X-9990493Y16604431D01*
X-10007234Y16573110D01*
X-10029761Y16545661D01*
X-10057210Y16523134D01*
X-10088531Y16506393D01*
X-10122509Y16496085D01*
X-10163990Y16492000D01*
X-10765210Y16492000D01*
X-10806691Y16496085D01*
X-10840669Y16506393D01*
X-10871990Y16523134D01*
X-10899439Y16545661D01*
X-10921966Y16573110D01*
X-10938707Y16604431D01*
X-10949015Y16638409D01*
X-10953100Y16679890D01*
X-10953100Y17356110D01*
X-10949015Y17397591D01*
X-10938707Y17431569D01*
X-10921966Y17462890D01*
X-10899439Y17490339D01*
X-10871990Y17512866D01*
X-10840669Y17529607D01*
X-10806691Y17539915D01*
X-10765210Y17544000D01*
X-10163990Y17544000D01*
X-10122509Y17539915D01*
G37*
G36*
X-8547509Y17539915D02*
G01*
X-8513531Y17529607D01*
X-8482210Y17512866D01*
X-8454761Y17490339D01*
X-8432234Y17462890D01*
X-8415493Y17431569D01*
X-8405185Y17397591D01*
X-8401100Y17356110D01*
X-8401100Y16679890D01*
X-8405185Y16638409D01*
X-8415493Y16604431D01*
X-8432234Y16573110D01*
X-8454761Y16545661D01*
X-8482210Y16523134D01*
X-8513531Y16506393D01*
X-8547509Y16496085D01*
X-8588990Y16492000D01*
X-9190210Y16492000D01*
X-9231691Y16496085D01*
X-9265669Y16506393D01*
X-9296990Y16523134D01*
X-9324439Y16545661D01*
X-9346966Y16573110D01*
X-9363707Y16604431D01*
X-9374015Y16638409D01*
X-9378100Y16679890D01*
X-9378100Y17356110D01*
X-9374015Y17397591D01*
X-9363707Y17431569D01*
X-9346966Y17462890D01*
X-9324439Y17490339D01*
X-9296990Y17512866D01*
X-9265669Y17529607D01*
X-9231691Y17539915D01*
X-9190210Y17544000D01*
X-8588990Y17544000D01*
X-8547509Y17539915D01*
G37*
G36*
X-59070583Y19259642D02*
G01*
X-58996330Y19228885D01*
X-58922079Y19198130D01*
X-58922078Y19198129D01*
X-58788433Y19108831D01*
X-58674769Y18995167D01*
X-58619134Y18911903D01*
X-58585470Y18861521D01*
X-58563771Y18809134D01*
X-58523958Y18713017D01*
X-58492600Y18555370D01*
X-58492600Y18394630D01*
X-58523958Y18236983D01*
X-58549991Y18174134D01*
X-58585470Y18088479D01*
X-58585471Y18088478D01*
X-58674769Y17954833D01*
X-58788433Y17841169D01*
X-58888667Y17774196D01*
X-58922079Y17751870D01*
X-58983411Y17726466D01*
X-59070583Y17690358D01*
X-59228230Y17659000D01*
X-59388970Y17659000D01*
X-59546617Y17690358D01*
X-59633789Y17726466D01*
X-59695121Y17751870D01*
X-59728533Y17774196D01*
X-59828767Y17841169D01*
X-59942431Y17954833D01*
X-60031729Y18088478D01*
X-60031730Y18088479D01*
X-60067209Y18174134D01*
X-60093242Y18236983D01*
X-60124600Y18394630D01*
X-60124600Y18555370D01*
X-60093242Y18713017D01*
X-60053429Y18809134D01*
X-60031730Y18861521D01*
X-59998066Y18911903D01*
X-59942431Y18995167D01*
X-59828767Y19108831D01*
X-59695122Y19198129D01*
X-59695121Y19198130D01*
X-59620870Y19228885D01*
X-59546617Y19259642D01*
X-59388970Y19291000D01*
X-59228230Y19291000D01*
X-59070583Y19259642D01*
G37*
G36*
X-53919729Y20996592D02*
G01*
X-53614717Y20870252D01*
X-53340213Y20686834D01*
X-53106766Y20453387D01*
X-52923348Y20178883D01*
X-52797008Y19873871D01*
X-52782054Y19798693D01*
X-52732600Y19550073D01*
X-52732600Y19219927D01*
X-52748232Y19141339D01*
X-52797008Y18896129D01*
X-52923348Y18591117D01*
X-53106766Y18316613D01*
X-53340213Y18083166D01*
X-53614717Y17899748D01*
X-53919729Y17773408D01*
X-54243527Y17709000D01*
X-54573673Y17709000D01*
X-54897471Y17773408D01*
X-55202483Y17899748D01*
X-55476987Y18083166D01*
X-55710434Y18316613D01*
X-55893852Y18591117D01*
X-56020192Y18896129D01*
X-56068968Y19141339D01*
X-56084600Y19219927D01*
X-56084600Y19550073D01*
X-56035146Y19798693D01*
X-56020192Y19873871D01*
X-55893852Y20178883D01*
X-55710434Y20453387D01*
X-55476987Y20686834D01*
X-55202483Y20870252D01*
X-54897471Y20996592D01*
X-54573673Y21061000D01*
X-54243527Y21061000D01*
X-53919729Y20996592D01*
G37*
G36*
X-10148009Y19190915D02*
G01*
X-10114031Y19180607D01*
X-10082710Y19163866D01*
X-10055261Y19141339D01*
X-10032734Y19113890D01*
X-10015993Y19082569D01*
X-10005685Y19048591D01*
X-10001600Y19007110D01*
X-10001600Y18330890D01*
X-10005685Y18289409D01*
X-10015993Y18255431D01*
X-10032734Y18224110D01*
X-10055261Y18196661D01*
X-10082710Y18174134D01*
X-10114031Y18157393D01*
X-10148009Y18147085D01*
X-10189490Y18143000D01*
X-10790710Y18143000D01*
X-10832191Y18147085D01*
X-10866169Y18157393D01*
X-10897490Y18174134D01*
X-10924939Y18196661D01*
X-10947466Y18224110D01*
X-10964207Y18255431D01*
X-10974515Y18289409D01*
X-10978600Y18330890D01*
X-10978600Y19007110D01*
X-10974515Y19048591D01*
X-10964207Y19082569D01*
X-10947466Y19113890D01*
X-10924939Y19141339D01*
X-10897490Y19163866D01*
X-10866169Y19180607D01*
X-10832191Y19190915D01*
X-10790710Y19195000D01*
X-10189490Y19195000D01*
X-10148009Y19190915D01*
G37*
G36*
X-8573009Y19190915D02*
G01*
X-8539031Y19180607D01*
X-8507710Y19163866D01*
X-8480261Y19141339D01*
X-8457734Y19113890D01*
X-8440993Y19082569D01*
X-8430685Y19048591D01*
X-8426600Y19007110D01*
X-8426600Y18330890D01*
X-8430685Y18289409D01*
X-8440993Y18255431D01*
X-8457734Y18224110D01*
X-8480261Y18196661D01*
X-8507710Y18174134D01*
X-8539031Y18157393D01*
X-8573009Y18147085D01*
X-8614490Y18143000D01*
X-9215710Y18143000D01*
X-9257191Y18147085D01*
X-9291169Y18157393D01*
X-9322490Y18174134D01*
X-9349939Y18196661D01*
X-9372466Y18224110D01*
X-9389207Y18255431D01*
X-9399515Y18289409D01*
X-9403600Y18330890D01*
X-9403600Y19007110D01*
X-9399515Y19048591D01*
X-9389207Y19082569D01*
X-9372466Y19113890D01*
X-9349939Y19141339D01*
X-9322490Y19163866D01*
X-9291169Y19180607D01*
X-9257191Y19190915D01*
X-9215710Y19195000D01*
X-8614490Y19195000D01*
X-8573009Y19190915D01*
G37*
G36*
X-37128672Y19942236D02*
G01*
X-37107591Y19935840D01*
X-37088155Y19925452D01*
X-37071124Y19911476D01*
X-37057148Y19894445D01*
X-37046760Y19875009D01*
X-37040364Y19853928D01*
X-37037600Y19825860D01*
X-37037600Y18362140D01*
X-37040364Y18334072D01*
X-37046760Y18312991D01*
X-37057148Y18293555D01*
X-37071124Y18276524D01*
X-37088155Y18262548D01*
X-37107591Y18252160D01*
X-37128672Y18245764D01*
X-37156740Y18243000D01*
X-37620460Y18243000D01*
X-37648528Y18245764D01*
X-37669609Y18252160D01*
X-37689045Y18262548D01*
X-37706076Y18276524D01*
X-37720052Y18293555D01*
X-37730440Y18312991D01*
X-37736836Y18334072D01*
X-37739600Y18362140D01*
X-37739600Y19825860D01*
X-37736836Y19853928D01*
X-37730440Y19875009D01*
X-37720052Y19894445D01*
X-37706076Y19911476D01*
X-37689045Y19925452D01*
X-37669609Y19935840D01*
X-37648528Y19942236D01*
X-37620460Y19945000D01*
X-37156740Y19945000D01*
X-37128672Y19942236D01*
G37*
G36*
X-38398672Y19942236D02*
G01*
X-38377591Y19935840D01*
X-38358155Y19925452D01*
X-38341124Y19911476D01*
X-38327148Y19894445D01*
X-38316760Y19875009D01*
X-38310364Y19853928D01*
X-38307600Y19825860D01*
X-38307600Y18362140D01*
X-38310364Y18334072D01*
X-38316760Y18312991D01*
X-38327148Y18293555D01*
X-38341124Y18276524D01*
X-38358155Y18262548D01*
X-38377591Y18252160D01*
X-38398672Y18245764D01*
X-38426740Y18243000D01*
X-38890460Y18243000D01*
X-38918528Y18245764D01*
X-38939609Y18252160D01*
X-38959045Y18262548D01*
X-38976076Y18276524D01*
X-38990052Y18293555D01*
X-39000440Y18312991D01*
X-39006836Y18334072D01*
X-39009600Y18362140D01*
X-39009600Y19825860D01*
X-39006836Y19853928D01*
X-39000440Y19875009D01*
X-38990052Y19894445D01*
X-38976076Y19911476D01*
X-38959045Y19925452D01*
X-38939609Y19935840D01*
X-38918528Y19942236D01*
X-38890460Y19945000D01*
X-38426740Y19945000D01*
X-38398672Y19942236D01*
G37*
G36*
X-39668672Y19942236D02*
G01*
X-39647591Y19935840D01*
X-39628155Y19925452D01*
X-39611124Y19911476D01*
X-39597148Y19894445D01*
X-39586760Y19875009D01*
X-39580364Y19853928D01*
X-39577600Y19825860D01*
X-39577600Y18362140D01*
X-39580364Y18334072D01*
X-39586760Y18312991D01*
X-39597148Y18293555D01*
X-39611124Y18276524D01*
X-39628155Y18262548D01*
X-39647591Y18252160D01*
X-39668672Y18245764D01*
X-39696740Y18243000D01*
X-40160460Y18243000D01*
X-40188528Y18245764D01*
X-40209609Y18252160D01*
X-40229045Y18262548D01*
X-40246076Y18276524D01*
X-40260052Y18293555D01*
X-40270440Y18312991D01*
X-40276836Y18334072D01*
X-40279600Y18362140D01*
X-40279600Y19825860D01*
X-40276836Y19853928D01*
X-40270440Y19875009D01*
X-40260052Y19894445D01*
X-40246076Y19911476D01*
X-40229045Y19925452D01*
X-40209609Y19935840D01*
X-40188528Y19942236D01*
X-40160460Y19945000D01*
X-39696740Y19945000D01*
X-39668672Y19942236D01*
G37*
G36*
X-40938672Y19942236D02*
G01*
X-40917591Y19935840D01*
X-40898155Y19925452D01*
X-40881124Y19911476D01*
X-40867148Y19894445D01*
X-40856760Y19875009D01*
X-40850364Y19853928D01*
X-40847600Y19825860D01*
X-40847600Y18362140D01*
X-40850364Y18334072D01*
X-40856760Y18312991D01*
X-40867148Y18293555D01*
X-40881124Y18276524D01*
X-40898155Y18262548D01*
X-40917591Y18252160D01*
X-40938672Y18245764D01*
X-40966740Y18243000D01*
X-41430460Y18243000D01*
X-41458528Y18245764D01*
X-41479609Y18252160D01*
X-41499045Y18262548D01*
X-41516076Y18276524D01*
X-41530052Y18293555D01*
X-41540440Y18312991D01*
X-41546836Y18334072D01*
X-41549600Y18362140D01*
X-41549600Y19825860D01*
X-41546836Y19853928D01*
X-41540440Y19875009D01*
X-41530052Y19894445D01*
X-41516076Y19911476D01*
X-41499045Y19925452D01*
X-41479609Y19935840D01*
X-41458528Y19942236D01*
X-41430460Y19945000D01*
X-40966740Y19945000D01*
X-40938672Y19942236D01*
G37*
G36*
X-47839834Y20111179D02*
G01*
X-47703343Y20054642D01*
X-47580503Y19972563D01*
X-47476037Y19868097D01*
X-47393958Y19745257D01*
X-47337421Y19608766D01*
X-47308600Y19463870D01*
X-47308600Y19316130D01*
X-47337421Y19171234D01*
X-47393958Y19034743D01*
X-47476037Y18911903D01*
X-47580503Y18807437D01*
X-47703343Y18725358D01*
X-47839834Y18668821D01*
X-47984730Y18640000D01*
X-48132470Y18640000D01*
X-48277366Y18668821D01*
X-48413857Y18725358D01*
X-48536697Y18807437D01*
X-48641163Y18911903D01*
X-48723242Y19034743D01*
X-48779779Y19171234D01*
X-48808600Y19316130D01*
X-48808600Y19463870D01*
X-48779779Y19608766D01*
X-48723242Y19745257D01*
X-48641163Y19868097D01*
X-48536697Y19972563D01*
X-48413857Y20054642D01*
X-48277366Y20111179D01*
X-48132470Y20140000D01*
X-47984730Y20140000D01*
X-47839834Y20111179D01*
G37*
G36*
X-26988009Y19825915D02*
G01*
X-26954031Y19815607D01*
X-26922710Y19798866D01*
X-26895261Y19776339D01*
X-26872734Y19748890D01*
X-26855993Y19717569D01*
X-26845685Y19683591D01*
X-26841600Y19642110D01*
X-26841600Y18965890D01*
X-26845685Y18924409D01*
X-26855993Y18890431D01*
X-26872734Y18859110D01*
X-26895261Y18831661D01*
X-26922710Y18809134D01*
X-26954031Y18792393D01*
X-26988009Y18782085D01*
X-27029490Y18778000D01*
X-27630710Y18778000D01*
X-27672191Y18782085D01*
X-27706169Y18792393D01*
X-27737490Y18809134D01*
X-27764939Y18831661D01*
X-27787466Y18859110D01*
X-27804207Y18890431D01*
X-27814515Y18924409D01*
X-27818600Y18965890D01*
X-27818600Y19642110D01*
X-27814515Y19683591D01*
X-27804207Y19717569D01*
X-27787466Y19748890D01*
X-27764939Y19776339D01*
X-27737490Y19798866D01*
X-27706169Y19815607D01*
X-27672191Y19825915D01*
X-27630710Y19830000D01*
X-27029490Y19830000D01*
X-26988009Y19825915D01*
G37*
G36*
X-28563009Y19825915D02*
G01*
X-28529031Y19815607D01*
X-28497710Y19798866D01*
X-28470261Y19776339D01*
X-28447734Y19748890D01*
X-28430993Y19717569D01*
X-28420685Y19683591D01*
X-28416600Y19642110D01*
X-28416600Y18965890D01*
X-28420685Y18924409D01*
X-28430993Y18890431D01*
X-28447734Y18859110D01*
X-28470261Y18831661D01*
X-28497710Y18809134D01*
X-28529031Y18792393D01*
X-28563009Y18782085D01*
X-28604490Y18778000D01*
X-29205710Y18778000D01*
X-29247191Y18782085D01*
X-29281169Y18792393D01*
X-29312490Y18809134D01*
X-29339939Y18831661D01*
X-29362466Y18859110D01*
X-29379207Y18890431D01*
X-29389515Y18924409D01*
X-29393600Y18965890D01*
X-29393600Y19642110D01*
X-29389515Y19683591D01*
X-29379207Y19717569D01*
X-29362466Y19748890D01*
X-29339939Y19776339D01*
X-29312490Y19798866D01*
X-29281169Y19815607D01*
X-29247191Y19825915D01*
X-29205710Y19830000D01*
X-28604490Y19830000D01*
X-28563009Y19825915D01*
G37*
G36*
X-16566600Y27804999D02*
G01*
X-16564198Y27780613D01*
X-16557085Y27757164D01*
X-16545534Y27735553D01*
X-16529989Y27716611D01*
X-16511047Y27701066D01*
X-16489436Y27689515D01*
X-16465987Y27682402D01*
X-16441601Y27680000D01*
X-15591600Y27680000D01*
X-15591600Y19818000D01*
X-16441601Y19818000D01*
X-16465987Y19815598D01*
X-16489436Y19808485D01*
X-16511047Y19796934D01*
X-16529989Y19781389D01*
X-16545534Y19762447D01*
X-16557085Y19740836D01*
X-16564198Y19717387D01*
X-16566600Y19693001D01*
X-16566600Y18843000D01*
X-24428600Y18843000D01*
X-24428600Y19693001D01*
X-24431002Y19717387D01*
X-24438115Y19740836D01*
X-24449666Y19762447D01*
X-24465211Y19781389D01*
X-24484153Y19796934D01*
X-24505764Y19808485D01*
X-24529213Y19815598D01*
X-24553599Y19818000D01*
X-25403600Y19818000D01*
X-25403600Y27588001D01*
X-24461600Y27588001D01*
X-24461600Y19909999D01*
X-24459198Y19885613D01*
X-24452085Y19862164D01*
X-24440534Y19840553D01*
X-24424989Y19821611D01*
X-24406047Y19806066D01*
X-24384436Y19794515D01*
X-24360987Y19787402D01*
X-24336601Y19785000D01*
X-16658599Y19785000D01*
X-16634213Y19787402D01*
X-16610764Y19794515D01*
X-16589153Y19806066D01*
X-16570211Y19821611D01*
X-16554666Y19840553D01*
X-16543115Y19862164D01*
X-16536002Y19885613D01*
X-16533600Y19909999D01*
X-16533600Y27588001D01*
X-16536002Y27612387D01*
X-16543115Y27635836D01*
X-16554666Y27657447D01*
X-16570211Y27676389D01*
X-16589153Y27691934D01*
X-16610764Y27703485D01*
X-16634213Y27710598D01*
X-16658599Y27713000D01*
X-24336601Y27713000D01*
X-24360987Y27710598D01*
X-24384436Y27703485D01*
X-24406047Y27691934D01*
X-24424989Y27676389D01*
X-24440534Y27657447D01*
X-24452085Y27635836D01*
X-24459198Y27612387D01*
X-24461600Y27588001D01*
X-25403600Y27588001D01*
X-25403600Y27680000D01*
X-24553599Y27680000D01*
X-24529213Y27682402D01*
X-24505764Y27689515D01*
X-24484153Y27701066D01*
X-24465211Y27716611D01*
X-24449666Y27735553D01*
X-24438115Y27757164D01*
X-24431002Y27780613D01*
X-24428600Y27804999D01*
X-24428600Y28655000D01*
X-16566600Y28655000D01*
X-16566600Y27804999D01*
G37*
G36*
X-18746600Y21998000D02*
G01*
X-22248600Y21998000D01*
X-22248600Y25500000D01*
X-18746600Y25500000D01*
X-18746600Y21998000D01*
G37*
G36*
X-8573009Y20841915D02*
G01*
X-8539031Y20831607D01*
X-8507710Y20814866D01*
X-8480261Y20792339D01*
X-8457734Y20764890D01*
X-8440993Y20733569D01*
X-8430685Y20699591D01*
X-8426600Y20658110D01*
X-8426600Y19981890D01*
X-8430685Y19940409D01*
X-8440993Y19906431D01*
X-8457734Y19875110D01*
X-8480261Y19847661D01*
X-8507710Y19825134D01*
X-8539031Y19808393D01*
X-8573009Y19798085D01*
X-8614490Y19794000D01*
X-9215710Y19794000D01*
X-9257191Y19798085D01*
X-9291169Y19808393D01*
X-9322490Y19825134D01*
X-9349939Y19847661D01*
X-9372466Y19875110D01*
X-9389207Y19906431D01*
X-9399515Y19940409D01*
X-9403600Y19981890D01*
X-9403600Y20658110D01*
X-9399515Y20699591D01*
X-9389207Y20733569D01*
X-9372466Y20764890D01*
X-9349939Y20792339D01*
X-9322490Y20814866D01*
X-9291169Y20831607D01*
X-9257191Y20841915D01*
X-9215710Y20846000D01*
X-8614490Y20846000D01*
X-8573009Y20841915D01*
G37*
G36*
X-10148009Y20841915D02*
G01*
X-10114031Y20831607D01*
X-10082710Y20814866D01*
X-10055261Y20792339D01*
X-10032734Y20764890D01*
X-10015993Y20733569D01*
X-10005685Y20699591D01*
X-10001600Y20658110D01*
X-10001600Y19981890D01*
X-10005685Y19940409D01*
X-10015993Y19906431D01*
X-10032734Y19875110D01*
X-10055261Y19847661D01*
X-10082710Y19825134D01*
X-10114031Y19808393D01*
X-10148009Y19798085D01*
X-10189490Y19794000D01*
X-10790710Y19794000D01*
X-10832191Y19798085D01*
X-10866169Y19808393D01*
X-10897490Y19825134D01*
X-10924939Y19847661D01*
X-10947466Y19875110D01*
X-10964207Y19906431D01*
X-10974515Y19940409D01*
X-10978600Y19981890D01*
X-10978600Y20658110D01*
X-10974515Y20699591D01*
X-10964207Y20733569D01*
X-10947466Y20764890D01*
X-10924939Y20792339D01*
X-10897490Y20814866D01*
X-10866169Y20831607D01*
X-10832191Y20841915D01*
X-10790710Y20846000D01*
X-10189490Y20846000D01*
X-10148009Y20841915D01*
G37*
G36*
X-45299834Y21381179D02*
G01*
X-45163343Y21324642D01*
X-45040503Y21242563D01*
X-44936037Y21138097D01*
X-44853958Y21015257D01*
X-44797421Y20878766D01*
X-44768600Y20733870D01*
X-44768600Y20586130D01*
X-44797421Y20441234D01*
X-44853958Y20304743D01*
X-44936037Y20181903D01*
X-45040503Y20077437D01*
X-45163343Y19995358D01*
X-45299834Y19938821D01*
X-45444730Y19910000D01*
X-45592470Y19910000D01*
X-45737366Y19938821D01*
X-45873857Y19995358D01*
X-45996697Y20077437D01*
X-46101163Y20181903D01*
X-46183242Y20304743D01*
X-46239779Y20441234D01*
X-46268600Y20586130D01*
X-46268600Y20733870D01*
X-46239779Y20878766D01*
X-46183242Y21015257D01*
X-46101163Y21138097D01*
X-45996697Y21242563D01*
X-45873857Y21324642D01*
X-45737366Y21381179D01*
X-45592470Y21410000D01*
X-45444730Y21410000D01*
X-45299834Y21381179D01*
G37*
G36*
X-59070583Y21799642D02*
G01*
X-58922079Y21738130D01*
X-58922078Y21738129D01*
X-58788433Y21648831D01*
X-58674769Y21535167D01*
X-58624139Y21459393D01*
X-58585470Y21401521D01*
X-58577044Y21381178D01*
X-58523958Y21253017D01*
X-58492600Y21095370D01*
X-58492600Y20934630D01*
X-58523958Y20776983D01*
X-58541941Y20733569D01*
X-58585470Y20628479D01*
X-58593214Y20616890D01*
X-58674769Y20494833D01*
X-58788433Y20381169D01*
X-58882973Y20318000D01*
X-58922079Y20291870D01*
X-58996330Y20261115D01*
X-59070583Y20230358D01*
X-59228230Y20199000D01*
X-59388970Y20199000D01*
X-59546617Y20230358D01*
X-59620870Y20261115D01*
X-59695121Y20291870D01*
X-59734227Y20318000D01*
X-59828767Y20381169D01*
X-59942431Y20494833D01*
X-60023986Y20616890D01*
X-60031730Y20628479D01*
X-60075259Y20733569D01*
X-60093242Y20776983D01*
X-60124600Y20934630D01*
X-60124600Y21095370D01*
X-60093242Y21253017D01*
X-60040156Y21381178D01*
X-60031730Y21401521D01*
X-59993061Y21459393D01*
X-59942431Y21535167D01*
X-59828767Y21648831D01*
X-59695122Y21738129D01*
X-59695121Y21738130D01*
X-59546617Y21799642D01*
X-59388970Y21831000D01*
X-59228230Y21831000D01*
X-59070583Y21799642D01*
G37*
G36*
X-26988009Y21476915D02*
G01*
X-26954031Y21466607D01*
X-26922710Y21449866D01*
X-26895261Y21427339D01*
X-26872734Y21399890D01*
X-26855993Y21368569D01*
X-26845685Y21334591D01*
X-26841600Y21293110D01*
X-26841600Y20616890D01*
X-26845685Y20575409D01*
X-26855993Y20541431D01*
X-26872734Y20510110D01*
X-26895261Y20482661D01*
X-26922710Y20460134D01*
X-26954031Y20443393D01*
X-26988009Y20433085D01*
X-27029490Y20429000D01*
X-27630710Y20429000D01*
X-27672191Y20433085D01*
X-27706169Y20443393D01*
X-27737490Y20460134D01*
X-27764939Y20482661D01*
X-27787466Y20510110D01*
X-27804207Y20541431D01*
X-27814515Y20575409D01*
X-27818600Y20616890D01*
X-27818600Y21293110D01*
X-27814515Y21334591D01*
X-27804207Y21368569D01*
X-27787466Y21399890D01*
X-27764939Y21427339D01*
X-27737490Y21449866D01*
X-27706169Y21466607D01*
X-27672191Y21476915D01*
X-27630710Y21481000D01*
X-27029490Y21481000D01*
X-26988009Y21476915D01*
G37*
G36*
X-28563009Y21476915D02*
G01*
X-28529031Y21466607D01*
X-28497710Y21449866D01*
X-28470261Y21427339D01*
X-28447734Y21399890D01*
X-28430993Y21368569D01*
X-28420685Y21334591D01*
X-28416600Y21293110D01*
X-28416600Y20616890D01*
X-28420685Y20575409D01*
X-28430993Y20541431D01*
X-28447734Y20510110D01*
X-28470261Y20482661D01*
X-28497710Y20460134D01*
X-28529031Y20443393D01*
X-28563009Y20433085D01*
X-28604490Y20429000D01*
X-29205710Y20429000D01*
X-29247191Y20433085D01*
X-29281169Y20443393D01*
X-29312490Y20460134D01*
X-29339939Y20482661D01*
X-29362466Y20510110D01*
X-29379207Y20541431D01*
X-29389515Y20575409D01*
X-29393600Y20616890D01*
X-29393600Y21293110D01*
X-29389515Y21334591D01*
X-29379207Y21368569D01*
X-29362466Y21399890D01*
X-29339939Y21427339D01*
X-29312490Y21449866D01*
X-29281169Y21466607D01*
X-29247191Y21476915D01*
X-29205710Y21481000D01*
X-28604490Y21481000D01*
X-28563009Y21476915D01*
G37*
G36*
X-37771009Y22074415D02*
G01*
X-37737031Y22064107D01*
X-37705710Y22047366D01*
X-37678261Y22024839D01*
X-37655734Y21997390D01*
X-37638993Y21966069D01*
X-37628685Y21932091D01*
X-37624600Y21890610D01*
X-37624600Y21289390D01*
X-37628685Y21247909D01*
X-37638993Y21213931D01*
X-37655734Y21182610D01*
X-37678261Y21155161D01*
X-37705710Y21132634D01*
X-37737031Y21115893D01*
X-37771009Y21105585D01*
X-37812490Y21101500D01*
X-38488710Y21101500D01*
X-38530191Y21105585D01*
X-38564169Y21115893D01*
X-38595490Y21132634D01*
X-38622939Y21155161D01*
X-38645466Y21182610D01*
X-38662207Y21213931D01*
X-38672515Y21247909D01*
X-38676600Y21289390D01*
X-38676600Y21890610D01*
X-38672515Y21932091D01*
X-38662207Y21966069D01*
X-38645466Y21997390D01*
X-38622939Y22024839D01*
X-38595490Y22047366D01*
X-38564169Y22064107D01*
X-38530191Y22074415D01*
X-38488710Y22078500D01*
X-37812490Y22078500D01*
X-37771009Y22074415D01*
G37*
G36*
X-47839834Y22651179D02*
G01*
X-47703343Y22594642D01*
X-47580503Y22512563D01*
X-47476037Y22408097D01*
X-47393958Y22285257D01*
X-47337421Y22148766D01*
X-47308600Y22003870D01*
X-47308600Y21856130D01*
X-47337421Y21711234D01*
X-47393958Y21574743D01*
X-47476037Y21451903D01*
X-47580503Y21347437D01*
X-47703343Y21265358D01*
X-47839834Y21208821D01*
X-47984730Y21180000D01*
X-48132470Y21180000D01*
X-48277366Y21208821D01*
X-48413857Y21265358D01*
X-48536697Y21347437D01*
X-48641163Y21451903D01*
X-48723242Y21574743D01*
X-48779779Y21711234D01*
X-48808600Y21856130D01*
X-48808600Y22003870D01*
X-48779779Y22148766D01*
X-48723242Y22285257D01*
X-48641163Y22408097D01*
X-48536697Y22512563D01*
X-48413857Y22594642D01*
X-48277366Y22651179D01*
X-48132470Y22680000D01*
X-47984730Y22680000D01*
X-47839834Y22651179D01*
G37*
G36*
X-30163009Y22492915D02*
G01*
X-30129031Y22482607D01*
X-30097710Y22465866D01*
X-30070261Y22443339D01*
X-30047734Y22415890D01*
X-30030993Y22384569D01*
X-30020685Y22350591D01*
X-30016600Y22309110D01*
X-30016600Y21632890D01*
X-30020685Y21591409D01*
X-30030993Y21557431D01*
X-30047734Y21526110D01*
X-30070261Y21498661D01*
X-30097710Y21476134D01*
X-30129031Y21459393D01*
X-30163009Y21449085D01*
X-30204490Y21445000D01*
X-30805710Y21445000D01*
X-30847191Y21449085D01*
X-30881169Y21459393D01*
X-30912490Y21476134D01*
X-30939939Y21498661D01*
X-30962466Y21526110D01*
X-30979207Y21557431D01*
X-30989515Y21591409D01*
X-30993600Y21632890D01*
X-30993600Y22309110D01*
X-30989515Y22350591D01*
X-30979207Y22384569D01*
X-30962466Y22415890D01*
X-30939939Y22443339D01*
X-30912490Y22465866D01*
X-30881169Y22482607D01*
X-30847191Y22492915D01*
X-30805710Y22497000D01*
X-30204490Y22497000D01*
X-30163009Y22492915D01*
G37*
G36*
X-31738009Y22492915D02*
G01*
X-31704031Y22482607D01*
X-31672710Y22465866D01*
X-31645261Y22443339D01*
X-31622734Y22415890D01*
X-31605993Y22384569D01*
X-31595685Y22350591D01*
X-31591600Y22309110D01*
X-31591600Y21632890D01*
X-31595685Y21591409D01*
X-31605993Y21557431D01*
X-31622734Y21526110D01*
X-31645261Y21498661D01*
X-31672710Y21476134D01*
X-31704031Y21459393D01*
X-31738009Y21449085D01*
X-31779490Y21445000D01*
X-32380710Y21445000D01*
X-32422191Y21449085D01*
X-32456169Y21459393D01*
X-32487490Y21476134D01*
X-32514939Y21498661D01*
X-32537466Y21526110D01*
X-32554207Y21557431D01*
X-32564515Y21591409D01*
X-32568600Y21632890D01*
X-32568600Y22309110D01*
X-32564515Y22350591D01*
X-32554207Y22384569D01*
X-32537466Y22415890D01*
X-32514939Y22443339D01*
X-32487490Y22465866D01*
X-32456169Y22482607D01*
X-32422191Y22492915D01*
X-32380710Y22497000D01*
X-31779490Y22497000D01*
X-31738009Y22492915D01*
G37*
G36*
X-13260009Y22429915D02*
G01*
X-13226031Y22419607D01*
X-13194710Y22402866D01*
X-13167261Y22380339D01*
X-13144734Y22352890D01*
X-13127993Y22321569D01*
X-13117685Y22287591D01*
X-13113600Y22246110D01*
X-13113600Y21644890D01*
X-13117685Y21603409D01*
X-13127993Y21569431D01*
X-13144734Y21538110D01*
X-13167261Y21510661D01*
X-13194710Y21488134D01*
X-13226031Y21471393D01*
X-13260009Y21461085D01*
X-13301490Y21457000D01*
X-13977710Y21457000D01*
X-14019191Y21461085D01*
X-14053169Y21471393D01*
X-14084490Y21488134D01*
X-14111939Y21510661D01*
X-14134466Y21538110D01*
X-14151207Y21569431D01*
X-14161515Y21603409D01*
X-14165600Y21644890D01*
X-14165600Y22246110D01*
X-14161515Y22287591D01*
X-14151207Y22321569D01*
X-14134466Y22352890D01*
X-14111939Y22380339D01*
X-14084490Y22402866D01*
X-14053169Y22419607D01*
X-14019191Y22429915D01*
X-13977710Y22434000D01*
X-13301490Y22434000D01*
X-13260009Y22429915D01*
G37*
G36*
X-11609009Y22429915D02*
G01*
X-11575031Y22419607D01*
X-11543710Y22402866D01*
X-11516261Y22380339D01*
X-11493734Y22352890D01*
X-11476993Y22321569D01*
X-11466685Y22287591D01*
X-11462600Y22246110D01*
X-11462600Y21644890D01*
X-11466685Y21603409D01*
X-11476993Y21569431D01*
X-11493734Y21538110D01*
X-11516261Y21510661D01*
X-11543710Y21488134D01*
X-11575031Y21471393D01*
X-11609009Y21461085D01*
X-11650490Y21457000D01*
X-12326710Y21457000D01*
X-12368191Y21461085D01*
X-12402169Y21471393D01*
X-12433490Y21488134D01*
X-12460939Y21510661D01*
X-12483466Y21538110D01*
X-12500207Y21569431D01*
X-12510515Y21603409D01*
X-12514600Y21644890D01*
X-12514600Y22246110D01*
X-12510515Y22287591D01*
X-12500207Y22321569D01*
X-12483466Y22352890D01*
X-12460939Y22380339D01*
X-12433490Y22402866D01*
X-12402169Y22419607D01*
X-12368191Y22429915D01*
X-12326710Y22434000D01*
X-11650490Y22434000D01*
X-11609009Y22429915D01*
G37*
G36*
X-28563009Y23127915D02*
G01*
X-28529031Y23117607D01*
X-28497710Y23100866D01*
X-28470261Y23078339D01*
X-28447734Y23050890D01*
X-28430993Y23019569D01*
X-28420685Y22985591D01*
X-28416600Y22944110D01*
X-28416600Y22267890D01*
X-28420685Y22226409D01*
X-28430993Y22192431D01*
X-28447734Y22161110D01*
X-28470261Y22133661D01*
X-28497710Y22111134D01*
X-28529031Y22094393D01*
X-28563009Y22084085D01*
X-28604490Y22080000D01*
X-29205710Y22080000D01*
X-29247191Y22084085D01*
X-29281169Y22094393D01*
X-29312490Y22111134D01*
X-29339939Y22133661D01*
X-29362466Y22161110D01*
X-29379207Y22192431D01*
X-29389515Y22226409D01*
X-29393600Y22267890D01*
X-29393600Y22944110D01*
X-29389515Y22985591D01*
X-29379207Y23019569D01*
X-29362466Y23050890D01*
X-29339939Y23078339D01*
X-29312490Y23100866D01*
X-29281169Y23117607D01*
X-29247191Y23127915D01*
X-29205710Y23132000D01*
X-28604490Y23132000D01*
X-28563009Y23127915D01*
G37*
G36*
X-26988009Y23127915D02*
G01*
X-26954031Y23117607D01*
X-26922710Y23100866D01*
X-26895261Y23078339D01*
X-26872734Y23050890D01*
X-26855993Y23019569D01*
X-26845685Y22985591D01*
X-26841600Y22944110D01*
X-26841600Y22267890D01*
X-26845685Y22226409D01*
X-26855993Y22192431D01*
X-26872734Y22161110D01*
X-26895261Y22133661D01*
X-26922710Y22111134D01*
X-26954031Y22094393D01*
X-26988009Y22084085D01*
X-27029490Y22080000D01*
X-27630710Y22080000D01*
X-27672191Y22084085D01*
X-27706169Y22094393D01*
X-27737490Y22111134D01*
X-27764939Y22133661D01*
X-27787466Y22161110D01*
X-27804207Y22192431D01*
X-27814515Y22226409D01*
X-27818600Y22267890D01*
X-27818600Y22944110D01*
X-27814515Y22985591D01*
X-27804207Y23019569D01*
X-27787466Y23050890D01*
X-27764939Y23078339D01*
X-27737490Y23100866D01*
X-27706169Y23117607D01*
X-27672191Y23127915D01*
X-27630710Y23132000D01*
X-27029490Y23132000D01*
X-26988009Y23127915D01*
G37*
G36*
X-45299834Y23921179D02*
G01*
X-45163343Y23864642D01*
X-45040503Y23782563D01*
X-44936037Y23678097D01*
X-44853958Y23555257D01*
X-44797421Y23418766D01*
X-44768600Y23273870D01*
X-44768600Y23126130D01*
X-44797421Y22981234D01*
X-44853958Y22844743D01*
X-44936037Y22721903D01*
X-45040503Y22617437D01*
X-45163343Y22535358D01*
X-45299834Y22478821D01*
X-45444730Y22450000D01*
X-45592470Y22450000D01*
X-45737366Y22478821D01*
X-45873857Y22535358D01*
X-45996697Y22617437D01*
X-46101163Y22721903D01*
X-46183242Y22844743D01*
X-46239779Y22981234D01*
X-46268600Y23126130D01*
X-46268600Y23273870D01*
X-46239779Y23418766D01*
X-46183242Y23555257D01*
X-46101163Y23678097D01*
X-45996697Y23782563D01*
X-45873857Y23864642D01*
X-45737366Y23921179D01*
X-45592470Y23950000D01*
X-45444730Y23950000D01*
X-45299834Y23921179D01*
G37*
G36*
X-37771009Y23649415D02*
G01*
X-37737031Y23639107D01*
X-37705710Y23622366D01*
X-37678261Y23599839D01*
X-37655734Y23572390D01*
X-37638993Y23541069D01*
X-37628685Y23507091D01*
X-37624600Y23465610D01*
X-37624600Y22864390D01*
X-37628685Y22822909D01*
X-37638993Y22788931D01*
X-37655734Y22757610D01*
X-37678261Y22730161D01*
X-37705710Y22707634D01*
X-37737031Y22690893D01*
X-37771009Y22680585D01*
X-37812490Y22676500D01*
X-38488710Y22676500D01*
X-38530191Y22680585D01*
X-38564169Y22690893D01*
X-38595490Y22707634D01*
X-38622939Y22730161D01*
X-38645466Y22757610D01*
X-38662207Y22788931D01*
X-38672515Y22822909D01*
X-38676600Y22864390D01*
X-38676600Y23465610D01*
X-38672515Y23507091D01*
X-38662207Y23541069D01*
X-38645466Y23572390D01*
X-38622939Y23599839D01*
X-38595490Y23622366D01*
X-38564169Y23639107D01*
X-38530191Y23649415D01*
X-38488710Y23653500D01*
X-37812490Y23653500D01*
X-37771009Y23649415D01*
G37*
G36*
X-13260009Y24004915D02*
G01*
X-13226031Y23994607D01*
X-13194710Y23977866D01*
X-13167261Y23955339D01*
X-13144734Y23927890D01*
X-13127993Y23896569D01*
X-13117685Y23862591D01*
X-13113600Y23821110D01*
X-13113600Y23219890D01*
X-13117685Y23178409D01*
X-13127993Y23144431D01*
X-13144734Y23113110D01*
X-13167261Y23085661D01*
X-13194710Y23063134D01*
X-13226031Y23046393D01*
X-13260009Y23036085D01*
X-13301490Y23032000D01*
X-13977710Y23032000D01*
X-14019191Y23036085D01*
X-14053169Y23046393D01*
X-14084490Y23063134D01*
X-14111939Y23085661D01*
X-14134466Y23113110D01*
X-14151207Y23144431D01*
X-14161515Y23178409D01*
X-14165600Y23219890D01*
X-14165600Y23821110D01*
X-14161515Y23862591D01*
X-14151207Y23896569D01*
X-14134466Y23927890D01*
X-14111939Y23955339D01*
X-14084490Y23977866D01*
X-14053169Y23994607D01*
X-14019191Y24004915D01*
X-13977710Y24009000D01*
X-13301490Y24009000D01*
X-13260009Y24004915D01*
G37*
G36*
X-11609009Y24004915D02*
G01*
X-11575031Y23994607D01*
X-11543710Y23977866D01*
X-11516261Y23955339D01*
X-11493734Y23927890D01*
X-11476993Y23896569D01*
X-11466685Y23862591D01*
X-11462600Y23821110D01*
X-11462600Y23219890D01*
X-11466685Y23178409D01*
X-11476993Y23144431D01*
X-11493734Y23113110D01*
X-11516261Y23085661D01*
X-11543710Y23063134D01*
X-11575031Y23046393D01*
X-11609009Y23036085D01*
X-11650490Y23032000D01*
X-12326710Y23032000D01*
X-12368191Y23036085D01*
X-12402169Y23046393D01*
X-12433490Y23063134D01*
X-12460939Y23085661D01*
X-12483466Y23113110D01*
X-12500207Y23144431D01*
X-12510515Y23178409D01*
X-12514600Y23219890D01*
X-12514600Y23821110D01*
X-12510515Y23862591D01*
X-12500207Y23896569D01*
X-12483466Y23927890D01*
X-12460939Y23955339D01*
X-12433490Y23977866D01*
X-12402169Y23994607D01*
X-12368191Y24004915D01*
X-12326710Y24009000D01*
X-11650490Y24009000D01*
X-11609009Y24004915D01*
G37*
G36*
X-31738009Y24143915D02*
G01*
X-31704031Y24133607D01*
X-31672710Y24116866D01*
X-31645261Y24094339D01*
X-31622734Y24066890D01*
X-31605993Y24035569D01*
X-31595685Y24001591D01*
X-31591600Y23960110D01*
X-31591600Y23283890D01*
X-31595685Y23242409D01*
X-31605993Y23208431D01*
X-31622734Y23177110D01*
X-31645261Y23149661D01*
X-31672710Y23127134D01*
X-31704031Y23110393D01*
X-31738009Y23100085D01*
X-31779490Y23096000D01*
X-32380710Y23096000D01*
X-32422191Y23100085D01*
X-32456169Y23110393D01*
X-32487490Y23127134D01*
X-32514939Y23149661D01*
X-32537466Y23177110D01*
X-32554207Y23208431D01*
X-32564515Y23242409D01*
X-32568600Y23283890D01*
X-32568600Y23960110D01*
X-32564515Y24001591D01*
X-32554207Y24035569D01*
X-32537466Y24066890D01*
X-32514939Y24094339D01*
X-32487490Y24116866D01*
X-32456169Y24133607D01*
X-32422191Y24143915D01*
X-32380710Y24148000D01*
X-31779490Y24148000D01*
X-31738009Y24143915D01*
G37*
G36*
X-30163009Y24143915D02*
G01*
X-30129031Y24133607D01*
X-30097710Y24116866D01*
X-30070261Y24094339D01*
X-30047734Y24066890D01*
X-30030993Y24035569D01*
X-30020685Y24001591D01*
X-30016600Y23960110D01*
X-30016600Y23283890D01*
X-30020685Y23242409D01*
X-30030993Y23208431D01*
X-30047734Y23177110D01*
X-30070261Y23149661D01*
X-30097710Y23127134D01*
X-30129031Y23110393D01*
X-30163009Y23100085D01*
X-30204490Y23096000D01*
X-30805710Y23096000D01*
X-30847191Y23100085D01*
X-30881169Y23110393D01*
X-30912490Y23127134D01*
X-30939939Y23149661D01*
X-30962466Y23177110D01*
X-30979207Y23208431D01*
X-30989515Y23242409D01*
X-30993600Y23283890D01*
X-30993600Y23960110D01*
X-30989515Y24001591D01*
X-30979207Y24035569D01*
X-30962466Y24066890D01*
X-30939939Y24094339D01*
X-30912490Y24116866D01*
X-30881169Y24133607D01*
X-30847191Y24143915D01*
X-30805710Y24148000D01*
X-30204490Y24148000D01*
X-30163009Y24143915D01*
G37*
G36*
X-47839834Y25191179D02*
G01*
X-47703343Y25134642D01*
X-47580503Y25052563D01*
X-47476037Y24948097D01*
X-47393958Y24825257D01*
X-47337421Y24688766D01*
X-47308600Y24543870D01*
X-47308600Y24396130D01*
X-47337421Y24251234D01*
X-47393958Y24114743D01*
X-47476037Y23991903D01*
X-47580503Y23887437D01*
X-47703343Y23805358D01*
X-47839834Y23748821D01*
X-47984730Y23720000D01*
X-48132470Y23720000D01*
X-48277366Y23748821D01*
X-48413857Y23805358D01*
X-48536697Y23887437D01*
X-48641163Y23991903D01*
X-48723242Y24114743D01*
X-48779779Y24251234D01*
X-48808600Y24396130D01*
X-48808600Y24543870D01*
X-48779779Y24688766D01*
X-48723242Y24825257D01*
X-48641163Y24948097D01*
X-48536697Y25052563D01*
X-48413857Y25134642D01*
X-48277366Y25191179D01*
X-48132470Y25220000D01*
X-47984730Y25220000D01*
X-47839834Y25191179D01*
G37*
G36*
X-28563009Y24778915D02*
G01*
X-28529031Y24768607D01*
X-28497710Y24751866D01*
X-28470261Y24729339D01*
X-28447734Y24701890D01*
X-28430993Y24670569D01*
X-28420685Y24636591D01*
X-28416600Y24595110D01*
X-28416600Y23918890D01*
X-28420685Y23877409D01*
X-28430993Y23843431D01*
X-28447734Y23812110D01*
X-28470261Y23784661D01*
X-28497710Y23762134D01*
X-28529031Y23745393D01*
X-28563009Y23735085D01*
X-28604490Y23731000D01*
X-29205710Y23731000D01*
X-29247191Y23735085D01*
X-29281169Y23745393D01*
X-29312490Y23762134D01*
X-29339939Y23784661D01*
X-29362466Y23812110D01*
X-29379207Y23843431D01*
X-29389515Y23877409D01*
X-29393600Y23918890D01*
X-29393600Y24595110D01*
X-29389515Y24636591D01*
X-29379207Y24670569D01*
X-29362466Y24701890D01*
X-29339939Y24729339D01*
X-29312490Y24751866D01*
X-29281169Y24768607D01*
X-29247191Y24778915D01*
X-29205710Y24783000D01*
X-28604490Y24783000D01*
X-28563009Y24778915D01*
G37*
G36*
X-26988009Y24778915D02*
G01*
X-26954031Y24768607D01*
X-26922710Y24751866D01*
X-26895261Y24729339D01*
X-26872734Y24701890D01*
X-26855993Y24670569D01*
X-26845685Y24636591D01*
X-26841600Y24595110D01*
X-26841600Y23918890D01*
X-26845685Y23877409D01*
X-26855993Y23843431D01*
X-26872734Y23812110D01*
X-26895261Y23784661D01*
X-26922710Y23762134D01*
X-26954031Y23745393D01*
X-26988009Y23735085D01*
X-27029490Y23731000D01*
X-27630710Y23731000D01*
X-27672191Y23735085D01*
X-27706169Y23745393D01*
X-27737490Y23762134D01*
X-27764939Y23784661D01*
X-27787466Y23812110D01*
X-27804207Y23843431D01*
X-27814515Y23877409D01*
X-27818600Y23918890D01*
X-27818600Y24595110D01*
X-27814515Y24636591D01*
X-27804207Y24670569D01*
X-27787466Y24701890D01*
X-27764939Y24729339D01*
X-27737490Y24751866D01*
X-27706169Y24768607D01*
X-27672191Y24778915D01*
X-27630710Y24783000D01*
X-27029490Y24783000D01*
X-26988009Y24778915D01*
G37*
G36*
X-8071958Y25608219D02*
G01*
X-7926186Y25547838D01*
X-7926184Y25547837D01*
X-7794992Y25460178D01*
X-7683422Y25348608D01*
X-7595763Y25217416D01*
X-7595762Y25217414D01*
X-7535381Y25071642D01*
X-7504600Y24916893D01*
X-7504600Y24759107D01*
X-7535381Y24604358D01*
X-7562557Y24538750D01*
X-7595763Y24458584D01*
X-7683422Y24327392D01*
X-7794992Y24215822D01*
X-7926184Y24128163D01*
X-7926185Y24128162D01*
X-7926186Y24128162D01*
X-8071958Y24067781D01*
X-8226707Y24037000D01*
X-8384493Y24037000D01*
X-8539242Y24067781D01*
X-8685014Y24128162D01*
X-8685015Y24128162D01*
X-8685016Y24128163D01*
X-8816208Y24215822D01*
X-8927778Y24327392D01*
X-9015437Y24458584D01*
X-9048643Y24538750D01*
X-9075819Y24604358D01*
X-9106600Y24759107D01*
X-9106600Y24916893D01*
X-9075819Y25071642D01*
X-9015438Y25217414D01*
X-9015437Y25217416D01*
X-8927778Y25348608D01*
X-8816208Y25460178D01*
X-8685016Y25547837D01*
X-8685014Y25547838D01*
X-8539242Y25608219D01*
X-8384493Y25639000D01*
X-8226707Y25639000D01*
X-8071958Y25608219D01*
G37*
G36*
X-2223009Y25286915D02*
G01*
X-2189031Y25276607D01*
X-2157710Y25259866D01*
X-2130261Y25237339D01*
X-2107734Y25209890D01*
X-2090993Y25178569D01*
X-2080685Y25144591D01*
X-2076600Y25103110D01*
X-2076600Y24426890D01*
X-2080685Y24385409D01*
X-2090993Y24351431D01*
X-2107734Y24320110D01*
X-2130261Y24292661D01*
X-2157710Y24270134D01*
X-2189031Y24253393D01*
X-2223009Y24243085D01*
X-2264490Y24239000D01*
X-2865710Y24239000D01*
X-2907191Y24243085D01*
X-2941169Y24253393D01*
X-2972490Y24270134D01*
X-2999939Y24292661D01*
X-3022466Y24320110D01*
X-3039207Y24351431D01*
X-3049515Y24385409D01*
X-3053600Y24426890D01*
X-3053600Y25103110D01*
X-3049515Y25144591D01*
X-3039207Y25178569D01*
X-3022466Y25209890D01*
X-2999939Y25237339D01*
X-2972490Y25259866D01*
X-2941169Y25276607D01*
X-2907191Y25286915D01*
X-2865710Y25291000D01*
X-2264490Y25291000D01*
X-2223009Y25286915D01*
G37*
G36*
X-3798009Y25286915D02*
G01*
X-3764031Y25276607D01*
X-3732710Y25259866D01*
X-3705261Y25237339D01*
X-3682734Y25209890D01*
X-3665993Y25178569D01*
X-3655685Y25144591D01*
X-3651600Y25103110D01*
X-3651600Y24426890D01*
X-3655685Y24385409D01*
X-3665993Y24351431D01*
X-3682734Y24320110D01*
X-3705261Y24292661D01*
X-3732710Y24270134D01*
X-3764031Y24253393D01*
X-3798009Y24243085D01*
X-3839490Y24239000D01*
X-4440710Y24239000D01*
X-4482191Y24243085D01*
X-4516169Y24253393D01*
X-4547490Y24270134D01*
X-4574939Y24292661D01*
X-4597466Y24320110D01*
X-4614207Y24351431D01*
X-4624515Y24385409D01*
X-4628600Y24426890D01*
X-4628600Y25103110D01*
X-4624515Y25144591D01*
X-4614207Y25178569D01*
X-4597466Y25209890D01*
X-4574939Y25237339D01*
X-4547490Y25259866D01*
X-4516169Y25276607D01*
X-4482191Y25286915D01*
X-4440710Y25291000D01*
X-3839490Y25291000D01*
X-3798009Y25286915D01*
G37*
G36*
X-13323009Y25667915D02*
G01*
X-13289031Y25657607D01*
X-13257710Y25640866D01*
X-13230261Y25618339D01*
X-13207734Y25590890D01*
X-13190993Y25559569D01*
X-13180685Y25525591D01*
X-13176600Y25484110D01*
X-13176600Y24807890D01*
X-13180685Y24766409D01*
X-13190993Y24732431D01*
X-13207734Y24701110D01*
X-13230261Y24673661D01*
X-13257710Y24651134D01*
X-13289031Y24634393D01*
X-13323009Y24624085D01*
X-13364490Y24620000D01*
X-13965710Y24620000D01*
X-14007191Y24624085D01*
X-14041169Y24634393D01*
X-14072490Y24651134D01*
X-14099939Y24673661D01*
X-14122466Y24701110D01*
X-14139207Y24732431D01*
X-14149515Y24766409D01*
X-14153600Y24807890D01*
X-14153600Y25484110D01*
X-14149515Y25525591D01*
X-14139207Y25559569D01*
X-14122466Y25590890D01*
X-14099939Y25618339D01*
X-14072490Y25640866D01*
X-14041169Y25657607D01*
X-14007191Y25667915D01*
X-13965710Y25672000D01*
X-13364490Y25672000D01*
X-13323009Y25667915D01*
G37*
G36*
X-11748009Y25667915D02*
G01*
X-11714031Y25657607D01*
X-11682710Y25640866D01*
X-11655261Y25618339D01*
X-11632734Y25590890D01*
X-11615993Y25559569D01*
X-11605685Y25525591D01*
X-11601600Y25484110D01*
X-11601600Y24807890D01*
X-11605685Y24766409D01*
X-11615993Y24732431D01*
X-11632734Y24701110D01*
X-11655261Y24673661D01*
X-11682710Y24651134D01*
X-11714031Y24634393D01*
X-11748009Y24624085D01*
X-11789490Y24620000D01*
X-12390710Y24620000D01*
X-12432191Y24624085D01*
X-12466169Y24634393D01*
X-12497490Y24651134D01*
X-12524939Y24673661D01*
X-12547466Y24701110D01*
X-12564207Y24732431D01*
X-12574515Y24766409D01*
X-12578600Y24807890D01*
X-12578600Y25484110D01*
X-12574515Y25525591D01*
X-12564207Y25559569D01*
X-12547466Y25590890D01*
X-12524939Y25618339D01*
X-12497490Y25640866D01*
X-12466169Y25657607D01*
X-12432191Y25667915D01*
X-12390710Y25672000D01*
X-11789490Y25672000D01*
X-11748009Y25667915D01*
G37*
G36*
X-30163009Y25794915D02*
G01*
X-30129031Y25784607D01*
X-30097710Y25767866D01*
X-30070261Y25745339D01*
X-30047734Y25717890D01*
X-30030993Y25686569D01*
X-30020685Y25652591D01*
X-30016600Y25611110D01*
X-30016600Y24934890D01*
X-30020685Y24893409D01*
X-30030993Y24859431D01*
X-30047734Y24828110D01*
X-30070261Y24800661D01*
X-30097710Y24778134D01*
X-30129031Y24761393D01*
X-30163009Y24751085D01*
X-30204490Y24747000D01*
X-30805710Y24747000D01*
X-30847191Y24751085D01*
X-30881169Y24761393D01*
X-30912490Y24778134D01*
X-30939939Y24800661D01*
X-30962466Y24828110D01*
X-30979207Y24859431D01*
X-30989515Y24893409D01*
X-30993600Y24934890D01*
X-30993600Y25611110D01*
X-30989515Y25652591D01*
X-30979207Y25686569D01*
X-30962466Y25717890D01*
X-30939939Y25745339D01*
X-30912490Y25767866D01*
X-30881169Y25784607D01*
X-30847191Y25794915D01*
X-30805710Y25799000D01*
X-30204490Y25799000D01*
X-30163009Y25794915D01*
G37*
G36*
X-31738009Y25794915D02*
G01*
X-31704031Y25784607D01*
X-31672710Y25767866D01*
X-31645261Y25745339D01*
X-31622734Y25717890D01*
X-31605993Y25686569D01*
X-31595685Y25652591D01*
X-31591600Y25611110D01*
X-31591600Y24934890D01*
X-31595685Y24893409D01*
X-31605993Y24859431D01*
X-31622734Y24828110D01*
X-31645261Y24800661D01*
X-31672710Y24778134D01*
X-31704031Y24761393D01*
X-31738009Y24751085D01*
X-31779490Y24747000D01*
X-32380710Y24747000D01*
X-32422191Y24751085D01*
X-32456169Y24761393D01*
X-32487490Y24778134D01*
X-32514939Y24800661D01*
X-32537466Y24828110D01*
X-32554207Y24859431D01*
X-32564515Y24893409D01*
X-32568600Y24934890D01*
X-32568600Y25611110D01*
X-32564515Y25652591D01*
X-32554207Y25686569D01*
X-32537466Y25717890D01*
X-32514939Y25745339D01*
X-32487490Y25767866D01*
X-32456169Y25784607D01*
X-32422191Y25794915D01*
X-32380710Y25799000D01*
X-31779490Y25799000D01*
X-31738009Y25794915D01*
G37*
G36*
X-45299834Y26461179D02*
G01*
X-45163343Y26404642D01*
X-45040503Y26322563D01*
X-44936037Y26218097D01*
X-44853958Y26095257D01*
X-44797421Y25958766D01*
X-44768600Y25813870D01*
X-44768600Y25666130D01*
X-44797421Y25521234D01*
X-44853958Y25384743D01*
X-44936037Y25261903D01*
X-45040503Y25157437D01*
X-45163343Y25075358D01*
X-45299834Y25018821D01*
X-45444730Y24990000D01*
X-45592470Y24990000D01*
X-45737366Y25018821D01*
X-45873857Y25075358D01*
X-45996697Y25157437D01*
X-46101163Y25261903D01*
X-46183242Y25384743D01*
X-46239779Y25521234D01*
X-46268600Y25666130D01*
X-46268600Y25813870D01*
X-46239779Y25958766D01*
X-46183242Y26095257D01*
X-46101163Y26218097D01*
X-45996697Y26322563D01*
X-45873857Y26404642D01*
X-45737366Y26461179D01*
X-45592470Y26490000D01*
X-45444730Y26490000D01*
X-45299834Y26461179D01*
G37*
G36*
X-26988009Y26429915D02*
G01*
X-26954031Y26419607D01*
X-26922710Y26402866D01*
X-26895261Y26380339D01*
X-26872734Y26352890D01*
X-26855993Y26321569D01*
X-26845685Y26287591D01*
X-26841600Y26246110D01*
X-26841600Y25569890D01*
X-26845685Y25528409D01*
X-26855993Y25494431D01*
X-26872734Y25463110D01*
X-26895261Y25435661D01*
X-26922710Y25413134D01*
X-26954031Y25396393D01*
X-26988009Y25386085D01*
X-27029490Y25382000D01*
X-27630710Y25382000D01*
X-27672191Y25386085D01*
X-27706169Y25396393D01*
X-27737490Y25413134D01*
X-27764939Y25435661D01*
X-27787466Y25463110D01*
X-27804207Y25494431D01*
X-27814515Y25528409D01*
X-27818600Y25569890D01*
X-27818600Y26246110D01*
X-27814515Y26287591D01*
X-27804207Y26321569D01*
X-27787466Y26352890D01*
X-27764939Y26380339D01*
X-27737490Y26402866D01*
X-27706169Y26419607D01*
X-27672191Y26429915D01*
X-27630710Y26434000D01*
X-27029490Y26434000D01*
X-26988009Y26429915D01*
G37*
G36*
X-28563009Y26429915D02*
G01*
X-28529031Y26419607D01*
X-28497710Y26402866D01*
X-28470261Y26380339D01*
X-28447734Y26352890D01*
X-28430993Y26321569D01*
X-28420685Y26287591D01*
X-28416600Y26246110D01*
X-28416600Y25569890D01*
X-28420685Y25528409D01*
X-28430993Y25494431D01*
X-28447734Y25463110D01*
X-28470261Y25435661D01*
X-28497710Y25413134D01*
X-28529031Y25396393D01*
X-28563009Y25386085D01*
X-28604490Y25382000D01*
X-29205710Y25382000D01*
X-29247191Y25386085D01*
X-29281169Y25396393D01*
X-29312490Y25413134D01*
X-29339939Y25435661D01*
X-29362466Y25463110D01*
X-29379207Y25494431D01*
X-29389515Y25528409D01*
X-29393600Y25569890D01*
X-29393600Y26246110D01*
X-29389515Y26287591D01*
X-29379207Y26321569D01*
X-29362466Y26352890D01*
X-29339939Y26380339D01*
X-29312490Y26402866D01*
X-29281169Y26419607D01*
X-29247191Y26429915D01*
X-29205710Y26434000D01*
X-28604490Y26434000D01*
X-28563009Y26429915D01*
G37*
G36*
X-47839834Y27731179D02*
G01*
X-47703343Y27674642D01*
X-47580503Y27592563D01*
X-47476037Y27488097D01*
X-47393958Y27365257D01*
X-47337421Y27228766D01*
X-47308600Y27083870D01*
X-47308600Y26936130D01*
X-47337421Y26791234D01*
X-47393958Y26654743D01*
X-47476037Y26531903D01*
X-47580503Y26427437D01*
X-47703343Y26345358D01*
X-47839834Y26288821D01*
X-47984730Y26260000D01*
X-48132470Y26260000D01*
X-48277366Y26288821D01*
X-48413857Y26345358D01*
X-48536697Y26427437D01*
X-48641163Y26531903D01*
X-48723242Y26654743D01*
X-48779779Y26791234D01*
X-48808600Y26936130D01*
X-48808600Y27083870D01*
X-48779779Y27228766D01*
X-48723242Y27365257D01*
X-48641163Y27488097D01*
X-48536697Y27592563D01*
X-48413857Y27674642D01*
X-48277366Y27731179D01*
X-48132470Y27760000D01*
X-47984730Y27760000D01*
X-47839834Y27731179D01*
G37*
G36*
X-30163009Y27445915D02*
G01*
X-30129031Y27435607D01*
X-30097710Y27418866D01*
X-30070261Y27396339D01*
X-30047734Y27368890D01*
X-30030993Y27337569D01*
X-30020685Y27303591D01*
X-30016600Y27262110D01*
X-30016600Y26585890D01*
X-30020685Y26544409D01*
X-30030993Y26510431D01*
X-30047734Y26479110D01*
X-30070261Y26451661D01*
X-30097710Y26429134D01*
X-30129031Y26412393D01*
X-30163009Y26402085D01*
X-30204490Y26398000D01*
X-30805710Y26398000D01*
X-30847191Y26402085D01*
X-30881169Y26412393D01*
X-30912490Y26429134D01*
X-30939939Y26451661D01*
X-30962466Y26479110D01*
X-30979207Y26510431D01*
X-30989515Y26544409D01*
X-30993600Y26585890D01*
X-30993600Y27262110D01*
X-30989515Y27303591D01*
X-30979207Y27337569D01*
X-30962466Y27368890D01*
X-30939939Y27396339D01*
X-30912490Y27418866D01*
X-30881169Y27435607D01*
X-30847191Y27445915D01*
X-30805710Y27450000D01*
X-30204490Y27450000D01*
X-30163009Y27445915D01*
G37*
G36*
X-31738009Y27445915D02*
G01*
X-31704031Y27435607D01*
X-31672710Y27418866D01*
X-31645261Y27396339D01*
X-31622734Y27368890D01*
X-31605993Y27337569D01*
X-31595685Y27303591D01*
X-31591600Y27262110D01*
X-31591600Y26585890D01*
X-31595685Y26544409D01*
X-31605993Y26510431D01*
X-31622734Y26479110D01*
X-31645261Y26451661D01*
X-31672710Y26429134D01*
X-31704031Y26412393D01*
X-31738009Y26402085D01*
X-31779490Y26398000D01*
X-32380710Y26398000D01*
X-32422191Y26402085D01*
X-32456169Y26412393D01*
X-32487490Y26429134D01*
X-32514939Y26451661D01*
X-32537466Y26479110D01*
X-32554207Y26510431D01*
X-32564515Y26544409D01*
X-32568600Y26585890D01*
X-32568600Y27262110D01*
X-32564515Y27303591D01*
X-32554207Y27337569D01*
X-32537466Y27368890D01*
X-32514939Y27396339D01*
X-32487490Y27418866D01*
X-32456169Y27435607D01*
X-32422191Y27445915D01*
X-32380710Y27450000D01*
X-31779490Y27450000D01*
X-31738009Y27445915D01*
G37*
G36*
X-28563009Y28080915D02*
G01*
X-28529031Y28070607D01*
X-28497710Y28053866D01*
X-28470261Y28031339D01*
X-28447734Y28003890D01*
X-28430993Y27972569D01*
X-28420685Y27938591D01*
X-28416600Y27897110D01*
X-28416600Y27220890D01*
X-28420685Y27179409D01*
X-28430993Y27145431D01*
X-28447734Y27114110D01*
X-28470261Y27086661D01*
X-28497710Y27064134D01*
X-28529031Y27047393D01*
X-28563009Y27037085D01*
X-28604490Y27033000D01*
X-29205710Y27033000D01*
X-29247191Y27037085D01*
X-29281169Y27047393D01*
X-29312490Y27064134D01*
X-29339939Y27086661D01*
X-29362466Y27114110D01*
X-29379207Y27145431D01*
X-29389515Y27179409D01*
X-29393600Y27220890D01*
X-29393600Y27897110D01*
X-29389515Y27938591D01*
X-29379207Y27972569D01*
X-29362466Y28003890D01*
X-29339939Y28031339D01*
X-29312490Y28053866D01*
X-29281169Y28070607D01*
X-29247191Y28080915D01*
X-29205710Y28085000D01*
X-28604490Y28085000D01*
X-28563009Y28080915D01*
G37*
G36*
X-26988009Y28080915D02*
G01*
X-26954031Y28070607D01*
X-26922710Y28053866D01*
X-26895261Y28031339D01*
X-26872734Y28003890D01*
X-26855993Y27972569D01*
X-26845685Y27938591D01*
X-26841600Y27897110D01*
X-26841600Y27220890D01*
X-26845685Y27179409D01*
X-26855993Y27145431D01*
X-26872734Y27114110D01*
X-26895261Y27086661D01*
X-26922710Y27064134D01*
X-26954031Y27047393D01*
X-26988009Y27037085D01*
X-27029490Y27033000D01*
X-27630710Y27033000D01*
X-27672191Y27037085D01*
X-27706169Y27047393D01*
X-27737490Y27064134D01*
X-27764939Y27086661D01*
X-27787466Y27114110D01*
X-27804207Y27145431D01*
X-27814515Y27179409D01*
X-27818600Y27220890D01*
X-27818600Y27897110D01*
X-27814515Y27938591D01*
X-27804207Y27972569D01*
X-27787466Y28003890D01*
X-27764939Y28031339D01*
X-27737490Y28053866D01*
X-27706169Y28070607D01*
X-27672191Y28080915D01*
X-27630710Y28085000D01*
X-27029490Y28085000D01*
X-26988009Y28080915D01*
G37*
G36*
X-11773509Y28207915D02*
G01*
X-11739531Y28197607D01*
X-11708210Y28180866D01*
X-11680761Y28158339D01*
X-11658234Y28130890D01*
X-11641493Y28099569D01*
X-11631185Y28065591D01*
X-11627100Y28024110D01*
X-11627100Y27347890D01*
X-11631185Y27306409D01*
X-11641493Y27272431D01*
X-11658234Y27241110D01*
X-11680761Y27213661D01*
X-11708210Y27191134D01*
X-11739531Y27174393D01*
X-11773509Y27164085D01*
X-11814990Y27160000D01*
X-12416210Y27160000D01*
X-12457691Y27164085D01*
X-12491669Y27174393D01*
X-12522990Y27191134D01*
X-12550439Y27213661D01*
X-12572966Y27241110D01*
X-12589707Y27272431D01*
X-12600015Y27306409D01*
X-12604100Y27347890D01*
X-12604100Y28024110D01*
X-12600015Y28065591D01*
X-12589707Y28099569D01*
X-12572966Y28130890D01*
X-12550439Y28158339D01*
X-12522990Y28180866D01*
X-12491669Y28197607D01*
X-12457691Y28207915D01*
X-12416210Y28212000D01*
X-11814990Y28212000D01*
X-11773509Y28207915D01*
G37*
G36*
X-13348509Y28207915D02*
G01*
X-13314531Y28197607D01*
X-13283210Y28180866D01*
X-13255761Y28158339D01*
X-13233234Y28130890D01*
X-13216493Y28099569D01*
X-13206185Y28065591D01*
X-13202100Y28024110D01*
X-13202100Y27347890D01*
X-13206185Y27306409D01*
X-13216493Y27272431D01*
X-13233234Y27241110D01*
X-13255761Y27213661D01*
X-13283210Y27191134D01*
X-13314531Y27174393D01*
X-13348509Y27164085D01*
X-13389990Y27160000D01*
X-13991210Y27160000D01*
X-14032691Y27164085D01*
X-14066669Y27174393D01*
X-14097990Y27191134D01*
X-14125439Y27213661D01*
X-14147966Y27241110D01*
X-14164707Y27272431D01*
X-14175015Y27306409D01*
X-14179100Y27347890D01*
X-14179100Y28024110D01*
X-14175015Y28065591D01*
X-14164707Y28099569D01*
X-14147966Y28130890D01*
X-14125439Y28158339D01*
X-14097990Y28180866D01*
X-14066669Y28197607D01*
X-14032691Y28207915D01*
X-13991210Y28212000D01*
X-13389990Y28212000D01*
X-13348509Y28207915D01*
G37*
G36*
X-45299834Y29001179D02*
G01*
X-45163343Y28944642D01*
X-45040503Y28862563D01*
X-44936037Y28758097D01*
X-44853958Y28635257D01*
X-44797421Y28498766D01*
X-44768600Y28353870D01*
X-44768600Y28206130D01*
X-44797421Y28061234D01*
X-44853958Y27924743D01*
X-44936037Y27801903D01*
X-45040503Y27697437D01*
X-45163343Y27615358D01*
X-45299834Y27558821D01*
X-45444730Y27530000D01*
X-45592470Y27530000D01*
X-45737366Y27558821D01*
X-45873857Y27615358D01*
X-45996697Y27697437D01*
X-46101163Y27801903D01*
X-46183242Y27924743D01*
X-46239779Y28061234D01*
X-46268600Y28206130D01*
X-46268600Y28353870D01*
X-46239779Y28498766D01*
X-46183242Y28635257D01*
X-46101163Y28758097D01*
X-45996697Y28862563D01*
X-45873857Y28944642D01*
X-45737366Y29001179D01*
X-45592470Y29030000D01*
X-45444730Y29030000D01*
X-45299834Y29001179D01*
G37*
G36*
X-59070583Y29969642D02*
G01*
X-58996330Y29938885D01*
X-58922079Y29908130D01*
X-58922078Y29908129D01*
X-58788433Y29818831D01*
X-58674769Y29705167D01*
X-58625771Y29631836D01*
X-58585470Y29571521D01*
X-58580934Y29560569D01*
X-58523958Y29423017D01*
X-58492600Y29265370D01*
X-58492600Y29104630D01*
X-58523958Y28946983D01*
X-58541717Y28904110D01*
X-58585470Y28798479D01*
X-58606144Y28767539D01*
X-58674769Y28664833D01*
X-58788433Y28551169D01*
X-58888667Y28484195D01*
X-58922079Y28461870D01*
X-59070583Y28400358D01*
X-59228230Y28369000D01*
X-59388970Y28369000D01*
X-59546617Y28400358D01*
X-59695121Y28461870D01*
X-59728533Y28484196D01*
X-59828767Y28551169D01*
X-59942431Y28664833D01*
X-60011056Y28767539D01*
X-60031730Y28798479D01*
X-60075483Y28904110D01*
X-60093242Y28946983D01*
X-60124600Y29104630D01*
X-60124600Y29265370D01*
X-60093242Y29423017D01*
X-60036266Y29560569D01*
X-60031730Y29571521D01*
X-59991429Y29631836D01*
X-59942431Y29705167D01*
X-59828767Y29818831D01*
X-59695122Y29908129D01*
X-59695121Y29908130D01*
X-59620870Y29938885D01*
X-59546617Y29969642D01*
X-59388970Y30001000D01*
X-59228230Y30001000D01*
X-59070583Y29969642D01*
G37*
G36*
X-26976009Y29668915D02*
G01*
X-26942031Y29658607D01*
X-26910710Y29641866D01*
X-26883261Y29619339D01*
X-26860734Y29591890D01*
X-26843993Y29560569D01*
X-26833685Y29526591D01*
X-26829600Y29485110D01*
X-26829600Y28883890D01*
X-26833685Y28842409D01*
X-26843993Y28808431D01*
X-26860734Y28777110D01*
X-26883261Y28749661D01*
X-26910710Y28727134D01*
X-26942031Y28710393D01*
X-26976009Y28700085D01*
X-27017490Y28696000D01*
X-27693710Y28696000D01*
X-27735191Y28700085D01*
X-27769169Y28710393D01*
X-27800490Y28727134D01*
X-27827939Y28749661D01*
X-27850466Y28777110D01*
X-27867207Y28808431D01*
X-27877515Y28842409D01*
X-27881600Y28883890D01*
X-27881600Y29485110D01*
X-27877515Y29526591D01*
X-27867207Y29560569D01*
X-27850466Y29591890D01*
X-27827939Y29619339D01*
X-27800490Y29641866D01*
X-27769169Y29658607D01*
X-27735191Y29668915D01*
X-27693710Y29673000D01*
X-27017490Y29673000D01*
X-26976009Y29668915D01*
G37*
G36*
X-47308600Y28800000D02*
G01*
X-48808600Y28800000D01*
X-48808600Y30300000D01*
X-47308600Y30300000D01*
X-47308600Y28800000D01*
G37*
G36*
X-13260009Y29795915D02*
G01*
X-13226031Y29785607D01*
X-13194710Y29768866D01*
X-13167261Y29746339D01*
X-13144734Y29718890D01*
X-13127993Y29687569D01*
X-13117685Y29653591D01*
X-13113600Y29612110D01*
X-13113600Y29010890D01*
X-13117685Y28969409D01*
X-13127993Y28935431D01*
X-13144734Y28904110D01*
X-13167261Y28876661D01*
X-13194710Y28854134D01*
X-13226031Y28837393D01*
X-13260009Y28827085D01*
X-13301490Y28823000D01*
X-13977710Y28823000D01*
X-14019191Y28827085D01*
X-14053169Y28837393D01*
X-14084490Y28854134D01*
X-14111939Y28876661D01*
X-14134466Y28904110D01*
X-14151207Y28935431D01*
X-14161515Y28969409D01*
X-14165600Y29010890D01*
X-14165600Y29612110D01*
X-14161515Y29653591D01*
X-14151207Y29687569D01*
X-14134466Y29718890D01*
X-14111939Y29746339D01*
X-14084490Y29768866D01*
X-14053169Y29785607D01*
X-14019191Y29795915D01*
X-13977710Y29800000D01*
X-13301490Y29800000D01*
X-13260009Y29795915D01*
G37*
G36*
X-8071958Y30488219D02*
G01*
X-7929315Y30429134D01*
X-7926184Y30427837D01*
X-7794992Y30340178D01*
X-7683422Y30228608D01*
X-7596702Y30098821D01*
X-7595762Y30097414D01*
X-7535381Y29951642D01*
X-7504600Y29796893D01*
X-7504600Y29639107D01*
X-7535381Y29484358D01*
X-7594025Y29342780D01*
X-7595763Y29338584D01*
X-7683422Y29207392D01*
X-7794992Y29095822D01*
X-7926184Y29008163D01*
X-7926185Y29008162D01*
X-7926186Y29008162D01*
X-8071958Y28947781D01*
X-8226707Y28917000D01*
X-8384493Y28917000D01*
X-8539242Y28947781D01*
X-8685014Y29008162D01*
X-8685015Y29008162D01*
X-8685016Y29008163D01*
X-8816208Y29095822D01*
X-8927778Y29207392D01*
X-9015437Y29338584D01*
X-9017175Y29342780D01*
X-9075819Y29484358D01*
X-9106600Y29639107D01*
X-9106600Y29796893D01*
X-9075819Y29951642D01*
X-9015438Y30097414D01*
X-9014498Y30098821D01*
X-8927778Y30228608D01*
X-8816208Y30340178D01*
X-8685016Y30427837D01*
X-8681885Y30429134D01*
X-8539242Y30488219D01*
X-8384493Y30519000D01*
X-8226707Y30519000D01*
X-8071958Y30488219D01*
G37*
G36*
X-54172321Y32476836D02*
G01*
X-53919729Y32426592D01*
X-53614717Y32300252D01*
X-53340213Y32116834D01*
X-53106766Y31883387D01*
X-52923348Y31608883D01*
X-52797008Y31303871D01*
X-52732600Y30980072D01*
X-52732600Y30649928D01*
X-52797008Y30326129D01*
X-52923348Y30021117D01*
X-53106766Y29746613D01*
X-53340213Y29513166D01*
X-53614717Y29329748D01*
X-53919729Y29203408D01*
X-53977081Y29192000D01*
X-54243527Y29139000D01*
X-54573673Y29139000D01*
X-54840119Y29192000D01*
X-54897471Y29203408D01*
X-55202483Y29329748D01*
X-55476987Y29513166D01*
X-55710434Y29746613D01*
X-55893852Y30021117D01*
X-56020192Y30326129D01*
X-56084600Y30649928D01*
X-56084600Y30980072D01*
X-56020192Y31303871D01*
X-55893852Y31608883D01*
X-55710434Y31883387D01*
X-55476987Y32116834D01*
X-55202483Y32300252D01*
X-54897471Y32426592D01*
X-54644879Y32476836D01*
X-54573673Y32491000D01*
X-54243527Y32491000D01*
X-54172321Y32476836D01*
G37*
G36*
X-3823509Y30239915D02*
G01*
X-3789531Y30229607D01*
X-3758210Y30212866D01*
X-3730761Y30190339D01*
X-3708234Y30162890D01*
X-3691493Y30131569D01*
X-3681185Y30097591D01*
X-3677100Y30056110D01*
X-3677100Y29379890D01*
X-3681185Y29338409D01*
X-3691493Y29304431D01*
X-3708234Y29273110D01*
X-3730761Y29245661D01*
X-3758210Y29223134D01*
X-3789531Y29206393D01*
X-3823509Y29196085D01*
X-3864990Y29192000D01*
X-4466210Y29192000D01*
X-4507691Y29196085D01*
X-4541669Y29206393D01*
X-4572990Y29223134D01*
X-4600439Y29245661D01*
X-4622966Y29273110D01*
X-4639707Y29304431D01*
X-4650015Y29338409D01*
X-4654100Y29379890D01*
X-4654100Y30056110D01*
X-4650015Y30097591D01*
X-4639707Y30131569D01*
X-4622966Y30162890D01*
X-4600439Y30190339D01*
X-4572990Y30212866D01*
X-4541669Y30229607D01*
X-4507691Y30239915D01*
X-4466210Y30244000D01*
X-3864990Y30244000D01*
X-3823509Y30239915D01*
G37*
G36*
X-2248509Y30239915D02*
G01*
X-2214531Y30229607D01*
X-2183210Y30212866D01*
X-2155761Y30190339D01*
X-2133234Y30162890D01*
X-2116493Y30131569D01*
X-2106185Y30097591D01*
X-2102100Y30056110D01*
X-2102100Y29379890D01*
X-2106185Y29338409D01*
X-2116493Y29304431D01*
X-2133234Y29273110D01*
X-2155761Y29245661D01*
X-2183210Y29223134D01*
X-2214531Y29206393D01*
X-2248509Y29196085D01*
X-2289990Y29192000D01*
X-2891210Y29192000D01*
X-2932691Y29196085D01*
X-2966669Y29206393D01*
X-2997990Y29223134D01*
X-3025439Y29245661D01*
X-3047966Y29273110D01*
X-3064707Y29304431D01*
X-3075015Y29338409D01*
X-3079100Y29379890D01*
X-3079100Y30056110D01*
X-3075015Y30097591D01*
X-3064707Y30131569D01*
X-3047966Y30162890D01*
X-3025439Y30190339D01*
X-2997990Y30212866D01*
X-2966669Y30229607D01*
X-2932691Y30239915D01*
X-2891210Y30244000D01*
X-2289990Y30244000D01*
X-2248509Y30239915D01*
G37*
G36*
X-15292009Y30938915D02*
G01*
X-15258031Y30928607D01*
X-15226710Y30911866D01*
X-15199261Y30889339D01*
X-15176734Y30861890D01*
X-15159993Y30830569D01*
X-15149685Y30796591D01*
X-15145600Y30755110D01*
X-15145600Y30153890D01*
X-15149685Y30112409D01*
X-15159993Y30078431D01*
X-15176734Y30047110D01*
X-15199261Y30019661D01*
X-15226710Y29997134D01*
X-15258031Y29980393D01*
X-15292009Y29970085D01*
X-15333490Y29966000D01*
X-16009710Y29966000D01*
X-16051191Y29970085D01*
X-16085169Y29980393D01*
X-16116490Y29997134D01*
X-16143939Y30019661D01*
X-16166466Y30047110D01*
X-16183207Y30078431D01*
X-16193515Y30112409D01*
X-16197600Y30153890D01*
X-16197600Y30755110D01*
X-16193515Y30796591D01*
X-16183207Y30830569D01*
X-16166466Y30861890D01*
X-16143939Y30889339D01*
X-16116490Y30911866D01*
X-16085169Y30928607D01*
X-16051191Y30938915D01*
X-16009710Y30943000D01*
X-15333490Y30943000D01*
X-15292009Y30938915D01*
G37*
G36*
X-19483009Y30964415D02*
G01*
X-19449031Y30954107D01*
X-19417710Y30937366D01*
X-19390261Y30914839D01*
X-19367734Y30887390D01*
X-19350993Y30856069D01*
X-19340685Y30822091D01*
X-19336600Y30780610D01*
X-19336600Y30179390D01*
X-19340685Y30137909D01*
X-19350993Y30103931D01*
X-19367734Y30072610D01*
X-19390261Y30045161D01*
X-19417710Y30022634D01*
X-19449031Y30005893D01*
X-19483009Y29995585D01*
X-19524490Y29991500D01*
X-20200710Y29991500D01*
X-20242191Y29995585D01*
X-20276169Y30005893D01*
X-20307490Y30022634D01*
X-20334939Y30045161D01*
X-20357466Y30072610D01*
X-20374207Y30103931D01*
X-20384515Y30137909D01*
X-20388600Y30179390D01*
X-20388600Y30780610D01*
X-20384515Y30822091D01*
X-20374207Y30856069D01*
X-20357466Y30887390D01*
X-20334939Y30914839D01*
X-20307490Y30937366D01*
X-20276169Y30954107D01*
X-20242191Y30964415D01*
X-20200710Y30968500D01*
X-19524490Y30968500D01*
X-19483009Y30964415D01*
G37*
G36*
X-21261009Y30964415D02*
G01*
X-21227031Y30954107D01*
X-21195710Y30937366D01*
X-21168261Y30914839D01*
X-21145734Y30887390D01*
X-21128993Y30856069D01*
X-21118685Y30822091D01*
X-21114600Y30780610D01*
X-21114600Y30179390D01*
X-21118685Y30137909D01*
X-21128993Y30103931D01*
X-21145734Y30072610D01*
X-21168261Y30045161D01*
X-21195710Y30022634D01*
X-21227031Y30005893D01*
X-21261009Y29995585D01*
X-21302490Y29991500D01*
X-21978710Y29991500D01*
X-22020191Y29995585D01*
X-22054169Y30005893D01*
X-22085490Y30022634D01*
X-22112939Y30045161D01*
X-22135466Y30072610D01*
X-22152207Y30103931D01*
X-22162515Y30137909D01*
X-22166600Y30179390D01*
X-22166600Y30780610D01*
X-22162515Y30822091D01*
X-22152207Y30856069D01*
X-22135466Y30887390D01*
X-22112939Y30914839D01*
X-22085490Y30937366D01*
X-22054169Y30954107D01*
X-22020191Y30964415D01*
X-21978710Y30968500D01*
X-21302490Y30968500D01*
X-21261009Y30964415D01*
G37*
G36*
X-45299834Y31541179D02*
G01*
X-45163343Y31484642D01*
X-45040503Y31402563D01*
X-44936037Y31298097D01*
X-44853958Y31175257D01*
X-44797421Y31038766D01*
X-44768600Y30893870D01*
X-44768600Y30746130D01*
X-44797421Y30601234D01*
X-44853958Y30464743D01*
X-44936037Y30341903D01*
X-45040503Y30237437D01*
X-45163343Y30155358D01*
X-45299834Y30098821D01*
X-45444730Y30070000D01*
X-45592470Y30070000D01*
X-45737366Y30098821D01*
X-45873857Y30155358D01*
X-45996697Y30237437D01*
X-46101163Y30341903D01*
X-46183242Y30464743D01*
X-46239779Y30601234D01*
X-46268600Y30746130D01*
X-46268600Y30893870D01*
X-46239779Y31038766D01*
X-46183242Y31175257D01*
X-46101163Y31298097D01*
X-45996697Y31402563D01*
X-45873857Y31484642D01*
X-45737366Y31541179D01*
X-45592470Y31570000D01*
X-45444730Y31570000D01*
X-45299834Y31541179D01*
G37*
G36*
X-25325009Y31091415D02*
G01*
X-25291031Y31081107D01*
X-25259710Y31064366D01*
X-25232261Y31041839D01*
X-25209734Y31014390D01*
X-25192993Y30983069D01*
X-25182685Y30949091D01*
X-25178600Y30907610D01*
X-25178600Y30306390D01*
X-25182685Y30264909D01*
X-25192993Y30230931D01*
X-25209734Y30199610D01*
X-25232261Y30172161D01*
X-25259710Y30149634D01*
X-25291031Y30132893D01*
X-25325009Y30122585D01*
X-25366490Y30118500D01*
X-26042710Y30118500D01*
X-26084191Y30122585D01*
X-26118169Y30132893D01*
X-26149490Y30149634D01*
X-26176939Y30172161D01*
X-26199466Y30199610D01*
X-26216207Y30230931D01*
X-26226515Y30264909D01*
X-26230600Y30306390D01*
X-26230600Y30907610D01*
X-26226515Y30949091D01*
X-26216207Y30983069D01*
X-26199466Y31014390D01*
X-26176939Y31041839D01*
X-26149490Y31064366D01*
X-26118169Y31081107D01*
X-26084191Y31091415D01*
X-26042710Y31095500D01*
X-25366490Y31095500D01*
X-25325009Y31091415D01*
G37*
G36*
X-26976009Y31243915D02*
G01*
X-26942031Y31233607D01*
X-26910710Y31216866D01*
X-26883261Y31194339D01*
X-26860734Y31166890D01*
X-26843993Y31135569D01*
X-26833685Y31101591D01*
X-26829600Y31060110D01*
X-26829600Y30458890D01*
X-26833685Y30417409D01*
X-26843993Y30383431D01*
X-26860734Y30352110D01*
X-26883261Y30324661D01*
X-26910710Y30302134D01*
X-26942031Y30285393D01*
X-26976009Y30275085D01*
X-27017490Y30271000D01*
X-27693710Y30271000D01*
X-27735191Y30275085D01*
X-27769169Y30285393D01*
X-27800490Y30302134D01*
X-27827939Y30324661D01*
X-27850466Y30352110D01*
X-27867207Y30383431D01*
X-27877515Y30417409D01*
X-27881600Y30458890D01*
X-27881600Y31060110D01*
X-27877515Y31101591D01*
X-27867207Y31135569D01*
X-27850466Y31166890D01*
X-27827939Y31194339D01*
X-27800490Y31216866D01*
X-27769169Y31233607D01*
X-27735191Y31243915D01*
X-27693710Y31248000D01*
X-27017490Y31248000D01*
X-26976009Y31243915D01*
G37*
G36*
X-13260009Y31370915D02*
G01*
X-13226031Y31360607D01*
X-13194710Y31343866D01*
X-13167261Y31321339D01*
X-13144734Y31293890D01*
X-13127993Y31262569D01*
X-13117685Y31228591D01*
X-13113600Y31187110D01*
X-13113600Y30585890D01*
X-13117685Y30544409D01*
X-13127993Y30510431D01*
X-13144734Y30479110D01*
X-13167261Y30451661D01*
X-13194710Y30429134D01*
X-13226031Y30412393D01*
X-13260009Y30402085D01*
X-13301490Y30398000D01*
X-13977710Y30398000D01*
X-14019191Y30402085D01*
X-14053169Y30412393D01*
X-14084490Y30429134D01*
X-14111939Y30451661D01*
X-14134466Y30479110D01*
X-14151207Y30510431D01*
X-14161515Y30544409D01*
X-14165600Y30585890D01*
X-14165600Y31187110D01*
X-14161515Y31228591D01*
X-14151207Y31262569D01*
X-14134466Y31293890D01*
X-14111939Y31321339D01*
X-14084490Y31343866D01*
X-14053169Y31360607D01*
X-14019191Y31370915D01*
X-13977710Y31375000D01*
X-13301490Y31375000D01*
X-13260009Y31370915D01*
G37*
G36*
X-59070583Y32509642D02*
G01*
X-59015597Y32486866D01*
X-58922079Y32448130D01*
X-58902351Y32434948D01*
X-58788433Y32358831D01*
X-58674769Y32245167D01*
X-58632963Y32182599D01*
X-58585470Y32111521D01*
X-58567075Y32067110D01*
X-58523958Y31963017D01*
X-58492600Y31805370D01*
X-58492600Y31644630D01*
X-58523958Y31486983D01*
X-58554715Y31412730D01*
X-58585470Y31338479D01*
X-58596923Y31321339D01*
X-58674769Y31204833D01*
X-58788433Y31091169D01*
X-58888667Y31024196D01*
X-58922079Y31001870D01*
X-58974705Y30980072D01*
X-59070583Y30940358D01*
X-59228230Y30909000D01*
X-59388970Y30909000D01*
X-59546617Y30940358D01*
X-59642495Y30980072D01*
X-59695121Y31001870D01*
X-59728533Y31024196D01*
X-59828767Y31091169D01*
X-59942431Y31204833D01*
X-60020277Y31321339D01*
X-60031730Y31338479D01*
X-60093242Y31486983D01*
X-60124600Y31644630D01*
X-60124600Y31805370D01*
X-60093242Y31963017D01*
X-60050125Y32067110D01*
X-60031730Y32111521D01*
X-59984237Y32182599D01*
X-59942431Y32245167D01*
X-59828767Y32358831D01*
X-59714849Y32434948D01*
X-59695121Y32448130D01*
X-59601603Y32486866D01*
X-59546617Y32509642D01*
X-59388970Y32541000D01*
X-59228230Y32541000D01*
X-59070583Y32509642D01*
G37*
G36*
X-15292009Y32513915D02*
G01*
X-15258031Y32503607D01*
X-15226710Y32486866D01*
X-15199261Y32464339D01*
X-15176734Y32436890D01*
X-15159993Y32405569D01*
X-15149685Y32371591D01*
X-15145600Y32330110D01*
X-15145600Y31728890D01*
X-15149685Y31687409D01*
X-15159993Y31653431D01*
X-15176734Y31622110D01*
X-15199261Y31594661D01*
X-15226710Y31572134D01*
X-15258031Y31555393D01*
X-15292009Y31545085D01*
X-15333490Y31541000D01*
X-16009710Y31541000D01*
X-16051191Y31545085D01*
X-16085169Y31555393D01*
X-16116490Y31572134D01*
X-16143939Y31594661D01*
X-16166466Y31622110D01*
X-16183207Y31653431D01*
X-16193515Y31687409D01*
X-16197600Y31728890D01*
X-16197600Y32330110D01*
X-16193515Y32371591D01*
X-16183207Y32405569D01*
X-16166466Y32436890D01*
X-16143939Y32464339D01*
X-16116490Y32486866D01*
X-16085169Y32503607D01*
X-16051191Y32513915D01*
X-16009710Y32518000D01*
X-15333490Y32518000D01*
X-15292009Y32513915D01*
G37*
G36*
X-21261009Y32539415D02*
G01*
X-21227031Y32529107D01*
X-21195710Y32512366D01*
X-21168261Y32489839D01*
X-21145734Y32462390D01*
X-21128993Y32431069D01*
X-21118685Y32397091D01*
X-21114600Y32355610D01*
X-21114600Y31754390D01*
X-21118685Y31712909D01*
X-21128993Y31678931D01*
X-21145734Y31647610D01*
X-21168261Y31620161D01*
X-21195710Y31597634D01*
X-21227031Y31580893D01*
X-21261009Y31570585D01*
X-21302490Y31566500D01*
X-21978710Y31566500D01*
X-22020191Y31570585D01*
X-22054169Y31580893D01*
X-22085490Y31597634D01*
X-22112939Y31620161D01*
X-22135466Y31647610D01*
X-22152207Y31678931D01*
X-22162515Y31712909D01*
X-22166600Y31754390D01*
X-22166600Y32355610D01*
X-22162515Y32397091D01*
X-22152207Y32431069D01*
X-22135466Y32462390D01*
X-22112939Y32489839D01*
X-22085490Y32512366D01*
X-22054169Y32529107D01*
X-22020191Y32539415D01*
X-21978710Y32543500D01*
X-21302490Y32543500D01*
X-21261009Y32539415D01*
G37*
G36*
X-19483009Y32539415D02*
G01*
X-19449031Y32529107D01*
X-19417710Y32512366D01*
X-19390261Y32489839D01*
X-19367734Y32462390D01*
X-19350993Y32431069D01*
X-19340685Y32397091D01*
X-19336600Y32355610D01*
X-19336600Y31754390D01*
X-19340685Y31712909D01*
X-19350993Y31678931D01*
X-19367734Y31647610D01*
X-19390261Y31620161D01*
X-19417710Y31597634D01*
X-19449031Y31580893D01*
X-19483009Y31570585D01*
X-19524490Y31566500D01*
X-20200710Y31566500D01*
X-20242191Y31570585D01*
X-20276169Y31580893D01*
X-20307490Y31597634D01*
X-20334939Y31620161D01*
X-20357466Y31647610D01*
X-20374207Y31678931D01*
X-20384515Y31712909D01*
X-20388600Y31754390D01*
X-20388600Y32355610D01*
X-20384515Y32397091D01*
X-20374207Y32431069D01*
X-20357466Y32462390D01*
X-20334939Y32489839D01*
X-20307490Y32512366D01*
X-20276169Y32529107D01*
X-20242191Y32539415D01*
X-20200710Y32543500D01*
X-19524490Y32543500D01*
X-19483009Y32539415D01*
G37*
G36*
X-50987135Y34069561D02*
G01*
X-50755373Y33973562D01*
X-50726709Y33954409D01*
X-50546791Y33834192D01*
X-50369408Y33656809D01*
X-50369407Y33656807D01*
X-50230038Y33448227D01*
X-50134039Y33216465D01*
X-50085100Y32970430D01*
X-50085100Y32719570D01*
X-50134039Y32473535D01*
X-50230038Y32241773D01*
X-50269577Y32182599D01*
X-50369408Y32033191D01*
X-50546791Y31855808D01*
X-50627243Y31802052D01*
X-50755373Y31716438D01*
X-50987135Y31620439D01*
X-51233170Y31571500D01*
X-51484030Y31571500D01*
X-51730065Y31620439D01*
X-51961827Y31716438D01*
X-52089957Y31802052D01*
X-52170409Y31855808D01*
X-52347792Y32033191D01*
X-52447623Y32182599D01*
X-52487162Y32241773D01*
X-52583161Y32473535D01*
X-52632100Y32719570D01*
X-52632100Y32970430D01*
X-52583161Y33216465D01*
X-52487162Y33448227D01*
X-52347793Y33656807D01*
X-52347792Y33656809D01*
X-52170409Y33834192D01*
X-51990491Y33954409D01*
X-51961827Y33973562D01*
X-51730065Y34069561D01*
X-51484030Y34118500D01*
X-51233170Y34118500D01*
X-50987135Y34069561D01*
G37*
G36*
X-25325009Y32666415D02*
G01*
X-25291031Y32656107D01*
X-25259710Y32639366D01*
X-25232261Y32616839D01*
X-25209734Y32589390D01*
X-25192993Y32558069D01*
X-25182685Y32524091D01*
X-25178600Y32482610D01*
X-25178600Y31881390D01*
X-25182685Y31839909D01*
X-25192993Y31805931D01*
X-25209734Y31774610D01*
X-25232261Y31747161D01*
X-25259710Y31724634D01*
X-25291031Y31707893D01*
X-25325009Y31697585D01*
X-25366490Y31693500D01*
X-26042710Y31693500D01*
X-26084191Y31697585D01*
X-26118169Y31707893D01*
X-26149490Y31724634D01*
X-26176939Y31747161D01*
X-26199466Y31774610D01*
X-26216207Y31805931D01*
X-26226515Y31839909D01*
X-26230600Y31881390D01*
X-26230600Y32482610D01*
X-26226515Y32524091D01*
X-26216207Y32558069D01*
X-26199466Y32589390D01*
X-26176939Y32616839D01*
X-26149490Y32639366D01*
X-26118169Y32656107D01*
X-26084191Y32666415D01*
X-26042710Y32670500D01*
X-25366490Y32670500D01*
X-25325009Y32666415D01*
G37*
G36*
X-13323009Y33033915D02*
G01*
X-13289031Y33023607D01*
X-13257710Y33006866D01*
X-13230261Y32984339D01*
X-13207734Y32956890D01*
X-13190993Y32925569D01*
X-13180685Y32891591D01*
X-13176600Y32850110D01*
X-13176600Y32173890D01*
X-13180685Y32132409D01*
X-13190993Y32098431D01*
X-13207734Y32067110D01*
X-13230261Y32039661D01*
X-13257710Y32017134D01*
X-13289031Y32000393D01*
X-13323009Y31990085D01*
X-13364490Y31986000D01*
X-13965710Y31986000D01*
X-14007191Y31990085D01*
X-14041169Y32000393D01*
X-14072490Y32017134D01*
X-14099939Y32039661D01*
X-14122466Y32067110D01*
X-14139207Y32098431D01*
X-14149515Y32132409D01*
X-14153600Y32173890D01*
X-14153600Y32850110D01*
X-14149515Y32891591D01*
X-14139207Y32925569D01*
X-14122466Y32956890D01*
X-14099939Y32984339D01*
X-14072490Y33006866D01*
X-14041169Y33023607D01*
X-14007191Y33033915D01*
X-13965710Y33038000D01*
X-13364490Y33038000D01*
X-13323009Y33033915D01*
G37*
G36*
X-11748009Y33033915D02*
G01*
X-11714031Y33023607D01*
X-11682710Y33006866D01*
X-11655261Y32984339D01*
X-11632734Y32956890D01*
X-11615993Y32925569D01*
X-11605685Y32891591D01*
X-11601600Y32850110D01*
X-11601600Y32173890D01*
X-11605685Y32132409D01*
X-11615993Y32098431D01*
X-11632734Y32067110D01*
X-11655261Y32039661D01*
X-11682710Y32017134D01*
X-11714031Y32000393D01*
X-11748009Y31990085D01*
X-11789490Y31986000D01*
X-12390710Y31986000D01*
X-12432191Y31990085D01*
X-12466169Y32000393D01*
X-12497490Y32017134D01*
X-12524939Y32039661D01*
X-12547466Y32067110D01*
X-12564207Y32098431D01*
X-12574515Y32132409D01*
X-12578600Y32173890D01*
X-12578600Y32850110D01*
X-12574515Y32891591D01*
X-12564207Y32925569D01*
X-12547466Y32956890D01*
X-12524939Y32984339D01*
X-12497490Y33006866D01*
X-12466169Y33023607D01*
X-12432191Y33033915D01*
X-12390710Y33038000D01*
X-11789490Y33038000D01*
X-11748009Y33033915D01*
G37*
G36*
X-23102009Y34176915D02*
G01*
X-23068031Y34166607D01*
X-23036710Y34149866D01*
X-23009261Y34127339D01*
X-22986734Y34099890D01*
X-22969993Y34068569D01*
X-22959685Y34034591D01*
X-22955600Y33993110D01*
X-22955600Y33316890D01*
X-22959685Y33275409D01*
X-22969993Y33241431D01*
X-22986734Y33210110D01*
X-23009261Y33182661D01*
X-23036710Y33160134D01*
X-23068031Y33143393D01*
X-23102009Y33133085D01*
X-23143490Y33129000D01*
X-23744710Y33129000D01*
X-23786191Y33133085D01*
X-23820169Y33143393D01*
X-23851490Y33160134D01*
X-23878939Y33182661D01*
X-23901466Y33210110D01*
X-23918207Y33241431D01*
X-23928515Y33275409D01*
X-23932600Y33316890D01*
X-23932600Y33993110D01*
X-23928515Y34034591D01*
X-23918207Y34068569D01*
X-23901466Y34099890D01*
X-23878939Y34127339D01*
X-23851490Y34149866D01*
X-23820169Y34166607D01*
X-23786191Y34176915D01*
X-23744710Y34181000D01*
X-23143490Y34181000D01*
X-23102009Y34176915D01*
G37*
G36*
X-21527009Y34176915D02*
G01*
X-21493031Y34166607D01*
X-21461710Y34149866D01*
X-21434261Y34127339D01*
X-21411734Y34099890D01*
X-21394993Y34068569D01*
X-21384685Y34034591D01*
X-21380600Y33993110D01*
X-21380600Y33316890D01*
X-21384685Y33275409D01*
X-21394993Y33241431D01*
X-21411734Y33210110D01*
X-21434261Y33182661D01*
X-21461710Y33160134D01*
X-21493031Y33143393D01*
X-21527009Y33133085D01*
X-21568490Y33129000D01*
X-22169710Y33129000D01*
X-22211191Y33133085D01*
X-22245169Y33143393D01*
X-22276490Y33160134D01*
X-22303939Y33182661D01*
X-22326466Y33210110D01*
X-22343207Y33241431D01*
X-22353515Y33275409D01*
X-22357600Y33316890D01*
X-22357600Y33993110D01*
X-22353515Y34034591D01*
X-22343207Y34068569D01*
X-22326466Y34099890D01*
X-22303939Y34127339D01*
X-22276490Y34149866D01*
X-22245169Y34166607D01*
X-22211191Y34176915D01*
X-22169710Y34181000D01*
X-21568490Y34181000D01*
X-21527009Y34176915D01*
G37*
G36*
X-19864009Y34113915D02*
G01*
X-19830031Y34103607D01*
X-19798710Y34086866D01*
X-19771261Y34064339D01*
X-19748734Y34036890D01*
X-19731993Y34005569D01*
X-19721685Y33971591D01*
X-19717600Y33930110D01*
X-19717600Y33328890D01*
X-19721685Y33287409D01*
X-19731993Y33253431D01*
X-19748734Y33222110D01*
X-19771261Y33194661D01*
X-19798710Y33172134D01*
X-19830031Y33155393D01*
X-19864009Y33145085D01*
X-19905490Y33141000D01*
X-20581710Y33141000D01*
X-20623191Y33145085D01*
X-20657169Y33155393D01*
X-20688490Y33172134D01*
X-20715939Y33194661D01*
X-20738466Y33222110D01*
X-20755207Y33253431D01*
X-20765515Y33287409D01*
X-20769600Y33328890D01*
X-20769600Y33930110D01*
X-20765515Y33971591D01*
X-20755207Y34005569D01*
X-20738466Y34036890D01*
X-20715939Y34064339D01*
X-20688490Y34086866D01*
X-20657169Y34103607D01*
X-20623191Y34113915D01*
X-20581710Y34118000D01*
X-19905490Y34118000D01*
X-19864009Y34113915D01*
G37*
G36*
X-26600009Y34855915D02*
G01*
X-26566031Y34845607D01*
X-26534710Y34828866D01*
X-26507261Y34806339D01*
X-26484734Y34778890D01*
X-26467993Y34747569D01*
X-26457685Y34713591D01*
X-26453600Y34672110D01*
X-26453600Y33995890D01*
X-26457685Y33954409D01*
X-26467993Y33920431D01*
X-26484734Y33889110D01*
X-26507261Y33861661D01*
X-26534710Y33839134D01*
X-26566031Y33822393D01*
X-26600009Y33812085D01*
X-26641490Y33808000D01*
X-27242710Y33808000D01*
X-27284191Y33812085D01*
X-27318169Y33822393D01*
X-27349490Y33839134D01*
X-27376939Y33861661D01*
X-27399466Y33889110D01*
X-27416207Y33920431D01*
X-27426515Y33954409D01*
X-27430600Y33995890D01*
X-27430600Y34672110D01*
X-27426515Y34713591D01*
X-27416207Y34747569D01*
X-27399466Y34778890D01*
X-27376939Y34806339D01*
X-27349490Y34828866D01*
X-27318169Y34845607D01*
X-27284191Y34855915D01*
X-27242710Y34860000D01*
X-26641490Y34860000D01*
X-26600009Y34855915D01*
G37*
G36*
X-25025009Y34855915D02*
G01*
X-24991031Y34845607D01*
X-24959710Y34828866D01*
X-24932261Y34806339D01*
X-24909734Y34778890D01*
X-24892993Y34747569D01*
X-24882685Y34713591D01*
X-24878600Y34672110D01*
X-24878600Y33995890D01*
X-24882685Y33954409D01*
X-24892993Y33920431D01*
X-24909734Y33889110D01*
X-24932261Y33861661D01*
X-24959710Y33839134D01*
X-24991031Y33822393D01*
X-25025009Y33812085D01*
X-25066490Y33808000D01*
X-25667710Y33808000D01*
X-25709191Y33812085D01*
X-25743169Y33822393D01*
X-25774490Y33839134D01*
X-25801939Y33861661D01*
X-25824466Y33889110D01*
X-25841207Y33920431D01*
X-25851515Y33954409D01*
X-25855600Y33995890D01*
X-25855600Y34672110D01*
X-25851515Y34713591D01*
X-25841207Y34747569D01*
X-25824466Y34778890D01*
X-25801939Y34806339D01*
X-25774490Y34828866D01*
X-25743169Y34845607D01*
X-25709191Y34855915D01*
X-25667710Y34860000D01*
X-25066490Y34860000D01*
X-25025009Y34855915D01*
G37*
G36*
X-39784409Y35002915D02*
G01*
X-39750431Y34992607D01*
X-39719110Y34975866D01*
X-39691661Y34953339D01*
X-39669134Y34925890D01*
X-39652393Y34894569D01*
X-39642085Y34860591D01*
X-39638000Y34819110D01*
X-39638000Y34217890D01*
X-39642085Y34176409D01*
X-39652393Y34142431D01*
X-39669134Y34111110D01*
X-39691661Y34083661D01*
X-39719110Y34061134D01*
X-39750431Y34044393D01*
X-39784409Y34034085D01*
X-39825890Y34030000D01*
X-40502110Y34030000D01*
X-40543591Y34034085D01*
X-40577569Y34044393D01*
X-40608890Y34061134D01*
X-40636339Y34083661D01*
X-40658866Y34111110D01*
X-40675607Y34142431D01*
X-40685915Y34176409D01*
X-40690000Y34217890D01*
X-40690000Y34819110D01*
X-40685915Y34860591D01*
X-40675607Y34894569D01*
X-40658866Y34925890D01*
X-40636339Y34953339D01*
X-40608890Y34975866D01*
X-40577569Y34992607D01*
X-40543591Y35002915D01*
X-40502110Y35007000D01*
X-39825890Y35007000D01*
X-39784409Y35002915D01*
G37*
G36*
X-41689409Y35002915D02*
G01*
X-41655431Y34992607D01*
X-41624110Y34975866D01*
X-41596661Y34953339D01*
X-41574134Y34925890D01*
X-41557393Y34894569D01*
X-41547085Y34860591D01*
X-41543000Y34819110D01*
X-41543000Y34217890D01*
X-41547085Y34176409D01*
X-41557393Y34142431D01*
X-41574134Y34111110D01*
X-41596661Y34083661D01*
X-41624110Y34061134D01*
X-41655431Y34044393D01*
X-41689409Y34034085D01*
X-41730890Y34030000D01*
X-42407110Y34030000D01*
X-42448591Y34034085D01*
X-42482569Y34044393D01*
X-42513890Y34061134D01*
X-42541339Y34083661D01*
X-42563866Y34111110D01*
X-42580607Y34142431D01*
X-42590915Y34176409D01*
X-42595000Y34217890D01*
X-42595000Y34819110D01*
X-42590915Y34860591D01*
X-42580607Y34894569D01*
X-42563866Y34925890D01*
X-42541339Y34953339D01*
X-42513890Y34975866D01*
X-42482569Y34992607D01*
X-42448591Y35002915D01*
X-42407110Y35007000D01*
X-41730890Y35007000D01*
X-41689409Y35002915D01*
G37*
G36*
X-19864009Y35688915D02*
G01*
X-19830031Y35678607D01*
X-19798710Y35661866D01*
X-19771261Y35639339D01*
X-19748734Y35611890D01*
X-19731993Y35580569D01*
X-19721685Y35546591D01*
X-19717600Y35505110D01*
X-19717600Y34903890D01*
X-19721685Y34862409D01*
X-19731993Y34828431D01*
X-19748734Y34797110D01*
X-19771261Y34769661D01*
X-19798710Y34747134D01*
X-19830031Y34730393D01*
X-19864009Y34720085D01*
X-19905490Y34716000D01*
X-20581710Y34716000D01*
X-20623191Y34720085D01*
X-20657169Y34730393D01*
X-20688490Y34747134D01*
X-20715939Y34769661D01*
X-20738466Y34797110D01*
X-20755207Y34828431D01*
X-20765515Y34862409D01*
X-20769600Y34903890D01*
X-20769600Y35505110D01*
X-20765515Y35546591D01*
X-20755207Y35580569D01*
X-20738466Y35611890D01*
X-20715939Y35639339D01*
X-20688490Y35661866D01*
X-20657169Y35678607D01*
X-20623191Y35688915D01*
X-20581710Y35693000D01*
X-19905490Y35693000D01*
X-19864009Y35688915D01*
G37*
G36*
X-58885009Y36044415D02*
G01*
X-58851031Y36034107D01*
X-58819710Y36017366D01*
X-58792261Y35994839D01*
X-58769734Y35967390D01*
X-58752993Y35936069D01*
X-58742685Y35902091D01*
X-58738600Y35860610D01*
X-58738600Y35259390D01*
X-58742685Y35217909D01*
X-58752993Y35183931D01*
X-58769734Y35152610D01*
X-58792261Y35125161D01*
X-58819710Y35102634D01*
X-58851031Y35085893D01*
X-58885009Y35075585D01*
X-58926490Y35071500D01*
X-59602710Y35071500D01*
X-59644191Y35075585D01*
X-59678169Y35085893D01*
X-59709490Y35102634D01*
X-59736939Y35125161D01*
X-59759466Y35152610D01*
X-59776207Y35183931D01*
X-59786515Y35217909D01*
X-59790600Y35259390D01*
X-59790600Y35860610D01*
X-59786515Y35902091D01*
X-59776207Y35936069D01*
X-59759466Y35967390D01*
X-59736939Y35994839D01*
X-59709490Y36017366D01*
X-59678169Y36034107D01*
X-59644191Y36044415D01*
X-59602710Y36048500D01*
X-58926490Y36048500D01*
X-58885009Y36044415D01*
G37*
G36*
X-56726009Y36044415D02*
G01*
X-56692031Y36034107D01*
X-56660710Y36017366D01*
X-56633261Y35994839D01*
X-56610734Y35967390D01*
X-56593993Y35936069D01*
X-56583685Y35902091D01*
X-56579600Y35860610D01*
X-56579600Y35259390D01*
X-56583685Y35217909D01*
X-56593993Y35183931D01*
X-56610734Y35152610D01*
X-56633261Y35125161D01*
X-56660710Y35102634D01*
X-56692031Y35085893D01*
X-56726009Y35075585D01*
X-56767490Y35071500D01*
X-57443710Y35071500D01*
X-57485191Y35075585D01*
X-57519169Y35085893D01*
X-57550490Y35102634D01*
X-57577939Y35125161D01*
X-57600466Y35152610D01*
X-57617207Y35183931D01*
X-57627515Y35217909D01*
X-57631600Y35259390D01*
X-57631600Y35860610D01*
X-57627515Y35902091D01*
X-57617207Y35936069D01*
X-57600466Y35967390D01*
X-57577939Y35994839D01*
X-57550490Y36017366D01*
X-57519169Y36034107D01*
X-57485191Y36044415D01*
X-57443710Y36048500D01*
X-56767490Y36048500D01*
X-56726009Y36044415D01*
G37*
G36*
X-39784409Y36577915D02*
G01*
X-39750431Y36567607D01*
X-39719110Y36550866D01*
X-39691661Y36528339D01*
X-39669134Y36500890D01*
X-39652393Y36469569D01*
X-39642085Y36435591D01*
X-39638000Y36394110D01*
X-39638000Y35792890D01*
X-39642085Y35751409D01*
X-39652393Y35717431D01*
X-39669134Y35686110D01*
X-39691661Y35658661D01*
X-39719110Y35636134D01*
X-39750431Y35619393D01*
X-39784409Y35609085D01*
X-39825890Y35605000D01*
X-40502110Y35605000D01*
X-40543591Y35609085D01*
X-40577569Y35619393D01*
X-40608890Y35636134D01*
X-40636339Y35658661D01*
X-40658866Y35686110D01*
X-40675607Y35717431D01*
X-40685915Y35751409D01*
X-40690000Y35792890D01*
X-40690000Y36394110D01*
X-40685915Y36435591D01*
X-40675607Y36469569D01*
X-40658866Y36500890D01*
X-40636339Y36528339D01*
X-40608890Y36550866D01*
X-40577569Y36567607D01*
X-40543591Y36577915D01*
X-40502110Y36582000D01*
X-39825890Y36582000D01*
X-39784409Y36577915D01*
G37*
G36*
X-41689409Y36577915D02*
G01*
X-41655431Y36567607D01*
X-41624110Y36550866D01*
X-41596661Y36528339D01*
X-41574134Y36500890D01*
X-41557393Y36469569D01*
X-41547085Y36435591D01*
X-41543000Y36394110D01*
X-41543000Y35792890D01*
X-41547085Y35751409D01*
X-41557393Y35717431D01*
X-41574134Y35686110D01*
X-41596661Y35658661D01*
X-41624110Y35636134D01*
X-41655431Y35619393D01*
X-41689409Y35609085D01*
X-41730890Y35605000D01*
X-42407110Y35605000D01*
X-42448591Y35609085D01*
X-42482569Y35619393D01*
X-42513890Y35636134D01*
X-42541339Y35658661D01*
X-42563866Y35686110D01*
X-42580607Y35717431D01*
X-42590915Y35751409D01*
X-42595000Y35792890D01*
X-42595000Y36394110D01*
X-42590915Y36435591D01*
X-42580607Y36469569D01*
X-42563866Y36500890D01*
X-42541339Y36528339D01*
X-42513890Y36550866D01*
X-42482569Y36567607D01*
X-42448591Y36577915D01*
X-42407110Y36582000D01*
X-41730890Y36582000D01*
X-41689409Y36577915D01*
G37*
G36*
X-56726009Y37619415D02*
G01*
X-56692031Y37609107D01*
X-56660710Y37592366D01*
X-56633261Y37569839D01*
X-56610734Y37542390D01*
X-56593993Y37511069D01*
X-56583685Y37477091D01*
X-56579600Y37435610D01*
X-56579600Y36834390D01*
X-56583685Y36792909D01*
X-56593993Y36758931D01*
X-56610734Y36727610D01*
X-56633261Y36700161D01*
X-56660710Y36677634D01*
X-56692031Y36660893D01*
X-56726009Y36650585D01*
X-56767490Y36646500D01*
X-57443710Y36646500D01*
X-57485191Y36650585D01*
X-57519169Y36660893D01*
X-57550490Y36677634D01*
X-57577939Y36700161D01*
X-57600466Y36727610D01*
X-57617207Y36758931D01*
X-57627515Y36792909D01*
X-57631600Y36834390D01*
X-57631600Y37435610D01*
X-57627515Y37477091D01*
X-57617207Y37511069D01*
X-57600466Y37542390D01*
X-57577939Y37569839D01*
X-57550490Y37592366D01*
X-57519169Y37609107D01*
X-57485191Y37619415D01*
X-57443710Y37623500D01*
X-56767490Y37623500D01*
X-56726009Y37619415D01*
G37*
G36*
X-58885009Y37619415D02*
G01*
X-58851031Y37609107D01*
X-58819710Y37592366D01*
X-58792261Y37569839D01*
X-58769734Y37542390D01*
X-58752993Y37511069D01*
X-58742685Y37477091D01*
X-58738600Y37435610D01*
X-58738600Y36834390D01*
X-58742685Y36792909D01*
X-58752993Y36758931D01*
X-58769734Y36727610D01*
X-58792261Y36700161D01*
X-58819710Y36677634D01*
X-58851031Y36660893D01*
X-58885009Y36650585D01*
X-58926490Y36646500D01*
X-59602710Y36646500D01*
X-59644191Y36650585D01*
X-59678169Y36660893D01*
X-59709490Y36677634D01*
X-59736939Y36700161D01*
X-59759466Y36727610D01*
X-59776207Y36758931D01*
X-59786515Y36792909D01*
X-59790600Y36834390D01*
X-59790600Y37435610D01*
X-59786515Y37477091D01*
X-59776207Y37511069D01*
X-59759466Y37542390D01*
X-59736939Y37569839D01*
X-59709490Y37592366D01*
X-59678169Y37609107D01*
X-59644191Y37619415D01*
X-59602710Y37623500D01*
X-58926490Y37623500D01*
X-58885009Y37619415D01*
G37*
G36*
X-59024744Y47208702D02*
G01*
X-58918421Y47187553D01*
X-58617958Y47063097D01*
X-58347549Y46882415D01*
X-58117585Y46652451D01*
X-57936903Y46382042D01*
X-57812447Y46081579D01*
X-57749000Y45762609D01*
X-57749000Y45437391D01*
X-57812447Y45118421D01*
X-57936903Y44817958D01*
X-58117585Y44547549D01*
X-58347549Y44317585D01*
X-58617958Y44136903D01*
X-58918421Y44012447D01*
X-59024744Y43991298D01*
X-59237389Y43949000D01*
X-59562611Y43949000D01*
X-59775256Y43991298D01*
X-59881579Y44012447D01*
X-60182042Y44136903D01*
X-60452451Y44317585D01*
X-60682415Y44547549D01*
X-60863097Y44817958D01*
X-60987553Y45118421D01*
X-61051000Y45437391D01*
X-61051000Y45762609D01*
X-60987553Y46081579D01*
X-60863097Y46382042D01*
X-60682415Y46652451D01*
X-60452451Y46882415D01*
X-60182042Y47063097D01*
X-59881579Y47187553D01*
X-59775256Y47208702D01*
X-59562611Y47251000D01*
X-59237389Y47251000D01*
X-59024744Y47208702D01*
G37*
M02*
